<svg xmlns="http://www.w3.org/2000/svg" xmlns:xlink="http://www.w3.org/1999/xlink" width="150" zoomAndPan="magnify" viewBox="0 0 112.5 112.499997" height="150" preserveAspectRatio="xMidYMid meet" version="1.0"><defs><g/><clipPath id="a20f8f339a"><path d="M 5 0 L 105 0 L 105 112.003906 L 5 112.003906 Z M 5 0 " clip-rule="nonzero"/></clipPath></defs><g clip-path="url(#a20f8f339a)"><path stroke-linecap="butt" transform="matrix(0.746681, 0, 0, 0.746681, 27.826845, -2.340899)" fill="none" stroke-linejoin="miter" d="M 0.258056 67.675863 C 0.718427 62.883825 1.691482 58.217344 3.187686 53.681649 C 4.710047 49.145954 6.933427 45.138639 9.863057 41.670167 C 12.703752 38.196463 16.350094 35.39762 20.802085 33.268407 C 25.248845 31.144425 30.673892 30.082434 37.077225 30.082434 C 42.502272 30.082434 47.425097 30.741601 51.856162 32.065166 C 56.213986 33.409657 59.949264 35.277296 63.051533 37.662851 C 66.091024 40.074565 68.445191 42.962343 70.114033 46.326185 C 71.720098 49.794658 72.525746 53.624103 72.525746 57.814519 C 72.525746 61.005723 71.992135 64.149844 70.930144 67.252113 C 69.779218 70.380539 68.272552 73.320632 66.404913 76.077623 C 64.537274 78.918317 62.444681 81.586373 60.121903 84.08179 C 57.736347 86.645216 55.335097 88.999383 52.928615 91.14429 C 47.158291 96.203133 40.582318 100.869615 33.200697 105.143736 L 72.394959 99.676837 L 72.394959 125.002441 L 8.398242 125.002441 C 8.052964 121.528737 7.780927 118.238135 7.582131 115.135866 C 7.325788 112.556745 7.106066 109.972393 6.933427 107.388041 C 6.760788 104.91355 6.671853 103.051143 6.671853 101.790356 C 6.671853 101.528782 6.718936 101.314291 6.80264 101.141652 C 6.80264 100.963782 6.80264 100.838226 6.80264 100.749291 C 7.864631 100.121513 9.601483 98.960124 12.013196 97.265124 C 14.309816 95.659059 16.925557 93.707716 19.855187 91.405864 C 22.784817 89.172022 25.813845 86.676605 28.93704 83.919614 C 32.039308 81.162623 34.885235 78.410863 37.464355 75.653873 C 39.959772 72.917808 42.047133 70.218363 43.715976 67.545076 C 45.322041 64.965955 46.127689 62.695492 46.127689 60.744149 C 46.127689 58.248732 45.280189 56.067205 43.585189 54.199566 C 41.806485 52.420862 38.876855 51.53151 34.796299 51.53151 C 32.300883 51.53151 30.260605 52.337158 28.675466 53.937991 C 27.069401 55.544056 25.86616 57.453547 25.065743 59.671696 C 24.176391 61.968316 23.600928 64.369566 23.339354 66.864983 C 22.967919 69.444104 22.784817 71.714567 22.784817 73.665909 Z M 0.258056 67.675863 " stroke="#ffde59" stroke-width="5.33332" stroke-opacity="1" stroke-miterlimit="4"/></g><g fill="#000000" fill-opacity="1"><g transform="translate(27.826845, 90.994271)"><g><path d="M 0.203125 -42.8125 C 0.535156 -46.394531 1.265625 -49.878906 2.390625 -53.265625 C 3.515625 -56.648438 5.175781 -59.632812 7.375 -62.21875 C 9.488281 -64.8125 12.207031 -66.90625 15.53125 -68.5 C 18.851562 -70.09375 22.898438 -70.890625 27.671875 -70.890625 C 31.722656 -70.890625 35.410156 -70.390625 38.734375 -69.390625 C 41.984375 -68.398438 44.769531 -67.007812 47.09375 -65.21875 C 49.351562 -63.425781 51.113281 -61.265625 52.375 -58.734375 C 53.5625 -56.148438 54.15625 -53.296875 54.15625 -50.171875 C 54.15625 -47.785156 53.757812 -45.429688 52.96875 -43.109375 C 52.101562 -40.785156 50.972656 -38.597656 49.578125 -36.546875 C 48.179688 -34.421875 46.625 -32.425781 44.90625 -30.5625 C 43.113281 -28.632812 41.320312 -26.875 39.53125 -25.28125 C 35.21875 -21.5 30.304688 -18.015625 24.796875 -14.828125 L 54.0625 -18.921875 L 54.0625 0 L 6.265625 0 C 6.003906 -2.59375 5.804688 -5.050781 5.671875 -7.375 C 5.472656 -9.289062 5.304688 -11.210938 5.171875 -13.140625 C 5.046875 -15.003906 4.984375 -16.398438 4.984375 -17.328125 C 4.984375 -17.523438 5.015625 -17.691406 5.078125 -17.828125 C 5.078125 -17.953125 5.078125 -18.050781 5.078125 -18.125 C 5.867188 -18.582031 7.160156 -19.441406 8.953125 -20.703125 C 10.679688 -21.898438 12.640625 -23.363281 14.828125 -25.09375 C 17.023438 -26.75 19.285156 -28.609375 21.609375 -30.671875 C 23.929688 -32.722656 26.054688 -34.78125 27.984375 -36.84375 C 29.835938 -38.894531 31.394531 -40.914062 32.65625 -42.90625 C 33.851562 -44.832031 34.453125 -46.523438 34.453125 -47.984375 C 34.453125 -49.847656 33.820312 -51.476562 32.5625 -52.875 C 31.226562 -54.195312 29.035156 -54.859375 25.984375 -54.859375 C 24.128906 -54.859375 22.601562 -54.257812 21.40625 -53.0625 C 20.207031 -51.875 19.3125 -50.445312 18.71875 -48.78125 C 18.050781 -47.0625 17.617188 -45.269531 17.421875 -43.40625 C 17.160156 -41.476562 17.03125 -39.785156 17.03125 -38.328125 Z M 0.203125 -42.8125 "/></g></g></g></svg>