<svg xmlns="http://www.w3.org/2000/svg" xmlns:xlink="http://www.w3.org/1999/xlink" width="150" zoomAndPan="magnify" viewBox="0 0 112.5 112.499997" height="150" preserveAspectRatio="xMidYMid meet" version="1.0"><defs><g/><clipPath id="78bb5161b5"><path d="M 9 0 L 105 0 L 105 112.003906 L 9 112.003906 Z M 9 0 " clip-rule="nonzero"/></clipPath></defs><g clip-path="url(#78bb5161b5)"><path stroke-linecap="butt" transform="matrix(0.746681, 0, 0, 0.746681, 29.219094, -2.340899)" fill="none" stroke-linejoin="miter" d="M 3.876067 33.268407 C 5.911113 32.556925 8.929678 31.840212 12.921299 31.123499 C 16.850142 30.427712 22.144401 30.082434 28.809309 30.082434 C 34.406995 30.082434 39.476301 30.657897 44.006764 31.803592 C 48.437829 32.954518 52.256811 34.55012 55.468941 36.590398 C 58.654913 38.651602 61.098015 41.147018 62.793015 44.076648 C 64.482784 47.006278 65.330284 50.207945 65.330284 53.681649 C 65.330284 56.956556 64.482784 59.886186 62.793015 62.470538 C 61.098015 65.138594 59.188524 67.361974 57.064543 69.140678 C 54.93533 71.008317 52.936904 72.43128 51.074496 73.404335 C 49.206857 74.382622 48.08732 74.916234 47.721116 74.999937 C 50.043894 75.43415 52.539311 76.009613 55.207367 76.726326 C 57.875422 77.443039 60.360376 78.604428 62.662228 80.210493 C 64.896071 81.900262 66.76371 84.212577 68.259914 87.142207 C 69.777044 90.160772 70.54084 94.194244 70.54084 99.253087 C 70.54084 104.327625 69.290516 108.606977 66.795099 112.075449 C 64.210747 115.528227 60.883524 118.32707 56.802969 120.477209 C 52.701487 122.601191 48.12394 124.107857 43.065097 125.002441 C 38.011486 125.975496 32.984032 126.467256 27.993198 126.467256 C 23.195929 126.467256 18.707318 126.106283 14.516901 125.38957 C 10.263706 124.693783 6.716761 123.720728 3.876067 122.459941 L 3.876067 101.659569 C 6.716761 103.527208 10.002132 104.950171 13.73741 105.923226 C 17.383753 106.901514 20.983012 107.388041 24.545652 107.388041 C 26.842272 107.388041 29.013337 107.173551 31.053615 106.739338 C 33.114819 106.284199 34.940606 105.567486 36.520514 104.589199 C 38.042875 103.616143 39.246116 102.376282 40.135467 100.880078 C 41.024819 99.446652 41.469495 97.667948 41.469495 95.538735 C 41.469495 93.132253 40.894032 91.180911 39.743106 89.679475 C 38.571254 88.162346 37.095977 87.000957 35.317273 86.20054 C 33.449634 85.394892 31.456439 84.819429 29.327226 84.474151 C 27.203244 84.212577 25.121115 84.08179 23.080837 84.08179 L 21.061485 84.08179 C 20.172133 84.08179 19.282781 84.08179 18.393429 84.08179 C 17.415142 84.170725 16.52579 84.212577 15.720142 84.212577 C 14.83079 84.301512 14.213475 84.343364 13.868197 84.343364 L 15.202225 67.414289 C 18.215559 67.414289 21.019633 67.231187 23.598753 66.864983 C 26.183105 66.514474 28.406485 65.939011 30.274124 65.138594 C 32.136532 64.421881 33.601347 63.401742 34.668569 62.078177 C 35.73056 60.81739 36.264171 59.211325 36.264171 57.259982 C 36.264171 56.37063 36.175236 55.481279 36.002597 54.591927 C 35.741023 53.702575 35.207412 52.855075 34.406995 52.054658 C 33.601347 51.358871 32.445189 50.783408 30.922828 50.328269 C 29.337689 49.894056 27.213707 49.674334 24.545652 49.674334 C 20.182596 49.674334 16.180512 50.29688 12.534169 51.53151 C 8.887826 52.876001 6.000048 54.126325 3.876067 55.277251 Z M 3.876067 33.268407 " stroke="#ffde59" stroke-width="5.33332" stroke-opacity="1" stroke-miterlimit="4"/></g><g fill="#000000" fill-opacity="1"><g transform="translate(29.219094, 90.994271)"><g><path d="M 2.890625 -68.5 C 4.410156 -69.03125 6.664062 -69.5625 9.65625 -70.09375 C 12.570312 -70.625 16.519531 -70.890625 21.5 -70.890625 C 25.6875 -70.890625 29.472656 -70.457031 32.859375 -69.59375 C 36.171875 -68.726562 39.023438 -67.535156 41.421875 -66.015625 C 43.804688 -64.484375 45.628906 -62.625 46.890625 -60.4375 C 48.148438 -58.25 48.78125 -55.859375 48.78125 -53.265625 C 48.78125 -50.804688 48.148438 -48.613281 46.890625 -46.6875 C 45.628906 -44.695312 44.203125 -43.039062 42.609375 -41.71875 C 41.015625 -40.320312 39.519531 -39.257812 38.125 -38.53125 C 36.738281 -37.800781 35.910156 -37.398438 35.640625 -37.328125 C 37.367188 -37.003906 39.226562 -36.578125 41.21875 -36.046875 C 43.207031 -35.515625 45.066406 -34.648438 46.796875 -33.453125 C 48.453125 -32.191406 49.84375 -30.46875 50.96875 -28.28125 C 52.101562 -26.019531 52.671875 -23 52.671875 -19.21875 C 52.671875 -15.4375 51.738281 -12.25 49.875 -9.65625 C 47.957031 -7.070312 45.46875 -4.984375 42.40625 -3.390625 C 39.351562 -1.796875 35.9375 -0.664062 32.15625 0 C 28.375 0.726562 24.625 1.09375 20.90625 1.09375 C 17.320312 1.09375 13.972656 0.828125 10.859375 0.296875 C 7.671875 -0.234375 5.015625 -0.960938 2.890625 -1.890625 L 2.890625 -17.421875 C 5.015625 -16.023438 7.46875 -14.960938 10.25 -14.234375 C 12.976562 -13.503906 15.664062 -13.140625 18.3125 -13.140625 C 20.039062 -13.140625 21.671875 -13.304688 23.203125 -13.640625 C 24.722656 -13.972656 26.082031 -14.503906 27.28125 -15.234375 C 28.40625 -15.960938 29.300781 -16.890625 29.96875 -18.015625 C 30.632812 -19.078125 30.96875 -20.40625 30.96875 -22 C 30.96875 -23.789062 30.535156 -25.253906 29.671875 -26.390625 C 28.804688 -27.515625 27.710938 -28.375 26.390625 -28.96875 C 24.992188 -29.570312 23.5 -30.003906 21.90625 -30.265625 C 20.3125 -30.460938 18.75 -30.5625 17.21875 -30.5625 L 15.734375 -30.5625 C 15.066406 -30.5625 14.398438 -30.5625 13.734375 -30.5625 C 13.003906 -30.5 12.34375 -30.46875 11.75 -30.46875 C 11.082031 -30.394531 10.617188 -30.359375 10.359375 -30.359375 L 11.34375 -43.015625 C 13.601562 -43.015625 15.695312 -43.144531 17.625 -43.40625 C 19.550781 -43.675781 21.207031 -44.109375 22.59375 -44.703125 C 23.988281 -45.234375 25.085938 -46 25.890625 -47 C 26.679688 -47.925781 27.078125 -49.117188 27.078125 -50.578125 C 27.078125 -51.242188 27.007812 -51.90625 26.875 -52.5625 C 26.675781 -53.226562 26.28125 -53.859375 25.6875 -54.453125 C 25.09375 -54.984375 24.226562 -55.414062 23.09375 -55.75 C 21.90625 -56.082031 20.3125 -56.25 18.3125 -56.25 C 15.0625 -56.25 12.078125 -55.785156 9.359375 -54.859375 C 6.640625 -53.859375 4.484375 -52.929688 2.890625 -52.078125 Z M 2.890625 -68.5 "/></g></g></g></svg>