<svg xmlns="http://www.w3.org/2000/svg" xmlns:xlink="http://www.w3.org/1999/xlink" width="150" zoomAndPan="magnify" viewBox="0 0 112.5 112.499997" height="150" preserveAspectRatio="xMidYMid meet" version="1.0"><defs><g/><clipPath id="0bcdb4ba76"><path d="M 2 0 L 109 0 L 109 112.003906 L 2 112.003906 Z M 2 0 " clip-rule="nonzero"/></clipPath></defs><g clip-path="url(#0bcdb4ba76)"><path stroke-linecap="butt" transform="matrix(0.746681, 0, 0, 0.746681, 25.783842, -2.340899)" fill="none" stroke-linejoin="miter" d="M 41.340929 125.002441 C 41.424633 123.045867 41.471716 120.822487 41.471716 118.32707 C 41.55542 116.197857 41.644355 113.671051 41.73329 110.741421 C 41.73329 107.811791 41.775142 104.526421 41.858846 100.880078 L -1.075926 99.1223 L 21.450835 35.387157 C 24.317687 36.470074 27.126993 37.547759 29.883984 38.60975 C 32.180604 39.499102 34.623707 40.388453 37.208059 41.277805 C 39.682549 42.167157 41.806531 42.962343 43.585235 43.652898 C 43.67417 40.550629 43.768337 37.934888 43.878198 35.810907 C 43.878198 33.660768 43.878198 32.541231 43.878198 32.457527 L 45.05005 32.32674 C 45.855698 32.32674 46.928152 32.284888 48.272643 32.195953 C 49.512504 32.195953 50.977319 32.195953 52.667087 32.195953 L 57.746856 32.195953 C 61.827412 32.107018 66.446811 32.065166 71.610283 32.065166 L 69.852505 78.191141 L 80.273617 78.191141 L 80.273617 102.47568 L 69.203801 102.05193 L 69.073014 102.47568 L 68.262135 125.002441 Z M 43.323661 78.452715 L 42.936531 54.88489 C 41.958244 57.359381 40.896253 59.975121 39.745327 62.726881 C 38.48454 65.572807 37.370234 68.157159 36.391947 70.474706 C 35.329957 73.147993 34.220882 75.805586 33.069956 78.452715 Z M 43.323661 78.452715 " stroke="#ffde59" stroke-width="5.33332" stroke-opacity="1" stroke-miterlimit="4"/></g><g fill="#000000" fill-opacity="1"><g transform="translate(25.783842, 90.994271)"><g><path d="M 30.859375 0 C 30.929688 -1.457031 30.96875 -3.117188 30.96875 -4.984375 C 31.03125 -6.578125 31.09375 -8.46875 31.15625 -10.65625 C 31.15625 -12.84375 31.191406 -15.296875 31.265625 -18.015625 L -0.796875 -19.3125 L 16.03125 -66.90625 C 18.15625 -66.113281 20.242188 -65.316406 22.296875 -64.515625 C 24.023438 -63.847656 25.851562 -63.1875 27.78125 -62.53125 C 29.632812 -61.863281 31.226562 -61.265625 32.5625 -60.734375 C 32.625 -63.054688 32.6875 -65.015625 32.75 -66.609375 C 32.75 -68.203125 32.75 -69.03125 32.75 -69.09375 L 33.65625 -69.203125 C 34.25 -69.203125 35.046875 -69.234375 36.046875 -69.296875 C 36.972656 -69.296875 38.066406 -69.296875 39.328125 -69.296875 L 43.109375 -69.296875 C 46.160156 -69.359375 49.613281 -69.390625 53.46875 -69.390625 L 52.171875 -34.953125 L 59.9375 -34.953125 L 59.9375 -16.828125 L 51.671875 -17.125 L 51.578125 -16.828125 L 50.96875 0 Z M 32.359375 -34.75 L 32.0625 -52.375 C 31.332031 -50.507812 30.535156 -48.550781 29.671875 -46.5 C 28.742188 -44.375 27.914062 -42.445312 27.1875 -40.71875 C 26.382812 -38.726562 25.550781 -36.738281 24.6875 -34.75 Z M 32.359375 -34.75 "/></g></g></g></svg>