<svg xmlns="http://www.w3.org/2000/svg" xmlns:xlink="http://www.w3.org/1999/xlink" width="150" zoomAndPan="magnify" viewBox="0 0 112.5 112.499997" height="150" preserveAspectRatio="xMidYMid meet" version="1.0"><defs><g/><clipPath id="2eedbf1ef2"><path d="M 5 0 L 106 0 L 106 112.003906 L 5 112.003906 Z M 5 0 " clip-rule="nonzero"/></clipPath></defs><g clip-path="url(#2eedbf1ef2)"><path stroke-linecap="butt" transform="matrix(0.746681, 0, 0, 0.746681, 27.427579, -2.340899)" fill="none" stroke-linejoin="miter" d="M 16.665094 88.999383 C 17.298103 91.929013 18.401946 94.555216 19.987085 96.877994 C 21.420511 98.913041 23.471252 100.738828 26.139308 102.344893 C 28.72366 104.034662 32.270604 104.882162 36.785373 104.882162 C 39.28079 104.688597 41.331531 104.243921 42.937596 103.548134 C 44.454726 102.920356 45.657966 102.114708 46.547318 101.141652 C 47.332041 100.2523 47.86042 99.274013 48.14292 98.212022 C 48.404494 97.1448 48.535281 96.072346 48.535281 94.989429 C 48.535281 92.3423 48.174309 90.124151 47.457596 88.345447 C 46.746115 86.655679 45.809679 85.274568 44.658753 84.212577 C 43.424124 83.23429 42.001161 82.522808 40.395096 82.062438 C 38.705327 81.633456 36.968475 81.413734 35.189771 81.413734 C 32.260141 81.413734 29.283428 81.806095 26.270095 82.585586 C 23.167826 83.391234 20.452687 84.191651 18.129909 84.992068 L 4.392038 78.876465 C 5.197686 70.694428 5.914399 63.270955 6.542177 56.611279 C 6.803751 53.765353 7.065325 50.96651 7.321668 48.209519 C 7.499538 45.457759 7.68264 42.962343 7.876205 40.723268 C 8.048843 38.510352 8.226714 36.642712 8.399353 35.125583 C 8.483056 33.629379 8.53014 32.692944 8.53014 32.32674 L 11.198196 32.32674 C 12.887964 32.32674 15.200279 32.284888 18.129909 32.195953 C 20.975835 32.195953 24.261206 32.154101 27.996484 32.065166 C 31.72653 32.065166 35.50366 32.023314 39.322642 31.934379 C 48.394031 31.850675 58.710514 31.76174 70.27732 31.678036 L 69.204866 56.056742 L 31.475419 54.591927 L 31.344632 63.673779 C 32.584493 63.673779 33.866206 63.631927 35.189771 63.542992 C 36.445327 63.542992 37.695651 63.542992 38.930281 63.542992 C 44.705837 63.542992 49.811763 63.945816 54.263754 64.746233 C 58.710514 65.635585 62.487644 67.231187 65.589912 69.533039 C 68.608477 71.93952 70.920792 75.230123 72.521626 79.394382 C 74.127691 83.584799 74.933339 89.009846 74.933339 95.669522 C 74.933339 95.758457 74.891487 96.605957 74.802552 98.212022 C 74.629913 99.901791 74.143385 101.942069 73.337737 104.327625 C 72.53732 106.823041 71.286996 109.449245 69.597227 112.206236 C 67.902227 114.963227 65.506209 117.490033 62.398708 119.791885 C 59.558014 121.832163 56.141856 123.48008 52.145004 124.740867 C 48.132457 125.975496 43.193938 126.592811 37.334679 126.592811 C 32.71528 126.592811 28.666113 126.148135 25.192409 125.258783 C 21.723937 124.458367 18.705372 123.396376 16.147177 122.072811 C 13.562825 120.723089 11.381297 119.216422 9.602594 117.547579 C 7.82389 115.852579 6.400927 114.115727 5.338936 112.337023 C 2.67088 108.151838 1.206065 103.396421 0.944491 98.081235 Z M 16.665094 88.999383 " stroke="#ffde59" stroke-width="5.33332" stroke-opacity="1" stroke-miterlimit="4"/></g><g fill="#000000" fill-opacity="1"><g transform="translate(27.427579, 90.994271)"><g><path d="M 12.4375 -26.875 C 12.90625 -24.6875 13.738281 -22.726562 14.9375 -21 C 16 -19.476562 17.523438 -18.117188 19.515625 -16.921875 C 21.441406 -15.660156 24.097656 -15.03125 27.484375 -15.03125 C 29.335938 -15.164062 30.863281 -15.5 32.0625 -16.03125 C 33.1875 -16.488281 34.082031 -17.085938 34.75 -17.828125 C 35.34375 -18.484375 35.738281 -19.210938 35.9375 -20.015625 C 36.132812 -20.804688 36.234375 -21.601562 36.234375 -22.40625 C 36.234375 -24.394531 35.96875 -26.050781 35.4375 -27.375 C 34.90625 -28.632812 34.210938 -29.664062 33.359375 -30.46875 C 32.421875 -31.195312 31.359375 -31.726562 30.171875 -32.0625 C 28.910156 -32.394531 27.613281 -32.5625 26.28125 -32.5625 C 24.09375 -32.5625 21.867188 -32.257812 19.609375 -31.65625 C 17.285156 -31.0625 15.265625 -30.46875 13.546875 -29.875 L 3.28125 -34.453125 C 3.882812 -40.554688 4.414062 -46.097656 4.875 -51.078125 C 5.070312 -53.203125 5.269531 -55.289062 5.46875 -57.34375 C 5.601562 -59.40625 5.738281 -61.265625 5.875 -62.921875 C 6.007812 -64.578125 6.140625 -65.972656 6.265625 -67.109375 C 6.335938 -68.234375 6.375 -68.929688 6.375 -69.203125 L 8.359375 -69.203125 C 9.617188 -69.203125 11.347656 -69.234375 13.546875 -69.296875 C 15.660156 -69.296875 18.113281 -69.328125 20.90625 -69.390625 C 23.695312 -69.390625 26.519531 -69.425781 29.375 -69.5 C 36.144531 -69.5625 43.84375 -69.625 52.46875 -69.6875 L 51.671875 -51.46875 L 23.5 -52.5625 L 23.390625 -45.796875 C 24.328125 -45.796875 25.289062 -45.828125 26.28125 -45.890625 C 27.207031 -45.890625 28.140625 -45.890625 29.078125 -45.890625 C 33.390625 -45.890625 37.203125 -45.59375 40.515625 -45 C 43.835938 -44.332031 46.660156 -43.140625 48.984375 -41.421875 C 51.242188 -39.628906 52.96875 -37.171875 54.15625 -34.046875 C 55.351562 -30.929688 55.953125 -26.882812 55.953125 -21.90625 C 55.953125 -21.832031 55.921875 -21.203125 55.859375 -20.015625 C 55.722656 -18.753906 55.359375 -17.226562 54.765625 -15.4375 C 54.160156 -13.570312 53.226562 -11.613281 51.96875 -9.5625 C 50.707031 -7.5 48.914062 -5.609375 46.59375 -3.890625 C 44.46875 -2.359375 41.910156 -1.128906 38.921875 -0.203125 C 35.941406 0.722656 32.257812 1.1875 27.875 1.1875 C 24.425781 1.1875 21.40625 0.859375 18.8125 0.203125 C 16.226562 -0.398438 13.972656 -1.195312 12.046875 -2.1875 C 10.117188 -3.1875 8.492188 -4.316406 7.171875 -5.578125 C 5.835938 -6.835938 4.773438 -8.128906 3.984375 -9.453125 C 1.992188 -12.578125 0.898438 -16.128906 0.703125 -20.109375 Z M 12.4375 -26.875 "/></g></g></g></svg>