<svg xmlns="http://www.w3.org/2000/svg" xmlns:xlink="http://www.w3.org/1999/xlink" width="150" zoomAndPan="magnify" viewBox="0 0 112.5 112.499997" height="150" preserveAspectRatio="xMidYMid meet" version="1.0"><defs><g/><clipPath id="3af11e795d"><path d="M 6 0 L 109 0 L 109 112.003906 L 6 112.003906 Z M 6 0 " clip-rule="nonzero"/></clipPath></defs><g clip-path="url(#3af11e795d)"><path stroke-linecap="butt" transform="matrix(0.746681, 0, 0, 0.746681, 26.680897, -2.340899)" fill="none" stroke-linejoin="miter" d="M 42.415235 126.723598 C 35.729401 126.723598 29.948613 125.431422 25.062409 122.852302 C 20.181437 120.377811 16.13227 117.003505 12.925372 112.729384 C 9.734168 108.559893 7.332917 103.767856 5.726853 98.342809 C 4.120788 92.917763 3.320371 87.314846 3.320371 81.544521 C 3.320371 75.230123 4.251575 68.999428 6.119214 62.857668 C 7.986853 56.742066 10.743844 51.228084 14.390186 46.326185 C 17.947594 41.439981 22.394354 37.490213 27.735697 34.476879 C 33.071808 31.547249 39.203105 30.082434 46.124355 30.082434 C 50.832689 30.082434 54.881856 30.255073 58.266625 30.600351 C 61.651393 31.05549 64.49732 31.547249 66.79394 32.065166 C 69.378292 32.692944 71.601672 33.367805 73.469311 34.084518 L 73.469311 59.671696 C 72.12482 58.52077 70.387968 57.453547 68.258755 56.480492 C 66.396347 55.674843 63.953245 54.916279 60.93468 54.199566 C 57.921347 53.571788 54.186069 53.257899 49.739309 53.257899 C 45.637827 53.257899 42.305374 54.058316 39.747179 55.66438 C 37.162827 57.359381 35.201021 59.179936 33.851299 61.13651 C 32.44403 63.176788 31.507595 65.086279 31.052456 66.864983 C 30.534539 68.643687 30.272965 69.705678 30.272965 70.050956 C 30.361901 69.878317 30.759493 69.302854 31.476206 68.329798 C 32.171993 67.440446 33.322919 66.504011 34.928984 65.530955 C 36.535049 64.552668 38.669494 63.663316 41.337549 62.857668 C 44.010837 62.057251 47.385142 61.654427 51.465698 61.654427 C 55.541023 61.654427 59.276301 62.37114 62.661069 63.804566 C 66.045838 65.211835 68.975468 67.121326 71.449959 69.533039 C 73.856441 72.028456 75.72408 74.958085 77.047644 78.321928 C 78.392135 81.795632 79.066996 85.525679 79.066996 89.517299 C 79.066996 93.535077 78.392135 97.7098 77.047644 102.05193 C 75.72408 106.414986 73.600098 110.417069 70.670468 114.063412 C 67.740838 117.793459 63.963708 120.822487 59.339078 123.145265 C 54.630745 125.53082 48.991207 126.723598 42.415235 126.723598 Z M 45.051902 81.936882 C 43.011624 81.936882 41.243383 82.42341 39.747179 83.401697 C 38.141114 84.463688 36.760003 85.625077 35.609077 86.880633 C 34.264586 88.382068 33.061345 90.061374 31.999354 91.929013 C 32.454493 94.424429 33.171206 96.605957 34.144262 98.468365 C 35.033614 100.163365 36.231623 101.670032 37.727827 102.993597 C 39.244957 104.427023 41.201531 105.143736 43.587087 105.143736 C 45.993568 105.143736 47.913522 104.55781 49.346948 103.385958 C 50.759448 102.323967 51.821439 101.042254 52.538152 99.54605 C 53.145004 98.112624 53.547828 96.689661 53.741393 95.282392 C 53.914032 93.93267 54.002967 92.949152 54.002967 92.316142 C 54.002967 91.70929 53.914032 90.830401 53.741393 89.679475 C 53.547828 88.507623 53.145004 87.351466 52.538152 86.20054 C 51.910374 85.049614 51.021022 84.029475 49.870096 83.140123 C 48.71917 82.334475 47.113105 81.936882 45.051902 81.936882 Z M 45.051902 81.936882 " stroke="#ffde59" stroke-width="5.33332" stroke-opacity="1" stroke-miterlimit="4"/></g><g fill="#000000" fill-opacity="1"><g transform="translate(26.680897, 90.994271)"><g><path d="M 31.65625 1.296875 C 26.675781 1.296875 22.363281 0.332031 18.71875 -1.59375 C 15.0625 -3.445312 12.039062 -5.96875 9.65625 -9.15625 C 7.269531 -12.28125 5.476562 -15.863281 4.28125 -19.90625 C 3.082031 -23.957031 2.484375 -28.140625 2.484375 -32.453125 C 2.484375 -37.171875 3.179688 -41.816406 4.578125 -46.390625 C 5.972656 -50.972656 8.03125 -55.085938 10.75 -58.734375 C 13.40625 -62.390625 16.722656 -65.347656 20.703125 -67.609375 C 24.691406 -69.796875 29.273438 -70.890625 34.453125 -70.890625 C 37.960938 -70.890625 40.984375 -70.753906 43.515625 -70.484375 C 46.035156 -70.160156 48.15625 -69.796875 49.875 -69.390625 C 51.800781 -68.929688 53.460938 -68.4375 54.859375 -67.90625 L 54.859375 -48.78125 C 53.859375 -49.644531 52.5625 -50.441406 50.96875 -51.171875 C 49.582031 -51.773438 47.757812 -52.34375 45.5 -52.875 C 43.238281 -53.332031 40.453125 -53.5625 37.140625 -53.5625 C 34.085938 -53.5625 31.597656 -52.960938 29.671875 -51.765625 C 27.742188 -50.503906 26.28125 -49.144531 25.28125 -47.6875 C 24.226562 -46.164062 23.535156 -44.738281 23.203125 -43.40625 C 22.796875 -42.082031 22.59375 -41.285156 22.59375 -41.015625 C 22.664062 -41.148438 22.96875 -41.582031 23.5 -42.3125 C 24.03125 -42.976562 24.890625 -43.675781 26.078125 -44.40625 C 27.273438 -45.132812 28.867188 -45.796875 30.859375 -46.390625 C 32.847656 -46.992188 35.375 -47.296875 38.4375 -47.296875 C 41.488281 -47.296875 44.273438 -46.765625 46.796875 -45.703125 C 49.316406 -44.640625 51.503906 -43.210938 53.359375 -41.421875 C 55.148438 -39.554688 56.546875 -37.363281 57.546875 -34.84375 C 58.546875 -32.257812 59.046875 -29.472656 59.046875 -26.484375 C 59.046875 -23.492188 58.546875 -20.375 57.546875 -17.125 C 56.546875 -13.875 54.953125 -10.890625 52.765625 -8.171875 C 50.578125 -5.378906 47.757812 -3.117188 44.3125 -1.390625 C 40.789062 0.398438 36.570312 1.296875 31.65625 1.296875 Z M 33.65625 -32.15625 C 32.125 -32.15625 30.796875 -31.789062 29.671875 -31.0625 C 28.472656 -30.269531 27.441406 -29.40625 26.578125 -28.46875 C 25.585938 -27.34375 24.691406 -26.082031 23.890625 -24.6875 C 24.222656 -22.832031 24.753906 -21.207031 25.484375 -19.8125 C 26.148438 -18.550781 27.046875 -17.421875 28.171875 -16.421875 C 29.304688 -15.359375 30.769531 -14.828125 32.5625 -14.828125 C 34.351562 -14.828125 35.78125 -15.257812 36.84375 -16.125 C 37.90625 -16.925781 38.703125 -17.890625 39.234375 -19.015625 C 39.691406 -20.078125 39.988281 -21.140625 40.125 -22.203125 C 40.257812 -23.203125 40.328125 -23.929688 40.328125 -24.390625 C 40.328125 -24.859375 40.257812 -25.523438 40.125 -26.390625 C 39.988281 -27.242188 39.691406 -28.101562 39.234375 -28.96875 C 38.765625 -29.832031 38.097656 -30.597656 37.234375 -31.265625 C 36.367188 -31.859375 35.175781 -32.15625 33.65625 -32.15625 Z M 33.65625 -32.15625 "/></g></g></g></svg>