<svg xmlns="http://www.w3.org/2000/svg" xmlns:xlink="http://www.w3.org/1999/xlink" width="500" zoomAndPan="magnify" viewBox="0 0 375 74.999997" height="100" preserveAspectRatio="xMidYMid meet" version="1.0"><defs><clipPath id="9f3a7589e2"><path d="M 352.945312 34.828125 L 358.316406 34.828125 L 358.316406 40.535156 L 352.945312 40.535156 Z M 352.945312 34.828125 " clip-rule="nonzero"/></clipPath><clipPath id="d89b093bca"><path d="M 352.976562 37.472656 C 354.628906 34.945312 355.238281 34.773438 355.761719 34.859375 C 356.457031 34.945312 357.503906 35.46875 357.851562 36.078125 C 358.285156 36.6875 358.285156 37.90625 358.027344 38.601562 C 357.675781 39.210938 356.804688 39.910156 356.023438 40.082031 C 355.324219 40.171875 354.195312 39.824219 353.757812 39.300781 C 353.234375 38.777344 352.886719 37.644531 353.0625 36.863281 C 353.234375 36.164062 354.019531 35.292969 354.628906 35.03125 C 355.324219 34.773438 356.546875 34.859375 357.066406 35.292969 C 357.765625 35.816406 358.285156 37.296875 358.285156 38.082031 C 358.285156 38.777344 357.851562 39.386719 357.417969 39.824219 C 356.980469 40.171875 356.285156 40.433594 355.675781 40.519531 C 355.066406 40.519531 354.367188 40.257812 353.933594 39.824219 C 353.496094 39.472656 352.976562 38.167969 352.976562 38.167969 " clip-rule="nonzero"/></clipPath><clipPath id="641753901b"><path d="M 185 46 L 191 46 L 191 52 L 185 52 Z M 185 46 " clip-rule="nonzero"/></clipPath><clipPath id="14c8e0274e"><path d="M 184.398438 46.953125 L 189.328125 45.632812 L 190.730469 50.871094 L 185.800781 52.191406 Z M 184.398438 46.953125 " clip-rule="nonzero"/></clipPath><clipPath id="85b9480919"><path d="M 185.074219 49.371094 C 185.972656 46.648438 186.488281 46.339844 186.988281 46.289062 C 187.648438 46.199219 188.738281 46.421875 189.207031 46.894531 C 189.753906 47.347656 190.054688 48.464844 189.988281 49.167969 C 189.816406 49.8125 189.191406 50.664062 188.515625 51.019531 C 187.894531 51.269531 186.773438 51.226562 186.246094 50.855469 C 185.636719 50.503906 185.039062 49.550781 185.007812 48.789062 C 184.996094 48.109375 185.5 47.117188 185.996094 46.726562 C 186.570312 46.316406 187.707031 46.097656 188.296875 46.367188 C 189.0625 46.675781 189.90625 47.90625 190.097656 48.625 C 190.269531 49.261719 190.019531 49.929688 189.726562 50.4375 C 189.414062 50.863281 188.839844 51.273438 188.300781 51.503906 C 187.742188 51.652344 187.039062 51.585938 186.53125 51.292969 C 186.046875 51.078125 185.246094 50.007812 185.246094 50.007812 " clip-rule="nonzero"/></clipPath><clipPath id="b816376a1a"><path d="M 122.625 25.019531 L 127.726562 25.019531 L 127.726562 30.4375 L 122.625 30.4375 Z M 122.625 25.019531 " clip-rule="nonzero"/></clipPath><clipPath id="50bddb3891"><path d="M 127.699219 27.929688 C 126.125 30.328125 125.546875 30.492188 125.050781 30.410156 C 124.390625 30.328125 123.398438 29.832031 123.066406 29.25 C 122.652344 28.671875 122.652344 27.515625 122.902344 26.855469 C 123.230469 26.273438 124.058594 25.613281 124.804688 25.449219 C 125.464844 25.363281 126.539062 25.695312 126.953125 26.191406 C 127.449219 26.6875 127.78125 27.761719 127.613281 28.507812 C 127.449219 29.167969 126.707031 29.996094 126.125 30.242188 C 125.464844 30.492188 124.308594 30.410156 123.8125 29.996094 C 123.148438 29.5 122.652344 28.09375 122.652344 27.351562 C 122.652344 26.6875 123.066406 26.109375 123.480469 25.695312 C 123.894531 25.363281 124.554688 25.117188 125.132812 25.035156 C 125.710938 25.035156 126.375 25.28125 126.789062 25.695312 C 127.203125 26.027344 127.699219 27.265625 127.699219 27.265625 " clip-rule="nonzero"/></clipPath><clipPath id="aa5fa14aaa"><path d="M 39.957031 47.515625 L 45.058594 47.515625 L 45.058594 52.9375 L 39.957031 52.9375 Z M 39.957031 47.515625 " clip-rule="nonzero"/></clipPath><clipPath id="98ba4054b3"><path d="M 45.03125 50.429688 C 43.460938 52.828125 42.882812 52.992188 42.386719 52.910156 C 41.722656 52.828125 40.730469 52.332031 40.402344 51.75 C 39.988281 51.171875 39.988281 50.015625 40.234375 49.351562 C 40.566406 48.773438 41.394531 48.113281 42.136719 47.949219 C 42.796875 47.863281 43.875 48.195312 44.289062 48.691406 C 44.785156 49.1875 45.113281 50.261719 44.949219 51.007812 C 44.785156 51.667969 44.039062 52.496094 43.460938 52.742188 C 42.796875 52.992188 41.640625 52.910156 41.144531 52.496094 C 40.484375 52 39.988281 50.59375 39.988281 49.847656 C 39.988281 49.1875 40.402344 48.609375 40.8125 48.195312 C 41.226562 47.863281 41.890625 47.617188 42.46875 47.535156 C 43.046875 47.535156 43.707031 47.78125 44.121094 48.195312 C 44.535156 48.527344 45.03125 49.765625 45.03125 49.765625 " clip-rule="nonzero"/></clipPath></defs><path stroke-linecap="butt" transform="matrix(0.629427, -0.407825, 0.407825, 0.629427, 40.370003, 46.650154)" fill="none" stroke-linejoin="miter" d="M -0.00153659 3.999174 L 27.832639 3.999039 " stroke="#38b6ff" stroke-width="8" stroke-opacity="1" stroke-miterlimit="4"/><path stroke-linecap="butt" transform="matrix(0.544371, -0.515907, 0.515907, 0.544371, 13.906206, 36.540161)" fill="none" stroke-linejoin="miter" d="M -0.00206257 4.000075 L 22.825054 3.998838 " stroke="#38b6ff" stroke-width="8" stroke-opacity="1" stroke-miterlimit="4"/><path stroke-linecap="butt" transform="matrix(0.496044, -0.56253, 0.56253, 0.496044, 15.084076, 37.18486)" fill="none" stroke-linejoin="miter" d="M 0.00260299 4.000799 L 21.685879 3.997325 " stroke="#38b6ff" stroke-width="8" stroke-opacity="1" stroke-miterlimit="4"/><path stroke-linecap="butt" transform="matrix(0.560081, -0.498808, 0.498808, 0.560081, 274.046676, 47.399438)" fill="none" stroke-linejoin="miter" d="M 0.00029237 4.001801 L 24.454606 3.999629 " stroke="#38b6ff" stroke-width="8" stroke-opacity="1" stroke-miterlimit="4"/><path stroke-linecap="butt" transform="matrix(0.434508, -0.611312, 0.611312, 0.434508, 312.729239, 35.732589)" fill="none" stroke-linejoin="miter" d="M 0.00303481 3.999961 L 22.731332 3.998922 " stroke="#38b6ff" stroke-width="8" stroke-opacity="1" stroke-miterlimit="4"/><path stroke-linecap="butt" transform="matrix(0.75, 0.000000000000000012, -0.000000000000000012, 0.75, 18.032751, 34.688884)" fill="none" stroke-linejoin="miter" d="M -0.00200089 3.998155 L 446.680327 3.998155 " stroke="#38b6ff" stroke-width="8" stroke-opacity="1" stroke-miterlimit="4"/><path stroke-linecap="butt" transform="matrix(0.75, 0, 0, 0.75, 10.186763, 35.624996)" fill="none" stroke-linejoin="miter" d="M 18.750984 2.500005 L 451.672894 2.500005 " stroke="#38b6ff" stroke-width="5" stroke-opacity="1" stroke-miterlimit="4"/><path stroke-linecap="round" transform="matrix(0.75, 0, 0, 0.75, 10.186763, 35.624996)" fill-opacity="1" fill="#38b6ff" fill-rule="nonzero" stroke-linejoin="round" d="M 2.500982 2.500005 C 2.500982 -1.64062 5.860358 -4.999995 10.000983 -4.999995 C 14.141608 -4.999995 17.500983 -1.64062 17.500983 2.500005 C 17.500983 6.640631 14.141608 10.000006 10.000983 10.000006 C 5.860358 10.000006 2.500982 6.640631 2.500982 2.500005 " stroke="#38b6ff" stroke-width="5" stroke-opacity="1" stroke-miterlimit="4"/><path stroke-linecap="round" transform="matrix(0.75, 0, 0, 0.75, 10.186763, 35.624996)" fill="none" stroke-linejoin="round" d="M 467.922895 2.500005 C 467.922895 6.640631 464.568728 10.000006 460.422895 10.000006 C 456.282269 10.000006 452.922894 6.640631 452.922894 2.500005 C 452.922894 -1.64062 456.282269 -4.999995 460.422895 -4.999995 C 464.568728 -4.999995 467.922895 -1.64062 467.922895 2.500005 " stroke="#38b6ff" stroke-width="5" stroke-opacity="1" stroke-miterlimit="4"/><path stroke-linecap="butt" transform="matrix(0.749999, -0.00091483, 0.00091483, 0.749999, 187.561895, 46.158367)" fill="none" stroke-linejoin="miter" d="M 0.00113248 4.00239 L 120.173103 3.997931 " stroke="#38b6ff" stroke-width="8" stroke-opacity="1" stroke-miterlimit="4"/><path stroke-linecap="butt" transform="matrix(-0.75, 0.000000001309, -0.000000001309, -0.75, 277.69305, 50.923428)" fill="none" stroke-linejoin="miter" d="M 0.00219222 2.50207 L 111.679285 2.502071 " stroke="#38b6ff" stroke-width="5" stroke-opacity="1" stroke-miterlimit="4"/><path stroke-linecap="round" transform="matrix(-0.75, 0.000000001309, -0.000000001309, -0.75, 277.69305, 50.923428)" fill="none" stroke-linejoin="round" d="M 127.929286 2.502071 C 127.929286 6.642696 124.569911 10.002071 120.429285 10.002071 C 116.283452 10.002071 112.929285 6.642696 112.929285 2.502071 C 112.929285 -1.643763 116.283452 -4.99793 120.429285 -4.99793 C 124.569911 -4.99793 127.929286 -1.643763 127.929286 2.502071 " stroke="#38b6ff" stroke-width="5" stroke-opacity="1" stroke-miterlimit="4"/><path stroke-linecap="butt" transform="matrix(-0.572282, 0.484761, -0.484761, -0.572282, 291.409671, 39.251392)" fill="none" stroke-linejoin="miter" d="M -0.00180032 2.499131 L 23.164961 2.498927 " stroke="#38b6ff" stroke-width="5" stroke-opacity="1" stroke-miterlimit="4"/><path stroke-linecap="butt" transform="matrix(-0.438487, 0.608464, -0.608464, -0.438487, 330.222842, 19.087021)" fill="none" stroke-linejoin="miter" d="M 18.748511 2.500372 L 31.40084 2.498709 " stroke="#38b6ff" stroke-width="5" stroke-opacity="1" stroke-miterlimit="4"/><path stroke-linecap="round" transform="matrix(-0.438487, 0.608464, -0.608464, -0.438487, 330.222842, 19.087021)" fill-opacity="1" fill="#38b6ff" fill-rule="nonzero" stroke-linejoin="round" d="M 2.499731 2.500184 C 2.500505 -1.641178 5.858829 -4.99864 10.000192 -4.997866 C 14.141554 -4.997091 17.503241 -1.641812 17.502467 2.49955 C 17.501693 6.640912 14.143369 9.998374 9.997781 10.000645 C 5.856419 9.999871 2.498957 6.641547 2.499731 2.500184 " stroke="#38b6ff" stroke-width="5" stroke-opacity="1" stroke-miterlimit="4"/><path stroke-linecap="butt" transform="matrix(0.75, 0, 0, 0.75, 26.592713, 24.724201)" fill="none" stroke-linejoin="miter" d="M 0.00138287 3.997941 L 128.13681 3.997941 " stroke="#38b6ff" stroke-width="8" stroke-opacity="1" stroke-miterlimit="4"/><path stroke-linecap="butt" transform="matrix(0.75, 0.000000000000000038, -0.000000000000000038, 0.75, 26.592713, 25.849201)" fill="none" stroke-linejoin="miter" d="M 0.00138287 2.497941 L 122.147226 2.497941 " stroke="#38b6ff" stroke-width="5" stroke-opacity="1" stroke-miterlimit="4"/><path stroke-linecap="round" transform="matrix(0.75, 0.000000000000000038, -0.000000000000000038, 0.75, 26.592713, 25.849201)" fill="none" stroke-linejoin="round" d="M 138.397228 2.497941 C 138.397228 6.643774 135.037852 9.997941 130.897227 9.997941 C 126.756602 9.997941 123.397226 6.643774 123.397226 2.497941 C 123.397226 -1.642685 126.756602 -5.00206 130.897227 -5.00206 C 135.037852 -5.00206 138.397228 -1.642685 138.397228 2.497941 " stroke="#38b6ff" stroke-width="5" stroke-opacity="1" stroke-miterlimit="4"/><path stroke-linecap="butt" transform="matrix(0.532294, -0.528359, 0.528359, 0.532294, 16.710914, 35.626768)" fill="none" stroke-linejoin="miter" d="M -0.0000867668 2.499026 L 18.896736 2.498884 " stroke="#38b6ff" stroke-width="5" stroke-opacity="1" stroke-miterlimit="4"/><path stroke-linecap="butt" transform="matrix(0.606617, -0.44104, 0.44104, 0.606617, 35.587713, 52.891819)" fill="none" stroke-linejoin="miter" d="M 18.746598 2.50042 L 38.914457 2.5009 " stroke="#38b6ff" stroke-width="5" stroke-opacity="1" stroke-miterlimit="4"/><path stroke-linecap="round" transform="matrix(0.606617, -0.44104, 0.44104, 0.606617, 35.587713, 52.891819)" fill="none" stroke-linejoin="round" d="M 2.501033 2.49898 C 2.498892 -1.643112 5.860857 -5.000704 9.999886 -4.998633 C 14.141979 -5.000773 17.502633 -1.643021 17.497499 2.500221 C 17.49964 6.642313 14.141888 10.002968 9.998646 9.997833 C 5.856554 9.999974 2.500111 6.645285 2.501033 2.49898 " stroke="#38b6ff" stroke-width="5" stroke-opacity="1" stroke-miterlimit="4"/><g clip-path="url(#9f3a7589e2)"><g clip-path="url(#d89b093bca)"><path fill="#1e1e1e" d="M 349.492188 31.375 L 361.769531 31.375 L 361.769531 43.988281 L 349.492188 43.988281 Z M 349.492188 31.375 " fill-opacity="1" fill-rule="nonzero"/></g></g><path stroke-linecap="butt" transform="matrix(0.75, 0.000000000000000023, -0.000000000000000023, 0.75, 13.229741, 36.245672)" fill="none" stroke-linejoin="miter" d="M 11.250971 1.500562 L 451.251007 1.500562 " stroke="#ffde59" stroke-width="3" stroke-opacity="1" stroke-miterlimit="4"/><path stroke-linecap="round" transform="matrix(0.75, 0.000000000000000023, -0.000000000000000023, 0.75, 13.229741, 36.245672)" fill-opacity="1" fill="#ffde59" fill-rule="nonzero" stroke-linejoin="round" d="M 1.50097 1.500562 C 1.50097 -0.983813 3.516596 -2.999438 6.000971 -2.999438 C 8.485346 -2.999438 10.500971 -0.983813 10.500971 1.500562 C 10.500971 3.984937 8.485346 6.000562 6.000971 6.000562 C 3.516596 6.000562 1.50097 3.984937 1.50097 1.500562 " stroke="#ffde59" stroke-width="3" stroke-opacity="1" stroke-miterlimit="4"/><path stroke-linecap="round" transform="matrix(0.75, 0.000000000000000023, -0.000000000000000023, 0.75, 13.229741, 36.245672)" fill="none" stroke-linejoin="round" d="M 461.001008 1.500562 C 461.001008 3.984937 458.985383 6.000562 456.501008 6.000562 C 454.016632 6.000562 452.001007 3.984937 452.001007 1.500562 C 452.001007 -0.983813 454.016632 -2.999438 456.501008 -2.999438 C 458.985383 -2.999438 461.001008 -0.983813 461.001008 1.500562 " stroke="#ffde59" stroke-width="3" stroke-opacity="1" stroke-miterlimit="4"/><g clip-path="url(#641753901b)"><g clip-path="url(#14c8e0274e)"><g clip-path="url(#85b9480919)"><path fill="#1e1e1e" d="M 180.382812 44.636719 L 191.644531 41.617188 L 194.746094 53.1875 L 183.484375 56.207031 Z M 180.382812 44.636719 " fill-opacity="1" fill-rule="nonzero"/></g></g></g><path stroke-linecap="butt" transform="matrix(-0.75, -0.000000001309, 0.000000001309, -0.75, 276.939126, 50.044104)" fill="none" stroke-linejoin="miter" d="M 0.00216865 1.501513 L 114.12197 1.501513 " stroke="#ffde59" stroke-width="3" stroke-opacity="1" stroke-miterlimit="4"/><path stroke-linecap="round" transform="matrix(-0.75, -0.000000001309, 0.000000001309, -0.75, 276.939126, 50.044104)" fill="none" stroke-linejoin="round" d="M 123.87197 1.501513 C 123.87197 3.985888 121.856345 6.001514 119.37197 6.001514 C 116.882387 6.001514 114.87197 3.985888 114.87197 1.501513 C 114.87197 -0.982862 116.882387 -2.998487 119.37197 -2.998487 C 121.856345 -2.998487 123.87197 -0.982862 123.87197 1.501513 " stroke="#ffde59" stroke-width="3" stroke-opacity="1" stroke-miterlimit="4"/><path stroke-linecap="butt" transform="matrix(-0.567401, 0.490465, -0.490465, -0.567401, 290.935853, 37.6832)" fill="none" stroke-linejoin="miter" d="M 0.000885991 1.500885 L 24.648703 1.499217 " stroke="#ffde59" stroke-width="3" stroke-opacity="1" stroke-miterlimit="4"/><path stroke-linecap="butt" transform="matrix(-0.44007, 0.607321, -0.607321, -0.44007, 327.959102, 21.065476)" fill="none" stroke-linejoin="miter" d="M 11.250346 1.499218 L 27.268089 1.502268 " stroke="#ffde59" stroke-width="3" stroke-opacity="1" stroke-miterlimit="4"/><path stroke-linecap="round" transform="matrix(-0.44007, 0.607321, -0.607321, -0.44007, 327.959102, 21.065476)" fill-opacity="1" fill="#ffde59" fill-rule="nonzero" stroke-linejoin="round" d="M 1.501074 1.501358 C 1.499287 -0.986508 3.51392 -2.999476 6.001786 -3.001263 C 8.485435 -2.999994 10.498403 -0.985361 10.50019 1.502505 C 10.498921 3.986153 8.484288 5.999122 6.00064 5.997853 C 3.512774 5.99964 1.499805 3.985007 1.501074 1.501358 " stroke="#ffde59" stroke-width="3" stroke-opacity="1" stroke-miterlimit="4"/><g clip-path="url(#b816376a1a)"><g clip-path="url(#50bddb3891)"><path fill="#1e1e1e" d="M 131.003906 33.71875 L 119.34375 33.71875 L 119.34375 21.738281 L 131.003906 21.738281 Z M 131.003906 33.71875 " fill-opacity="1" fill-rule="nonzero"/></g></g><path stroke-linecap="butt" transform="matrix(0.75, 0.000000000000000039, -0.000000000000000039, 0.75, 26.891209, 26.427109)" fill="none" stroke-linejoin="miter" d="M -0.000779285 1.49823 L 125.582564 1.49823 " stroke="#ffde59" stroke-width="3" stroke-opacity="1" stroke-miterlimit="4"/><path stroke-linecap="round" transform="matrix(0.75, 0.000000000000000039, -0.000000000000000039, 0.75, 26.891209, 26.427109)" fill="none" stroke-linejoin="round" d="M 135.332565 1.49823 C 135.332565 3.987813 133.31694 5.99823 130.832565 5.99823 C 128.34819 5.99823 126.332564 3.987813 126.332564 1.49823 C 126.332564 -0.986146 128.34819 -3.001771 130.832565 -3.001771 C 133.31694 -3.001771 135.332565 -0.986146 135.332565 1.49823 " stroke="#ffde59" stroke-width="3" stroke-opacity="1" stroke-miterlimit="4"/><path stroke-linecap="butt" transform="matrix(0.494975, -0.563471, 0.563471, 0.494975, 18.588419, 36.085839)" fill="none" stroke-linejoin="miter" d="M 0.000148264 1.499812 L 17.48975 1.498643 " stroke="#ffde59" stroke-width="3" stroke-opacity="1" stroke-miterlimit="4"/><g clip-path="url(#aa5fa14aaa)"><g clip-path="url(#98ba4054b3)"><path fill="#1e1e1e" d="M 48.339844 56.214844 L 36.679688 56.214844 L 36.679688 44.238281 L 48.339844 44.238281 Z M 48.339844 56.214844 " fill-opacity="1" fill-rule="nonzero"/></g></g><path stroke-linecap="butt" transform="matrix(0.606087, -0.441768, 0.441768, 0.606087, 38.221246, 51.246146)" fill="none" stroke-linejoin="miter" d="M 11.252219 1.498657 L 34.048099 1.498943 " stroke="#ffde59" stroke-width="3" stroke-opacity="1" stroke-miterlimit="4"/><path stroke-linecap="round" transform="matrix(0.606087, -0.441768, 0.441768, 0.606087, 38.221246, 51.246146)" fill="none" stroke-linejoin="round" d="M 1.50028 1.499483 C 1.498684 -0.983018 3.516141 -2.999287 5.998642 -3.000883 C 8.485353 -2.99941 10.497413 -0.985021 10.499008 1.49748 C 10.501745 3.987258 8.487356 5.999318 6.000645 5.997846 C 3.518144 5.999441 1.498807 3.986193 1.50028 1.499483 " stroke="#ffde59" stroke-width="3" stroke-opacity="1" stroke-miterlimit="4"/></svg>