<svg xmlns="http://www.w3.org/2000/svg" xmlns:xlink="http://www.w3.org/1999/xlink" width="500" zoomAndPan="magnify" viewBox="0 0 375 187.499995" height="250" preserveAspectRatio="xMidYMid meet" version="1.0"><defs><g/><clipPath id="a5821cf7a5"><path d="M 254.832031 45.195312 L 259.558594 45.195312 L 259.558594 49.25 L 254.832031 49.25 Z M 254.832031 45.195312 " clip-rule="nonzero"/></clipPath><clipPath id="01b264411e"><path d="M 259.546875 46.613281 C 257.402344 49.992188 255.421875 49.332031 255.007812 48.671875 C 254.597656 47.929688 255.007812 45.953125 255.585938 45.457031 C 256.246094 44.878906 258.886719 45.621094 258.886719 45.621094 " clip-rule="nonzero"/></clipPath><clipPath id="d2dd53e998"><path d="M 12.277344 75.890625 L 17.363281 75.890625 L 17.363281 81.296875 L 12.277344 81.296875 Z M 12.277344 75.890625 " clip-rule="nonzero"/></clipPath><clipPath id="b0bada4fa1"><path d="M 12.304688 78.394531 C 13.871094 76 14.449219 75.835938 14.941406 75.917969 C 15.601562 76 16.59375 76.496094 16.921875 77.074219 C 17.335938 77.652344 17.335938 78.804688 17.085938 79.464844 C 16.757812 80.042969 15.933594 80.703125 15.191406 80.867188 C 14.53125 80.949219 13.457031 80.621094 13.046875 80.125 C 12.550781 79.628906 12.222656 78.558594 12.386719 77.816406 C 12.550781 77.15625 13.292969 76.332031 13.871094 76.082031 C 14.53125 75.835938 15.6875 75.917969 16.179688 76.332031 C 16.839844 76.828125 17.335938 78.226562 17.335938 78.96875 C 17.335938 79.628906 16.921875 80.207031 16.511719 80.621094 C 16.097656 80.949219 15.4375 81.199219 14.859375 81.28125 C 14.285156 81.28125 13.625 81.03125 13.210938 80.621094 C 12.800781 80.289062 12.304688 79.054688 12.304688 79.054688 " clip-rule="nonzero"/></clipPath><clipPath id="d0d68eadab"><path d="M 364.648438 153.089844 L 369.734375 153.089844 L 369.734375 158.496094 L 364.648438 158.496094 Z M 364.648438 153.089844 " clip-rule="nonzero"/></clipPath><clipPath id="e1479d24c5"><path d="M 364.675781 155.59375 C 366.242188 153.199219 366.820312 153.035156 367.316406 153.117188 C 367.972656 153.199219 368.964844 153.695312 369.292969 154.273438 C 369.707031 154.851562 369.707031 156.003906 369.457031 156.664062 C 369.128906 157.242188 368.304688 157.902344 367.5625 158.066406 C 366.902344 158.148438 365.832031 157.820312 365.417969 157.324219 C 364.921875 156.828125 364.59375 155.757812 364.757812 155.015625 C 364.921875 154.355469 365.664062 153.53125 366.242188 153.285156 C 366.902344 153.035156 368.058594 153.117188 368.550781 153.53125 C 369.210938 154.027344 369.707031 155.425781 369.707031 156.167969 C 369.707031 156.828125 369.292969 157.40625 368.882812 157.820312 C 368.46875 158.148438 367.808594 158.398438 367.230469 158.480469 C 366.65625 158.480469 365.996094 158.230469 365.582031 157.820312 C 365.171875 157.488281 364.675781 156.253906 364.675781 156.253906 " clip-rule="nonzero"/></clipPath><clipPath id="26a204113f"><path d="M 277.285156 163.789062 L 282.371094 163.789062 L 282.371094 169.195312 L 277.285156 169.195312 Z M 277.285156 163.789062 " clip-rule="nonzero"/></clipPath><clipPath id="448137dcb7"><path d="M 277.3125 166.289062 C 278.878906 163.898438 279.457031 163.734375 279.949219 163.816406 C 280.609375 163.898438 281.601562 164.394531 281.929688 164.972656 C 282.34375 165.546875 282.34375 166.703125 282.09375 167.363281 C 281.765625 167.941406 280.941406 168.601562 280.199219 168.765625 C 279.539062 168.847656 278.464844 168.515625 278.054688 168.023438 C 277.558594 167.527344 277.230469 166.457031 277.394531 165.714844 C 277.558594 165.054688 278.300781 164.230469 278.878906 163.980469 C 279.539062 163.734375 280.691406 163.816406 281.1875 164.230469 C 281.847656 164.722656 282.34375 166.125 282.34375 166.867188 C 282.34375 167.527344 281.929688 168.105469 281.519531 168.515625 C 281.105469 168.847656 280.445312 169.09375 279.867188 169.175781 C 279.292969 169.175781 278.632812 168.929688 278.21875 168.515625 C 277.804688 168.1875 277.3125 166.949219 277.3125 166.949219 " clip-rule="nonzero"/></clipPath><clipPath id="61af00c1fe"><path d="M 100.835938 160.28125 L 105.921875 160.28125 L 105.921875 165.683594 L 100.835938 165.683594 Z M 100.835938 160.28125 " clip-rule="nonzero"/></clipPath><clipPath id="c71ed4a499"><path d="M 100.863281 162.78125 C 102.429688 160.390625 103.007812 160.226562 103.5 160.308594 C 104.160156 160.390625 105.152344 160.886719 105.480469 161.460938 C 105.894531 162.039062 105.894531 163.195312 105.644531 163.855469 C 105.316406 164.433594 104.492188 165.089844 103.75 165.257812 C 103.089844 165.339844 102.015625 165.007812 101.605469 164.515625 C 101.109375 164.019531 100.78125 162.945312 100.945312 162.203125 C 101.109375 161.546875 101.851562 160.71875 102.429688 160.472656 C 103.089844 160.226562 104.242188 160.308594 104.738281 160.71875 C 105.398438 161.214844 105.894531 162.617188 105.894531 163.359375 C 105.894531 164.019531 105.480469 164.597656 105.070312 165.007812 C 104.65625 165.339844 103.996094 165.585938 103.417969 165.667969 C 102.839844 165.667969 102.183594 165.421875 101.769531 165.007812 C 101.355469 164.679688 100.863281 163.441406 100.863281 163.441406 " clip-rule="nonzero"/></clipPath><clipPath id="5f422991dd"><path d="M 12.277344 166.878906 L 17.363281 166.878906 L 17.363281 172.285156 L 12.277344 172.285156 Z M 12.277344 166.878906 " clip-rule="nonzero"/></clipPath><clipPath id="11d9dcaedb"><path d="M 12.304688 169.382812 C 13.871094 166.988281 14.449219 166.824219 14.941406 166.90625 C 15.601562 166.988281 16.59375 167.484375 16.921875 168.0625 C 17.335938 168.640625 17.335938 169.792969 17.085938 170.453125 C 16.757812 171.03125 15.933594 171.691406 15.191406 171.855469 C 14.53125 171.9375 13.457031 171.609375 13.046875 171.113281 C 12.550781 170.617188 12.222656 169.546875 12.386719 168.804688 C 12.550781 168.144531 13.292969 167.320312 13.871094 167.074219 C 14.53125 166.824219 15.6875 166.90625 16.179688 167.320312 C 16.839844 167.816406 17.335938 169.214844 17.335938 169.960938 C 17.335938 170.617188 16.921875 171.195312 16.511719 171.609375 C 16.097656 171.9375 15.4375 172.1875 14.859375 172.269531 C 14.285156 172.269531 13.625 172.019531 13.210938 171.609375 C 12.800781 171.277344 12.304688 170.042969 12.304688 170.042969 " clip-rule="nonzero"/></clipPath><clipPath id="77d2fab8e4"><path d="M 254.734375 45.429688 L 259.820312 45.429688 L 259.820312 50.835938 L 254.734375 50.835938 Z M 254.734375 45.429688 " clip-rule="nonzero"/></clipPath><clipPath id="0355546d90"><path d="M 254.761719 47.929688 C 256.328125 45.539062 256.90625 45.375 257.402344 45.457031 C 258.058594 45.539062 259.050781 46.035156 259.378906 46.613281 C 259.792969 47.1875 259.792969 48.34375 259.546875 49.003906 C 259.214844 49.582031 258.390625 50.242188 257.648438 50.40625 C 256.988281 50.488281 255.917969 50.160156 255.503906 49.664062 C 255.007812 49.167969 254.679688 48.097656 254.84375 47.355469 C 255.007812 46.695312 255.75 45.871094 256.328125 45.621094 C 256.988281 45.375 258.144531 45.457031 258.636719 45.871094 C 259.296875 46.363281 259.792969 47.765625 259.792969 48.507812 C 259.792969 49.167969 259.378906 49.746094 258.96875 50.160156 C 258.554688 50.488281 257.894531 50.734375 257.316406 50.816406 C 256.742188 50.816406 256.082031 50.570312 255.667969 50.160156 C 255.257812 49.828125 254.761719 48.589844 254.761719 48.589844 " clip-rule="nonzero"/></clipPath><clipPath id="cd6ce08ba1"><path d="M 153.277344 71.582031 L 158.367188 71.582031 L 158.367188 76.984375 L 153.277344 76.984375 Z M 153.277344 71.582031 " clip-rule="nonzero"/></clipPath><clipPath id="af8e977164"><path d="M 158.335938 74.484375 C 156.769531 76.875 156.191406 77.039062 155.699219 76.957031 C 155.039062 76.875 154.050781 76.378906 153.71875 75.804688 C 153.308594 75.226562 153.308594 74.070312 153.554688 73.410156 C 153.882812 72.832031 154.707031 72.175781 155.449219 72.007812 C 156.109375 71.925781 157.183594 72.257812 157.59375 72.75 C 158.089844 73.246094 158.421875 74.316406 158.253906 75.058594 C 158.089844 75.71875 157.347656 76.546875 156.769531 76.792969 C 156.109375 77.039062 154.957031 76.957031 154.460938 76.546875 C 153.800781 76.050781 153.308594 74.648438 153.308594 73.90625 C 153.308594 73.246094 153.71875 72.667969 154.132812 72.257812 C 154.542969 71.925781 155.203125 71.679688 155.78125 71.597656 C 156.359375 71.597656 157.019531 71.84375 157.429688 72.257812 C 157.84375 72.585938 158.335938 73.824219 158.335938 73.824219 " clip-rule="nonzero"/></clipPath><clipPath id="8c57006747"><path d="M 53 59 L 72 59 L 72 71 L 53 71 Z M 53 59 " clip-rule="nonzero"/></clipPath><clipPath id="ee1d372243"><path d="M 9.003906 24.320312 L 79.75 0.0195312 L 104.050781 70.761719 L 33.304688 95.0625 Z M 9.003906 24.320312 " clip-rule="nonzero"/></clipPath><clipPath id="2dc3343289"><path d="M 9.003906 24.320312 L 79.75 0.0195312 L 104.050781 70.761719 L 33.304688 95.0625 Z M 9.003906 24.320312 " clip-rule="nonzero"/></clipPath><clipPath id="0c94708d46"><path d="M 28 12 L 77 12 L 77 65 L 28 65 Z M 28 12 " clip-rule="nonzero"/></clipPath><clipPath id="50a05dbc2f"><path d="M 9.003906 24.320312 L 79.75 0.0195312 L 104.050781 70.761719 L 33.304688 95.0625 Z M 9.003906 24.320312 " clip-rule="nonzero"/></clipPath><clipPath id="18d063ef03"><path d="M 9.003906 24.320312 L 79.75 0.0195312 L 104.050781 70.761719 L 33.304688 95.0625 Z M 9.003906 24.320312 " clip-rule="nonzero"/></clipPath><clipPath id="d9ed0fc658"><path d="M 63 31 L 70 31 L 70 37 L 63 37 Z M 63 31 " clip-rule="nonzero"/></clipPath><clipPath id="a740886a3e"><path d="M 9.003906 24.320312 L 79.75 0.0195312 L 104.050781 70.761719 L 33.304688 95.0625 Z M 9.003906 24.320312 " clip-rule="nonzero"/></clipPath><clipPath id="56d47c02a3"><path d="M 9.003906 24.320312 L 79.75 0.0195312 L 104.050781 70.761719 L 33.304688 95.0625 Z M 9.003906 24.320312 " clip-rule="nonzero"/></clipPath><clipPath id="d072ddd89c"><path d="M 60 70 L 72 70 L 72 82 L 60 82 Z M 60 70 " clip-rule="nonzero"/></clipPath><clipPath id="2c34f7b5ca"><path d="M 9.003906 24.320312 L 79.75 0.0195312 L 104.050781 70.761719 L 33.304688 95.0625 Z M 9.003906 24.320312 " clip-rule="nonzero"/></clipPath><clipPath id="28482198e7"><path d="M 9.003906 24.320312 L 79.75 0.0195312 L 104.050781 70.761719 L 33.304688 95.0625 Z M 9.003906 24.320312 " clip-rule="nonzero"/></clipPath><clipPath id="6424ad3f01"><path d="M 55 65 L 74 65 L 74 76 L 55 76 Z M 55 65 " clip-rule="nonzero"/></clipPath><clipPath id="7f79944985"><path d="M 9.003906 24.320312 L 79.75 0.0195312 L 104.050781 70.761719 L 33.304688 95.0625 Z M 9.003906 24.320312 " clip-rule="nonzero"/></clipPath><clipPath id="68ea96307b"><path d="M 9.003906 24.320312 L 79.75 0.0195312 L 104.050781 70.761719 L 33.304688 95.0625 Z M 9.003906 24.320312 " clip-rule="nonzero"/></clipPath><clipPath id="5e5f79b9f5"><path d="M 47 31 L 58 31 L 58 42 L 47 42 Z M 47 31 " clip-rule="nonzero"/></clipPath><clipPath id="b75cfc40dc"><path d="M 9.003906 24.320312 L 79.75 0.0195312 L 104.050781 70.761719 L 33.304688 95.0625 Z M 9.003906 24.320312 " clip-rule="nonzero"/></clipPath><clipPath id="fa45e010db"><path d="M 9.003906 24.320312 L 79.75 0.0195312 L 104.050781 70.761719 L 33.304688 95.0625 Z M 9.003906 24.320312 " clip-rule="nonzero"/></clipPath><clipPath id="07539ffd0b"><path d="M 37 40 L 44 40 L 44 46 L 37 46 Z M 37 40 " clip-rule="nonzero"/></clipPath><clipPath id="e13255e4ba"><path d="M 9.003906 24.320312 L 79.75 0.0195312 L 104.050781 70.761719 L 33.304688 95.0625 Z M 9.003906 24.320312 " clip-rule="nonzero"/></clipPath><clipPath id="7f5f51f8fa"><path d="M 9.003906 24.320312 L 79.75 0.0195312 L 104.050781 70.761719 L 33.304688 95.0625 Z M 9.003906 24.320312 " clip-rule="nonzero"/></clipPath><clipPath id="8f74c6c5f7"><path d="M 26 10 L 79 10 L 79 84 L 26 84 Z M 26 10 " clip-rule="nonzero"/></clipPath><clipPath id="5cf58f2c19"><path d="M 9.003906 24.320312 L 79.75 0.0195312 L 104.050781 70.761719 L 33.304688 95.0625 Z M 9.003906 24.320312 " clip-rule="nonzero"/></clipPath><clipPath id="64a78d3cf1"><path d="M 9.003906 24.320312 L 79.75 0.0195312 L 104.050781 70.761719 L 33.304688 95.0625 Z M 9.003906 24.320312 " clip-rule="nonzero"/></clipPath><clipPath id="cb5e83ee8b"><path d="M 76 10 L 84 10 L 84 17 L 76 17 Z M 76 10 " clip-rule="nonzero"/></clipPath><clipPath id="855f3e3d61"><path d="M 9.003906 24.320312 L 79.75 0.0195312 L 104.050781 70.761719 L 33.304688 95.0625 Z M 9.003906 24.320312 " clip-rule="nonzero"/></clipPath><clipPath id="28aa64bfcc"><path d="M 9.003906 24.320312 L 79.75 0.0195312 L 104.050781 70.761719 L 33.304688 95.0625 Z M 9.003906 24.320312 " clip-rule="nonzero"/></clipPath><clipPath id="f85b294d8d"><path d="M 78 20 L 88 20 L 88 26 L 78 26 Z M 78 20 " clip-rule="nonzero"/></clipPath><clipPath id="90d538d7d5"><path d="M 9.003906 24.320312 L 79.75 0.0195312 L 104.050781 70.761719 L 33.304688 95.0625 Z M 9.003906 24.320312 " clip-rule="nonzero"/></clipPath><clipPath id="73276e6613"><path d="M 9.003906 24.320312 L 79.75 0.0195312 L 104.050781 70.761719 L 33.304688 95.0625 Z M 9.003906 24.320312 " clip-rule="nonzero"/></clipPath><clipPath id="a423fa31ba"><path d="M 81 30 L 91 30 L 91 34 L 81 34 Z M 81 30 " clip-rule="nonzero"/></clipPath><clipPath id="11298df039"><path d="M 9.003906 24.320312 L 79.75 0.0195312 L 104.050781 70.761719 L 33.304688 95.0625 Z M 9.003906 24.320312 " clip-rule="nonzero"/></clipPath><clipPath id="ea8a3736a1"><path d="M 9.003906 24.320312 L 79.75 0.0195312 L 104.050781 70.761719 L 33.304688 95.0625 Z M 9.003906 24.320312 " clip-rule="nonzero"/></clipPath><clipPath id="bea7e1ebcb"><path d="M 12 33 L 22 33 L 22 37 L 12 37 Z M 12 33 " clip-rule="nonzero"/></clipPath><clipPath id="7e0784baf4"><path d="M 9.003906 24.320312 L 79.75 0.0195312 L 104.050781 70.761719 L 33.304688 95.0625 Z M 9.003906 24.320312 " clip-rule="nonzero"/></clipPath><clipPath id="091ab14a80"><path d="M 9.003906 24.320312 L 79.75 0.0195312 L 104.050781 70.761719 L 33.304688 95.0625 Z M 9.003906 24.320312 " clip-rule="nonzero"/></clipPath><clipPath id="94bd7b70d3"><path d="M 16 41 L 25 41 L 25 47 L 16 47 Z M 16 41 " clip-rule="nonzero"/></clipPath><clipPath id="e7cb9b80b1"><path d="M 9.003906 24.320312 L 79.75 0.0195312 L 104.050781 70.761719 L 33.304688 95.0625 Z M 9.003906 24.320312 " clip-rule="nonzero"/></clipPath><clipPath id="e34c0f40dc"><path d="M 9.003906 24.320312 L 79.75 0.0195312 L 104.050781 70.761719 L 33.304688 95.0625 Z M 9.003906 24.320312 " clip-rule="nonzero"/></clipPath><clipPath id="dc42975a87"><path d="M 19 50 L 28 50 L 28 57 L 19 57 Z M 19 50 " clip-rule="nonzero"/></clipPath><clipPath id="274f41b191"><path d="M 9.003906 24.320312 L 79.75 0.0195312 L 104.050781 70.761719 L 33.304688 95.0625 Z M 9.003906 24.320312 " clip-rule="nonzero"/></clipPath><clipPath id="eed3be0827"><path d="M 9.003906 24.320312 L 79.75 0.0195312 L 104.050781 70.761719 L 33.304688 95.0625 Z M 9.003906 24.320312 " clip-rule="nonzero"/></clipPath><clipPath id="554ae45c0b"><path d="M 0.5 76 L 374.5 76 L 374.5 160 L 0.5 160 Z M 0.5 76 " clip-rule="nonzero"/></clipPath></defs><g fill="#ededed" fill-opacity="1"><g transform="translate(96.60049, 61.733561)"><g><path d="M 3.6875 -22.40625 L 3.6875 -9.796875 C 3.6875 -9.609375 3.6875 -9.46875 3.6875 -9.28125 C 3.6875 -6.515625 4.4375 -4.53125 5.953125 -2.765625 C 7.71875 -0.6875 10.34375 0.515625 13.203125 0.515625 C 17.234375 0.515625 21.15625 -2.265625 22.21875 -5.8125 C 22.578125 -7.0625 22.765625 -8.953125 22.765625 -11.96875 L 22.765625 -22.40625 L 21.4375 -22.40625 L 21.4375 -11.03125 C 21.4375 -7.296875 20.96875 -5.59375 19.53125 -3.78125 C 17.921875 -1.75 15.703125 -0.6875 13.203125 -0.6875 C 9.75 -0.6875 6.28125 -3.28125 5.40625 -6.515625 C 5.125 -7.4375 4.984375 -9.28125 4.984375 -11.03125 L 4.984375 -22.40625 Z M 3.6875 -22.40625 "/></g></g></g><g fill="#ededed" fill-opacity="1"><g transform="translate(125.512412, 61.733561)"><g><path d="M 1.109375 -22.40625 L 1.109375 -21.109375 L 11.21875 -21.109375 L 11.21875 0 L 12.5625 0 L 12.5625 -21.109375 L 22.546875 -21.109375 L 22.546875 -22.40625 Z M 1.109375 -22.40625 "/></g></g></g><g fill="#ededed" fill-opacity="1"><g transform="translate(151.699408, 61.733561)"><g><path d="M 3.6875 0 L 5.03125 0 L 5.03125 -10.484375 C 5.078125 -14.59375 5.359375 -17.1875 7.484375 -19.21875 C 9.046875 -20.6875 11.21875 -21.5625 13.8125 -21.5625 L 14.171875 -21.5625 L 14.171875 -22.765625 C 13.8125 -22.8125 13.671875 -22.8125 13.390625 -22.8125 C 10.671875 -22.8125 8.078125 -21.703125 6.515625 -20.140625 C 3.78125 -17.40625 3.6875 -14.734375 3.6875 -10.109375 Z M 3.6875 0 "/></g></g></g><g fill="#ededed" fill-opacity="1"><g transform="translate(169.157405, 61.733561)"><g><path d="M 4.015625 -22.40625 L 4.015625 0 L 16.296875 0 L 16.296875 -1.296875 L 5.359375 -1.296875 L 5.359375 -10.8125 L 16.296875 -10.8125 L 16.296875 -12.09375 L 5.359375 -12.09375 L 5.359375 -21.109375 L 16.296875 -21.109375 L 16.296875 -22.40625 Z M 4.015625 -22.40625 "/></g></g></g><g fill="#ededed" fill-opacity="1"><g transform="translate(192.019069, 61.733561)"><g><path d="M 3.6875 0 L 5.03125 0 L 5.03125 -10.484375 C 5.078125 -14.59375 5.359375 -17.1875 7.484375 -19.21875 C 9.046875 -20.6875 11.21875 -21.5625 13.8125 -21.5625 L 14.171875 -21.5625 L 14.171875 -22.765625 C 13.8125 -22.8125 13.671875 -22.8125 13.390625 -22.8125 C 10.671875 -22.8125 8.078125 -21.703125 6.515625 -20.140625 C 3.78125 -17.40625 3.6875 -14.734375 3.6875 -10.109375 Z M 3.6875 0 "/></g></g></g><g fill="#ededed" fill-opacity="1"><g transform="translate(209.477066, 61.733561)"><g><path d="M 23.734375 -22.40625 L 23.734375 -16.484375 C 22.125 -20.328125 17.96875 -22.8125 13.53125 -22.8125 C 7.0625 -22.8125 1.796875 -17.734375 1.796875 -11.171875 C 1.796875 -4.4375 7.0625 0.515625 13.578125 0.515625 C 17.96875 0.515625 21.5625 -1.609375 23.734375 -5.734375 L 23.734375 0 L 25.078125 0 L 25.078125 -22.40625 Z M 13.4375 -21.5625 C 19.21875 -21.5625 23.921875 -17.046875 23.921875 -11.078125 C 23.921875 -5.21875 19.3125 -0.6875 13.625 -0.6875 C 7.765625 -0.6875 3.1875 -5.21875 3.1875 -11.171875 C 3.1875 -17 7.8125 -21.5625 13.4375 -21.5625 Z M 13.4375 -21.5625 "/></g></g></g><g clip-path="url(#a5821cf7a5)"><g clip-path="url(#01b264411e)"><path fill="#1e1e1e" d="M 251.710938 42.160156 L 262.851562 42.160156 L 262.851562 52.960938 L 251.710938 52.960938 Z M 251.710938 42.160156 " fill-opacity="1" fill-rule="nonzero"/></g></g><g clip-path="url(#d2dd53e998)"><g clip-path="url(#b0bada4fa1)"><path fill="#1e1e1e" d="M 9.003906 72.621094 L 20.632812 72.621094 L 20.632812 84.566406 L 9.003906 84.566406 Z M 9.003906 72.621094 " fill-opacity="1" fill-rule="nonzero"/></g></g><path stroke-linecap="butt" transform="matrix(-0.0070001, 0.747972, -0.747972, -0.0070001, 15.939192, 73.905381)" fill="none" stroke-linejoin="miter" d="M 11.248695 1.50028 L 43.883771 1.497758 " stroke="#ffde59" stroke-width="3" stroke-opacity="1" stroke-miterlimit="4"/><path stroke-linecap="round" transform="matrix(-0.0070001, 0.747972, -0.747972, -0.0070001, 15.939192, 73.905381)" fill="none" stroke-linejoin="round" d="M 1.498353 1.497527 C 1.501249 -0.983164 3.513887 -3.002199 5.9998 -2.999352 C 8.485665 -3.001726 10.499527 -0.983818 10.501901 1.502047 C 10.499005 3.982738 8.486368 6.001773 6.000454 5.998926 C 3.514589 6.001301 1.500728 3.983392 1.498353 1.497527 " stroke="#ffde59" stroke-width="3" stroke-opacity="1" stroke-miterlimit="4"/><path stroke-linecap="round" transform="matrix(-0.0070001, 0.747972, -0.747972, -0.0070001, 15.939192, 73.905381)" fill="none" stroke-linejoin="round" d="M 53.628891 1.50056 C 53.631266 3.986425 51.618579 6.000238 49.132666 5.99739 C 46.646801 5.999765 44.632988 3.987078 44.630613 1.501214 C 44.633461 -0.9847 46.646147 -2.998512 49.132012 -3.000887 C 51.617925 -2.99804 53.631738 -0.985353 53.628891 1.50056 " stroke="#ffde59" stroke-width="3" stroke-opacity="1" stroke-miterlimit="4"/><path stroke-linecap="butt" transform="matrix(0.00000000130552, 0.748005, -0.748005, 0.00000000130552, 228.382599, 109.952904)" fill="none" stroke-linejoin="miter" d="M 11.248963 1.498493 L 76.86619 1.498493 " stroke="#ffde59" stroke-width="3" stroke-opacity="1" stroke-miterlimit="4"/><path stroke-linecap="round" transform="matrix(0.00000000130552, 0.748005, -0.748005, 0.00000000130552, 228.382599, 109.952904)" fill="none" stroke-linejoin="round" d="M 1.499074 1.498493 C 1.499074 -0.987285 3.514852 -2.997841 6.00063 -2.997841 C 8.486408 -2.997841 10.502185 -0.987285 10.502185 1.498493 C 10.502185 3.984271 8.486407 6.000049 6.00063 6.000049 C 3.514852 6.000049 1.499074 3.984271 1.499074 1.498493 " stroke="#ffde59" stroke-width="3" stroke-opacity="1" stroke-miterlimit="4"/><g clip-path="url(#d0d68eadab)"><g clip-path="url(#e1479d24c5)"><path fill="#1e1e1e" d="M 361.375 149.820312 L 373.003906 149.820312 L 373.003906 161.765625 L 361.375 161.765625 Z M 361.375 149.820312 " fill-opacity="1" fill-rule="nonzero"/></g></g><path stroke-linecap="butt" transform="matrix(0.748005, 0, 0, 0.748005, 240.001678, 154.676723)" fill="none" stroke-linejoin="miter" d="M 11.251647 1.497519 L 165.160991 1.497519 " stroke="#ffde59" stroke-width="3" stroke-opacity="1" stroke-miterlimit="4"/><path stroke-linecap="round" transform="matrix(0.748005, 0, 0, 0.748005, 240.001678, 154.676723)" fill-opacity="1" fill="#ffde59" fill-rule="nonzero" stroke-linejoin="round" d="M 1.501757 1.497519 C 1.501757 -0.983036 3.512313 -2.998814 5.998091 -2.998814 C 8.483869 -2.998814 10.499647 -0.983036 10.499647 1.497519 C 10.499647 3.983297 8.483869 5.999075 5.998091 5.999075 C 3.512313 5.999075 1.501757 3.983297 1.501757 1.497519 " stroke="#ffde59" stroke-width="3" stroke-opacity="1" stroke-miterlimit="4"/><path stroke-linecap="round" transform="matrix(0.748005, 0, 0, 0.748005, 240.001678, 154.676723)" fill="none" stroke-linejoin="round" d="M 174.910881 1.497519 C 174.910881 3.983297 172.900325 5.999075 170.414547 5.999075 C 167.928769 5.999075 165.912991 3.983297 165.912991 1.497519 C 165.912991 -0.983036 167.928769 -2.998814 170.414547 -2.998814 C 172.900325 -2.998814 174.910881 -0.983036 174.910881 1.497519 " stroke="#ffde59" stroke-width="3" stroke-opacity="1" stroke-miterlimit="4"/><g clip-path="url(#26a204113f)"><g clip-path="url(#448137dcb7)"><path fill="#1e1e1e" d="M 274.011719 160.515625 L 285.640625 160.515625 L 285.640625 172.464844 L 274.011719 172.464844 Z M 274.011719 160.515625 " fill-opacity="1" fill-rule="nonzero"/></g></g><path stroke-linecap="butt" transform="matrix(-0.748005, 0.00000000130552, -0.00000000130552, -0.748005, 284.005674, 167.618585)" fill="none" stroke-linejoin="miter" d="M 11.25103 1.500647 L 76.863035 1.500647 " stroke="#ffde59" stroke-width="3" stroke-opacity="1" stroke-miterlimit="4"/><path stroke-linecap="round" transform="matrix(-0.748005, 0.00000000130552, -0.00000000130552, -0.748005, 284.005674, 167.618585)" fill="none" stroke-linejoin="round" d="M 1.501141 1.500647 C 1.501141 -0.985131 3.516919 -3.000909 5.997474 -3.000909 C 8.483252 -3.000909 10.49903 -0.985131 10.49903 1.500647 C 10.49903 3.986425 8.483252 6.002203 5.997474 6.002203 C 3.516919 6.002203 1.501141 3.986425 1.501141 1.500647 " stroke="#ffde59" stroke-width="3" stroke-opacity="1" stroke-miterlimit="4"/><g clip-path="url(#61af00c1fe)"><g clip-path="url(#c71ed4a499)"><path fill="#1e1e1e" d="M 97.5625 157.007812 L 109.191406 157.007812 L 109.191406 168.957031 L 97.5625 168.957031 Z M 97.5625 157.007812 " fill-opacity="1" fill-rule="nonzero"/></g></g><path stroke-linecap="butt" transform="matrix(-0.748005, -0.00000000130552, 0.00000000130552, -0.748005, 174.826576, 164.1105)" fill="none" stroke-linejoin="miter" d="M -0.00207074 1.500283 L 90.316269 1.500282 " stroke="#ffde59" stroke-width="3" stroke-opacity="1" stroke-miterlimit="4"/><path stroke-linecap="round" transform="matrix(-0.748005, -0.00000000130552, 0.00000000130552, -0.748005, 174.826576, 164.1105)" fill="none" stroke-linejoin="round" d="M 100.066158 1.500282 C 100.066158 3.98606 98.050381 6.001838 95.564603 6.001838 C 93.078825 6.001838 91.063047 3.98606 91.063047 1.500282 C 91.063047 -0.985496 93.078825 -3.001273 95.564603 -3.001273 C 98.050381 -3.001274 100.066158 -0.985496 100.066158 1.500282 " stroke="#ffde59" stroke-width="3" stroke-opacity="1" stroke-miterlimit="4"/><path stroke-linecap="butt" transform="matrix(-0.55963, 0.496312, -0.496312, -0.55963, 203.808465, 138.310339)" fill="none" stroke-linejoin="miter" d="M 0.00306063 1.499564 L 51.992889 1.496888 " stroke="#ffde59" stroke-width="3" stroke-opacity="1" stroke-miterlimit="4"/><g clip-path="url(#5f422991dd)"><g clip-path="url(#11d9dcaedb)"><path fill="#1e1e1e" d="M 9.003906 163.609375 L 20.632812 163.609375 L 20.632812 175.554688 L 9.003906 175.554688 Z M 9.003906 163.609375 " fill-opacity="1" fill-rule="nonzero"/></g></g><path stroke-linecap="butt" transform="matrix(-0.748005, 0.00000000130552, -0.00000000130552, -0.748005, 67.832604, 170.709894)" fill="none" stroke-linejoin="miter" d="M 0.000765747 1.502605 L 65.61277 1.502605 " stroke="#ffde59" stroke-width="3" stroke-opacity="1" stroke-miterlimit="4"/><path stroke-linecap="round" transform="matrix(-0.748005, 0.00000000130552, -0.00000000130552, -0.748005, 67.832604, 170.709894)" fill="none" stroke-linejoin="round" d="M 75.36266 1.502605 C 75.36266 3.98316 73.352104 5.998938 70.866326 5.998938 C 68.380548 5.998938 66.36477 3.98316 66.36477 1.502605 C 66.36477 -0.983173 68.380548 -2.998951 70.866326 -2.998951 C 73.352104 -2.998951 75.36266 -0.983173 75.36266 1.502605 " stroke="#ffde59" stroke-width="3" stroke-opacity="1" stroke-miterlimit="4"/><path stroke-linecap="butt" transform="matrix(-0.434166, 0.609108, -0.609108, -0.434166, 79.463071, 154.252418)" fill="none" stroke-linejoin="miter" d="M -0.000636895 1.498202 L 26.819167 1.498687 " stroke="#ffde59" stroke-width="3" stroke-opacity="1" stroke-miterlimit="4"/><path stroke-linecap="butt" transform="matrix(-0.748005, 0.00000000130552, -0.00000000130552, -0.748005, 135.02827, 155.228595)" fill="none" stroke-linejoin="miter" d="M 11.249906 1.501495 L 76.86191 1.501495 " stroke="#ffde59" stroke-width="3" stroke-opacity="1" stroke-miterlimit="4"/><path stroke-linecap="round" transform="matrix(-0.748005, 0.00000000130552, -0.00000000130552, -0.748005, 135.02827, 155.228595)" fill-opacity="1" fill="#ffde59" fill-rule="nonzero" stroke-linejoin="round" d="M 1.500016 1.501495 C 1.500016 -0.984283 3.515794 -3.000061 6.001572 -3.000061 C 8.48735 -3.000061 10.497906 -0.984283 10.497906 1.501495 C 10.497906 3.987273 8.48735 5.997829 6.001572 5.997829 C 3.515794 5.997829 1.500016 3.987273 1.500016 1.501495 " stroke="#ffde59" stroke-width="3" stroke-opacity="1" stroke-miterlimit="4"/><path stroke-linecap="butt" transform="matrix(0.00000000130552, 0.748005, -0.748005, 0.00000000130552, 205.044397, 81.009167)" fill="none" stroke-linejoin="miter" d="M 11.252079 1.500687 L 50.20986 1.500688 " stroke="#ffde59" stroke-width="3" stroke-opacity="1" stroke-miterlimit="4"/><path stroke-linecap="round" transform="matrix(0.00000000130552, 0.748005, -0.748005, 0.00000000130552, 205.044397, 81.009167)" fill-opacity="1" fill="#ffde59" fill-rule="nonzero" stroke-linejoin="round" d="M 1.50219 1.500687 C 1.50219 -0.985091 3.512745 -3.000868 5.998523 -3.000868 C 8.484301 -3.000868 10.500079 -0.985091 10.500079 1.500687 C 10.500079 3.986465 8.484301 6.002243 5.998523 6.002243 C 3.512745 6.002243 1.50219 3.986465 1.50219 1.500687 " stroke="#ffde59" stroke-width="3" stroke-opacity="1" stroke-miterlimit="4"/><path stroke-linecap="round" transform="matrix(0.00000000130552, 0.748005, -0.748005, 0.00000000130552, 205.044397, 81.009167)" fill-opacity="1" fill="#ffde59" fill-rule="nonzero" stroke-linejoin="round" d="M 59.959749 1.500688 C 59.959749 3.986465 57.943971 6.002243 55.458193 6.002243 C 52.972416 6.002243 50.96186 3.986465 50.96186 1.500688 C 50.96186 -0.98509 52.972416 -3.000868 55.458194 -3.000868 C 57.943971 -3.000868 59.959749 -0.98509 59.959749 1.500688 " stroke="#ffde59" stroke-width="3" stroke-opacity="1" stroke-miterlimit="4"/><path stroke-linecap="butt" transform="matrix(0.00000000130552, 0.748005, -0.748005, 0.00000000130552, 39.408857, 114.199994)" fill="none" stroke-linejoin="miter" d="M 11.247631 1.502264 L 50.210634 1.502264 " stroke="#ffde59" stroke-width="3" stroke-opacity="1" stroke-miterlimit="4"/><path stroke-linecap="round" transform="matrix(0.00000000130552, 0.748005, -0.748005, 0.00000000130552, 39.408857, 114.199994)" fill-opacity="1" fill="#ffde59" fill-rule="nonzero" stroke-linejoin="round" d="M 1.497742 1.502264 C 1.497742 -0.983514 3.51352 -2.999292 5.999298 -2.999292 C 8.485075 -2.999292 10.500853 -0.983514 10.500853 1.502264 C 10.500853 3.98282 8.485075 5.998597 5.999297 5.998597 C 3.51352 5.998597 1.497742 3.98282 1.497742 1.502264 " stroke="#ffde59" stroke-width="3" stroke-opacity="1" stroke-miterlimit="4"/><path stroke-linecap="round" transform="matrix(0.00000000130552, 0.748005, -0.748005, 0.00000000130552, 39.408857, 114.199994)" fill-opacity="1" fill="#ffde59" fill-rule="nonzero" stroke-linejoin="round" d="M 59.960523 1.502264 C 59.960523 3.98282 57.944746 5.998598 55.458968 5.998598 C 52.97319 5.998598 50.957412 3.98282 50.957412 1.502264 C 50.957412 -0.983514 52.97319 -2.999292 55.458968 -2.999292 C 57.944746 -2.999292 59.960523 -0.983514 59.960523 1.502264 " stroke="#ffde59" stroke-width="3" stroke-opacity="1" stroke-miterlimit="4"/><path stroke-linecap="butt" transform="matrix(0.747829, -0.0162415, 0.0162415, 0.747829, 121.139418, 98.951388)" fill="none" stroke-linejoin="miter" d="M 0.000345205 1.501461 L 25.417709 1.499794 " stroke="#ffde59" stroke-width="3" stroke-opacity="1" stroke-miterlimit="4"/><path stroke-linecap="butt" transform="matrix(0.422124, 0.617514, -0.617514, 0.422124, 109.80413, 81.007048)" fill="none" stroke-linejoin="miter" d="M 11.247212 1.500941 L 30.87558 1.501677 " stroke="#ffde59" stroke-width="3" stroke-opacity="1" stroke-miterlimit="4"/><path stroke-linecap="round" transform="matrix(0.422124, 0.617514, -0.617514, 0.422124, 109.80413, 81.007048)" fill-opacity="1" fill="#ffde59" fill-rule="nonzero" stroke-linejoin="round" d="M 1.500399 1.499183 C 1.498888 -0.987878 3.51395 -3.001021 5.998064 -2.99822 C 8.485125 -2.99973 10.498268 -0.984668 10.499779 1.502392 C 10.499924 3.982195 8.486227 6.002597 6.002113 5.999796 C 3.515052 6.001306 1.501909 3.986244 1.500399 1.499183 " stroke="#ffde59" stroke-width="3" stroke-opacity="1" stroke-miterlimit="4"/><path stroke-linecap="butt" transform="matrix(-0.42166, 0.617831, -0.617831, -0.42166, 315.384145, 95.147036)" fill="none" stroke-linejoin="miter" d="M 0.00146877 1.499593 L 25.419231 1.50137 " stroke="#ffde59" stroke-width="3" stroke-opacity="1" stroke-miterlimit="4"/><path stroke-linecap="butt" transform="matrix(-0.748005, -0.00000000130552, 0.00000000130552, -0.748005, 352.647692, 95.957541)" fill="none" stroke-linejoin="miter" d="M 11.247671 1.499459 L 52.054119 1.499459 " stroke="#ffde59" stroke-width="3" stroke-opacity="1" stroke-miterlimit="4"/><path stroke-linecap="round" transform="matrix(-0.748005, -0.00000000130552, 0.00000000130552, -0.748005, 352.647692, 95.957541)" fill-opacity="1" fill="#ffde59" fill-rule="nonzero" stroke-linejoin="round" d="M 1.497782 1.499459 C 1.497782 -0.986319 3.51356 -3.002097 5.999338 -3.002097 C 8.485116 -3.002097 10.500893 -0.986319 10.500893 1.499459 C 10.500893 3.985237 8.485116 6.001015 5.999338 6.001015 C 3.51356 6.001015 1.497782 3.985237 1.497782 1.499459 " stroke="#ffde59" stroke-width="3" stroke-opacity="1" stroke-miterlimit="4"/><g clip-path="url(#77d2fab8e4)"><g clip-path="url(#0355546d90)"><path fill="#1e1e1e" d="M 251.460938 42.160156 L 263.089844 42.160156 L 263.089844 54.105469 L 251.460938 54.105469 Z M 251.460938 42.160156 " fill-opacity="1" fill-rule="nonzero"/></g></g><path stroke-linecap="butt" transform="matrix(0, 0.748005, -0.748005, 0, 258.323352, 43.594511)" fill="none" stroke-linejoin="miter" d="M 11.247651 1.497619 L 111.670991 1.497619 " stroke="#ffde59" stroke-width="3" stroke-opacity="1" stroke-miterlimit="4"/><path stroke-linecap="round" transform="matrix(0, 0.748005, -0.748005, 0, 258.323352, 43.594511)" fill="none" stroke-linejoin="round" d="M 1.497761 1.497619 C 1.497761 -0.982936 3.513539 -2.998714 5.999317 -2.998714 C 8.485095 -2.998714 10.500873 -0.982936 10.500873 1.497619 C 10.500873 3.983397 8.485095 5.999175 5.999317 5.999175 C 3.513539 5.999175 1.497761 3.983397 1.497761 1.497619 " stroke="#ffde59" stroke-width="3" stroke-opacity="1" stroke-miterlimit="4"/><path stroke-linecap="round" transform="matrix(0, 0.748005, -0.748005, 0, 258.323352, 43.594511)" fill="none" stroke-linejoin="round" d="M 121.420881 1.497619 C 121.420881 3.983397 119.405103 5.999175 116.919325 5.999175 C 114.433547 5.999175 112.417769 3.983397 112.417769 1.497619 C 112.417769 -0.982936 114.433547 -2.998714 116.919325 -2.998714 C 119.405103 -2.998714 121.420881 -0.982936 121.420881 1.497619 " stroke="#ffde59" stroke-width="3" stroke-opacity="1" stroke-miterlimit="4"/><g clip-path="url(#cd6ce08ba1)"><g clip-path="url(#af8e977164)"><path fill="#1e1e1e" d="M 161.636719 80.257812 L 150.007812 80.257812 L 150.007812 68.308594 L 161.636719 68.308594 Z M 161.636719 80.257812 " fill-opacity="1" fill-rule="nonzero"/></g></g><path stroke-linecap="butt" transform="matrix(-0.00134137, -0.748004, 0.748004, -0.00134137, 154.776456, 79.242005)" fill="none" stroke-linejoin="miter" d="M 11.250975 1.499254 L 52.595375 1.500284 " stroke="#ffde59" stroke-width="3" stroke-opacity="1" stroke-miterlimit="4"/><path stroke-linecap="round" transform="matrix(-0.00134137, -0.748004, 0.748004, -0.00134137, 154.776456, 79.242005)" fill="none" stroke-linejoin="round" d="M 1.501073 1.497436 C 1.500299 -0.983125 3.514476 -3.000516 6.000259 -3.001281 C 8.486042 -3.002046 10.498212 -0.987878 10.498976 1.497905 C 10.499741 3.983688 8.485564 6.00108 5.999781 6.001844 C 3.513997 6.002609 1.501838 3.983219 1.501073 1.497436 " stroke="#ffde59" stroke-width="3" stroke-opacity="1" stroke-miterlimit="4"/><g clip-path="url(#8c57006747)"><g clip-path="url(#ee1d372243)"><g clip-path="url(#2dc3343289)"><path fill="#ffde59" d="M 69.195312 59.503906 L 71.101562 65.050781 L 63.429688 68.765625 L 55.84375 70.292969 L 53.9375 64.746094 L 60.863281 61.289062 Z M 69.195312 59.503906 " fill-opacity="1" fill-rule="nonzero"/></g></g></g><g clip-path="url(#0c94708d46)"><g clip-path="url(#50a05dbc2f)"><g clip-path="url(#18d063ef03)"><path fill="#ededed" d="M 44.890625 13.574219 C 32.25 17.917969 25.417969 31.371094 29.628906 43.632812 C 32.390625 51.675781 39.222656 57.207031 47.171875 58.828125 C 50.304688 59.464844 52.890625 61.695312 53.9375 64.746094 C 58.085938 63.320312 66.773438 60.335938 69.195312 59.503906 C 68.152344 56.46875 68.8125 53.113281 70.898438 50.675781 C 76.171875 44.511719 78.164062 35.953125 75.402344 27.90625 C 71.191406 15.648438 57.53125 9.234375 44.890625 13.574219 Z M 44.890625 13.574219 " fill-opacity="1" fill-rule="nonzero"/></g></g></g><g clip-path="url(#d9ed0fc658)"><g clip-path="url(#a740886a3e)"><g clip-path="url(#56d47c02a3)"><path fill="#ffde59" d="M 69.417969 33.0625 C 69.546875 33.429688 69.597656 33.808594 69.574219 34.199219 C 69.546875 34.585938 69.453125 34.953125 69.28125 35.304688 C 69.109375 35.652344 68.878906 35.957031 68.585938 36.214844 C 68.296875 36.472656 67.964844 36.664062 67.597656 36.789062 C 67.230469 36.917969 66.851562 36.96875 66.464844 36.945312 C 66.074219 36.921875 65.707031 36.824219 65.355469 36.652344 C 65.007812 36.480469 64.703125 36.25 64.445312 35.957031 C 64.1875 35.667969 63.996094 35.335938 63.871094 34.96875 C 63.746094 34.601562 63.691406 34.222656 63.71875 33.835938 C 63.742188 33.445312 63.839844 33.078125 64.007812 32.730469 C 64.179688 32.378906 64.410156 32.074219 64.703125 31.816406 C 64.996094 31.5625 65.324219 31.367188 65.691406 31.242188 C 66.058594 31.117188 66.4375 31.066406 66.828125 31.089844 C 67.214844 31.113281 67.582031 31.210938 67.933594 31.382812 C 68.28125 31.550781 68.585938 31.78125 68.84375 32.074219 C 69.101562 32.367188 69.292969 32.695312 69.417969 33.0625 Z M 69.417969 33.0625 " fill-opacity="1" fill-rule="nonzero"/></g></g></g><g clip-path="url(#d072ddd89c)"><g clip-path="url(#2c34f7b5ca)"><g clip-path="url(#28482198e7)"><path fill="#ffde59" d="M 69.949219 70.722656 L 71.425781 75.019531 C 72.347656 77.703125 70.917969 80.621094 68.238281 81.542969 C 65.558594 82.464844 62.636719 81.039062 61.714844 78.355469 L 60.238281 74.054688 Z M 69.949219 70.722656 " fill-opacity="1" fill-rule="nonzero"/></g></g></g><g clip-path="url(#6424ad3f01)"><g clip-path="url(#7f79944985)"><g clip-path="url(#68ea96307b)"><path fill="#ffde59" d="M 71.101562 65.050781 L 73.007812 70.601562 C 71.179688 71.230469 59.980469 75.074219 57.75 75.839844 L 55.84375 70.292969 Z M 71.101562 65.050781 " fill-opacity="1" fill-rule="nonzero"/></g></g></g><g clip-path="url(#5e5f79b9f5)"><g clip-path="url(#b75cfc40dc)"><g clip-path="url(#fa45e010db)"><path fill="#ffde59" d="M 57.609375 34.792969 C 57.71875 35.113281 57.792969 35.441406 57.839844 35.773438 C 57.886719 36.109375 57.898438 36.441406 57.875 36.78125 C 57.855469 37.117188 57.800781 37.445312 57.714844 37.773438 C 57.628906 38.097656 57.511719 38.414062 57.363281 38.714844 C 57.21875 39.019531 57.039062 39.304688 56.835938 39.574219 C 56.632812 39.839844 56.402344 40.085938 56.152344 40.308594 C 55.898438 40.53125 55.625 40.730469 55.335938 40.898438 C 55.042969 41.066406 54.738281 41.207031 54.421875 41.316406 C 54.101562 41.425781 53.773438 41.503906 53.441406 41.550781 C 53.105469 41.59375 52.773438 41.605469 52.4375 41.585938 C 52.097656 41.566406 51.769531 41.511719 51.441406 41.425781 C 51.117188 41.339844 50.800781 41.222656 50.5 41.074219 C 50.195312 40.925781 49.910156 40.75 49.640625 40.546875 C 49.375 40.34375 49.128906 40.113281 48.90625 39.859375 C 48.683594 39.609375 48.484375 39.335938 48.316406 39.046875 C 48.148438 38.753906 48.007812 38.449219 47.898438 38.128906 C 47.789062 37.8125 47.710938 37.484375 47.664062 37.152344 C 47.621094 36.816406 47.609375 36.480469 47.628906 36.144531 C 47.648438 35.808594 47.703125 35.476562 47.789062 35.152344 C 47.875 34.824219 47.992188 34.511719 48.140625 34.207031 C 48.289062 33.90625 48.464844 33.621094 48.667969 33.351562 C 48.875 33.085938 49.101562 32.839844 49.355469 32.617188 C 49.605469 32.390625 49.878906 32.195312 50.171875 32.027344 C 50.460938 31.855469 50.765625 31.71875 51.085938 31.609375 C 51.402344 31.496094 51.730469 31.421875 52.0625 31.375 C 52.398438 31.332031 52.734375 31.316406 53.070312 31.339844 C 53.40625 31.359375 53.738281 31.414062 54.0625 31.5 C 54.390625 31.585938 54.703125 31.703125 55.007812 31.851562 C 55.308594 32 55.59375 32.175781 55.863281 32.378906 C 56.132812 32.582031 56.375 32.8125 56.601562 33.0625 C 56.824219 33.316406 57.019531 33.589844 57.1875 33.878906 C 57.359375 34.171875 57.5 34.476562 57.609375 34.792969 Z M 57.609375 34.792969 " fill-opacity="1" fill-rule="nonzero"/></g></g></g><g clip-path="url(#07539ffd0b)"><g clip-path="url(#e13255e4ba)"><g clip-path="url(#7f5f51f8fa)"><path fill="#ffde59" d="M 43.0625 42.117188 C 43.191406 42.484375 43.242188 42.863281 43.21875 43.25 C 43.195312 43.640625 43.097656 44.007812 42.925781 44.359375 C 42.753906 44.707031 42.523438 45.011719 42.230469 45.269531 C 41.941406 45.527344 41.609375 45.71875 41.242188 45.84375 C 40.875 45.96875 40.496094 46.019531 40.109375 45.996094 C 39.71875 45.972656 39.351562 45.875 39.003906 45.707031 C 38.652344 45.535156 38.347656 45.304688 38.089844 45.011719 C 37.832031 44.71875 37.640625 44.390625 37.515625 44.023438 C 37.390625 43.65625 37.339844 43.277344 37.363281 42.886719 C 37.386719 42.5 37.484375 42.132812 37.65625 41.78125 C 37.824219 41.433594 38.054688 41.128906 38.347656 40.871094 C 38.640625 40.613281 38.96875 40.421875 39.335938 40.296875 C 39.703125 40.167969 40.082031 40.117188 40.472656 40.140625 C 40.859375 40.164062 41.226562 40.261719 41.578125 40.433594 C 41.925781 40.605469 42.230469 40.835938 42.488281 41.128906 C 42.746094 41.417969 42.9375 41.75 43.0625 42.117188 Z M 43.0625 42.117188 " fill-opacity="1" fill-rule="nonzero"/></g></g></g><g clip-path="url(#8f74c6c5f7)"><g clip-path="url(#5cf58f2c19)"><g clip-path="url(#64a78d3cf1)"><path fill="#000000" d="M 44.414062 12.1875 C 31.027344 16.785156 23.773438 31.105469 28.238281 44.105469 C 31.113281 52.472656 38.242188 58.5 46.878906 60.265625 C 49.523438 60.804688 51.679688 62.6875 52.550781 65.222656 C 53.011719 66.5625 55.898438 74.964844 56.363281 76.316406 C 56.625 77.085938 57.460938 77.492188 58.226562 77.230469 L 59.613281 76.753906 L 60.328125 78.832031 C 61.511719 82.273438 65.273438 84.113281 68.714844 82.929688 C 72.15625 81.75 73.996094 77.988281 72.8125 74.542969 L 72.097656 72.464844 L 73.484375 71.988281 C 74.25 71.722656 74.660156 70.890625 74.394531 70.125 C 73.933594 68.78125 71.046875 60.378906 70.582031 59.027344 C 69.71875 56.507812 70.265625 53.671875 72.011719 51.628906 C 77.753906 44.921875 79.660156 35.78125 76.789062 27.429688 C 72.324219 14.429688 57.800781 7.589844 44.414062 12.1875 Z M 53.945312 39.929688 C 52.03125 40.585938 49.941406 39.566406 49.285156 37.652344 C 48.628906 35.742188 49.648438 33.652344 51.5625 32.996094 C 53.472656 32.335938 55.5625 33.359375 56.21875 35.269531 C 56.878906 37.183594 55.855469 39.273438 53.945312 39.929688 Z M 68.285156 61.367188 L 69.238281 64.140625 L 56.753906 68.429688 L 55.800781 65.65625 Z M 70.039062 75.496094 C 70.695312 77.410156 69.675781 79.5 67.761719 80.15625 C 65.851562 80.8125 63.761719 79.792969 63.101562 77.878906 L 62.386719 75.800781 L 69.324219 73.417969 Z M 71.144531 69.691406 C 69.570312 70.230469 60.230469 73.4375 58.660156 73.976562 L 57.707031 71.203125 L 70.191406 66.914062 Z M 69.785156 49.722656 C 67.6875 52.171875 66.839844 55.449219 67.433594 58.558594 L 62.476562 60.261719 L 59.808594 52.488281 L 66.203125 38.394531 C 66.828125 38.460938 67.464844 38.386719 68.074219 38.179688 C 70.367188 37.390625 71.59375 34.882812 70.804688 32.585938 C 70.019531 30.292969 67.511719 29.066406 65.214844 29.855469 C 62.921875 30.644531 61.695312 33.152344 62.484375 35.445312 C 62.707031 36.097656 63.074219 36.675781 63.550781 37.144531 L 58.421875 48.449219 L 56.230469 42.070312 C 58.789062 40.484375 60.011719 37.285156 58.996094 34.316406 C 57.8125 30.875 54.050781 29.039062 50.609375 30.21875 C 47.167969 31.402344 45.328125 35.164062 46.511719 38.605469 C 47.527344 41.570312 50.460938 43.34375 53.457031 43.023438 L 55.648438 49.402344 L 44.65625 43.636719 C 44.742188 42.972656 44.675781 42.292969 44.453125 41.640625 C 43.664062 39.34375 41.15625 38.121094 38.859375 38.910156 C 36.566406 39.695312 35.339844 42.203125 36.128906 44.5 C 36.917969 46.792969 39.425781 48.019531 41.71875 47.230469 C 42.328125 47.019531 42.875 46.6875 43.328125 46.253906 L 57.035156 53.441406 L 59.703125 61.214844 L 54.75 62.914062 C 53.269531 60.015625 50.566406 58.023438 47.464844 57.390625 C 39.679688 55.800781 33.53125 50.480469 31.015625 43.15625 C 27.074219 31.679688 33.511719 19.035156 45.367188 14.960938 C 57.222656 10.890625 70.074219 16.910156 74.015625 28.382812 C 76.53125 35.707031 74.949219 43.6875 69.785156 49.722656 Z M 65.257812 34.492188 C 64.996094 33.726562 65.402344 32.890625 66.167969 32.628906 C 66.933594 32.367188 67.769531 32.773438 68.03125 33.539062 C 68.292969 34.304688 67.886719 35.140625 67.121094 35.402344 C 66.367188 35.664062 65.523438 35.269531 65.257812 34.492188 Z M 40.765625 44.457031 C 40 44.71875 39.164062 44.3125 38.902344 43.546875 C 38.640625 42.78125 39.046875 41.945312 39.8125 41.683594 C 40.578125 41.417969 41.414062 41.828125 41.675781 42.59375 C 41.9375 43.351562 41.539062 44.191406 40.765625 44.457031 Z M 40.765625 44.457031 " fill-opacity="1" fill-rule="nonzero"/></g></g></g><g clip-path="url(#cb5e83ee8b)"><g clip-path="url(#855f3e3d61)"><g clip-path="url(#28aa64bfcc)"><path fill="#000000" d="M 78.546875 16.640625 L 82.96875 12.785156 C 83.582031 12.253906 83.644531 11.328125 83.113281 10.71875 C 82.582031 10.105469 81.65625 10.042969 81.042969 10.574219 L 76.621094 14.425781 C 76.007812 14.957031 75.945312 15.886719 76.476562 16.496094 C 77.007812 17.109375 77.933594 17.171875 78.546875 16.640625 Z M 78.546875 16.640625 " fill-opacity="1" fill-rule="nonzero"/></g></g></g><g clip-path="url(#f85b294d8d)"><g clip-path="url(#90d538d7d5)"><g clip-path="url(#73276e6613)"><path fill="#000000" d="M 80.714844 25.3125 L 86.261719 23.40625 C 87.027344 23.144531 87.4375 22.308594 87.171875 21.542969 C 86.910156 20.777344 86.074219 20.371094 85.308594 20.632812 L 79.761719 22.539062 C 78.996094 22.800781 78.585938 23.636719 78.851562 24.402344 C 79.113281 25.167969 79.949219 25.574219 80.714844 25.3125 Z M 80.714844 25.3125 " fill-opacity="1" fill-rule="nonzero"/></g></g></g><g clip-path="url(#a423fa31ba)"><g clip-path="url(#11298df039)"><g clip-path="url(#ea8a3736a1)"><path fill="#000000" d="M 89.089844 30.679688 L 83.226562 30.734375 C 82.414062 30.738281 81.765625 31.402344 81.773438 32.210938 C 81.78125 33.023438 82.441406 33.671875 83.253906 33.664062 L 89.117188 33.613281 C 89.925781 33.605469 90.578125 32.945312 90.570312 32.132812 C 90.5625 31.324219 89.902344 30.671875 89.089844 30.679688 Z M 89.089844 30.679688 " fill-opacity="1" fill-rule="nonzero"/></g></g></g><g clip-path="url(#bea7e1ebcb)"><g clip-path="url(#7e0784baf4)"><g clip-path="url(#091ab14a80)"><path fill="#000000" d="M 14.367188 36.351562 L 20.222656 36.671875 C 21.03125 36.71875 21.722656 36.097656 21.765625 35.289062 C 21.8125 34.480469 21.191406 33.789062 20.382812 33.746094 L 14.527344 33.425781 C 13.714844 33.378906 13.027344 34 12.980469 34.808594 C 12.9375 35.617188 13.558594 36.308594 14.367188 36.351562 Z M 14.367188 36.351562 " fill-opacity="1" fill-rule="nonzero"/></g></g></g><g clip-path="url(#94bd7b70d3)"><g clip-path="url(#e7cb9b80b1)"><g clip-path="url(#e34c0f40dc)"><path fill="#000000" d="M 22.890625 42.074219 L 17.339844 43.980469 C 16.574219 44.242188 16.167969 45.078125 16.429688 45.84375 C 16.691406 46.609375 17.527344 47.019531 18.292969 46.753906 L 23.84375 44.847656 C 24.609375 44.585938 25.015625 43.75 24.753906 42.984375 C 24.488281 42.21875 23.65625 41.8125 22.890625 42.074219 Z M 22.890625 42.074219 " fill-opacity="1" fill-rule="nonzero"/></g></g></g><g clip-path="url(#dc42975a87)"><g clip-path="url(#274f41b191)"><g clip-path="url(#eed3be0827)"><path fill="#000000" d="M 25.191406 50.667969 L 20.53125 54.230469 C 19.886719 54.722656 19.765625 55.644531 20.257812 56.285156 C 20.746094 56.929688 21.667969 57.054688 22.3125 56.5625 L 26.972656 53 C 27.617188 52.507812 27.738281 51.585938 27.246094 50.941406 C 26.753906 50.300781 25.835938 50.175781 25.191406 50.667969 Z M 25.191406 50.667969 " fill-opacity="1" fill-rule="nonzero"/></g></g></g><g clip-path="url(#554ae45c0b)"><path stroke-linecap="butt" transform="matrix(0.824735, 0, 0, 0.824735, 6.737105, 74.679831)" fill="none" stroke-linejoin="miter" d="M 1.753882 81.470091 L 1.753882 22.175501 L 19.704717 21.308745 L 19.704717 46.373605 L 28.888534 45.502113 L 28.888534 22.175501 L 46.75885 21.308745 L 46.75885 81.470091 L 28.888534 81.470091 L 28.888534 61.615237 L 19.704717 62.481992 L 19.704717 81.470091 Z M 54.554912 71.945255 C 54.554912 70.207008 54.872248 68.762416 55.506922 67.606742 C 56.141595 66.446332 56.979932 65.52274 58.026669 64.83123 C 59.054461 64.139721 60.271708 63.647138 61.668936 63.348747 C 63.051956 63.069301 64.524966 62.92721 66.092704 62.92721 C 68.858743 62.92721 71.629518 63.244547 74.409766 63.87922 C 77.118969 64.57073 79.401898 65.290658 81.249081 66.039004 L 81.249081 54.861176 L 56.288422 57.02096 L 56.288422 38.643852 C 61.6121 38.700688 66.642123 38.785943 71.383227 38.899616 C 76.053286 39.013289 80.183399 39.160116 83.768829 39.344835 C 87.932097 39.510607 91.778027 39.681117 95.306622 39.851626 L 94.880348 82.000564 L 81.609045 82.000564 L 81.353282 76.009059 C 79.32138 77.856242 76.981614 79.305571 74.324512 80.347572 C 71.6011 81.451145 68.943998 82.000564 66.343732 82.000564 C 64.382875 82.000564 62.649365 81.711646 61.138463 81.133809 C 59.641771 80.608072 58.429261 79.888144 57.496196 78.974025 C 56.525241 78.040961 55.805313 76.970541 55.336412 75.753295 C 54.815412 74.540785 54.554912 73.271438 54.554912 71.945255 Z M 65.73274 72.366792 C 65.73274 73.413529 66.140068 74.166612 66.959459 74.630776 C 67.764642 75.156512 68.830325 75.417013 70.156508 75.417013 C 70.848017 75.417013 71.544264 75.241767 72.249982 74.886539 C 72.884656 74.607094 73.495647 74.261339 74.073484 73.849275 C 74.637112 73.441947 75.210212 72.944629 75.788049 72.366792 C 75.210212 71.788955 74.637112 71.272691 74.073484 70.822736 C 73.495647 70.415408 72.884656 70.031762 72.249982 69.681271 C 71.544264 69.397089 70.848017 69.254998 70.156508 69.254998 C 68.830325 69.254998 67.764642 69.515498 66.959459 70.041235 C 66.140068 70.619072 65.73274 71.395836 65.73274 72.366792 Z M 103.107419 60.492717 C 103.107419 57.726678 103.221092 55.008003 103.448438 52.341428 C 103.685256 49.745898 104.443075 47.401396 105.712422 45.312658 C 106.981768 43.238129 108.971043 41.509355 111.680245 40.126335 C 114.403657 38.785943 118.249588 38.004442 123.218038 37.777097 L 124.785776 37.777097 C 129.119552 37.777097 132.581837 38.468606 135.182103 39.851626 C 137.735005 41.305691 139.676916 43.096038 141.003099 45.227403 C 142.329282 47.429815 143.196038 49.831153 143.603365 52.426683 C 144.00122 55.093258 144.233302 57.641424 144.304348 60.066444 L 128.958516 61.103709 C 128.958516 60.061708 128.920625 59.052861 128.849579 58.07717 C 128.735906 57.092005 128.541715 56.192095 128.257533 55.391649 C 127.907042 54.572257 127.46656 53.899693 126.945559 53.378693 C 126.367722 52.928738 125.590958 52.701392 124.615266 52.701392 C 124.151102 52.701392 123.767456 52.72981 123.473802 52.786647 C 122.147619 53.013992 121.138772 53.331329 120.447263 53.738657 C 119.698916 54.131775 119.177916 54.714348 118.879525 55.476904 C 118.543243 56.27735 118.344315 57.286196 118.287479 58.503443 C 118.230642 59.715953 118.202224 61.274218 118.202224 63.178238 C 118.202224 65.030158 118.230642 66.649996 118.287479 68.047224 C 118.344315 69.430244 118.543243 70.581181 118.879525 71.500036 C 119.177916 72.433101 119.698916 73.129347 120.447263 73.593511 C 121.138772 74.048202 122.147619 74.270812 123.473802 74.270812 C 124.814194 74.270812 125.856195 74.076621 126.604541 73.678766 C 127.352887 73.271438 127.907042 72.665183 128.257533 71.86 C 128.598552 71.040609 128.792743 69.998608 128.849579 68.724525 C 128.920625 67.512015 128.958516 66.100577 128.958516 64.494948 L 144.304348 63.012465 C 144.233302 65.664831 143.972802 68.241415 143.522847 70.737481 C 142.99711 73.276174 142.011946 75.502267 140.557881 77.406287 C 139.061188 79.367144 136.953505 80.925409 134.225357 82.085819 C 131.516154 83.241493 127.878624 83.819329 123.303292 83.819329 C 118.803743 83.819329 115.218312 83.12782 112.551737 81.7448 C 109.842535 80.418617 107.791687 78.62827 106.408668 76.369023 C 105.011439 74.166612 104.116266 71.684755 103.723147 68.918716 C 103.311083 66.138468 103.107419 63.329802 103.107419 60.492717 Z M 169.705489 21.223491 L 168.223006 55.282713 C 168.336679 55.353758 168.47877 55.391649 168.644543 55.391649 C 168.99977 55.500586 169.350261 55.557422 169.705489 55.557422 C 170.340162 55.557422 171.06009 55.382176 171.865273 55.031685 C 172.613619 54.747503 173.333547 54.055993 174.025057 52.957156 C 174.730775 51.910419 175.308612 50.380572 175.758567 48.362879 C 176.227468 46.387814 176.45955 43.725975 176.45955 40.382099 L 197.711633 38.643852 C 197.583751 39.164853 197.351669 40.064762 197.015387 41.334109 C 196.603323 42.603456 196.082322 44.048048 195.447649 45.672622 C 194.812975 47.282987 194.036211 48.954925 193.117356 50.688436 C 192.132191 52.426683 190.971781 53.994421 189.645598 55.391649 C 188.305206 56.831505 186.775359 58.006124 185.051321 58.92498 C 183.260974 59.858044 181.233809 60.322208 178.979297 60.322208 C 181.574827 60.322208 183.824602 60.611127 185.728622 61.188963 C 187.651587 61.823637 189.271425 62.638292 190.597608 63.623457 C 191.871691 64.655985 192.908956 65.806922 193.709402 67.076269 C 194.457748 68.416661 195.035585 69.752317 195.447649 71.0785 C 196.48965 74.251866 196.778568 77.865715 196.314404 81.91531 L 178.979297 81.91531 L 178.808788 69.95598 C 178.808788 68.738734 178.685643 67.781988 178.448824 67.076269 C 178.164642 66.384759 177.818887 65.868495 177.41156 65.532213 C 176.942659 65.176985 176.45955 64.944903 175.948022 64.83123 C 175.370185 64.774394 174.820766 64.745976 174.299766 64.745976 C 172.504682 64.745976 170.974836 65.091731 169.705489 65.78324 C 168.421933 66.47475 167.777787 67.924079 167.777787 70.121753 L 167.52676 81.91531 L 151.6694 81.91531 L 151.394691 22.260755 Z M 204.290448 71.945255 C 204.290448 70.207008 204.607784 68.762416 205.242458 67.606742 C 205.881867 66.446332 206.720204 65.52274 207.762205 64.83123 C 208.794734 64.139721 210.007244 63.647138 211.404472 63.348747 C 212.787492 63.069301 214.260502 62.92721 215.82824 62.92721 C 218.594279 62.92721 221.36979 63.244547 224.150038 63.87922 C 226.859241 64.57073 229.137434 65.290658 230.984617 66.039004 L 230.984617 54.861176 L 206.028695 57.02096 L 206.028695 38.643852 C 211.347636 38.700688 216.377659 38.785943 221.123499 38.899616 C 225.793558 39.013289 229.918935 39.160116 233.504365 39.344835 C 237.667633 39.510607 241.513563 39.681117 245.042157 39.851626 L 244.620621 82.000564 L 231.344581 82.000564 L 231.093554 76.009059 C 229.061652 77.856242 226.71715 79.305571 224.064784 80.347572 C 221.341372 81.451145 218.679533 82.000564 216.084004 82.000564 C 214.123148 82.000564 212.3849 81.711646 210.873999 81.133809 C 209.377307 80.608072 208.164797 79.888144 207.236469 78.974025 C 206.260777 78.040961 205.540849 76.970541 205.076685 75.753295 C 204.550948 74.540785 204.290448 73.271438 204.290448 71.945255 Z M 215.468276 72.366792 C 215.468276 73.413529 215.88034 74.166612 216.694995 74.630776 C 217.500178 75.156512 218.565861 75.417013 219.892044 75.417013 C 220.583553 75.417013 221.284536 75.241767 221.990255 74.886539 C 222.624928 74.607094 223.231183 74.261339 223.80902 73.849275 C 224.372648 73.441947 224.945748 72.944629 225.523585 72.366792 C 224.945748 71.788955 224.372648 71.272691 223.80902 70.822736 C 223.231183 70.415408 222.624928 70.031762 221.990255 69.681271 C 221.284536 69.397089 220.583553 69.254998 219.892044 69.254998 C 218.565861 69.254998 217.500178 69.515498 216.694995 70.041235 C 215.88034 70.619072 215.468276 71.395836 215.468276 72.366792 Z M 251.9762 40.21159 L 260.127489 40.041081 L 259.791207 23.29802 L 276.76635 21.223491 L 275.899594 39.344835 L 287.437387 38.643852 L 286.736404 55.282713 L 276.089049 55.391649 L 276.089049 82.000564 L 259.597016 82.000564 L 260.383253 55.727931 L 252.402473 56.234723 Z M 311.100281 21.308745 L 309.977762 51.474673 C 310.503499 49.736426 311.228163 48.03607 312.161227 46.373605 C 313.075346 44.74903 314.112611 43.27602 315.273021 41.945101 C 316.428695 40.604708 317.698042 39.534289 319.081061 38.729107 C 320.478289 37.923924 321.927618 37.521333 323.419574 37.521333 C 327.582841 37.521333 330.737262 38.298097 332.882837 39.851626 C 334.957366 41.4762 336.397222 44.048048 337.202405 47.576642 C 337.96496 51.105236 338.282297 55.699513 338.154415 61.359473 C 337.988642 67.033641 337.732878 73.939266 337.391859 82.085819 L 320.118326 82.085819 C 320.303044 80.873309 320.506708 79.281889 320.734053 77.321033 C 320.904563 75.360176 321.079808 73.224074 321.264527 70.90799 C 321.373463 68.648743 321.458718 66.332659 321.515554 63.964475 C 321.57239 61.648391 321.543972 59.540707 321.430299 57.631951 C 321.264527 55.727931 320.970872 54.169666 320.563544 52.957156 C 320.156216 51.796746 319.549961 51.218909 318.744779 51.218909 C 316.727086 51.218909 314.932003 51.768328 313.364265 52.871901 C 311.744427 54.027575 310.555599 55.296922 309.811989 56.679941 L 308.855243 82.000564 L 294.63193 82.000564 L 294.63193 73.76402 C 294.63193 70.761163 294.63193 67.639897 294.63193 64.409694 C 294.575093 61.160545 294.546675 57.868769 294.546675 54.520157 L 294.546675 44.891121 C 294.489839 37.549751 294.433002 30.037872 294.376166 22.34601 Z M 345.879431 61.274218 C 345.879431 58.565016 345.993104 55.84634 346.215713 53.122929 C 346.457268 50.470563 347.215086 48.017124 348.484433 45.757877 C 349.75378 43.555466 351.780945 41.7367 354.561193 40.296844 C 357.270396 38.84278 361.135272 38.004442 366.160558 37.777097 L 367.979324 37.777097 C 372.777264 37.777097 376.481104 38.497025 379.095579 39.93688 C 381.691109 41.447782 383.623547 43.332856 384.892893 45.587367 C 386.11014 47.903451 386.834804 50.413726 387.076359 53.122929 C 387.298968 55.903177 387.412641 58.565016 387.412641 61.103709 C 387.412641 63.940793 387.237396 66.687887 386.886904 69.340253 C 386.545886 72.049455 385.67913 74.479212 384.281902 76.624787 C 382.898883 78.770361 380.786462 80.475454 377.949378 81.7448 C 375.126503 83.070983 371.228472 83.734075 366.245813 83.734075 C 361.684691 83.734075 358.070842 83.070983 355.404267 81.7448 C 352.695064 80.418617 350.648953 78.685107 349.265934 76.539532 C 347.811869 74.450794 346.888277 72.049455 346.495159 69.340253 C 346.083095 66.687887 345.879431 63.99763 345.879431 61.274218 Z M 366.435268 52.170919 C 365.038039 52.398265 363.991302 52.687183 363.299792 53.042411 C 362.551446 53.449738 362.030445 54.027575 361.736791 54.775921 C 361.395772 55.524267 361.196845 56.476277 361.144745 57.631951 C 361.087908 58.792361 361.05949 60.29379 361.05949 62.140973 C 361.05949 63.936057 361.087908 65.494322 361.144745 66.820505 C 361.196845 68.146688 361.395772 69.250262 361.736791 70.121753 C 362.030445 71.040609 362.551446 71.7037 363.299792 72.115764 C 363.991302 72.579928 365.038039 72.81201 366.435268 72.81201 C 367.875123 72.81201 368.969224 72.579928 369.717571 72.115764 C 370.480126 71.7037 371.029544 71.040609 371.365827 70.121753 C 371.721054 69.250262 371.924718 68.146688 371.981554 66.820505 C 371.981554 65.494322 371.981554 63.936057 371.981554 62.140973 C 371.981554 60.521136 372.009973 59.071807 372.066809 57.80246 C 372.066809 56.533114 371.981554 55.467431 371.811045 54.605412 C 371.626327 53.73392 371.275836 53.061356 370.754835 52.597192 C 370.243307 52.142501 369.471279 51.919891 368.424542 51.919891 C 367.903542 51.919891 367.24045 52.005146 366.435268 52.170919 Z M 411.937554 38.643852 L 411.345508 50.967881 C 411.923345 49.343307 412.671691 47.775569 413.590547 46.264668 C 414.462038 44.767976 415.480358 43.413375 416.636031 42.200864 C 417.725396 41.045191 418.937906 40.121599 420.278298 39.430089 C 421.547645 38.738579 422.873828 38.392825 424.256847 38.392825 C 428.420115 38.392825 431.574536 39.112752 433.72011 40.552608 C 435.79464 42.058773 437.234495 44.516948 438.039678 47.91766 C 438.802233 51.332582 439.11957 55.813186 438.991688 61.359473 C 438.821179 66.962596 438.570151 73.844539 438.229133 82.000564 L 420.955599 82.000564 C 421.140317 80.788054 421.343981 79.196634 421.571327 77.235778 C 421.7371 75.331758 421.917082 73.276174 422.097064 71.0785 C 422.210736 68.876089 422.295991 66.649996 422.352827 64.409694 C 422.409664 62.150446 422.381246 60.094862 422.267573 58.247679 C 422.097064 56.457332 421.808145 54.979585 421.400817 53.823911 C 420.99349 52.668238 420.382498 52.085664 419.582052 52.085664 C 417.730132 52.085664 416.053458 52.545092 414.542557 53.463947 C 412.989028 54.453848 411.804936 55.609522 410.985544 56.935705 L 409.692516 82.000564 L 395.469203 82.000564 C 395.469203 77.088951 395.469203 72.115764 395.469203 67.076269 C 395.412367 62.107819 395.383948 57.603533 395.383948 53.568147 C 395.327112 48.770207 395.270276 44.142775 395.213439 39.681117 Z M 411.937554 38.643852 " stroke="#ffde59" stroke-width="3.468508" stroke-opacity="1" stroke-miterlimit="4"/></g><g fill="#000000" fill-opacity="1"><g transform="translate(6.749992, 142.308128)"><g><path d="M 1.4375 -0.421875 L 1.4375 -49.34375 L 16.234375 -50.0625 L 16.234375 -29.390625 L 23.8125 -30.109375 L 23.8125 -49.34375 L 38.546875 -50.0625 L 38.546875 -0.421875 L 23.8125 -0.421875 L 23.8125 -16.8125 L 16.234375 -16.09375 L 16.234375 -0.421875 Z M 1.4375 -0.421875 "/></g></g></g><g fill="#000000" fill-opacity="1"><g transform="translate(50.298201, 142.308128)"><g><path d="M 1.4375 -8.296875 C 1.4375 -9.722656 1.695312 -10.914062 2.21875 -11.875 C 2.738281 -12.820312 3.429688 -13.582031 4.296875 -14.15625 C 5.148438 -14.726562 6.148438 -15.132812 7.296875 -15.375 C 8.441406 -15.613281 9.65625 -15.734375 10.9375 -15.734375 C 13.226562 -15.734375 15.519531 -15.472656 17.8125 -14.953125 C 20.050781 -14.378906 21.929688 -13.78125 23.453125 -13.15625 L 23.453125 -22.390625 L 2.859375 -20.59375 L 2.859375 -35.75 C 7.242188 -35.707031 11.390625 -35.640625 15.296875 -35.546875 C 19.160156 -35.453125 22.570312 -35.332031 25.53125 -35.1875 C 28.96875 -35.039062 32.140625 -34.894531 35.046875 -34.75 L 34.6875 0 L 23.75 0 L 23.53125 -4.9375 C 21.863281 -3.40625 19.929688 -2.210938 17.734375 -1.359375 C 15.492188 -0.453125 13.300781 0 11.15625 0 C 9.53125 0 8.097656 -0.238281 6.859375 -0.71875 C 5.617188 -1.144531 4.617188 -1.738281 3.859375 -2.5 C 3.046875 -3.257812 2.453125 -4.144531 2.078125 -5.15625 C 1.648438 -6.15625 1.4375 -7.203125 1.4375 -8.296875 Z M 10.65625 -7.9375 C 10.65625 -7.082031 10.988281 -6.460938 11.65625 -6.078125 C 12.320312 -5.648438 13.203125 -5.4375 14.296875 -5.4375 C 14.867188 -5.4375 15.441406 -5.578125 16.015625 -5.859375 C 16.546875 -6.097656 17.046875 -6.382812 17.515625 -6.71875 C 17.992188 -7.050781 18.472656 -7.457031 18.953125 -7.9375 C 18.472656 -8.414062 17.992188 -8.84375 17.515625 -9.21875 C 17.046875 -9.550781 16.546875 -9.863281 16.015625 -10.15625 C 15.441406 -10.394531 14.867188 -10.515625 14.296875 -10.515625 C 13.203125 -10.515625 12.320312 -10.300781 11.65625 -9.875 C 10.988281 -9.394531 10.65625 -8.75 10.65625 -7.9375 Z M 10.65625 -7.9375 "/></g></g></g><g fill="#000000" fill-opacity="1"><g transform="translate(90.342567, 142.308128)"><g><path d="M 1.4375 -17.734375 C 1.4375 -20.023438 1.53125 -22.265625 1.71875 -24.453125 C 1.90625 -26.597656 2.523438 -28.53125 3.578125 -30.25 C 4.628906 -31.96875 6.273438 -33.398438 8.515625 -34.546875 C 10.753906 -35.640625 13.921875 -36.28125 18.015625 -36.46875 L 19.3125 -36.46875 C 22.882812 -36.46875 25.742188 -35.894531 27.890625 -34.75 C 29.984375 -33.5625 31.582031 -32.085938 32.6875 -30.328125 C 33.78125 -28.515625 34.492188 -26.535156 34.828125 -24.390625 C 35.160156 -22.191406 35.351562 -20.09375 35.40625 -18.09375 L 22.734375 -17.234375 C 22.734375 -18.085938 22.710938 -18.921875 22.671875 -19.734375 C 22.578125 -20.546875 22.410156 -21.285156 22.171875 -21.953125 C 21.878906 -22.617188 21.519531 -23.164062 21.09375 -23.59375 C 20.613281 -23.976562 19.972656 -24.171875 19.171875 -24.171875 C 18.785156 -24.171875 18.472656 -24.144531 18.234375 -24.09375 C 17.140625 -23.90625 16.304688 -23.644531 15.734375 -23.3125 C 15.109375 -22.976562 14.679688 -22.503906 14.453125 -21.890625 C 14.160156 -21.210938 13.992188 -20.375 13.953125 -19.375 C 13.898438 -18.375 13.875 -17.085938 13.875 -15.515625 C 13.875 -13.992188 13.898438 -12.660156 13.953125 -11.515625 C 13.992188 -10.367188 14.160156 -9.414062 14.453125 -8.65625 C 14.679688 -7.894531 15.109375 -7.320312 15.734375 -6.9375 C 16.304688 -6.550781 17.140625 -6.359375 18.234375 -6.359375 C 19.328125 -6.359375 20.1875 -6.523438 20.8125 -6.859375 C 21.425781 -7.191406 21.878906 -7.695312 22.171875 -8.375 C 22.453125 -9.039062 22.617188 -9.894531 22.671875 -10.9375 C 22.710938 -11.9375 22.734375 -13.109375 22.734375 -14.453125 L 35.40625 -15.65625 C 35.351562 -13.46875 35.132812 -11.347656 34.75 -9.296875 C 34.320312 -7.203125 33.515625 -5.367188 32.328125 -3.796875 C 31.085938 -2.171875 29.347656 -0.878906 27.109375 0.078125 C 24.867188 1.023438 21.863281 1.5 18.09375 1.5 C 14.375 1.5 11.414062 0.925781 9.21875 -0.21875 C 6.976562 -1.3125 5.285156 -2.789062 4.140625 -4.65625 C 3.003906 -6.457031 2.269531 -8.503906 1.9375 -10.796875 C 1.601562 -13.085938 1.4375 -15.398438 1.4375 -17.734375 Z M 1.4375 -17.734375 "/></g></g></g><g fill="#000000" fill-opacity="1"><g transform="translate(130.601452, 142.308128)"><g><path d="M 16.09375 -50.125 L 14.875 -22.03125 C 14.96875 -21.976562 15.085938 -21.953125 15.234375 -21.953125 C 15.515625 -21.859375 15.800781 -21.8125 16.09375 -21.8125 C 16.613281 -21.8125 17.207031 -21.953125 17.875 -22.234375 C 18.5 -22.472656 19.097656 -23.046875 19.671875 -23.953125 C 20.242188 -24.816406 20.71875 -26.082031 21.09375 -27.75 C 21.476562 -29.363281 21.671875 -31.554688 21.671875 -34.328125 L 39.1875 -35.75 C 39.09375 -35.320312 38.90625 -34.585938 38.625 -33.546875 C 38.289062 -32.492188 37.859375 -31.300781 37.328125 -29.96875 C 36.804688 -28.632812 36.164062 -27.25 35.40625 -25.8125 C 34.59375 -24.382812 33.640625 -23.097656 32.546875 -21.953125 C 31.441406 -20.765625 30.175781 -19.785156 28.75 -19.015625 C 27.269531 -18.253906 25.601562 -17.875 23.75 -17.875 C 25.894531 -17.875 27.753906 -17.632812 29.328125 -17.15625 C 30.898438 -16.632812 32.234375 -15.96875 33.328125 -15.15625 C 34.378906 -14.300781 35.238281 -13.347656 35.90625 -12.296875 C 36.519531 -11.203125 36.992188 -10.109375 37.328125 -9.015625 C 38.191406 -6.390625 38.429688 -3.410156 38.046875 -0.078125 L 23.75 -0.078125 L 23.59375 -9.9375 C 23.59375 -10.9375 23.5 -11.722656 23.3125 -12.296875 C 23.070312 -12.867188 22.785156 -13.300781 22.453125 -13.59375 C 22.078125 -13.875 21.671875 -14.0625 21.234375 -14.15625 C 20.765625 -14.207031 20.3125 -14.234375 19.875 -14.234375 C 18.40625 -14.234375 17.144531 -13.945312 16.09375 -13.375 C 15.039062 -12.800781 14.515625 -11.609375 14.515625 -9.796875 L 14.296875 -0.078125 L 1.21875 -0.078125 L 1 -49.28125 Z M 16.09375 -50.125 "/></g></g></g><g fill="#000000" fill-opacity="1"><g transform="translate(173.79212, 142.308128)"><g><path d="M 1.4375 -8.296875 C 1.4375 -9.722656 1.695312 -10.914062 2.21875 -11.875 C 2.738281 -12.820312 3.429688 -13.582031 4.296875 -14.15625 C 5.148438 -14.726562 6.148438 -15.132812 7.296875 -15.375 C 8.441406 -15.613281 9.65625 -15.734375 10.9375 -15.734375 C 13.226562 -15.734375 15.519531 -15.472656 17.8125 -14.953125 C 20.050781 -14.378906 21.929688 -13.78125 23.453125 -13.15625 L 23.453125 -22.390625 L 2.859375 -20.59375 L 2.859375 -35.75 C 7.242188 -35.707031 11.390625 -35.640625 15.296875 -35.546875 C 19.160156 -35.453125 22.570312 -35.332031 25.53125 -35.1875 C 28.96875 -35.039062 32.140625 -34.894531 35.046875 -34.75 L 34.6875 0 L 23.75 0 L 23.53125 -4.9375 C 21.863281 -3.40625 19.929688 -2.210938 17.734375 -1.359375 C 15.492188 -0.453125 13.300781 0 11.15625 0 C 9.53125 0 8.097656 -0.238281 6.859375 -0.71875 C 5.617188 -1.144531 4.617188 -1.738281 3.859375 -2.5 C 3.046875 -3.257812 2.453125 -4.144531 2.078125 -5.15625 C 1.648438 -6.15625 1.4375 -7.203125 1.4375 -8.296875 Z M 10.65625 -7.9375 C 10.65625 -7.082031 10.988281 -6.460938 11.65625 -6.078125 C 12.320312 -5.648438 13.203125 -5.4375 14.296875 -5.4375 C 14.867188 -5.4375 15.441406 -5.578125 16.015625 -5.859375 C 16.546875 -6.097656 17.046875 -6.382812 17.515625 -6.71875 C 17.992188 -7.050781 18.472656 -7.457031 18.953125 -7.9375 C 18.472656 -8.414062 17.992188 -8.84375 17.515625 -9.21875 C 17.046875 -9.550781 16.546875 -9.863281 16.015625 -10.15625 C 15.441406 -10.394531 14.867188 -10.515625 14.296875 -10.515625 C 13.203125 -10.515625 12.320312 -10.300781 11.65625 -9.875 C 10.988281 -9.394531 10.65625 -8.75 10.65625 -7.9375 Z M 10.65625 -7.9375 "/></g></g></g><g fill="#000000" fill-opacity="1"><g transform="translate(213.836484, 142.308128)"><g><path d="M 0.71875 -34.46875 L 7.4375 -34.609375 L 7.15625 -48.421875 L 21.171875 -50.125 L 20.453125 -35.1875 L 29.96875 -35.75 L 29.390625 -22.03125 L 20.59375 -21.953125 L 20.59375 0 L 7.015625 0 L 7.65625 -21.671875 L 1.078125 -21.234375 Z M 0.71875 -34.46875 "/></g></g></g><g fill="#000000" fill-opacity="1"><g transform="translate(248.088773, 142.308128)"><g><path d="M 15.234375 -50.0625 L 14.296875 -25.171875 C 14.734375 -26.597656 15.332031 -28.003906 16.09375 -29.390625 C 16.851562 -30.722656 17.710938 -31.941406 18.671875 -33.046875 C 19.617188 -34.140625 20.664062 -35.019531 21.8125 -35.6875 C 22.957031 -36.351562 24.148438 -36.6875 25.390625 -36.6875 C 28.816406 -36.6875 31.414062 -36.039062 33.1875 -34.75 C 34.894531 -33.414062 36.085938 -31.296875 36.765625 -28.390625 C 37.378906 -25.484375 37.640625 -21.691406 37.546875 -17.015625 C 37.398438 -12.347656 37.1875 -6.648438 36.90625 0.078125 L 22.671875 0.078125 C 22.816406 -0.929688 22.984375 -2.242188 23.171875 -3.859375 C 23.316406 -5.484375 23.457031 -7.25 23.59375 -9.15625 C 23.695312 -11.007812 23.769531 -12.914062 23.8125 -14.875 C 23.863281 -16.78125 23.84375 -18.519531 23.75 -20.09375 C 23.601562 -21.664062 23.363281 -22.953125 23.03125 -23.953125 C 22.695312 -24.910156 22.195312 -25.390625 21.53125 -25.390625 C 19.851562 -25.390625 18.375 -24.9375 17.09375 -24.03125 C 15.757812 -23.070312 14.78125 -22.019531 14.15625 -20.875 L 13.375 0 L 1.640625 0 L 1.640625 -6.796875 C 1.640625 -9.273438 1.640625 -11.847656 1.640625 -14.515625 C 1.597656 -17.179688 1.578125 -19.898438 1.578125 -22.671875 L 1.578125 -30.609375 C 1.523438 -36.660156 1.476562 -42.859375 1.4375 -49.203125 Z M 15.234375 -50.0625 "/></g></g></g><g fill="#000000" fill-opacity="1"><g transform="translate(290.56438, 142.308128)"><g><path d="M 1.4375 -17.09375 C 1.4375 -19.332031 1.53125 -21.570312 1.71875 -23.8125 C 1.90625 -26.007812 2.523438 -28.035156 3.578125 -29.890625 C 4.628906 -31.703125 6.296875 -33.207031 8.578125 -34.40625 C 10.816406 -35.59375 14.015625 -36.28125 18.171875 -36.46875 L 19.671875 -36.46875 C 23.628906 -36.46875 26.679688 -35.875 28.828125 -34.6875 C 30.960938 -33.445312 32.554688 -31.894531 33.609375 -30.03125 C 34.609375 -28.125 35.207031 -26.050781 35.40625 -23.8125 C 35.59375 -21.519531 35.6875 -19.328125 35.6875 -17.234375 C 35.6875 -14.898438 35.539062 -12.632812 35.25 -10.4375 C 34.96875 -8.195312 34.253906 -6.195312 33.109375 -4.4375 C 31.960938 -2.664062 30.222656 -1.257812 27.890625 -0.21875 C 25.554688 0.882812 22.335938 1.4375 18.234375 1.4375 C 14.472656 1.4375 11.492188 0.882812 9.296875 -0.21875 C 7.054688 -1.3125 5.363281 -2.738281 4.21875 -4.5 C 3.03125 -6.21875 2.269531 -8.195312 1.9375 -10.4375 C 1.601562 -12.632812 1.4375 -14.851562 1.4375 -17.09375 Z M 18.375 -24.59375 C 17.226562 -24.40625 16.375 -24.171875 15.8125 -23.890625 C 15.1875 -23.554688 14.753906 -23.078125 14.515625 -22.453125 C 14.234375 -21.835938 14.066406 -21.050781 14.015625 -20.09375 C 13.972656 -19.144531 13.953125 -17.90625 13.953125 -16.375 C 13.953125 -14.894531 13.972656 -13.609375 14.015625 -12.515625 C 14.066406 -11.421875 14.234375 -10.515625 14.515625 -9.796875 C 14.753906 -9.035156 15.1875 -8.488281 15.8125 -8.15625 C 16.375 -7.769531 17.226562 -7.578125 18.375 -7.578125 C 19.570312 -7.578125 20.476562 -7.769531 21.09375 -8.15625 C 21.71875 -8.488281 22.171875 -9.035156 22.453125 -9.796875 C 22.742188 -10.515625 22.910156 -11.421875 22.953125 -12.515625 C 22.953125 -13.609375 22.953125 -14.894531 22.953125 -16.375 C 22.953125 -17.707031 22.976562 -18.898438 23.03125 -19.953125 C 23.03125 -21.003906 22.957031 -21.882812 22.8125 -22.59375 C 22.664062 -23.3125 22.378906 -23.863281 21.953125 -24.25 C 21.523438 -24.625 20.882812 -24.8125 20.03125 -24.8125 C 19.59375 -24.8125 19.039062 -24.738281 18.375 -24.59375 Z M 18.375 -24.59375 "/></g></g></g><g fill="#000000" fill-opacity="1"><g transform="translate(331.252313, 142.308128)"><g><path d="M 15.234375 -35.75 L 14.734375 -25.609375 C 15.210938 -26.941406 15.832031 -28.226562 16.59375 -29.46875 C 17.3125 -30.707031 18.144531 -31.828125 19.09375 -32.828125 C 20 -33.773438 21 -34.535156 22.09375 -35.109375 C 23.144531 -35.679688 24.242188 -35.96875 25.390625 -35.96875 C 28.816406 -35.96875 31.414062 -35.375 33.1875 -34.1875 C 34.894531 -32.945312 36.085938 -30.921875 36.765625 -28.109375 C 37.378906 -25.296875 37.640625 -21.597656 37.546875 -17.015625 C 37.398438 -12.390625 37.1875 -6.71875 36.90625 0 L 22.671875 0 C 22.816406 -1 22.984375 -2.3125 23.171875 -3.9375 C 23.316406 -5.507812 23.457031 -7.203125 23.59375 -9.015625 C 23.695312 -10.828125 23.769531 -12.660156 23.8125 -14.515625 C 23.863281 -16.378906 23.84375 -18.070312 23.75 -19.59375 C 23.601562 -21.070312 23.363281 -22.289062 23.03125 -23.25 C 22.695312 -24.195312 22.195312 -24.671875 21.53125 -24.671875 C 20 -24.671875 18.613281 -24.289062 17.375 -23.53125 C 16.09375 -22.71875 15.117188 -21.765625 14.453125 -20.671875 L 13.375 0 L 1.640625 0 C 1.640625 -4.050781 1.640625 -8.148438 1.640625 -12.296875 C 1.597656 -16.398438 1.578125 -20.117188 1.578125 -23.453125 C 1.523438 -27.410156 1.476562 -31.226562 1.4375 -34.90625 Z M 15.234375 -35.75 "/></g></g></g></svg>