<svg xmlns="http://www.w3.org/2000/svg" xmlns:xlink="http://www.w3.org/1999/xlink" width="500" zoomAndPan="magnify" viewBox="0 0 375 374.999991" height="500" preserveAspectRatio="xMidYMid meet" version="1.0"><defs><g/><clipPath id="3dc39586f2"><path d="M 35.707031 308.148438 L 41.140625 308.148438 L 41.140625 313.917969 L 35.707031 313.917969 Z M 35.707031 308.148438 " clip-rule="nonzero"/></clipPath><clipPath id="9934974cb2"><path d="M 35.738281 310.820312 C 37.410156 308.265625 38.027344 308.089844 38.554688 308.175781 C 39.261719 308.265625 40.316406 308.792969 40.667969 309.410156 C 41.109375 310.027344 41.109375 311.257812 40.84375 311.964844 C 40.492188 312.582031 39.613281 313.285156 38.820312 313.460938 C 38.117188 313.550781 36.96875 313.195312 36.53125 312.667969 C 36 312.140625 35.648438 310.996094 35.824219 310.203125 C 36 309.5 36.792969 308.617188 37.410156 308.355469 C 38.117188 308.089844 39.347656 308.175781 39.875 308.617188 C 40.582031 309.144531 41.109375 310.644531 41.109375 311.4375 C 41.109375 312.140625 40.667969 312.757812 40.230469 313.195312 C 39.789062 313.550781 39.085938 313.8125 38.46875 313.902344 C 37.851562 313.902344 37.148438 313.636719 36.707031 313.195312 C 36.265625 312.84375 35.738281 311.523438 35.738281 311.523438 " clip-rule="nonzero"/></clipPath><clipPath id="213e38f232"><path d="M 104.503906 252.296875 L 120.332031 252.296875 L 120.332031 269.113281 L 104.503906 269.113281 Z M 104.503906 252.296875 " clip-rule="nonzero"/></clipPath><clipPath id="e376ed1362"><path d="M 104.589844 260.082031 C 109.464844 252.640625 111.261719 252.128906 112.800781 252.382812 C 114.855469 252.640625 117.933594 254.179688 118.960938 255.976562 C 120.242188 257.773438 120.242188 261.367188 119.472656 263.417969 C 118.445312 265.214844 115.878906 267.265625 113.570312 267.78125 C 111.519531 268.035156 108.183594 267.011719 106.898438 265.472656 C 105.359375 263.929688 104.332031 260.59375 104.847656 258.285156 C 105.359375 256.234375 107.667969 253.667969 109.464844 252.898438 C 111.519531 252.128906 115.109375 252.382812 116.652344 253.667969 C 118.703125 255.207031 120.242188 259.570312 120.242188 261.878906 C 120.242188 263.929688 118.960938 265.726562 117.675781 267.011719 C 116.394531 268.035156 114.339844 268.808594 112.542969 269.0625 C 110.75 269.0625 108.695312 268.292969 107.414062 267.011719 C 106.128906 265.984375 104.589844 262.136719 104.589844 262.136719 " clip-rule="nonzero"/></clipPath><clipPath id="744fe279d0"><path d="M 166 119 L 205 119 L 205 147 L 166 147 Z M 166 119 " clip-rule="nonzero"/></clipPath><clipPath id="a9e12fb685"><path d="M 56.886719 52.285156 L 210.996094 -16.460938 L 279.746094 137.652344 L 125.632812 206.398438 Z M 56.886719 52.285156 " clip-rule="nonzero"/></clipPath><clipPath id="bf5dd546ca"><path d="M 56.886719 52.285156 L 210.996094 -16.460938 L 279.746094 137.652344 L 125.632812 206.398438 Z M 56.886719 52.285156 " clip-rule="nonzero"/></clipPath><clipPath id="94863b775b"><path d="M 102 16 L 212 16 L 212 135 L 102 135 Z M 102 16 " clip-rule="nonzero"/></clipPath><clipPath id="f4a7ffa720"><path d="M 56.886719 52.285156 L 210.996094 -16.460938 L 279.746094 137.652344 L 125.632812 206.398438 Z M 56.886719 52.285156 " clip-rule="nonzero"/></clipPath><clipPath id="d42231c226"><path d="M 56.886719 52.285156 L 210.996094 -16.460938 L 279.746094 137.652344 L 125.632812 206.398438 Z M 56.886719 52.285156 " clip-rule="nonzero"/></clipPath><clipPath id="a63a8d62c0"><path d="M 181 55 L 196 55 L 196 70 L 181 70 Z M 181 55 " clip-rule="nonzero"/></clipPath><clipPath id="41e7958a70"><path d="M 56.886719 52.285156 L 210.996094 -16.460938 L 279.746094 137.652344 L 125.632812 206.398438 Z M 56.886719 52.285156 " clip-rule="nonzero"/></clipPath><clipPath id="762d7822df"><path d="M 56.886719 52.285156 L 210.996094 -16.460938 L 279.746094 137.652344 L 125.632812 206.398438 Z M 56.886719 52.285156 " clip-rule="nonzero"/></clipPath><clipPath id="485f9fdd65"><path d="M 182 144 L 209 144 L 209 171 L 182 171 Z M 182 144 " clip-rule="nonzero"/></clipPath><clipPath id="12f20f22d1"><path d="M 56.886719 52.285156 L 210.996094 -16.460938 L 279.746094 137.652344 L 125.632812 206.398438 Z M 56.886719 52.285156 " clip-rule="nonzero"/></clipPath><clipPath id="c6540915ee"><path d="M 56.886719 52.285156 L 210.996094 -16.460938 L 279.746094 137.652344 L 125.632812 206.398438 Z M 56.886719 52.285156 " clip-rule="nonzero"/></clipPath><clipPath id="fad3f6bef2"><path d="M 171 131 L 211 131 L 211 159 L 171 159 Z M 171 131 " clip-rule="nonzero"/></clipPath><clipPath id="e7d3f520d2"><path d="M 56.886719 52.285156 L 210.996094 -16.460938 L 279.746094 137.652344 L 125.632812 206.398438 Z M 56.886719 52.285156 " clip-rule="nonzero"/></clipPath><clipPath id="9940b4d82b"><path d="M 56.886719 52.285156 L 210.996094 -16.460938 L 279.746094 137.652344 L 125.632812 206.398438 Z M 56.886719 52.285156 " clip-rule="nonzero"/></clipPath><clipPath id="d8f4be45d3"><path d="M 146 59 L 170 59 L 170 83 L 146 83 Z M 146 59 " clip-rule="nonzero"/></clipPath><clipPath id="9de1d6401e"><path d="M 56.886719 52.285156 L 210.996094 -16.460938 L 279.746094 137.652344 L 125.632812 206.398438 Z M 56.886719 52.285156 " clip-rule="nonzero"/></clipPath><clipPath id="914f489d8c"><path d="M 56.886719 52.285156 L 210.996094 -16.460938 L 279.746094 137.652344 L 125.632812 206.398438 Z M 56.886719 52.285156 " clip-rule="nonzero"/></clipPath><clipPath id="8fdf37a317"><path d="M 124 81 L 138 81 L 138 95 L 124 95 Z M 124 81 " clip-rule="nonzero"/></clipPath><clipPath id="ac1f9dc3d8"><path d="M 56.886719 52.285156 L 210.996094 -16.460938 L 279.746094 137.652344 L 125.632812 206.398438 Z M 56.886719 52.285156 " clip-rule="nonzero"/></clipPath><clipPath id="5c9f8d1efb"><path d="M 56.886719 52.285156 L 210.996094 -16.460938 L 279.746094 137.652344 L 125.632812 206.398438 Z M 56.886719 52.285156 " clip-rule="nonzero"/></clipPath><clipPath id="04d1fbc38b"><path d="M 99 12 L 215 12 L 215 174 L 99 174 Z M 99 12 " clip-rule="nonzero"/></clipPath><clipPath id="13871758ac"><path d="M 56.886719 52.285156 L 210.996094 -16.460938 L 279.746094 137.652344 L 125.632812 206.398438 Z M 56.886719 52.285156 " clip-rule="nonzero"/></clipPath><clipPath id="f24d4cabe4"><path d="M 56.886719 52.285156 L 210.996094 -16.460938 L 279.746094 137.652344 L 125.632812 206.398438 Z M 56.886719 52.285156 " clip-rule="nonzero"/></clipPath><clipPath id="f46794a8a8"><path d="M 206 5 L 222 5 L 222 23 L 206 23 Z M 206 5 " clip-rule="nonzero"/></clipPath><clipPath id="49e028d22a"><path d="M 56.886719 52.285156 L 210.996094 -16.460938 L 279.746094 137.652344 L 125.632812 206.398438 Z M 56.886719 52.285156 " clip-rule="nonzero"/></clipPath><clipPath id="8a7c7cf18a"><path d="M 56.886719 52.285156 L 210.996094 -16.460938 L 279.746094 137.652344 L 125.632812 206.398438 Z M 56.886719 52.285156 " clip-rule="nonzero"/></clipPath><clipPath id="0665df0726"><path d="M 213 28 L 233 28 L 233 41 L 213 41 Z M 213 28 " clip-rule="nonzero"/></clipPath><clipPath id="2df6cf0c33"><path d="M 56.886719 52.285156 L 210.996094 -16.460938 L 279.746094 137.652344 L 125.632812 206.398438 Z M 56.886719 52.285156 " clip-rule="nonzero"/></clipPath><clipPath id="d6a6d8d34d"><path d="M 56.886719 52.285156 L 210.996094 -16.460938 L 279.746094 137.652344 L 125.632812 206.398438 Z M 56.886719 52.285156 " clip-rule="nonzero"/></clipPath><clipPath id="5d5a3c0159"><path d="M 222 50 L 242 50 L 242 59 L 222 59 Z M 222 50 " clip-rule="nonzero"/></clipPath><clipPath id="d2e03458e2"><path d="M 56.886719 52.285156 L 210.996094 -16.460938 L 279.746094 137.652344 L 125.632812 206.398438 Z M 56.886719 52.285156 " clip-rule="nonzero"/></clipPath><clipPath id="112102af18"><path d="M 56.886719 52.285156 L 210.996094 -16.460938 L 279.746094 137.652344 L 125.632812 206.398438 Z M 56.886719 52.285156 " clip-rule="nonzero"/></clipPath><clipPath id="9c6a8e26e0"><path d="M 67 71 L 88 71 L 88 79 L 67 79 Z M 67 71 " clip-rule="nonzero"/></clipPath><clipPath id="9f7285f285"><path d="M 56.886719 52.285156 L 210.996094 -16.460938 L 279.746094 137.652344 L 125.632812 206.398438 Z M 56.886719 52.285156 " clip-rule="nonzero"/></clipPath><clipPath id="1a996a4700"><path d="M 56.886719 52.285156 L 210.996094 -16.460938 L 279.746094 137.652344 L 125.632812 206.398438 Z M 56.886719 52.285156 " clip-rule="nonzero"/></clipPath><clipPath id="43b7adbc3c"><path d="M 77 89 L 97 89 L 97 102 L 77 102 Z M 77 89 " clip-rule="nonzero"/></clipPath><clipPath id="974dcf2eed"><path d="M 56.886719 52.285156 L 210.996094 -16.460938 L 279.746094 137.652344 L 125.632812 206.398438 Z M 56.886719 52.285156 " clip-rule="nonzero"/></clipPath><clipPath id="709ccc3e51"><path d="M 56.886719 52.285156 L 210.996094 -16.460938 L 279.746094 137.652344 L 125.632812 206.398438 Z M 56.886719 52.285156 " clip-rule="nonzero"/></clipPath><clipPath id="a2e0ac893a"><path d="M 87 107 L 105 107 L 105 123 L 87 123 Z M 87 107 " clip-rule="nonzero"/></clipPath><clipPath id="4dcd8f4624"><path d="M 56.886719 52.285156 L 210.996094 -16.460938 L 279.746094 137.652344 L 125.632812 206.398438 Z M 56.886719 52.285156 " clip-rule="nonzero"/></clipPath><clipPath id="2150ec0892"><path d="M 56.886719 52.285156 L 210.996094 -16.460938 L 279.746094 137.652344 L 125.632812 206.398438 Z M 56.886719 52.285156 " clip-rule="nonzero"/></clipPath><clipPath id="359676a3fc"><path d="M 165 113 L 200 113 L 200 138 L 165 138 Z M 165 113 " clip-rule="nonzero"/></clipPath><clipPath id="45072446a7"><path d="M 68.410156 54.222656 L 206.082031 -7.191406 L 267.496094 130.480469 L 129.824219 191.894531 Z M 68.410156 54.222656 " clip-rule="nonzero"/></clipPath><clipPath id="84e888c180"><path d="M 68.410156 54.222656 L 206.082031 -7.191406 L 267.496094 130.480469 L 129.824219 191.894531 Z M 68.410156 54.222656 " clip-rule="nonzero"/></clipPath><clipPath id="b40a4979fc"><path d="M 109 21 L 206 21 L 206 128 L 109 128 Z M 109 21 " clip-rule="nonzero"/></clipPath><clipPath id="c3b243f5bc"><path d="M 68.410156 54.222656 L 206.082031 -7.191406 L 267.496094 130.480469 L 129.824219 191.894531 Z M 68.410156 54.222656 " clip-rule="nonzero"/></clipPath><clipPath id="12f0bcb487"><path d="M 68.410156 54.222656 L 206.082031 -7.191406 L 267.496094 130.480469 L 129.824219 191.894531 Z M 68.410156 54.222656 " clip-rule="nonzero"/></clipPath><clipPath id="97ecb69257"><path d="M 179 57 L 192 57 L 192 70 L 179 70 Z M 179 57 " clip-rule="nonzero"/></clipPath><clipPath id="3192d119f3"><path d="M 68.410156 54.222656 L 206.082031 -7.191406 L 267.496094 130.480469 L 129.824219 191.894531 Z M 68.410156 54.222656 " clip-rule="nonzero"/></clipPath><clipPath id="793782940d"><path d="M 68.410156 54.222656 L 206.082031 -7.191406 L 267.496094 130.480469 L 129.824219 191.894531 Z M 68.410156 54.222656 " clip-rule="nonzero"/></clipPath><clipPath id="4363a7f227"><path d="M 179 136 L 204 136 L 204 160 L 179 160 Z M 179 136 " clip-rule="nonzero"/></clipPath><clipPath id="df74adacc4"><path d="M 68.410156 54.222656 L 206.082031 -7.191406 L 267.496094 130.480469 L 129.824219 191.894531 Z M 68.410156 54.222656 " clip-rule="nonzero"/></clipPath><clipPath id="82f76a0e84"><path d="M 68.410156 54.222656 L 206.082031 -7.191406 L 267.496094 130.480469 L 129.824219 191.894531 Z M 68.410156 54.222656 " clip-rule="nonzero"/></clipPath><clipPath id="310ca55aa7"><path d="M 170 124 L 205 124 L 205 149 L 170 149 Z M 170 124 " clip-rule="nonzero"/></clipPath><clipPath id="9e2708bbb5"><path d="M 68.410156 54.222656 L 206.082031 -7.191406 L 267.496094 130.480469 L 129.824219 191.894531 Z M 68.410156 54.222656 " clip-rule="nonzero"/></clipPath><clipPath id="1b3f462ca1"><path d="M 68.410156 54.222656 L 206.082031 -7.191406 L 267.496094 130.480469 L 129.824219 191.894531 Z M 68.410156 54.222656 " clip-rule="nonzero"/></clipPath><clipPath id="9f32aece40"><path d="M 147 60 L 169 60 L 169 82 L 147 82 Z M 147 60 " clip-rule="nonzero"/></clipPath><clipPath id="e557a46d13"><path d="M 68.410156 54.222656 L 206.082031 -7.191406 L 267.496094 130.480469 L 129.824219 191.894531 Z M 68.410156 54.222656 " clip-rule="nonzero"/></clipPath><clipPath id="719e1a9955"><path d="M 68.410156 54.222656 L 206.082031 -7.191406 L 267.496094 130.480469 L 129.824219 191.894531 Z M 68.410156 54.222656 " clip-rule="nonzero"/></clipPath><clipPath id="6d91bba9bb"><path d="M 128 80 L 141 80 L 141 93 L 128 93 Z M 128 80 " clip-rule="nonzero"/></clipPath><clipPath id="f3672a9684"><path d="M 68.410156 54.222656 L 206.082031 -7.191406 L 267.496094 130.480469 L 129.824219 191.894531 Z M 68.410156 54.222656 " clip-rule="nonzero"/></clipPath><clipPath id="2c1f0f94f2"><path d="M 68.410156 54.222656 L 206.082031 -7.191406 L 267.496094 130.480469 L 129.824219 191.894531 Z M 68.410156 54.222656 " clip-rule="nonzero"/></clipPath><clipPath id="51ca4fcd74"><path d="M 106 19 L 209 19 L 209 163 L 106 163 Z M 106 19 " clip-rule="nonzero"/></clipPath><clipPath id="5166706b7f"><path d="M 68.410156 54.222656 L 206.082031 -7.191406 L 267.496094 130.480469 L 129.824219 191.894531 Z M 68.410156 54.222656 " clip-rule="nonzero"/></clipPath><clipPath id="cc7c2616e6"><path d="M 68.410156 54.222656 L 206.082031 -7.191406 L 267.496094 130.480469 L 129.824219 191.894531 Z M 68.410156 54.222656 " clip-rule="nonzero"/></clipPath><clipPath id="fb45d0579f"><path d="M 201 12 L 216 12 L 216 28 L 201 28 Z M 201 12 " clip-rule="nonzero"/></clipPath><clipPath id="4524069e3f"><path d="M 68.410156 54.222656 L 206.082031 -7.191406 L 267.496094 130.480469 L 129.824219 191.894531 Z M 68.410156 54.222656 " clip-rule="nonzero"/></clipPath><clipPath id="2f9a3fa05c"><path d="M 68.410156 54.222656 L 206.082031 -7.191406 L 267.496094 130.480469 L 129.824219 191.894531 Z M 68.410156 54.222656 " clip-rule="nonzero"/></clipPath><clipPath id="725fb3dffe"><path d="M 207 32 L 225 32 L 225 44 L 207 44 Z M 207 32 " clip-rule="nonzero"/></clipPath><clipPath id="c2a02cfa64"><path d="M 68.410156 54.222656 L 206.082031 -7.191406 L 267.496094 130.480469 L 129.824219 191.894531 Z M 68.410156 54.222656 " clip-rule="nonzero"/></clipPath><clipPath id="da8060bcc0"><path d="M 68.410156 54.222656 L 206.082031 -7.191406 L 267.496094 130.480469 L 129.824219 191.894531 Z M 68.410156 54.222656 " clip-rule="nonzero"/></clipPath><clipPath id="79bcceab0d"><path d="M 215 52 L 234 52 L 234 60 L 215 60 Z M 215 52 " clip-rule="nonzero"/></clipPath><clipPath id="c57ebbeb29"><path d="M 68.410156 54.222656 L 206.082031 -7.191406 L 267.496094 130.480469 L 129.824219 191.894531 Z M 68.410156 54.222656 " clip-rule="nonzero"/></clipPath><clipPath id="b3e90cc534"><path d="M 68.410156 54.222656 L 206.082031 -7.191406 L 267.496094 130.480469 L 129.824219 191.894531 Z M 68.410156 54.222656 " clip-rule="nonzero"/></clipPath><clipPath id="22c9d97795"><path d="M 78 71 L 96 71 L 96 78 L 78 78 Z M 78 71 " clip-rule="nonzero"/></clipPath><clipPath id="efb8f9098d"><path d="M 68.410156 54.222656 L 206.082031 -7.191406 L 267.496094 130.480469 L 129.824219 191.894531 Z M 68.410156 54.222656 " clip-rule="nonzero"/></clipPath><clipPath id="fda5360d22"><path d="M 68.410156 54.222656 L 206.082031 -7.191406 L 267.496094 130.480469 L 129.824219 191.894531 Z M 68.410156 54.222656 " clip-rule="nonzero"/></clipPath><clipPath id="83728f15e8"><path d="M 86 87 L 104 87 L 104 98 L 86 98 Z M 86 87 " clip-rule="nonzero"/></clipPath><clipPath id="3d8f93eba0"><path d="M 68.410156 54.222656 L 206.082031 -7.191406 L 267.496094 130.480469 L 129.824219 191.894531 Z M 68.410156 54.222656 " clip-rule="nonzero"/></clipPath><clipPath id="131bee90fb"><path d="M 68.410156 54.222656 L 206.082031 -7.191406 L 267.496094 130.480469 L 129.824219 191.894531 Z M 68.410156 54.222656 " clip-rule="nonzero"/></clipPath><clipPath id="8663b9067c"><path d="M 95 103 L 111 103 L 111 118 L 95 118 Z M 95 103 " clip-rule="nonzero"/></clipPath><clipPath id="6ff002a43c"><path d="M 68.410156 54.222656 L 206.082031 -7.191406 L 267.496094 130.480469 L 129.824219 191.894531 Z M 68.410156 54.222656 " clip-rule="nonzero"/></clipPath><clipPath id="17a1d1792c"><path d="M 68.410156 54.222656 L 206.082031 -7.191406 L 267.496094 130.480469 L 129.824219 191.894531 Z M 68.410156 54.222656 " clip-rule="nonzero"/></clipPath><clipPath id="1754ad6996"><path d="M 336.136719 44.824219 L 352 44.824219 L 352 59.773438 L 336.136719 59.773438 Z M 336.136719 44.824219 " clip-rule="nonzero"/></clipPath><clipPath id="56dbc46876"><path d="M 344.667969 44.90625 C 351.695312 49.511719 352.179688 51.207031 351.9375 52.660156 C 351.695312 54.601562 350.242188 57.507812 348.546875 58.476562 C 346.847656 59.6875 343.457031 59.6875 341.519531 58.960938 C 339.820312 57.992188 337.882812 55.570312 337.398438 53.386719 C 337.15625 51.449219 338.125 48.300781 339.578125 47.085938 C 341.035156 45.632812 344.183594 44.664062 346.363281 45.148438 C 348.304688 45.632812 350.726562 47.8125 351.453125 49.511719 C 352.179688 51.449219 351.9375 54.84375 350.726562 56.296875 C 349.273438 58.234375 345.152344 59.6875 342.972656 59.6875 C 341.035156 59.6875 339.335938 58.476562 338.125 57.265625 C 337.15625 56.054688 336.429688 54.113281 336.1875 52.417969 C 336.1875 50.722656 336.914062 48.785156 338.125 47.570312 C 339.09375 46.359375 342.730469 44.90625 342.730469 44.90625 " clip-rule="nonzero"/></clipPath><clipPath id="cbd6a1b442"><path d="M 38.777344 4.976562 L 44.207031 4.976562 L 44.207031 10.75 L 38.777344 10.75 Z M 38.777344 4.976562 " clip-rule="nonzero"/></clipPath><clipPath id="84c708c2d2"><path d="M 38.804688 7.648438 C 40.480469 5.097656 41.097656 4.917969 41.625 5.007812 C 42.328125 5.097656 43.386719 5.625 43.738281 6.242188 C 44.179688 6.855469 44.179688 8.089844 43.914062 8.792969 C 43.5625 9.410156 42.679688 10.117188 41.886719 10.292969 C 41.183594 10.378906 40.039062 10.027344 39.597656 9.5 C 39.070312 8.96875 38.71875 7.824219 38.894531 7.035156 C 39.070312 6.328125 39.863281 5.449219 40.480469 5.183594 C 41.183594 4.917969 42.417969 5.007812 42.945312 5.449219 C 43.648438 5.976562 44.179688 7.472656 44.179688 8.265625 C 44.179688 8.96875 43.738281 9.585938 43.296875 10.027344 C 42.855469 10.378906 42.152344 10.644531 41.535156 10.730469 C 40.917969 10.730469 40.214844 10.46875 39.773438 10.027344 C 39.335938 9.675781 38.804688 8.355469 38.804688 8.355469 " clip-rule="nonzero"/></clipPath></defs><g clip-path="url(#3dc39586f2)"><g clip-path="url(#9934974cb2)"><path fill="#1e1e1e" d="M 32.214844 304.65625 L 44.632812 304.65625 L 44.632812 317.410156 L 32.214844 317.410156 Z M 32.214844 304.65625 " fill-opacity="1" fill-rule="nonzero"/></g></g><g fill="#000000" fill-opacity="1"><g transform="translate(36.281816, 36.422486)"><g><path d="M 4.59375 -23.234375 L 4.59375 0 L 5.984375 0 L 5.984375 -23.234375 Z M 4.359375 -30.859375 C 4.359375 -30.28125 4.796875 -29.796875 5.40625 -29.796875 C 5.984375 -29.796875 6.421875 -30.28125 6.421875 -30.859375 C 6.421875 -31.421875 5.984375 -31.90625 5.40625 -31.90625 C 4.796875 -31.90625 4.359375 -31.421875 4.359375 -30.859375 Z M 4.359375 -30.859375 "/></g></g></g><g fill="#000000" fill-opacity="1"><g transform="translate(25.137931, 65.17445)"><g><path d="M 4.171875 -23.765625 L 4.171875 0 L 5.5625 0 L 5.5625 -20.546875 L 28.5 0.578125 L 28.5 -23.234375 L 27.109375 -23.234375 L 27.109375 -2.59375 Z M 4.171875 -23.765625 "/></g></g></g><g fill="#000000" fill-opacity="1"><g transform="translate(29.218617, 93.926414)"><g><path d="M 1.15625 -23.234375 L 1.15625 -21.890625 L 11.640625 -21.890625 L 11.640625 0 L 13.03125 0 L 13.03125 -21.890625 L 23.375 -21.890625 L 23.375 -23.234375 Z M 1.15625 -23.234375 "/></g></g></g><g fill="#000000" fill-opacity="1"><g transform="translate(30.94074, 122.678378)"><g><path d="M 4.171875 -23.234375 L 4.171875 0 L 16.90625 0 L 16.90625 -1.34375 L 5.5625 -1.34375 L 5.5625 -11.203125 L 16.90625 -11.203125 L 16.90625 -12.546875 L 5.5625 -12.546875 L 5.5625 -21.890625 L 16.90625 -21.890625 L 16.90625 -23.234375 Z M 4.171875 -23.234375 "/></g></g></g><g fill="#000000" fill-opacity="1"><g transform="translate(33.748545, 151.430341)"><g><path d="M 3.828125 0 L 5.21875 0 L 5.21875 -10.875 C 5.265625 -15.140625 5.5625 -17.828125 7.765625 -19.921875 C 9.390625 -21.46875 11.640625 -22.375 14.328125 -22.375 L 14.703125 -22.375 L 14.703125 -23.625 C 14.328125 -23.671875 14.1875 -23.671875 13.890625 -23.671875 C 11.0625 -23.671875 8.390625 -22.515625 6.75 -20.890625 C 3.921875 -18.0625 3.828125 -15.28125 3.828125 -10.484375 Z M 3.828125 0 "/></g></g></g><g fill="#000000" fill-opacity="1"><g transform="translate(29.305967, 180.182305)"><g><path d="M 22.75 -19.921875 C 20.9375 -21.890625 18.0625 -23.671875 13.984375 -23.671875 C 7.328125 -23.671875 1.875 -18.25 1.875 -11.546875 C 1.875 -4.84375 7.328125 0.578125 14.03125 0.578125 C 18.015625 0.578125 20.984375 -1.25 22.75 -3.15625 L 21.796875 -4.078125 C 19.59375 -1.828125 17 -0.671875 13.984375 -0.671875 C 8 -0.671875 3.3125 -5.515625 3.3125 -11.546875 C 3.3125 -17.53125 8.046875 -22.375 13.984375 -22.375 C 16.90625 -22.375 19.59375 -21.21875 21.84375 -19.015625 Z M 22.75 -19.921875 "/></g></g></g><g fill="#000000" fill-opacity="1"><g transform="translate(30.94074, 208.934269)"><g><path d="M 4.171875 -23.234375 L 4.171875 0 L 16.90625 0 L 16.90625 -1.34375 L 5.5625 -1.34375 L 5.5625 -11.203125 L 16.90625 -11.203125 L 16.90625 -12.546875 L 5.5625 -12.546875 L 5.5625 -21.890625 L 16.90625 -21.890625 L 16.90625 -23.234375 Z M 4.171875 -23.234375 "/></g></g></g><g fill="#000000" fill-opacity="1"><g transform="translate(25.137931, 237.686233)"><g><path d="M 4.171875 -23.765625 L 4.171875 0 L 5.5625 0 L 5.5625 -20.546875 L 28.5 0.578125 L 28.5 -23.234375 L 27.109375 -23.234375 L 27.109375 -2.59375 Z M 4.171875 -23.765625 "/></g></g></g><g fill="#000000" fill-opacity="1"><g transform="translate(29.218617, 266.438196)"><g><path d="M 1.15625 -23.234375 L 1.15625 -21.890625 L 11.640625 -21.890625 L 11.640625 0 L 13.03125 0 L 13.03125 -21.890625 L 23.375 -21.890625 L 23.375 -23.234375 Z M 1.15625 -23.234375 "/></g></g></g><g fill="#ffde59" fill-opacity="1"><g transform="translate(33.748545, 295.19016)"><g><path d="M 3.828125 0 L 5.21875 0 L 5.21875 -10.875 C 5.265625 -15.140625 5.5625 -17.828125 7.765625 -19.921875 C 9.390625 -21.46875 11.640625 -22.375 14.328125 -22.375 L 14.703125 -22.375 L 14.703125 -23.625 C 14.328125 -23.671875 14.1875 -23.671875 13.890625 -23.671875 C 11.0625 -23.671875 8.390625 -22.515625 6.75 -20.890625 C 3.921875 -18.0625 3.828125 -15.28125 3.828125 -10.484375 Z M 3.828125 0 "/></g></g></g><g fill="#000000" fill-opacity="1"><g transform="translate(27.446577, 343.1101)"><g><path d="M 14.03125 -23.671875 C 7.234375 -23.671875 1.875 -18.296875 1.875 -11.546875 C 1.875 -4.796875 7.1875 0.53125 13.984375 0.53125 C 20.796875 0.53125 26.203125 -4.84375 26.203125 -11.546875 C 26.203125 -18.296875 20.796875 -23.671875 14.03125 -23.671875 Z M 13.984375 -22.375 C 20.078125 -22.375 24.765625 -17.625 24.765625 -11.59375 C 24.765625 -5.40625 20.125 -0.71875 14.03125 -0.71875 C 8.046875 -0.71875 3.3125 -5.46875 3.3125 -11.5 C 3.3125 -17.625 8 -22.375 13.984375 -22.375 Z M 13.984375 -22.375 "/></g></g></g><g fill="#000000" fill-opacity="1"><g transform="translate(31.90163, 371.862063)"><g><path d="M 15.71875 -17.625 L 15.71875 -17.875 C 15.71875 -21.078125 12.984375 -23.671875 9.625 -23.671875 C 6.1875 -23.671875 3.359375 -20.9375 3.359375 -17.625 C 3.359375 -12.546875 7.46875 -11.6875 9.625 -11.15625 C 12.03125 -10.59375 14.703125 -9.578125 14.703125 -5.9375 C 14.703125 -3.015625 12.453125 -0.71875 9.578125 -0.71875 C 6.515625 -0.71875 4.453125 -3.015625 4.453125 -6.421875 L 3.015625 -6.421875 C 3.0625 -2.15625 5.609375 0.53125 9.53125 0.53125 C 13.21875 0.53125 16.140625 -2.296875 16.140625 -5.9375 C 16.140625 -10.875 11.828125 -12.125 9.578125 -12.59375 C 7.328125 -13.078125 4.6875 -14.078125 4.6875 -17.625 C 4.6875 -20.21875 6.90625 -22.375 9.53125 -22.375 C 12.078125 -22.375 14.328125 -20.265625 14.328125 -17.875 L 14.328125 -17.625 Z M 15.71875 -17.625 "/></g></g></g><path stroke-linecap="butt" transform="matrix(0.749823, -0.0162848, 0.0162848, 0.749823, 140.52751, 300.413534)" fill="none" stroke-linejoin="miter" d="M 0.00143208 4.00168 L 73.284393 3.999126 " stroke="#ffde59" stroke-width="8" stroke-opacity="1" stroke-miterlimit="4"/><g clip-path="url(#213e38f232)"><g clip-path="url(#e376ed1362)"><path fill="#1e1e1e" d="M 94.328125 242.121094 L 130.507812 242.121094 L 130.507812 279.289062 L 94.328125 279.289062 Z M 94.328125 242.121094 " fill-opacity="1" fill-rule="nonzero"/></g></g><path stroke-linecap="butt" transform="matrix(0.42325, 0.61916, -0.61916, 0.42325, 107.553542, 248.434143)" fill="none" stroke-linejoin="miter" d="M 30.000569 4.001944 L 89.020907 4.00176 " stroke="#ffde59" stroke-width="8" stroke-opacity="1" stroke-miterlimit="4"/><path stroke-linecap="round" transform="matrix(0.42325, 0.61916, -0.61916, 0.42325, 107.553542, 248.434143)" fill="none" stroke-linejoin="round" d="M 4.001577 4.001675 C 3.999212 -2.630646 9.372063 -7.998558 15.997145 -7.999562 C 22.626527 -7.997627 28.001677 -2.626136 28.002682 3.998946 C 28.000747 10.628328 22.624956 16.000539 15.999874 16.001543 C 9.370492 15.999608 4.002581 10.626757 4.001577 4.001675 " stroke="#ffde59" stroke-width="8" stroke-opacity="1" stroke-miterlimit="4"/><path stroke-linecap="butt" transform="matrix(0.000000001309, 0.75, -0.75, 0.000000001309, 286.475729, 322.751376)" fill="none" stroke-linejoin="miter" d="M -0.00183521 2.998889 L 41.456501 2.998889 " stroke="#ffde59" stroke-width="6" stroke-opacity="1" stroke-miterlimit="4"/><path stroke-linecap="round" transform="matrix(0.000000001309, 0.75, -0.75, 0.000000001309, 286.475729, 322.751376)" fill-opacity="1" fill="#ffde59" fill-rule="nonzero" stroke-linejoin="round" d="M 60.956502 2.998889 C 60.956502 7.972847 56.925252 11.998889 51.956502 11.998889 C 46.987751 11.998889 42.956501 7.972847 42.956501 2.998889 C 42.956501 -1.969862 46.987751 -6.001112 51.956502 -6.001112 C 56.925252 -6.001112 60.956502 -1.969862 60.956502 2.998889 " stroke="#ffde59" stroke-width="6" stroke-opacity="1" stroke-miterlimit="4"/><path stroke-linecap="butt" transform="matrix(-0.545573, 0.514635, -0.514635, -0.545573, 346.123429, 132.553467)" fill="none" stroke-linejoin="miter" d="M -0.0015459 3.998688 L 66.634821 3.999534 " stroke="#ffde59" stroke-width="8" stroke-opacity="1" stroke-miterlimit="4"/><path stroke-linecap="butt" transform="matrix(0.780468, 0, 0, 0.780468, 156.339237, 48.210122)" fill="none" stroke-linejoin="miter" d="M 7.473261 350.722277 L 7.473261 95.42661 L 84.765666 91.687866 L 84.765666 199.600936 L 124.320278 195.867197 L 124.320278 95.42661 L 201.247317 91.687866 L 201.247317 350.722277 L 124.320278 350.722277 L 124.320278 265.226657 L 84.765666 268.965401 L 84.765666 350.722277 Z M 7.473261 350.722277 " stroke="#ffde59" stroke-width="14.93332" stroke-opacity="1" stroke-miterlimit="4"/><g fill="#000000" fill-opacity="1"><g transform="translate(156.339237, 323.715189)"><g><path d="M 5.828125 -1.75 L 5.828125 -201.046875 L 66.140625 -203.96875 L 66.140625 -119.75 L 97.03125 -122.671875 L 97.03125 -201.046875 L 157.046875 -203.96875 L 157.046875 -1.75 L 97.03125 -1.75 L 97.03125 -68.46875 L 66.140625 -65.5625 L 66.140625 -1.75 Z M 5.828125 -1.75 "/></g></g></g><g fill="#ededed" fill-opacity="1"><g transform="translate(164.961141, 237.005229)"><g><path d="M 3.859375 -23.375 L 3.859375 -10.21875 C 3.859375 -10.015625 3.859375 -9.875 3.859375 -9.6875 C 3.859375 -6.796875 4.625 -4.71875 6.21875 -2.890625 C 8.046875 -0.71875 10.796875 0.53125 13.78125 0.53125 C 17.96875 0.53125 22.0625 -2.359375 23.171875 -6.078125 C 23.5625 -7.375 23.75 -9.34375 23.75 -12.484375 L 23.75 -23.375 L 22.359375 -23.375 L 22.359375 -11.515625 C 22.359375 -7.609375 21.875 -5.828125 20.390625 -3.953125 C 18.703125 -1.828125 16.390625 -0.71875 13.78125 -0.71875 C 10.171875 -0.71875 6.546875 -3.421875 5.640625 -6.796875 C 5.34375 -7.765625 5.203125 -9.6875 5.203125 -11.515625 L 5.203125 -23.375 Z M 3.859375 -23.375 "/></g></g></g><g fill="#ededed" fill-opacity="1"><g transform="translate(195.127799, 237.005229)"><g><path d="M 1.15625 -23.375 L 1.15625 -22.015625 L 11.703125 -22.015625 L 11.703125 0 L 13.109375 0 L 13.109375 -22.015625 L 23.515625 -22.015625 L 23.515625 -23.375 Z M 1.15625 -23.375 "/></g></g></g><g fill="#ededed" fill-opacity="1"><g transform="translate(222.451273, 237.005229)"><g><path d="M 3.859375 0 L 5.25 0 L 5.25 -10.9375 C 5.296875 -15.234375 5.59375 -17.921875 7.8125 -20.046875 C 9.4375 -21.59375 11.703125 -22.5 14.40625 -22.5 L 14.796875 -22.5 L 14.796875 -23.75 C 14.40625 -23.796875 14.265625 -23.796875 13.96875 -23.796875 C 11.125 -23.796875 8.4375 -22.640625 6.796875 -21.015625 C 3.953125 -18.171875 3.859375 -15.375 3.859375 -10.546875 Z M 3.859375 0 "/></g></g></g><g fill="#ededed" fill-opacity="1"><g transform="translate(240.666922, 237.005229)"><g><path d="M 4.1875 -23.375 L 4.1875 0 L 17.015625 0 L 17.015625 -1.34375 L 5.59375 -1.34375 L 5.59375 -11.28125 L 17.015625 -11.28125 L 17.015625 -12.625 L 5.59375 -12.625 L 5.59375 -22.015625 L 17.015625 -22.015625 L 17.015625 -23.375 Z M 4.1875 -23.375 "/></g></g></g><g fill="#ededed" fill-opacity="1"><g transform="translate(264.52075, 237.005229)"><g><path d="M 3.859375 0 L 5.25 0 L 5.25 -10.9375 C 5.296875 -15.234375 5.59375 -17.921875 7.8125 -20.046875 C 9.4375 -21.59375 11.703125 -22.5 14.40625 -22.5 L 14.796875 -22.5 L 14.796875 -23.75 C 14.40625 -23.796875 14.265625 -23.796875 13.96875 -23.796875 C 11.125 -23.796875 8.4375 -22.640625 6.796875 -21.015625 C 3.953125 -18.171875 3.859375 -15.375 3.859375 -10.546875 Z M 3.859375 0 "/></g></g></g><g fill="#ededed" fill-opacity="1"><g transform="translate(282.736398, 237.005229)"><g><path d="M 24.765625 -23.375 L 24.765625 -17.203125 C 23.078125 -21.203125 18.75 -23.796875 14.125 -23.796875 C 7.375 -23.796875 1.875 -18.5 1.875 -11.65625 C 1.875 -4.625 7.375 0.53125 14.171875 0.53125 C 18.75 0.53125 22.5 -1.6875 24.765625 -5.96875 L 24.765625 0 L 26.171875 0 L 26.171875 -23.375 Z M 14.015625 -22.5 C 20.046875 -22.5 24.96875 -17.78125 24.96875 -11.5625 C 24.96875 -5.4375 20.140625 -0.71875 14.21875 -0.71875 C 8.09375 -0.71875 3.328125 -5.4375 3.328125 -11.65625 C 3.328125 -17.734375 8.140625 -22.5 14.015625 -22.5 Z M 14.015625 -22.5 "/></g></g></g><g clip-path="url(#744fe279d0)"><g clip-path="url(#a9e12fb685)"><g clip-path="url(#bf5dd546ca)"><path fill="#ffde59" d="M 199.28125 119.367188 L 204.679688 131.464844 L 188.164062 141.347656 L 171.414062 146.300781 L 166.015625 134.207031 L 180.894531 125.050781 Z M 199.28125 119.367188 " fill-opacity="1" fill-rule="nonzero"/></g></g></g><g clip-path="url(#94863b775b)"><g clip-path="url(#f4a7ffa720)"><g clip-path="url(#d42231c226)"><path fill="#ededed" d="M 135.433594 20.945312 C 107.878906 33.238281 95.203125 64.863281 107.121094 91.589844 C 114.949219 109.128906 131.421875 120.195312 149.613281 122.25 C 156.785156 123.0625 163.054688 127.5625 166.015625 134.207031 C 175.054688 130.171875 193.996094 121.726562 199.28125 119.367188 C 196.328125 112.746094 197.136719 105.078125 201.34375 99.175781 C 211.96875 84.261719 214.742188 64.613281 206.914062 47.070312 C 194.996094 20.347656 162.992188 8.652344 135.433594 20.945312 Z M 135.433594 20.945312 " fill-opacity="1" fill-rule="nonzero"/></g></g></g><g clip-path="url(#a63a8d62c0)"><g clip-path="url(#41e7958a70)"><g clip-path="url(#762d7822df)"><path fill="#ffde59" d="M 194.492188 59.863281 C 194.671875 60.261719 194.808594 60.671875 194.902344 61.097656 C 195 61.519531 195.054688 61.949219 195.066406 62.382812 C 195.078125 62.820312 195.046875 63.25 194.972656 63.679688 C 194.898438 64.109375 194.785156 64.527344 194.628906 64.929688 C 194.472656 65.335938 194.28125 65.722656 194.046875 66.09375 C 193.816406 66.460938 193.550781 66.800781 193.253906 67.117188 C 192.953125 67.433594 192.625 67.71875 192.269531 67.96875 C 191.917969 68.21875 191.539062 68.433594 191.144531 68.609375 C 190.746094 68.789062 190.335938 68.925781 189.910156 69.019531 C 189.488281 69.117188 189.058594 69.171875 188.625 69.183594 C 188.1875 69.195312 187.757812 69.164062 187.328125 69.089844 C 186.898438 69.015625 186.484375 68.902344 186.078125 68.746094 C 185.671875 68.589844 185.285156 68.398438 184.914062 68.164062 C 184.546875 67.933594 184.207031 67.667969 183.890625 67.371094 C 183.574219 67.070312 183.289062 66.742188 183.039062 66.386719 C 182.789062 66.035156 182.574219 65.65625 182.398438 65.261719 C 182.21875 64.863281 182.082031 64.453125 181.988281 64.027344 C 181.890625 63.605469 181.835938 63.175781 181.824219 62.742188 C 181.8125 62.304688 181.84375 61.875 181.917969 61.445312 C 181.992188 61.015625 182.105469 60.601562 182.261719 60.195312 C 182.417969 59.789062 182.609375 59.402344 182.84375 59.03125 C 183.074219 58.664062 183.339844 58.324219 183.636719 58.007812 C 183.9375 57.691406 184.265625 57.410156 184.621094 57.15625 C 184.972656 56.90625 185.351562 56.691406 185.746094 56.515625 C 186.144531 56.335938 186.554688 56.199219 186.980469 56.105469 C 187.402344 56.007812 187.832031 55.953125 188.265625 55.941406 C 188.703125 55.929688 189.132812 55.960938 189.5625 56.035156 C 189.992188 56.109375 190.40625 56.222656 190.8125 56.378906 C 191.21875 56.535156 191.605469 56.726562 191.976562 56.960938 C 192.34375 57.191406 192.683594 57.457031 193 57.753906 C 193.316406 58.054688 193.597656 58.382812 193.851562 58.738281 C 194.101562 59.089844 194.316406 59.46875 194.492188 59.863281 Z M 194.492188 59.863281 " fill-opacity="1" fill-rule="nonzero"/></g></g></g><g clip-path="url(#485f9fdd65)"><g clip-path="url(#12f20f22d1)"><g clip-path="url(#c6540915ee)"><path fill="#ffde59" d="M 203.214844 144.441406 L 207.398438 153.816406 C 210.003906 159.664062 207.378906 166.515625 201.535156 169.125 C 195.691406 171.730469 188.835938 169.105469 186.230469 163.261719 L 182.046875 153.886719 Z M 203.214844 144.441406 " fill-opacity="1" fill-rule="nonzero"/></g></g></g><g clip-path="url(#fad3f6bef2)"><g clip-path="url(#e7d3f520d2)"><g clip-path="url(#9940b4d82b)"><path fill="#ffde59" d="M 204.679688 131.464844 L 210.074219 143.558594 C 206.082031 145.339844 181.667969 156.230469 176.808594 158.398438 L 171.414062 146.300781 Z M 204.679688 131.464844 " fill-opacity="1" fill-rule="nonzero"/></g></g></g><g clip-path="url(#d8f4be45d3)"><g clip-path="url(#9de1d6401e)"><g clip-path="url(#914f489d8c)"><path fill="#ffde59" d="M 168.277344 66.121094 C 168.585938 66.816406 168.828125 67.535156 168.996094 68.277344 C 169.164062 69.019531 169.257812 69.769531 169.277344 70.53125 C 169.300781 71.289062 169.246094 72.046875 169.117188 72.796875 C 168.988281 73.546875 168.789062 74.277344 168.515625 74.988281 C 168.242188 75.699219 167.90625 76.375 167.5 77.019531 C 167.09375 77.664062 166.628906 78.261719 166.105469 78.8125 C 165.582031 79.367188 165.011719 79.863281 164.390625 80.300781 C 163.769531 80.742188 163.109375 81.117188 162.414062 81.425781 C 161.71875 81.734375 161 81.976562 160.257812 82.144531 C 159.515625 82.3125 158.765625 82.40625 158.003906 82.425781 C 157.246094 82.449219 156.488281 82.394531 155.738281 82.265625 C 154.988281 82.136719 154.257812 81.9375 153.546875 81.664062 C 152.835938 81.390625 152.160156 81.054688 151.515625 80.648438 C 150.871094 80.242188 150.273438 79.777344 149.722656 79.253906 C 149.167969 78.730469 148.671875 78.160156 148.234375 77.539062 C 147.792969 76.917969 147.417969 76.257812 147.109375 75.5625 C 146.800781 74.867188 146.558594 74.148438 146.390625 73.40625 C 146.222656 72.664062 146.128906 71.914062 146.109375 71.152344 C 146.085938 70.394531 146.140625 69.636719 146.269531 68.886719 C 146.398438 68.136719 146.597656 67.40625 146.871094 66.695312 C 147.144531 65.984375 147.480469 65.308594 147.886719 64.664062 C 148.292969 64.019531 148.757812 63.421875 149.28125 62.871094 C 149.804688 62.316406 150.375 61.820312 150.996094 61.382812 C 151.617188 60.941406 152.277344 60.566406 152.972656 60.257812 C 153.667969 59.949219 154.386719 59.707031 155.128906 59.539062 C 155.871094 59.371094 156.621094 59.277344 157.382812 59.257812 C 158.140625 59.234375 158.898438 59.289062 159.648438 59.417969 C 160.398438 59.546875 161.128906 59.746094 161.839844 60.019531 C 162.550781 60.292969 163.226562 60.628906 163.871094 61.035156 C 164.515625 61.441406 165.113281 61.90625 165.664062 62.429688 C 166.21875 62.953125 166.714844 63.523438 167.152344 64.144531 C 167.59375 64.765625 167.96875 65.425781 168.277344 66.121094 Z M 168.277344 66.121094 " fill-opacity="1" fill-rule="nonzero"/></g></g></g><g clip-path="url(#8fdf37a317)"><g clip-path="url(#ac1f9dc3d8)"><g clip-path="url(#5c9f8d1efb)"><path fill="#ffde59" d="M 137.035156 85.496094 C 137.214844 85.890625 137.351562 86.304688 137.445312 86.726562 C 137.542969 87.152344 137.597656 87.582031 137.609375 88.015625 C 137.621094 88.449219 137.589844 88.882812 137.515625 89.308594 C 137.441406 89.738281 137.328125 90.15625 137.171875 90.5625 C 137.015625 90.96875 136.824219 91.355469 136.59375 91.722656 C 136.359375 92.089844 136.09375 92.433594 135.796875 92.75 C 135.496094 93.0625 135.167969 93.347656 134.816406 93.597656 C 134.460938 93.851562 134.082031 94.0625 133.6875 94.242188 C 133.289062 94.417969 132.878906 94.554688 132.453125 94.652344 C 132.03125 94.746094 131.601562 94.800781 131.167969 94.8125 C 130.730469 94.824219 130.300781 94.792969 129.871094 94.722656 C 129.441406 94.648438 129.027344 94.535156 128.621094 94.378906 C 128.214844 94.222656 127.828125 94.027344 127.457031 93.796875 C 127.089844 93.566406 126.75 93.300781 126.433594 93 C 126.117188 92.703125 125.835938 92.375 125.582031 92.019531 C 125.332031 91.664062 125.117188 91.289062 124.941406 90.890625 C 124.761719 90.492188 124.625 90.082031 124.53125 89.660156 C 124.433594 89.234375 124.378906 88.804688 124.367188 88.371094 C 124.355469 87.9375 124.386719 87.503906 124.460938 87.078125 C 124.535156 86.648438 124.648438 86.230469 124.804688 85.824219 C 124.960938 85.417969 125.152344 85.03125 125.386719 84.664062 C 125.617188 84.296875 125.882812 83.953125 126.179688 83.636719 C 126.480469 83.324219 126.808594 83.039062 127.164062 82.789062 C 127.515625 82.535156 127.894531 82.324219 128.289062 82.144531 C 128.6875 81.96875 129.097656 81.832031 129.523438 81.734375 C 129.945312 81.640625 130.375 81.585938 130.808594 81.574219 C 131.246094 81.5625 131.675781 81.59375 132.105469 81.664062 C 132.535156 81.738281 132.953125 81.851562 133.355469 82.007812 C 133.761719 82.164062 134.152344 82.359375 134.519531 82.589844 C 134.886719 82.820312 135.226562 83.085938 135.542969 83.386719 C 135.859375 83.683594 136.144531 84.011719 136.394531 84.367188 C 136.644531 84.722656 136.859375 85.097656 137.035156 85.496094 Z M 137.035156 85.496094 " fill-opacity="1" fill-rule="nonzero"/></g></g></g><g clip-path="url(#04d1fbc38b)"><g clip-path="url(#13871758ac)"><g clip-path="url(#f24d4cabe4)"><path fill="#ffde59" d="M 134.085938 17.921875 C 104.90625 30.9375 91.453125 64.589844 104.097656 92.9375 C 112.234375 111.175781 129.46875 123.304688 149.242188 125.542969 C 155.300781 126.226562 160.527344 130.027344 162.992188 135.554688 C 164.300781 138.480469 172.472656 156.800781 173.785156 159.746094 C 174.53125 161.417969 176.488281 162.167969 178.160156 161.421875 L 181.183594 160.074219 L 183.207031 164.609375 C 186.554688 172.113281 195.378906 175.496094 202.882812 172.148438 C 210.386719 168.800781 213.769531 159.972656 210.421875 152.46875 L 208.398438 147.933594 L 211.421875 146.582031 C 213.09375 145.839844 213.84375 143.878906 213.097656 142.210938 C 211.792969 139.285156 203.621094 120.964844 202.304688 118.019531 C 199.855469 112.523438 200.519531 106.039062 204.042969 101.097656 C 215.605469 84.863281 218.0625 63.933594 209.941406 45.722656 C 197.292969 17.375 163.265625 4.902344 134.085938 17.921875 Z M 161.066406 78.402344 C 156.898438 80.261719 151.992188 78.382812 150.132812 74.214844 C 148.273438 70.046875 150.152344 65.140625 154.320312 63.28125 C 158.488281 61.421875 163.394531 63.300781 165.253906 67.46875 C 167.113281 71.636719 165.234375 76.542969 161.066406 78.402344 Z M 197.605469 123.742188 L 200.304688 129.789062 L 173.089844 141.929688 L 170.390625 135.882812 Z M 204.375 155.167969 C 206.234375 159.335938 204.355469 164.238281 200.1875 166.097656 C 196.019531 167.957031 191.113281 166.082031 189.253906 161.910156 L 187.230469 157.375 L 202.351562 150.628906 Z M 205.699219 141.882812 C 202.261719 143.417969 181.90625 152.5 178.484375 154.023438 L 175.785156 147.976562 L 203.003906 135.835938 Z M 198.648438 97.253906 C 194.421875 103.183594 193.171875 110.722656 195.128906 117.59375 L 184.324219 122.414062 L 176.765625 105.472656 L 188.328125 72.5 C 189.746094 72.515625 191.160156 72.226562 192.492188 71.632812 C 197.496094 69.402344 199.75 63.519531 197.515625 58.515625 C 195.285156 53.511719 189.402344 51.257812 184.398438 53.492188 C 179.394531 55.722656 177.140625 61.605469 179.375 66.609375 C 180.007812 68.03125 180.945312 69.257812 182.109375 70.21875 L 172.839844 96.664062 L 166.636719 82.757812 C 172.070312 78.679688 174.183594 71.234375 171.300781 64.769531 C 167.953125 57.269531 159.125 53.886719 151.621094 57.234375 C 144.121094 60.582031 140.738281 69.410156 144.085938 76.914062 C 146.96875 83.375 153.917969 86.777344 160.585938 85.457031 L 166.789062 99.363281 L 140.917969 88.59375 C 140.980469 87.085938 140.695312 85.570312 140.0625 84.144531 C 137.828125 79.144531 131.945312 76.890625 126.941406 79.121094 C 121.9375 81.351562 119.683594 87.238281 121.917969 92.242188 C 124.148438 97.242188 130.03125 99.496094 135.035156 97.265625 C 136.367188 96.671875 137.527344 95.8125 138.460938 94.746094 L 170.71875 108.167969 L 178.277344 125.113281 L 167.476562 129.929688 C 163.570312 123.707031 157.089844 119.761719 149.988281 118.960938 C 132.164062 116.945312 117.269531 106.207031 110.144531 90.238281 C 98.988281 65.226562 110.9375 35.5 136.785156 23.96875 C 162.628906 12.441406 192.734375 23.410156 203.890625 48.421875 C 211.015625 64.390625 209.054688 82.644531 198.648438 97.253906 Z M 185.421875 63.910156 C 184.675781 62.242188 185.429688 60.28125 187.097656 59.539062 C 188.765625 58.792969 190.726562 59.546875 191.46875 61.214844 C 192.214844 62.882812 191.460938 64.84375 189.792969 65.585938 C 188.144531 66.320312 186.175781 65.601562 185.421875 63.910156 Z M 132.335938 91.21875 C 130.671875 91.960938 128.707031 91.210938 127.964844 89.542969 C 127.21875 87.875 127.972656 85.914062 129.640625 85.167969 C 131.308594 84.425781 133.269531 85.175781 134.011719 86.84375 C 134.75 88.5 134.019531 90.464844 132.335938 91.21875 Z M 132.335938 91.21875 " fill-opacity="1" fill-rule="nonzero"/></g></g></g><g clip-path="url(#f46794a8a8)"><g clip-path="url(#49e028d22a)"><g clip-path="url(#8a7c7cf18a)"><path fill="#ffde59" d="M 211.730469 21.105469 L 220.910156 11.554688 C 222.175781 10.238281 222.136719 8.140625 220.816406 6.875 C 219.5 5.605469 217.40625 5.648438 216.136719 6.96875 L 206.957031 16.515625 C 205.691406 17.832031 205.730469 19.929688 207.050781 21.195312 C 208.367188 22.464844 210.464844 22.421875 211.730469 21.105469 Z M 211.730469 21.105469 " fill-opacity="1" fill-rule="nonzero"/></g></g></g><g clip-path="url(#0665df0726)"><g clip-path="url(#2df6cf0c33)"><g clip-path="url(#d6a6d8d34d)"><path fill="#ffde59" d="M 218.34375 40.175781 L 230.4375 34.78125 C 232.109375 34.035156 232.859375 32.078125 232.113281 30.40625 C 231.367188 28.738281 229.410156 27.988281 227.742188 28.730469 L 215.644531 34.128906 C 213.976562 34.871094 213.226562 36.832031 213.96875 38.5 C 214.714844 40.171875 216.671875 40.921875 218.34375 40.175781 Z M 218.34375 40.175781 " fill-opacity="1" fill-rule="nonzero"/></g></g></g><g clip-path="url(#5d5a3c0159)"><g clip-path="url(#d2e03458e2)"><g clip-path="url(#112102af18)"><path fill="#ffde59" d="M 238.253906 50.570312 L 225.078125 51.863281 C 223.253906 52.039062 221.925781 53.660156 222.105469 55.480469 C 222.28125 57.300781 223.902344 58.628906 225.722656 58.453125 L 238.902344 57.160156 C 240.71875 56.984375 242.054688 55.363281 241.875 53.542969 C 241.695312 51.722656 240.074219 50.390625 238.253906 50.570312 Z M 238.253906 50.570312 " fill-opacity="1" fill-rule="nonzero"/></g></g></g><g clip-path="url(#9c6a8e26e0)"><g clip-path="url(#9f7285f285)"><g clip-path="url(#1a996a4700)"><path fill="#ffde59" d="M 71.347656 78.273438 L 84.582031 77.824219 C 86.410156 77.761719 87.839844 76.230469 87.777344 74.402344 C 87.714844 72.574219 86.183594 71.140625 84.355469 71.203125 L 71.121094 71.65625 C 69.292969 71.71875 67.863281 73.25 67.925781 75.078125 C 67.988281 76.90625 69.519531 78.335938 71.347656 78.273438 Z M 71.347656 78.273438 " fill-opacity="1" fill-rule="nonzero"/></g></g></g><g clip-path="url(#43b7adbc3c)"><g clip-path="url(#974dcf2eed)"><g clip-path="url(#709ccc3e51)"><path fill="#ffde59" d="M 91.660156 89.4375 L 79.5625 94.832031 C 77.894531 95.578125 77.144531 97.535156 77.886719 99.203125 C 78.632812 100.875 80.589844 101.625 82.261719 100.878906 L 94.355469 95.484375 C 96.027344 94.738281 96.777344 92.78125 96.03125 91.109375 C 95.285156 89.441406 93.328125 88.691406 91.660156 89.4375 Z M 91.660156 89.4375 " fill-opacity="1" fill-rule="nonzero"/></g></g></g><g clip-path="url(#a2e0ac893a)"><g clip-path="url(#4dcd8f4624)"><g clip-path="url(#2150ec0892)"><path fill="#ffde59" d="M 98.554688 108.300781 L 88.789062 117.246094 C 87.4375 118.480469 87.347656 120.574219 88.582031 121.921875 C 89.816406 123.269531 91.910156 123.367188 93.261719 122.128906 L 103.027344 113.183594 C 104.375 111.949219 104.46875 109.855469 103.230469 108.507812 C 101.996094 107.160156 99.902344 107.066406 98.554688 108.300781 Z M 98.554688 108.300781 " fill-opacity="1" fill-rule="nonzero"/></g></g></g><path stroke-linecap="butt" transform="matrix(-0.00134495, -0.749999, 0.749999, -0.00134495, 225.709341, 255.275227)" fill="none" stroke-linejoin="miter" d="M 11.249713 1.501472 L 54.728952 1.501316 " stroke="#ffde59" stroke-width="3" stroke-opacity="1" stroke-miterlimit="4"/><path stroke-linecap="round" transform="matrix(-0.00134495, -0.749999, 0.749999, -0.00134495, 225.709341, 255.275227)" fill="none" stroke-linejoin="round" d="M 1.4997 1.499612 C 1.498946 -0.984768 3.512984 -3.001993 6.002563 -2.997529 C 8.486944 -2.998282 10.49896 -0.984254 10.499714 1.500127 C 10.500467 3.984507 8.486429 6.001732 6.002049 6.002485 C 3.512469 5.998021 1.500453 3.983993 1.4997 1.499612 " stroke="#ffde59" stroke-width="3" stroke-opacity="1" stroke-miterlimit="4"/><g clip-path="url(#359676a3fc)"><g clip-path="url(#45072446a7)"><g clip-path="url(#84e888c180)"><path fill="#ffde59" d="M 195.175781 113.9375 L 199.976562 124.707031 L 185.277344 133.507812 L 170.363281 137.917969 L 165.5625 127.148438 L 178.804688 119 Z M 195.175781 113.9375 " fill-opacity="1" fill-rule="nonzero"/></g></g></g><g clip-path="url(#b40a4979fc)"><g clip-path="url(#c3b243f5bc)"><g clip-path="url(#12f0bcb487)"><path fill="#ededed" d="M 138.335938 26.320312 C 113.804688 37.265625 102.519531 65.417969 113.128906 89.207031 C 120.097656 104.824219 134.761719 114.675781 150.960938 116.507812 C 157.34375 117.226562 162.921875 121.234375 165.5625 127.148438 C 173.609375 123.558594 190.46875 116.039062 195.175781 113.9375 C 192.546875 108.046875 193.265625 101.21875 197.011719 95.964844 C 206.46875 82.6875 208.9375 65.195312 201.96875 49.578125 C 191.359375 25.789062 162.871094 15.375 138.335938 26.320312 Z M 138.335938 26.320312 " fill-opacity="1" fill-rule="nonzero"/></g></g></g><g clip-path="url(#97ecb69257)"><g clip-path="url(#3192d119f3)"><g clip-path="url(#793782940d)"><path fill="#ffde59" d="M 190.910156 60.96875 C 191.070312 61.320312 191.191406 61.6875 191.277344 62.0625 C 191.363281 62.441406 191.410156 62.824219 191.421875 63.210938 C 191.429688 63.597656 191.402344 63.980469 191.339844 64.363281 C 191.273438 64.746094 191.171875 65.117188 191.035156 65.476562 C 190.894531 65.839844 190.722656 66.183594 190.515625 66.511719 C 190.308594 66.839844 190.074219 67.144531 189.808594 67.425781 C 189.539062 67.707031 189.25 67.957031 188.933594 68.179688 C 188.617188 68.40625 188.28125 68.59375 187.929688 68.753906 C 187.574219 68.910156 187.210938 69.03125 186.832031 69.117188 C 186.457031 69.203125 186.074219 69.253906 185.6875 69.261719 C 185.300781 69.273438 184.914062 69.246094 184.535156 69.179688 C 184.152344 69.113281 183.78125 69.011719 183.417969 68.875 C 183.058594 68.734375 182.710938 68.5625 182.386719 68.359375 C 182.058594 68.152344 181.753906 67.914062 181.472656 67.648438 C 181.191406 67.382812 180.9375 67.089844 180.714844 66.773438 C 180.492188 66.460938 180.300781 66.125 180.144531 65.769531 C 179.984375 65.417969 179.863281 65.050781 179.777344 64.675781 C 179.691406 64.296875 179.644531 63.914062 179.632812 63.527344 C 179.625 63.140625 179.652344 62.757812 179.714844 62.375 C 179.78125 61.992188 179.882812 61.621094 180.023438 61.261719 C 180.160156 60.898438 180.332031 60.554688 180.539062 60.226562 C 180.746094 59.898438 180.980469 59.59375 181.25 59.3125 C 181.515625 59.03125 181.804688 58.78125 182.121094 58.558594 C 182.4375 58.332031 182.773438 58.144531 183.125 57.984375 C 183.480469 57.828125 183.84375 57.707031 184.222656 57.621094 C 184.601562 57.535156 184.980469 57.484375 185.367188 57.476562 C 185.757812 57.464844 186.140625 57.492188 186.523438 57.558594 C 186.902344 57.625 187.273438 57.726562 187.636719 57.863281 C 187.996094 58.003906 188.34375 58.175781 188.671875 58.378906 C 188.996094 58.585938 189.300781 58.824219 189.582031 59.089844 C 189.863281 59.355469 190.117188 59.648438 190.339844 59.964844 C 190.5625 60.277344 190.753906 60.613281 190.910156 60.96875 Z M 190.910156 60.96875 " fill-opacity="1" fill-rule="nonzero"/></g></g></g><g clip-path="url(#4363a7f227)"><g clip-path="url(#df74adacc4)"><g clip-path="url(#82f76a0e84)"><path fill="#ffde59" d="M 198.675781 136.261719 L 202.398438 144.609375 C 204.722656 149.8125 202.386719 155.910156 197.179688 158.234375 C 191.976562 160.554688 185.875 158.21875 183.554688 153.015625 L 179.832031 144.667969 Z M 198.675781 136.261719 " fill-opacity="1" fill-rule="nonzero"/></g></g></g><g clip-path="url(#310ca55aa7)"><g clip-path="url(#9e2708bbb5)"><g clip-path="url(#1b3f462ca1)"><path fill="#ffde59" d="M 199.976562 124.707031 L 204.78125 135.476562 C 201.230469 137.0625 179.496094 146.757812 175.167969 148.6875 L 170.363281 137.917969 Z M 199.976562 124.707031 " fill-opacity="1" fill-rule="nonzero"/></g></g></g><g clip-path="url(#9f32aece40)"><g clip-path="url(#e557a46d13)"><g clip-path="url(#719e1a9955)"><path fill="#ffde59" d="M 167.574219 66.535156 C 167.847656 67.15625 168.0625 67.792969 168.210938 68.457031 C 168.363281 69.117188 168.445312 69.785156 168.464844 70.460938 C 168.484375 71.140625 168.433594 71.8125 168.320312 72.480469 C 168.207031 73.148438 168.027344 73.796875 167.785156 74.429688 C 167.542969 75.0625 167.242188 75.664062 166.878906 76.238281 C 166.519531 76.8125 166.105469 77.34375 165.640625 77.835938 C 165.175781 78.328125 164.664062 78.769531 164.113281 79.160156 C 163.558594 79.550781 162.972656 79.886719 162.355469 80.160156 C 161.734375 80.4375 161.097656 80.652344 160.433594 80.800781 C 159.773438 80.949219 159.105469 81.035156 158.429688 81.054688 C 157.75 81.070312 157.078125 81.023438 156.410156 80.910156 C 155.742188 80.796875 155.09375 80.617188 154.460938 80.375 C 153.828125 80.132812 153.226562 79.832031 152.652344 79.46875 C 152.078125 79.109375 151.546875 78.695312 151.054688 78.230469 C 150.5625 77.761719 150.121094 77.253906 149.730469 76.699219 C 149.339844 76.148438 149.003906 75.5625 148.730469 74.941406 C 148.453125 74.324219 148.238281 73.683594 148.089844 73.023438 C 147.941406 72.363281 147.855469 71.695312 147.835938 71.015625 C 147.820312 70.339844 147.867188 69.667969 147.980469 69 C 148.097656 68.332031 148.273438 67.683594 148.515625 67.050781 C 148.757812 66.417969 149.058594 65.8125 149.421875 65.242188 C 149.78125 64.667969 150.195312 64.132812 150.664062 63.644531 C 151.128906 63.152344 151.636719 62.710938 152.191406 62.316406 C 152.742188 61.925781 153.328125 61.59375 153.949219 61.316406 C 154.566406 61.042969 155.207031 60.828125 155.867188 60.679688 C 156.527344 60.527344 157.195312 60.445312 157.875 60.425781 C 158.550781 60.40625 159.222656 60.457031 159.890625 60.570312 C 160.558594 60.683594 161.210938 60.863281 161.839844 61.105469 C 162.472656 61.347656 163.078125 61.648438 163.652344 62.011719 C 164.222656 62.371094 164.757812 62.785156 165.246094 63.25 C 165.738281 63.714844 166.179688 64.226562 166.574219 64.777344 C 166.964844 65.332031 167.296875 65.917969 167.574219 66.535156 Z M 167.574219 66.535156 " fill-opacity="1" fill-rule="nonzero"/></g></g></g><g clip-path="url(#6d91bba9bb)"><g clip-path="url(#f3672a9684)"><g clip-path="url(#2c1f0f94f2)"><path fill="#ffde59" d="M 139.761719 83.785156 C 139.917969 84.136719 140.042969 84.503906 140.125 84.882812 C 140.210938 85.257812 140.261719 85.640625 140.269531 86.027344 C 140.28125 86.414062 140.253906 86.800781 140.1875 87.179688 C 140.125 87.5625 140.023438 87.933594 139.882812 88.296875 C 139.746094 88.65625 139.570312 89 139.367188 89.328125 C 139.160156 89.65625 138.921875 89.960938 138.65625 90.242188 C 138.390625 90.523438 138.097656 90.773438 137.785156 91 C 137.46875 91.222656 137.132812 91.414062 136.78125 91.570312 C 136.425781 91.726562 136.058594 91.851562 135.683594 91.9375 C 135.304688 92.023438 134.921875 92.070312 134.535156 92.078125 C 134.148438 92.089844 133.765625 92.0625 133.382812 91.996094 C 133 91.933594 132.628906 91.832031 132.269531 91.691406 C 131.90625 91.554688 131.5625 91.382812 131.234375 91.175781 C 130.90625 90.96875 130.601562 90.730469 130.320312 90.464844 C 130.042969 90.199219 129.789062 89.910156 129.566406 89.59375 C 129.339844 89.277344 129.152344 88.941406 128.992188 88.589844 C 128.835938 88.234375 128.714844 87.871094 128.628906 87.492188 C 128.542969 87.113281 128.496094 86.730469 128.484375 86.34375 C 128.472656 85.957031 128.5 85.574219 128.566406 85.191406 C 128.632812 84.8125 128.734375 84.4375 128.871094 84.078125 C 129.011719 83.714844 129.183594 83.371094 129.390625 83.042969 C 129.59375 82.714844 129.832031 82.414062 130.097656 82.132812 C 130.363281 81.851562 130.65625 81.597656 130.972656 81.375 C 131.289062 81.152344 131.621094 80.960938 131.976562 80.800781 C 132.328125 80.644531 132.695312 80.523438 133.070312 80.4375 C 133.449219 80.351562 133.832031 80.304688 134.21875 80.292969 C 134.605469 80.28125 134.988281 80.308594 135.371094 80.375 C 135.753906 80.441406 136.125 80.542969 136.488281 80.679688 C 136.847656 80.820312 137.191406 80.992188 137.519531 81.199219 C 137.847656 81.40625 138.152344 81.640625 138.433594 81.90625 C 138.714844 82.171875 138.964844 82.464844 139.191406 82.78125 C 139.414062 83.097656 139.605469 83.429688 139.761719 83.785156 Z M 139.761719 83.785156 " fill-opacity="1" fill-rule="nonzero"/></g></g></g><g clip-path="url(#51ca4fcd74)"><g clip-path="url(#5166706b7f)"><g clip-path="url(#cc7c2616e6)"><path fill="#000000" d="M 137.136719 23.628906 C 111.15625 35.214844 99.179688 65.175781 110.4375 90.410156 C 117.683594 106.648438 133.027344 117.445312 150.628906 119.4375 C 156.019531 120.042969 160.675781 123.429688 162.871094 128.351562 C 164.03125 130.957031 171.308594 147.265625 172.476562 149.886719 C 173.140625 151.375 174.882812 152.039062 176.371094 151.378906 L 179.0625 150.175781 L 180.863281 154.214844 C 183.84375 160.894531 191.703125 163.90625 198.382812 160.925781 C 205.0625 157.945312 208.070312 150.085938 205.09375 143.40625 L 203.289062 139.367188 L 205.984375 138.167969 C 207.46875 137.503906 208.136719 135.761719 207.472656 134.273438 C 206.3125 131.667969 199.035156 115.359375 197.867188 112.738281 C 195.683594 107.84375 196.277344 102.074219 199.410156 97.675781 C 209.707031 83.222656 211.894531 64.589844 204.664062 48.378906 C 193.40625 23.140625 163.113281 12.039062 137.136719 23.628906 Z M 161.152344 77.46875 C 157.441406 79.125 153.078125 77.453125 151.421875 73.742188 C 149.765625 70.03125 151.4375 65.664062 155.148438 64.007812 C 158.859375 62.355469 163.226562 64.027344 164.882812 67.738281 C 166.535156 71.449219 164.863281 75.816406 161.152344 77.46875 Z M 193.683594 117.832031 L 196.085938 123.214844 L 171.855469 134.023438 L 169.453125 128.640625 Z M 199.707031 145.808594 C 201.363281 149.519531 199.691406 153.886719 195.980469 155.542969 C 192.269531 157.195312 187.902344 155.523438 186.246094 151.8125 L 184.445312 147.773438 L 197.90625 141.769531 Z M 200.890625 133.984375 C 197.828125 135.347656 179.707031 143.433594 176.660156 144.792969 L 174.257812 139.410156 L 198.488281 128.601562 Z M 194.609375 94.253906 C 190.847656 99.53125 189.734375 106.242188 191.476562 112.359375 L 181.859375 116.652344 L 175.132812 101.566406 L 185.425781 72.214844 C 186.6875 72.230469 187.945312 71.972656 189.128906 71.445312 C 193.582031 69.457031 195.589844 64.21875 193.605469 59.765625 C 191.617188 55.3125 186.378906 53.304688 181.925781 55.292969 C 177.472656 57.28125 175.464844 62.519531 177.453125 66.972656 C 178.015625 68.238281 178.851562 69.328125 179.890625 70.183594 L 171.632812 93.726562 L 166.109375 81.347656 C 170.953125 77.714844 172.832031 71.089844 170.265625 65.335938 C 167.285156 58.65625 159.425781 55.644531 152.746094 58.625 C 146.066406 61.605469 143.058594 69.464844 146.035156 76.144531 C 148.605469 81.898438 154.792969 84.925781 160.726562 83.75 L 166.25 96.128906 L 143.214844 86.542969 C 143.273438 85.199219 143.019531 83.851562 142.453125 82.582031 C 140.46875 78.128906 135.226562 76.125 130.773438 78.109375 C 126.320312 80.097656 124.316406 85.335938 126.300781 89.789062 C 128.289062 94.242188 133.527344 96.25 137.980469 94.261719 C 139.164062 93.734375 140.199219 92.96875 141.027344 92.019531 L 169.746094 103.96875 L 176.476562 119.050781 L 166.859375 123.339844 C 163.382812 117.804688 157.613281 114.292969 151.289062 113.578125 C 135.421875 111.78125 122.164062 102.222656 115.824219 88.007812 C 105.890625 65.742188 116.527344 39.277344 139.535156 29.011719 C 162.546875 18.746094 189.347656 28.511719 199.277344 50.78125 C 205.621094 64.996094 203.875 81.246094 194.609375 94.253906 Z M 182.835938 64.570312 C 182.171875 63.085938 182.84375 61.339844 184.328125 60.675781 C 185.8125 60.015625 187.558594 60.683594 188.21875 62.167969 C 188.882812 63.652344 188.214844 65.398438 186.730469 66.0625 C 185.261719 66.714844 183.507812 66.074219 182.835938 64.570312 Z M 135.578125 88.878906 C 134.09375 89.539062 132.347656 88.871094 131.683594 87.386719 C 131.023438 85.902344 131.691406 84.15625 133.175781 83.496094 C 134.660156 82.832031 136.40625 83.5 137.070312 84.984375 C 137.726562 86.457031 137.078125 88.210938 135.578125 88.878906 Z M 135.578125 88.878906 " fill-opacity="1" fill-rule="nonzero"/></g></g></g><g clip-path="url(#fb45d0579f)"><g clip-path="url(#4524069e3f)"><g clip-path="url(#2f9a3fa05c)"><path fill="#000000" d="M 206.257812 26.460938 L 214.429688 17.960938 C 215.558594 16.789062 215.519531 14.921875 214.347656 13.792969 C 213.171875 12.664062 211.308594 12.703125 210.179688 13.875 L 202.007812 22.375 C 200.878906 23.550781 200.917969 25.414062 202.089844 26.542969 C 203.265625 27.671875 205.128906 27.632812 206.257812 26.460938 Z M 206.257812 26.460938 " fill-opacity="1" fill-rule="nonzero"/></g></g></g><g clip-path="url(#725fb3dffe)"><g clip-path="url(#c2a02cfa64)"><g clip-path="url(#da8060bcc0)"><path fill="#000000" d="M 212.144531 43.441406 L 222.910156 38.636719 C 224.398438 37.972656 225.066406 36.230469 224.402344 34.742188 C 223.738281 33.257812 221.996094 32.589844 220.511719 33.25 L 209.742188 38.054688 C 208.253906 38.71875 207.585938 40.460938 208.25 41.949219 C 208.914062 43.433594 210.65625 44.101562 212.144531 43.441406 Z M 212.144531 43.441406 " fill-opacity="1" fill-rule="nonzero"/></g></g></g><g clip-path="url(#79bcceab0d)"><g clip-path="url(#c57ebbeb29)"><g clip-path="url(#b3e90cc534)"><path fill="#000000" d="M 229.871094 52.691406 L 218.136719 53.84375 C 216.515625 54 215.332031 55.445312 215.492188 57.0625 C 215.652344 58.683594 217.09375 59.867188 218.714844 59.710938 L 230.445312 58.558594 C 232.0625 58.402344 233.25 56.960938 233.09375 55.339844 C 232.933594 53.71875 231.492188 52.535156 229.871094 52.691406 Z M 229.871094 52.691406 " fill-opacity="1" fill-rule="nonzero"/></g></g></g><g clip-path="url(#22c9d97795)"><g clip-path="url(#efb8f9098d)"><g clip-path="url(#fda5360d22)"><path fill="#000000" d="M 81.28125 77.355469 L 93.066406 76.953125 C 94.691406 76.898438 95.964844 75.535156 95.910156 73.910156 C 95.855469 72.28125 94.492188 71.007812 92.863281 71.0625 L 81.082031 71.464844 C 79.453125 71.519531 78.179688 72.882812 78.234375 74.511719 C 78.289062 76.136719 79.65625 77.410156 81.28125 77.355469 Z M 81.28125 77.355469 " fill-opacity="1" fill-rule="nonzero"/></g></g></g><g clip-path="url(#83728f15e8)"><g clip-path="url(#3d8f93eba0)"><g clip-path="url(#131bee90fb)"><path fill="#000000" d="M 99.363281 87.292969 L 88.597656 92.097656 C 87.109375 92.757812 86.441406 94.503906 87.105469 95.988281 C 87.769531 97.476562 89.511719 98.144531 91 97.480469 L 101.765625 92.675781 C 103.253906 92.015625 103.921875 90.269531 103.257812 88.785156 C 102.59375 87.296875 100.851562 86.628906 99.363281 87.292969 Z M 99.363281 87.292969 " fill-opacity="1" fill-rule="nonzero"/></g></g></g><g clip-path="url(#8663b9067c)"><g clip-path="url(#6ff002a43c)"><g clip-path="url(#17a1d1792c)"><path fill="#000000" d="M 105.503906 104.085938 L 96.808594 112.050781 C 95.609375 113.148438 95.527344 115.011719 96.625 116.214844 C 97.722656 117.414062 99.585938 117.5 100.789062 116.398438 L 109.484375 108.433594 C 110.683594 107.335938 110.765625 105.472656 109.667969 104.269531 C 108.570312 103.070312 106.703125 102.988281 105.503906 104.085938 Z M 105.503906 104.085938 " fill-opacity="1" fill-rule="nonzero"/></g></g></g><g clip-path="url(#1754ad6996)"><g clip-path="url(#56dbc46876)"><path fill="#1e1e1e" d="M 361.632812 35.210938 L 361.632812 69.382812 L 326.527344 69.382812 L 326.527344 35.210938 Z M 361.632812 35.210938 " fill-opacity="1" fill-rule="nonzero"/></g></g><path stroke-linecap="butt" transform="matrix(0.00821207, -0.749955, 0.749955, 0.00821207, 340.048957, 132.334575)" fill="none" stroke-linejoin="miter" d="M 0.000286975 3.99746 L 94.31849 4.001189 " stroke="#ffde59" stroke-width="8" stroke-opacity="1" stroke-miterlimit="4"/><path stroke-linecap="round" transform="matrix(0.00821207, -0.749955, 0.749955, 0.00821207, 340.048957, 132.334575)" fill="none" stroke-linejoin="round" d="M 120.320013 3.997737 C 120.319698 10.628347 114.9459 16.00001 108.31529 15.999694 C 101.689889 15.999322 96.318226 10.625524 96.318598 4.000122 C 96.318971 -2.625279 101.692711 -8.00215 108.318113 -8.001778 C 114.943515 -8.001405 120.315178 -2.627607 120.320013 3.997737 " stroke="#ffde59" stroke-width="8" stroke-opacity="1" stroke-miterlimit="4"/><path stroke-linecap="butt" transform="matrix(0.00341285, -0.749992, 0.749992, 0.00341285, 37.206876, 315.784784)" fill="none" stroke-linejoin="miter" d="M 11.251244 1.501108 L 58.939225 1.497647 " stroke="#ffde59" stroke-width="3" stroke-opacity="1" stroke-miterlimit="4"/><path stroke-linecap="round" transform="matrix(0.00341285, -0.749992, 0.749992, 0.00341285, 37.206876, 315.784784)" fill="none" stroke-linejoin="round" d="M 1.50113 1.4986 C 1.500242 -0.985797 3.517138 -3.000204 6.001535 -3.001092 C 8.485932 -3.001981 10.500339 -0.985085 10.501228 1.499312 C 10.502116 3.983709 8.48522 5.998116 6.000823 5.999005 C 3.516426 5.999893 1.502019 3.982997 1.50113 1.4986 " stroke="#ffde59" stroke-width="3" stroke-opacity="1" stroke-miterlimit="4"/><g clip-path="url(#cbd6a1b442)"><g clip-path="url(#84c708c2d2)"><path fill="#1e1e1e" d="M 35.285156 1.484375 L 47.699219 1.484375 L 47.699219 14.242188 L 35.285156 14.242188 Z M 35.285156 1.484375 " fill-opacity="1" fill-rule="nonzero"/></g></g><path stroke-linecap="butt" transform="matrix(-0.0018966, 0.749998, -0.749998, -0.0018966, 42.57755, 3.299995)" fill="none" stroke-linejoin="miter" d="M 11.249675 1.50204 L 44.50499 1.501277 " stroke="#ffde59" stroke-width="3" stroke-opacity="1" stroke-miterlimit="4"/><path stroke-linecap="round" transform="matrix(-0.0018966, 0.749998, -0.749998, -0.0018966, 42.57755, 3.299995)" fill="none" stroke-linejoin="round" d="M 1.499639 1.500654 C 1.498565 -0.983727 3.514308 -2.999247 5.998689 -3.000321 C 8.483069 -3.001396 10.49859 -0.985652 10.499664 1.498728 C 10.500738 3.983108 8.484995 5.998629 6.000615 5.999703 C 3.516234 6.000777 1.500714 3.985034 1.499639 1.500654 " stroke="#ffde59" stroke-width="3" stroke-opacity="1" stroke-miterlimit="4"/></svg>