<svg xmlns="http://www.w3.org/2000/svg" xmlns:xlink="http://www.w3.org/1999/xlink" width="500" zoomAndPan="magnify" viewBox="0 0 375 374.999991" height="500" preserveAspectRatio="xMidYMid meet" version="1.0"><defs><g/><clipPath id="69c9b44d19"><path d="M 96.457031 252.296875 L 112.289062 252.296875 L 112.289062 269.113281 L 96.457031 269.113281 Z M 96.457031 252.296875 " clip-rule="nonzero"/></clipPath><clipPath id="a7cf881e89"><path d="M 96.546875 260.082031 C 101.421875 252.640625 103.21875 252.128906 104.757812 252.382812 C 106.8125 252.640625 109.890625 254.179688 110.917969 255.976562 C 112.199219 257.773438 112.199219 261.367188 111.429688 263.417969 C 110.402344 265.214844 107.835938 267.265625 105.527344 267.78125 C 103.476562 268.035156 100.140625 267.011719 98.855469 265.472656 C 97.316406 263.929688 96.289062 260.59375 96.804688 258.285156 C 97.316406 256.234375 99.625 253.667969 101.421875 252.898438 C 103.476562 252.128906 107.066406 252.382812 108.605469 253.667969 C 110.660156 255.207031 112.199219 259.570312 112.199219 261.878906 C 112.199219 263.929688 110.917969 265.726562 109.632812 267.011719 C 108.351562 268.035156 106.296875 268.808594 104.5 269.0625 C 102.707031 269.0625 100.652344 268.292969 99.371094 267.011719 C 98.085938 265.984375 96.546875 262.136719 96.546875 262.136719 " clip-rule="nonzero"/></clipPath><clipPath id="ed6353c4bf"><path d="M 138 126 L 180 126 L 180 156 L 138 156 Z M 138 126 " clip-rule="nonzero"/></clipPath><clipPath id="543d37810b"><path d="M 21.402344 54.367188 L 187.15625 -19.574219 L 261.097656 146.183594 L 95.34375 220.125 Z M 21.402344 54.367188 " clip-rule="nonzero"/></clipPath><clipPath id="dec4f025bc"><path d="M 21.402344 54.367188 L 187.15625 -19.574219 L 261.097656 146.183594 L 95.34375 220.125 Z M 21.402344 54.367188 " clip-rule="nonzero"/></clipPath><clipPath id="410fd58e2d"><path d="M 70 15 L 188 15 L 188 143 L 70 143 Z M 70 15 " clip-rule="nonzero"/></clipPath><clipPath id="0251aa3bf9"><path d="M 21.402344 54.367188 L 187.15625 -19.574219 L 261.097656 146.183594 L 95.34375 220.125 Z M 21.402344 54.367188 " clip-rule="nonzero"/></clipPath><clipPath id="5b1adf5023"><path d="M 21.402344 54.367188 L 187.15625 -19.574219 L 261.097656 146.183594 L 95.34375 220.125 Z M 21.402344 54.367188 " clip-rule="nonzero"/></clipPath><clipPath id="9aa151c914"><path d="M 155 58 L 170 58 L 170 73 L 155 73 Z M 155 58 " clip-rule="nonzero"/></clipPath><clipPath id="242139452a"><path d="M 21.402344 54.367188 L 187.15625 -19.574219 L 261.097656 146.183594 L 95.34375 220.125 Z M 21.402344 54.367188 " clip-rule="nonzero"/></clipPath><clipPath id="85363e5f4e"><path d="M 21.402344 54.367188 L 187.15625 -19.574219 L 261.097656 146.183594 L 95.34375 220.125 Z M 21.402344 54.367188 " clip-rule="nonzero"/></clipPath><clipPath id="dffb222b23"><path d="M 155 153 L 184 153 L 184 181 L 155 181 Z M 155 153 " clip-rule="nonzero"/></clipPath><clipPath id="f8bdd8af4f"><path d="M 21.402344 54.367188 L 187.15625 -19.574219 L 261.097656 146.183594 L 95.34375 220.125 Z M 21.402344 54.367188 " clip-rule="nonzero"/></clipPath><clipPath id="da5bd60c59"><path d="M 21.402344 54.367188 L 187.15625 -19.574219 L 261.097656 146.183594 L 95.34375 220.125 Z M 21.402344 54.367188 " clip-rule="nonzero"/></clipPath><clipPath id="b137e36e43"><path d="M 144 139 L 186 139 L 186 169 L 144 169 Z M 144 139 " clip-rule="nonzero"/></clipPath><clipPath id="e2179f152b"><path d="M 21.402344 54.367188 L 187.15625 -19.574219 L 261.097656 146.183594 L 95.34375 220.125 Z M 21.402344 54.367188 " clip-rule="nonzero"/></clipPath><clipPath id="2e614302fb"><path d="M 21.402344 54.367188 L 187.15625 -19.574219 L 261.097656 146.183594 L 95.34375 220.125 Z M 21.402344 54.367188 " clip-rule="nonzero"/></clipPath><clipPath id="31133c6f35"><path d="M 117 61 L 142 61 L 142 87 L 117 87 Z M 117 61 " clip-rule="nonzero"/></clipPath><clipPath id="d743a28825"><path d="M 21.402344 54.367188 L 187.15625 -19.574219 L 261.097656 146.183594 L 95.34375 220.125 Z M 21.402344 54.367188 " clip-rule="nonzero"/></clipPath><clipPath id="bce8f4e25d"><path d="M 21.402344 54.367188 L 187.15625 -19.574219 L 261.097656 146.183594 L 95.34375 220.125 Z M 21.402344 54.367188 " clip-rule="nonzero"/></clipPath><clipPath id="7546a2f15c"><path d="M 93 85 L 108 85 L 108 100 L 93 100 Z M 93 85 " clip-rule="nonzero"/></clipPath><clipPath id="4bcca44a26"><path d="M 21.402344 54.367188 L 187.15625 -19.574219 L 261.097656 146.183594 L 95.34375 220.125 Z M 21.402344 54.367188 " clip-rule="nonzero"/></clipPath><clipPath id="c9a45e4f4a"><path d="M 21.402344 54.367188 L 187.15625 -19.574219 L 261.097656 146.183594 L 95.34375 220.125 Z M 21.402344 54.367188 " clip-rule="nonzero"/></clipPath><clipPath id="40863c12ea"><path d="M 66 12 L 191 12 L 191 185 L 66 185 Z M 66 12 " clip-rule="nonzero"/></clipPath><clipPath id="7f5e39a745"><path d="M 21.402344 54.367188 L 187.15625 -19.574219 L 261.097656 146.183594 L 95.34375 220.125 Z M 21.402344 54.367188 " clip-rule="nonzero"/></clipPath><clipPath id="a59a9dd89a"><path d="M 21.402344 54.367188 L 187.15625 -19.574219 L 261.097656 146.183594 L 95.34375 220.125 Z M 21.402344 54.367188 " clip-rule="nonzero"/></clipPath><clipPath id="31ad57433a"><path d="M 181 4 L 199 4 L 199 23 L 181 23 Z M 181 4 " clip-rule="nonzero"/></clipPath><clipPath id="56ead54f34"><path d="M 21.402344 54.367188 L 187.15625 -19.574219 L 261.097656 146.183594 L 95.34375 220.125 Z M 21.402344 54.367188 " clip-rule="nonzero"/></clipPath><clipPath id="3e1cb427f8"><path d="M 21.402344 54.367188 L 187.15625 -19.574219 L 261.097656 146.183594 L 95.34375 220.125 Z M 21.402344 54.367188 " clip-rule="nonzero"/></clipPath><clipPath id="950e27096e"><path d="M 189 28 L 210 28 L 210 42 L 189 42 Z M 189 28 " clip-rule="nonzero"/></clipPath><clipPath id="841c83bd72"><path d="M 21.402344 54.367188 L 187.15625 -19.574219 L 261.097656 146.183594 L 95.34375 220.125 Z M 21.402344 54.367188 " clip-rule="nonzero"/></clipPath><clipPath id="2d2a145718"><path d="M 21.402344 54.367188 L 187.15625 -19.574219 L 261.097656 146.183594 L 95.34375 220.125 Z M 21.402344 54.367188 " clip-rule="nonzero"/></clipPath><clipPath id="90b54a4cc4"><path d="M 198 52 L 220 52 L 220 61 L 198 61 Z M 198 52 " clip-rule="nonzero"/></clipPath><clipPath id="089601c8ff"><path d="M 21.402344 54.367188 L 187.15625 -19.574219 L 261.097656 146.183594 L 95.34375 220.125 Z M 21.402344 54.367188 " clip-rule="nonzero"/></clipPath><clipPath id="c740fa8b47"><path d="M 21.402344 54.367188 L 187.15625 -19.574219 L 261.097656 146.183594 L 95.34375 220.125 Z M 21.402344 54.367188 " clip-rule="nonzero"/></clipPath><clipPath id="230da29f01"><path d="M 33 74 L 55 74 L 55 83 L 33 83 Z M 33 74 " clip-rule="nonzero"/></clipPath><clipPath id="aca70c00c4"><path d="M 21.402344 54.367188 L 187.15625 -19.574219 L 261.097656 146.183594 L 95.34375 220.125 Z M 21.402344 54.367188 " clip-rule="nonzero"/></clipPath><clipPath id="b4eb5c6e92"><path d="M 21.402344 54.367188 L 187.15625 -19.574219 L 261.097656 146.183594 L 95.34375 220.125 Z M 21.402344 54.367188 " clip-rule="nonzero"/></clipPath><clipPath id="5ca720f6f8"><path d="M 43 93 L 64 93 L 64 107 L 43 107 Z M 43 93 " clip-rule="nonzero"/></clipPath><clipPath id="bcbdeab98f"><path d="M 21.402344 54.367188 L 187.15625 -19.574219 L 261.097656 146.183594 L 95.34375 220.125 Z M 21.402344 54.367188 " clip-rule="nonzero"/></clipPath><clipPath id="769e4ecd55"><path d="M 21.402344 54.367188 L 187.15625 -19.574219 L 261.097656 146.183594 L 95.34375 220.125 Z M 21.402344 54.367188 " clip-rule="nonzero"/></clipPath><clipPath id="17295b948b"><path d="M 54 113 L 73 113 L 73 131 L 54 131 Z M 54 113 " clip-rule="nonzero"/></clipPath><clipPath id="a59cb92611"><path d="M 21.402344 54.367188 L 187.15625 -19.574219 L 261.097656 146.183594 L 95.34375 220.125 Z M 21.402344 54.367188 " clip-rule="nonzero"/></clipPath><clipPath id="f0aa0fa393"><path d="M 21.402344 54.367188 L 187.15625 -19.574219 L 261.097656 146.183594 L 95.34375 220.125 Z M 21.402344 54.367188 " clip-rule="nonzero"/></clipPath><clipPath id="916cda3eff"><path d="M 137 120 L 175 120 L 175 147 L 137 147 Z M 137 120 " clip-rule="nonzero"/></clipPath><clipPath id="caeaeb2e5c"><path d="M 33.753906 56.4375 L 181.015625 -9.253906 L 246.707031 138.007812 L 99.445312 203.699219 Z M 33.753906 56.4375 " clip-rule="nonzero"/></clipPath><clipPath id="3d1b0d45dd"><path d="M 33.753906 56.4375 L 181.015625 -9.253906 L 246.707031 138.007812 L 99.445312 203.699219 Z M 33.753906 56.4375 " clip-rule="nonzero"/></clipPath><clipPath id="ef14c6cd1f"><path d="M 77 21 L 182 21 L 182 135 L 77 135 Z M 77 21 " clip-rule="nonzero"/></clipPath><clipPath id="e35b0088c8"><path d="M 33.753906 56.4375 L 181.015625 -9.253906 L 246.707031 138.007812 L 99.445312 203.699219 Z M 33.753906 56.4375 " clip-rule="nonzero"/></clipPath><clipPath id="a63af682ae"><path d="M 33.753906 56.4375 L 181.015625 -9.253906 L 246.707031 138.007812 L 99.445312 203.699219 Z M 33.753906 56.4375 " clip-rule="nonzero"/></clipPath><clipPath id="9af9d0dda0"><path d="M 152 59 L 166 59 L 166 73 L 152 73 Z M 152 59 " clip-rule="nonzero"/></clipPath><clipPath id="caf678ba02"><path d="M 33.753906 56.4375 L 181.015625 -9.253906 L 246.707031 138.007812 L 99.445312 203.699219 Z M 33.753906 56.4375 " clip-rule="nonzero"/></clipPath><clipPath id="499c941208"><path d="M 33.753906 56.4375 L 181.015625 -9.253906 L 246.707031 138.007812 L 99.445312 203.699219 Z M 33.753906 56.4375 " clip-rule="nonzero"/></clipPath><clipPath id="c54783cbf9"><path d="M 153 144 L 179 144 L 179 169 L 153 169 Z M 153 144 " clip-rule="nonzero"/></clipPath><clipPath id="78106ac280"><path d="M 33.753906 56.4375 L 181.015625 -9.253906 L 246.707031 138.007812 L 99.445312 203.699219 Z M 33.753906 56.4375 " clip-rule="nonzero"/></clipPath><clipPath id="ab382c83e8"><path d="M 33.753906 56.4375 L 181.015625 -9.253906 L 246.707031 138.007812 L 99.445312 203.699219 Z M 33.753906 56.4375 " clip-rule="nonzero"/></clipPath><clipPath id="88cab2c528"><path d="M 143 131 L 180 131 L 180 158 L 143 158 Z M 143 131 " clip-rule="nonzero"/></clipPath><clipPath id="97bab7f9b8"><path d="M 33.753906 56.4375 L 181.015625 -9.253906 L 246.707031 138.007812 L 99.445312 203.699219 Z M 33.753906 56.4375 " clip-rule="nonzero"/></clipPath><clipPath id="4edbd4fdd7"><path d="M 33.753906 56.4375 L 181.015625 -9.253906 L 246.707031 138.007812 L 99.445312 203.699219 Z M 33.753906 56.4375 " clip-rule="nonzero"/></clipPath><clipPath id="2b334eaed7"><path d="M 118 63 L 141 63 L 141 86 L 118 86 Z M 118 63 " clip-rule="nonzero"/></clipPath><clipPath id="c0967c74a3"><path d="M 33.753906 56.4375 L 181.015625 -9.253906 L 246.707031 138.007812 L 99.445312 203.699219 Z M 33.753906 56.4375 " clip-rule="nonzero"/></clipPath><clipPath id="605a31c47c"><path d="M 33.753906 56.4375 L 181.015625 -9.253906 L 246.707031 138.007812 L 99.445312 203.699219 Z M 33.753906 56.4375 " clip-rule="nonzero"/></clipPath><clipPath id="bd985f3dfd"><path d="M 98 84 L 111 84 L 111 98 L 98 98 Z M 98 84 " clip-rule="nonzero"/></clipPath><clipPath id="8db73ed882"><path d="M 33.753906 56.4375 L 181.015625 -9.253906 L 246.707031 138.007812 L 99.445312 203.699219 Z M 33.753906 56.4375 " clip-rule="nonzero"/></clipPath><clipPath id="1992fa9821"><path d="M 33.753906 56.4375 L 181.015625 -9.253906 L 246.707031 138.007812 L 99.445312 203.699219 Z M 33.753906 56.4375 " clip-rule="nonzero"/></clipPath><clipPath id="6f1930f93f"><path d="M 74 18 L 185 18 L 185 173 L 74 173 Z M 74 18 " clip-rule="nonzero"/></clipPath><clipPath id="ba3fee5c3b"><path d="M 33.753906 56.4375 L 181.015625 -9.253906 L 246.707031 138.007812 L 99.445312 203.699219 Z M 33.753906 56.4375 " clip-rule="nonzero"/></clipPath><clipPath id="ea4e13230e"><path d="M 33.753906 56.4375 L 181.015625 -9.253906 L 246.707031 138.007812 L 99.445312 203.699219 Z M 33.753906 56.4375 " clip-rule="nonzero"/></clipPath><clipPath id="13d61067c1"><path d="M 176 12 L 192 12 L 192 28 L 176 28 Z M 176 12 " clip-rule="nonzero"/></clipPath><clipPath id="fb515e2130"><path d="M 33.753906 56.4375 L 181.015625 -9.253906 L 246.707031 138.007812 L 99.445312 203.699219 Z M 33.753906 56.4375 " clip-rule="nonzero"/></clipPath><clipPath id="a5ed1d914c"><path d="M 33.753906 56.4375 L 181.015625 -9.253906 L 246.707031 138.007812 L 99.445312 203.699219 Z M 33.753906 56.4375 " clip-rule="nonzero"/></clipPath><clipPath id="7d6ccab9fc"><path d="M 183 33 L 202 33 L 202 46 L 183 46 Z M 183 33 " clip-rule="nonzero"/></clipPath><clipPath id="1e648cb5f5"><path d="M 33.753906 56.4375 L 181.015625 -9.253906 L 246.707031 138.007812 L 99.445312 203.699219 Z M 33.753906 56.4375 " clip-rule="nonzero"/></clipPath><clipPath id="6bd56c9de6"><path d="M 33.753906 56.4375 L 181.015625 -9.253906 L 246.707031 138.007812 L 99.445312 203.699219 Z M 33.753906 56.4375 " clip-rule="nonzero"/></clipPath><clipPath id="f11fd5d485"><path d="M 191 54 L 211 54 L 211 63 L 191 63 Z M 191 54 " clip-rule="nonzero"/></clipPath><clipPath id="e07f14a4ca"><path d="M 33.753906 56.4375 L 181.015625 -9.253906 L 246.707031 138.007812 L 99.445312 203.699219 Z M 33.753906 56.4375 " clip-rule="nonzero"/></clipPath><clipPath id="03b210f0da"><path d="M 33.753906 56.4375 L 181.015625 -9.253906 L 246.707031 138.007812 L 99.445312 203.699219 Z M 33.753906 56.4375 " clip-rule="nonzero"/></clipPath><clipPath id="bc0e07da6c"><path d="M 44 74 L 64 74 L 64 82 L 44 82 Z M 44 74 " clip-rule="nonzero"/></clipPath><clipPath id="e064d0df74"><path d="M 33.753906 56.4375 L 181.015625 -9.253906 L 246.707031 138.007812 L 99.445312 203.699219 Z M 33.753906 56.4375 " clip-rule="nonzero"/></clipPath><clipPath id="6bab303c6c"><path d="M 33.753906 56.4375 L 181.015625 -9.253906 L 246.707031 138.007812 L 99.445312 203.699219 Z M 33.753906 56.4375 " clip-rule="nonzero"/></clipPath><clipPath id="e01ba3af5e"><path d="M 53 91 L 72 91 L 72 104 L 53 104 Z M 53 91 " clip-rule="nonzero"/></clipPath><clipPath id="6bc3fab43e"><path d="M 33.753906 56.4375 L 181.015625 -9.253906 L 246.707031 138.007812 L 99.445312 203.699219 Z M 33.753906 56.4375 " clip-rule="nonzero"/></clipPath><clipPath id="6ad4f8fd3f"><path d="M 33.753906 56.4375 L 181.015625 -9.253906 L 246.707031 138.007812 L 99.445312 203.699219 Z M 33.753906 56.4375 " clip-rule="nonzero"/></clipPath><clipPath id="ae18f8ae5b"><path d="M 63 109 L 79 109 L 79 124 L 63 124 Z M 63 109 " clip-rule="nonzero"/></clipPath><clipPath id="0aee8e3e88"><path d="M 33.753906 56.4375 L 181.015625 -9.253906 L 246.707031 138.007812 L 99.445312 203.699219 Z M 33.753906 56.4375 " clip-rule="nonzero"/></clipPath><clipPath id="83a7e259f1"><path d="M 33.753906 56.4375 L 181.015625 -9.253906 L 246.707031 138.007812 L 99.445312 203.699219 Z M 33.753906 56.4375 " clip-rule="nonzero"/></clipPath><clipPath id="a22d580f50"><path d="M 328.09375 44.824219 L 343.980469 44.824219 L 343.980469 59.773438 L 328.09375 59.773438 Z M 328.09375 44.824219 " clip-rule="nonzero"/></clipPath><clipPath id="80ff433400"><path d="M 336.625 44.90625 C 343.652344 49.511719 344.136719 51.207031 343.894531 52.660156 C 343.652344 54.601562 342.199219 57.507812 340.503906 58.476562 C 338.804688 59.6875 335.414062 59.6875 333.476562 58.960938 C 331.777344 57.992188 329.839844 55.570312 329.355469 53.386719 C 329.113281 51.449219 330.082031 48.300781 331.535156 47.085938 C 332.988281 45.632812 336.140625 44.664062 338.320312 45.148438 C 340.261719 45.632812 342.683594 47.8125 343.410156 49.511719 C 344.136719 51.449219 343.894531 54.84375 342.683594 56.296875 C 341.230469 58.234375 337.109375 59.6875 334.929688 59.6875 C 332.988281 59.6875 331.292969 58.476562 330.082031 57.265625 C 329.113281 56.054688 328.386719 54.113281 328.144531 52.417969 C 328.144531 50.722656 328.871094 48.785156 330.082031 47.570312 C 331.050781 46.359375 334.6875 44.90625 334.6875 44.90625 " clip-rule="nonzero"/></clipPath></defs><path stroke-linecap="butt" transform="matrix(0.749823, -0.0162848, 0.0162848, 0.749823, 132.484229, 300.413534)" fill="none" stroke-linejoin="miter" d="M 0.00184734 4.001689 L 73.284809 3.999135 " stroke="#ffde59" stroke-width="8" stroke-opacity="1" stroke-miterlimit="4"/><g clip-path="url(#69c9b44d19)"><g clip-path="url(#a7cf881e89)"><path fill="#1e1e1e" d="M 86.28125 242.121094 L 122.464844 242.121094 L 122.464844 279.289062 L 86.28125 279.289062 Z M 86.28125 242.121094 " fill-opacity="1" fill-rule="nonzero"/></g></g><path stroke-linecap="butt" transform="matrix(0.42325, 0.61916, -0.61916, 0.42325, 99.510248, 248.434143)" fill="none" stroke-linejoin="miter" d="M 30.000815 4.001585 L 89.021152 4.001402 " stroke="#ffde59" stroke-width="8" stroke-opacity="1" stroke-miterlimit="4"/><path stroke-linecap="round" transform="matrix(0.42325, 0.61916, -0.61916, 0.42325, 99.510248, 248.434143)" fill="none" stroke-linejoin="round" d="M 4.001822 4.001316 C 3.996518 -2.626705 9.372308 -7.998916 15.99739 -7.99992 C 22.626772 -7.997985 28.001923 -2.626495 27.999988 4.002887 C 28.000992 10.627969 22.625201 16.000181 16.000119 16.001185 C 9.370737 15.99925 4.002826 10.626399 4.001822 4.001316 " stroke="#ffde59" stroke-width="8" stroke-opacity="1" stroke-miterlimit="4"/><path stroke-linecap="butt" transform="matrix(0.000000001309, 0.75, -0.75, 0.000000001309, 278.432417, 322.751376)" fill="none" stroke-linejoin="miter" d="M -0.00183521 2.998432 L 41.456501 2.998432 " stroke="#ffde59" stroke-width="6" stroke-opacity="1" stroke-miterlimit="4"/><path stroke-linecap="round" transform="matrix(0.000000001309, 0.75, -0.75, 0.000000001309, 278.432417, 322.751376)" fill-opacity="1" fill="#ffde59" fill-rule="nonzero" stroke-linejoin="round" d="M 60.956502 2.998432 C 60.956502 7.972391 56.925252 11.998432 51.956502 11.998432 C 46.987751 11.998432 42.956501 7.97239 42.956501 2.998432 C 42.956501 -1.970318 46.987751 -6.001569 51.956502 -6.001569 C 56.925252 -6.001569 60.956502 -1.970318 60.956502 2.998432 " stroke="#ffde59" stroke-width="6" stroke-opacity="1" stroke-miterlimit="4"/><path stroke-linecap="butt" transform="matrix(-0.545573, 0.514635, -0.514635, -0.545573, 338.08012, 132.553467)" fill="none" stroke-linejoin="miter" d="M -0.00187598 3.998376 L 66.634491 3.999222 " stroke="#ffde59" stroke-width="8" stroke-opacity="1" stroke-miterlimit="4"/><path stroke-linecap="butt" transform="matrix(0.780468, 0, 0, 0.780468, 148.295942, 48.210122)" fill="none" stroke-linejoin="miter" d="M 7.473679 350.722277 L 7.473679 95.42661 L 84.766084 91.687866 L 84.766084 199.600936 L 124.320696 195.867197 L 124.320696 95.42661 L 201.247735 91.687866 L 201.247735 350.722277 L 124.320696 350.722277 L 124.320696 265.226657 L 84.766084 268.965401 L 84.766084 350.722277 Z M 7.473679 350.722277 " stroke="#ffde59" stroke-width="14.93332" stroke-opacity="1" stroke-miterlimit="4"/><g fill="#000000" fill-opacity="1"><g transform="translate(148.295942, 323.715189)"><g><path d="M 5.828125 -1.75 L 5.828125 -201.046875 L 66.140625 -203.96875 L 66.140625 -119.75 L 97.03125 -122.671875 L 97.03125 -201.046875 L 157.046875 -203.96875 L 157.046875 -1.75 L 97.03125 -1.75 L 97.03125 -68.46875 L 66.140625 -65.5625 L 66.140625 -1.75 Z M 5.828125 -1.75 "/></g></g></g><g fill="#ededed" fill-opacity="1"><g transform="translate(156.917837, 237.005229)"><g><path d="M 3.859375 -23.375 L 3.859375 -10.21875 C 3.859375 -10.015625 3.859375 -9.875 3.859375 -9.6875 C 3.859375 -6.796875 4.625 -4.71875 6.21875 -2.890625 C 8.046875 -0.71875 10.796875 0.53125 13.78125 0.53125 C 17.96875 0.53125 22.0625 -2.359375 23.171875 -6.078125 C 23.5625 -7.375 23.75 -9.34375 23.75 -12.484375 L 23.75 -23.375 L 22.359375 -23.375 L 22.359375 -11.515625 C 22.359375 -7.609375 21.875 -5.828125 20.390625 -3.953125 C 18.703125 -1.828125 16.390625 -0.71875 13.78125 -0.71875 C 10.171875 -0.71875 6.546875 -3.421875 5.640625 -6.796875 C 5.34375 -7.765625 5.203125 -9.6875 5.203125 -11.515625 L 5.203125 -23.375 Z M 3.859375 -23.375 "/></g></g></g><g fill="#ededed" fill-opacity="1"><g transform="translate(187.084495, 237.005229)"><g><path d="M 1.15625 -23.375 L 1.15625 -22.015625 L 11.703125 -22.015625 L 11.703125 0 L 13.109375 0 L 13.109375 -22.015625 L 23.515625 -22.015625 L 23.515625 -23.375 Z M 1.15625 -23.375 "/></g></g></g><g fill="#ededed" fill-opacity="1"><g transform="translate(214.407968, 237.005229)"><g><path d="M 3.859375 0 L 5.25 0 L 5.25 -10.9375 C 5.296875 -15.234375 5.59375 -17.921875 7.8125 -20.046875 C 9.4375 -21.59375 11.703125 -22.5 14.40625 -22.5 L 14.796875 -22.5 L 14.796875 -23.75 C 14.40625 -23.796875 14.265625 -23.796875 13.96875 -23.796875 C 11.125 -23.796875 8.4375 -22.640625 6.796875 -21.015625 C 3.953125 -18.171875 3.859375 -15.375 3.859375 -10.546875 Z M 3.859375 0 "/></g></g></g><g fill="#ededed" fill-opacity="1"><g transform="translate(232.623617, 237.005229)"><g><path d="M 4.1875 -23.375 L 4.1875 0 L 17.015625 0 L 17.015625 -1.34375 L 5.59375 -1.34375 L 5.59375 -11.28125 L 17.015625 -11.28125 L 17.015625 -12.625 L 5.59375 -12.625 L 5.59375 -22.015625 L 17.015625 -22.015625 L 17.015625 -23.375 Z M 4.1875 -23.375 "/></g></g></g><g fill="#ededed" fill-opacity="1"><g transform="translate(256.477445, 237.005229)"><g><path d="M 3.859375 0 L 5.25 0 L 5.25 -10.9375 C 5.296875 -15.234375 5.59375 -17.921875 7.8125 -20.046875 C 9.4375 -21.59375 11.703125 -22.5 14.40625 -22.5 L 14.796875 -22.5 L 14.796875 -23.75 C 14.40625 -23.796875 14.265625 -23.796875 13.96875 -23.796875 C 11.125 -23.796875 8.4375 -22.640625 6.796875 -21.015625 C 3.953125 -18.171875 3.859375 -15.375 3.859375 -10.546875 Z M 3.859375 0 "/></g></g></g><g fill="#ededed" fill-opacity="1"><g transform="translate(274.693094, 237.005229)"><g><path d="M 24.765625 -23.375 L 24.765625 -17.203125 C 23.078125 -21.203125 18.75 -23.796875 14.125 -23.796875 C 7.375 -23.796875 1.875 -18.5 1.875 -11.65625 C 1.875 -4.625 7.375 0.53125 14.171875 0.53125 C 18.75 0.53125 22.5 -1.6875 24.765625 -5.96875 L 24.765625 0 L 26.171875 0 L 26.171875 -23.375 Z M 14.015625 -22.5 C 20.046875 -22.5 24.96875 -17.78125 24.96875 -11.5625 C 24.96875 -5.4375 20.140625 -0.71875 14.21875 -0.71875 C 8.09375 -0.71875 3.328125 -5.4375 3.328125 -11.65625 C 3.328125 -17.734375 8.140625 -22.5 14.015625 -22.5 Z M 14.015625 -22.5 "/></g></g></g><g clip-path="url(#ed6353c4bf)"><g clip-path="url(#543d37810b)"><g clip-path="url(#dec4f025bc)"><path fill="#ffde59" d="M 174.015625 126.261719 L 179.800781 139.226562 L 162.101562 149.820312 L 144.148438 155.128906 L 138.367188 142.167969 L 154.3125 132.355469 Z M 174.015625 126.261719 " fill-opacity="1" fill-rule="nonzero"/></g></g></g><g clip-path="url(#410fd58e2d)"><g clip-path="url(#0251aa3bf9)"><g clip-path="url(#5b1adf5023)"><path fill="#ededed" d="M 105.589844 20.777344 C 76.050781 33.953125 62.46875 67.847656 75.242188 96.488281 C 83.628906 115.292969 101.285156 127.148438 120.785156 129.355469 C 128.472656 130.222656 135.1875 135.046875 138.367188 142.167969 C 148.054688 137.84375 168.351562 128.789062 174.015625 126.261719 C 170.851562 119.167969 171.71875 110.945312 176.226562 104.621094 C 187.613281 88.640625 190.585938 67.582031 182.199219 48.777344 C 169.421875 20.136719 135.125 7.601562 105.589844 20.777344 Z M 105.589844 20.777344 " fill-opacity="1" fill-rule="nonzero"/></g></g></g><g clip-path="url(#9aa151c914)"><g clip-path="url(#242139452a)"><g clip-path="url(#85363e5f4e)"><path fill="#ffde59" d="M 168.886719 62.488281 C 169.074219 62.914062 169.222656 63.355469 169.324219 63.808594 C 169.429688 64.265625 169.484375 64.726562 169.5 65.191406 C 169.511719 65.65625 169.476562 66.121094 169.398438 66.578125 C 169.320312 67.039062 169.199219 67.484375 169.03125 67.921875 C 168.863281 68.355469 168.65625 68.769531 168.410156 69.164062 C 168.160156 69.558594 167.875 69.925781 167.554688 70.265625 C 167.234375 70.601562 166.882812 70.90625 166.503906 71.175781 C 166.125 71.445312 165.71875 71.675781 165.292969 71.863281 C 164.867188 72.054688 164.429688 72.199219 163.972656 72.304688 C 163.519531 72.40625 163.058594 72.464844 162.59375 72.476562 C 162.128906 72.488281 161.664062 72.457031 161.207031 72.378906 C 160.746094 72.300781 160.300781 72.175781 159.863281 72.011719 C 159.429688 71.84375 159.015625 71.636719 158.621094 71.386719 C 158.226562 71.140625 157.859375 70.855469 157.519531 70.535156 C 157.183594 70.214844 156.878906 69.863281 156.609375 69.480469 C 156.339844 69.101562 156.109375 68.699219 155.921875 68.273438 C 155.730469 67.847656 155.585938 67.40625 155.480469 66.953125 C 155.378906 66.5 155.320312 66.039062 155.308594 65.574219 C 155.296875 65.105469 155.328125 64.644531 155.40625 64.183594 C 155.484375 63.726562 155.609375 63.277344 155.773438 62.84375 C 155.941406 62.40625 156.148438 61.992188 156.398438 61.597656 C 156.644531 61.203125 156.929688 60.835938 157.25 60.5 C 157.570312 60.160156 157.921875 59.855469 158.300781 59.589844 C 158.683594 59.320312 159.085938 59.089844 159.511719 58.898438 C 159.9375 58.710938 160.378906 58.5625 160.832031 58.460938 C 161.285156 58.355469 161.746094 58.300781 162.210938 58.285156 C 162.679688 58.273438 163.140625 58.308594 163.601562 58.386719 C 164.058594 58.464844 164.507812 58.585938 164.941406 58.753906 C 165.378906 58.921875 165.792969 59.128906 166.1875 59.375 C 166.582031 59.625 166.945312 59.910156 167.285156 60.230469 C 167.625 60.550781 167.925781 60.902344 168.195312 61.28125 C 168.464844 61.660156 168.695312 62.0625 168.886719 62.488281 Z M 168.886719 62.488281 " fill-opacity="1" fill-rule="nonzero"/></g></g></g><g clip-path="url(#dffb222b23)"><g clip-path="url(#f8bdd8af4f)"><g clip-path="url(#da5bd60c59)"><path fill="#ffde59" d="M 178.234375 153.136719 L 182.714844 163.1875 C 185.511719 169.449219 182.699219 176.792969 176.433594 179.589844 C 170.167969 182.382812 162.824219 179.570312 160.027344 173.304688 L 155.546875 163.257812 Z M 178.234375 153.136719 " fill-opacity="1" fill-rule="nonzero"/></g></g></g><g clip-path="url(#b137e36e43)"><g clip-path="url(#e2179f152b)"><g clip-path="url(#2e614302fb)"><path fill="#ffde59" d="M 179.800781 139.226562 L 185.582031 152.191406 C 181.304688 154.101562 155.140625 165.773438 149.933594 168.09375 L 144.148438 155.128906 Z M 179.800781 139.226562 " fill-opacity="1" fill-rule="nonzero"/></g></g></g><g clip-path="url(#31133c6f35)"><g clip-path="url(#d743a28825)"><g clip-path="url(#bce8f4e25d)"><path fill="#ffde59" d="M 140.789062 69.195312 C 141.121094 69.941406 141.375 70.710938 141.558594 71.503906 C 141.738281 72.300781 141.839844 73.105469 141.859375 73.921875 C 141.882812 74.734375 141.824219 75.546875 141.6875 76.351562 C 141.550781 77.152344 141.335938 77.9375 141.042969 78.699219 C 140.75 79.460938 140.386719 80.1875 139.953125 80.875 C 139.519531 81.566406 139.019531 82.207031 138.460938 82.796875 C 137.898438 83.390625 137.285156 83.921875 136.621094 84.394531 C 135.953125 84.863281 135.25 85.265625 134.503906 85.597656 C 133.757812 85.929688 132.988281 86.1875 132.195312 86.367188 C 131.398438 86.546875 130.59375 86.648438 129.777344 86.671875 C 128.960938 86.695312 128.152344 86.636719 127.347656 86.5 C 126.546875 86.359375 125.761719 86.144531 125 85.855469 C 124.238281 85.5625 123.511719 85.199219 122.824219 84.765625 C 122.132812 84.328125 121.492188 83.832031 120.898438 83.269531 C 120.308594 82.710938 119.777344 82.097656 119.304688 81.429688 C 118.835938 80.765625 118.433594 80.058594 118.101562 79.316406 C 117.769531 78.570312 117.511719 77.800781 117.332031 77.003906 C 117.152344 76.210938 117.050781 75.40625 117.027344 74.589844 C 117.003906 73.773438 117.0625 72.964844 117.199219 72.160156 C 117.339844 71.355469 117.554688 70.574219 117.84375 69.8125 C 118.136719 69.050781 118.5 68.324219 118.933594 67.632812 C 119.367188 66.945312 119.867188 66.304688 120.429688 65.710938 C 120.988281 65.121094 121.601562 64.585938 122.269531 64.117188 C 122.933594 63.644531 123.640625 63.242188 124.382812 62.910156 C 125.128906 62.578125 125.898438 62.324219 126.695312 62.140625 C 127.488281 61.960938 128.292969 61.859375 129.109375 61.839844 C 129.925781 61.816406 130.734375 61.875 131.539062 62.011719 C 132.34375 62.148438 133.125 62.363281 133.886719 62.65625 C 134.648438 62.949219 135.375 63.3125 136.066406 63.746094 C 136.753906 64.179688 137.394531 64.679688 137.988281 65.238281 C 138.578125 65.800781 139.113281 66.414062 139.582031 67.078125 C 140.054688 67.746094 140.457031 68.449219 140.789062 69.195312 Z M 140.789062 69.195312 " fill-opacity="1" fill-rule="nonzero"/></g></g></g><g clip-path="url(#7546a2f15c)"><g clip-path="url(#4bcca44a26)"><g clip-path="url(#c9a45e4f4a)"><path fill="#ffde59" d="M 107.304688 89.960938 C 107.496094 90.386719 107.640625 90.824219 107.746094 91.28125 C 107.847656 91.734375 107.90625 92.195312 107.917969 92.660156 C 107.929688 93.125 107.898438 93.589844 107.820312 94.046875 C 107.742188 94.507812 107.617188 94.957031 107.449219 95.390625 C 107.285156 95.824219 107.078125 96.242188 106.828125 96.636719 C 106.578125 97.027344 106.296875 97.394531 105.976562 97.734375 C 105.652344 98.070312 105.304688 98.375 104.921875 98.644531 C 104.542969 98.914062 104.140625 99.144531 103.714844 99.332031 C 103.289062 99.523438 102.847656 99.671875 102.394531 99.773438 C 101.941406 99.875 101.480469 99.933594 101.011719 99.945312 C 100.546875 99.960938 100.085938 99.925781 99.625 99.847656 C 99.167969 99.769531 98.71875 99.648438 98.285156 99.480469 C 97.847656 99.3125 97.433594 99.105469 97.039062 98.855469 C 96.644531 98.609375 96.277344 98.324219 95.941406 98.003906 C 95.601562 97.683594 95.296875 97.332031 95.027344 96.953125 C 94.761719 96.570312 94.53125 96.167969 94.339844 95.742188 C 94.152344 95.316406 94.003906 94.878906 93.902344 94.421875 C 93.796875 93.96875 93.738281 93.507812 93.726562 93.042969 C 93.714844 92.578125 93.746094 92.113281 93.828125 91.65625 C 93.90625 91.195312 94.027344 90.746094 94.195312 90.3125 C 94.359375 89.878906 94.570312 89.460938 94.816406 89.070312 C 95.066406 88.675781 95.351562 88.308594 95.671875 87.96875 C 95.992188 87.632812 96.339844 87.328125 96.722656 87.058594 C 97.101562 86.789062 97.503906 86.558594 97.929688 86.371094 C 98.355469 86.179688 98.796875 86.03125 99.25 85.929688 C 99.707031 85.828125 100.164062 85.769531 100.632812 85.757812 C 101.097656 85.742188 101.558594 85.777344 102.019531 85.855469 C 102.480469 85.933594 102.925781 86.058594 103.363281 86.222656 C 103.796875 86.390625 104.210938 86.597656 104.605469 86.847656 C 105 87.09375 105.367188 87.378906 105.703125 87.699219 C 106.042969 88.019531 106.347656 88.371094 106.617188 88.75 C 106.886719 89.132812 107.113281 89.535156 107.304688 89.960938 Z M 107.304688 89.960938 " fill-opacity="1" fill-rule="nonzero"/></g></g></g><g clip-path="url(#40863c12ea)"><g clip-path="url(#7f5e39a745)"><g clip-path="url(#a59a9dd89a)"><path fill="#ffde59" d="M 104.144531 17.535156 C 72.867188 31.488281 58.449219 67.554688 72.003906 97.9375 C 80.722656 117.484375 99.195312 130.484375 120.386719 132.882812 C 126.878906 133.613281 132.480469 137.6875 135.125 143.613281 C 136.523438 146.75 145.28125 166.382812 146.691406 169.539062 C 147.488281 171.332031 149.589844 172.132812 151.378906 171.335938 L 154.617188 169.890625 L 156.789062 174.75 C 160.375 182.792969 169.835938 186.417969 177.878906 182.832031 C 185.921875 179.242188 189.542969 169.78125 185.957031 161.738281 L 183.789062 156.878906 L 187.03125 155.433594 C 188.820312 154.632812 189.621094 152.535156 188.824219 150.746094 C 187.425781 147.609375 178.667969 127.976562 177.257812 124.816406 C 174.628906 118.925781 175.34375 111.976562 179.117188 106.683594 C 191.511719 89.28125 194.144531 66.851562 185.441406 47.332031 C 171.886719 16.953125 135.417969 3.585938 104.144531 17.535156 Z M 133.058594 82.359375 C 128.589844 84.351562 123.335938 82.335938 121.339844 77.871094 C 119.347656 73.402344 121.363281 68.144531 125.828125 66.152344 C 130.296875 64.160156 135.554688 66.171875 137.546875 70.640625 C 139.539062 75.109375 137.527344 80.363281 133.058594 82.359375 Z M 172.222656 130.949219 L 175.113281 137.433594 L 145.945312 150.445312 L 143.050781 143.960938 Z M 179.476562 164.632812 C 181.46875 169.097656 179.453125 174.355469 174.988281 176.347656 C 170.519531 178.339844 165.261719 176.328125 163.269531 171.859375 L 161.101562 167 L 177.304688 159.769531 Z M 180.898438 150.394531 C 177.210938 152.039062 155.394531 161.773438 151.726562 163.410156 L 148.835938 156.925781 L 178.003906 143.914062 Z M 173.335938 102.5625 C 168.808594 108.917969 167.46875 117 169.5625 124.363281 L 157.988281 129.527344 L 149.886719 111.371094 L 162.277344 76.03125 C 163.796875 76.050781 165.316406 75.742188 166.742188 75.105469 C 172.101562 72.714844 174.519531 66.40625 172.125 61.042969 C 169.734375 55.683594 163.425781 53.265625 158.066406 55.660156 C 152.703125 58.050781 150.289062 64.359375 152.679688 69.71875 C 153.359375 71.242188 154.363281 72.554688 155.613281 73.585938 L 145.675781 101.929688 L 139.027344 87.027344 C 144.855469 82.65625 147.121094 74.675781 144.027344 67.75 C 140.441406 59.707031 130.980469 56.082031 122.9375 59.671875 C 114.894531 63.257812 111.273438 72.71875 114.859375 80.761719 C 117.949219 87.6875 125.398438 91.332031 132.546875 89.917969 L 139.195312 104.820312 L 111.464844 93.28125 C 111.53125 91.664062 111.226562 90.039062 110.546875 88.515625 C 108.152344 83.152344 101.847656 80.738281 96.484375 83.128906 C 91.125 85.519531 88.707031 91.828125 91.097656 97.1875 C 93.492188 102.550781 99.796875 104.964844 105.160156 102.574219 C 106.585938 101.9375 107.828125 101.015625 108.828125 99.875 L 143.40625 114.261719 L 151.503906 132.417969 L 139.929688 137.582031 C 135.742188 130.917969 128.796875 126.6875 121.183594 125.828125 C 102.082031 123.667969 86.121094 112.160156 78.484375 95.042969 C 66.527344 68.238281 79.332031 36.375 107.035156 24.019531 C 134.734375 11.660156 167 23.417969 178.957031 50.226562 C 186.59375 67.339844 184.492188 86.90625 173.335938 102.5625 Z M 159.160156 66.828125 C 158.363281 65.039062 159.171875 62.9375 160.957031 62.140625 C 162.746094 61.34375 164.847656 62.148438 165.644531 63.9375 C 166.441406 65.722656 165.636719 67.824219 163.847656 68.621094 C 162.082031 69.410156 159.96875 68.640625 159.160156 66.828125 Z M 102.269531 96.09375 C 100.480469 96.890625 98.378906 96.085938 97.582031 94.296875 C 96.785156 92.511719 97.589844 90.40625 99.375 89.609375 C 101.164062 88.8125 103.265625 89.617188 104.0625 91.40625 C 104.855469 93.179688 104.074219 95.289062 102.269531 96.09375 Z M 102.269531 96.09375 " fill-opacity="1" fill-rule="nonzero"/></g></g></g><g clip-path="url(#31ad57433a)"><g clip-path="url(#56ead54f34)"><g clip-path="url(#3e1cb427f8)"><path fill="#ffde59" d="M 187.359375 20.949219 L 197.199219 10.714844 C 198.554688 9.300781 198.511719 7.054688 197.097656 5.695312 C 195.6875 4.339844 193.441406 4.382812 192.082031 5.796875 L 182.242188 16.027344 C 180.886719 17.441406 180.929688 19.6875 182.34375 21.046875 C 183.757812 22.40625 186.003906 22.359375 187.359375 20.949219 Z M 187.359375 20.949219 " fill-opacity="1" fill-rule="nonzero"/></g></g></g><g clip-path="url(#950e27096e)"><g clip-path="url(#841c83bd72)"><g clip-path="url(#2d2a145718)"><path fill="#ffde59" d="M 194.445312 41.386719 L 207.410156 35.605469 C 209.199219 34.804688 210.003906 32.707031 209.207031 30.917969 C 208.40625 29.128906 206.308594 28.324219 204.519531 29.121094 L 191.554688 34.90625 C 189.765625 35.703125 188.960938 37.804688 189.757812 39.59375 C 190.558594 41.382812 192.65625 42.1875 194.445312 41.386719 Z M 194.445312 41.386719 " fill-opacity="1" fill-rule="nonzero"/></g></g></g><g clip-path="url(#90b54a4cc4)"><g clip-path="url(#089601c8ff)"><g clip-path="url(#c740fa8b47)"><path fill="#ffde59" d="M 215.789062 52.527344 L 201.664062 53.914062 C 199.710938 54.105469 198.285156 55.839844 198.476562 57.789062 C 198.667969 59.742188 200.40625 61.167969 202.355469 60.976562 L 216.480469 59.589844 C 218.425781 59.402344 219.859375 57.667969 219.664062 55.710938 C 219.476562 53.761719 217.738281 52.335938 215.789062 52.527344 Z M 215.789062 52.527344 " fill-opacity="1" fill-rule="nonzero"/></g></g></g><g clip-path="url(#230da29f01)"><g clip-path="url(#aca70c00c4)"><g clip-path="url(#b4eb5c6e92)"><path fill="#ffde59" d="M 36.898438 82.222656 L 51.085938 81.738281 C 53.042969 81.671875 54.578125 80.03125 54.511719 78.070312 C 54.445312 76.109375 52.804688 74.578125 50.84375 74.644531 L 36.660156 75.128906 C 34.699219 75.195312 33.164062 76.835938 33.234375 78.796875 C 33.300781 80.753906 34.941406 82.289062 36.898438 82.222656 Z M 36.898438 82.222656 " fill-opacity="1" fill-rule="nonzero"/></g></g></g><g clip-path="url(#5ca720f6f8)"><g clip-path="url(#bcbdeab98f)"><g clip-path="url(#769e4ecd55)"><path fill="#ffde59" d="M 58.671875 94.183594 L 45.707031 99.964844 C 43.917969 100.765625 43.113281 102.863281 43.910156 104.652344 C 44.710938 106.441406 46.808594 107.246094 48.597656 106.449219 L 61.5625 100.664062 C 63.351562 99.867188 64.15625 97.769531 63.359375 95.980469 C 62.558594 94.1875 60.460938 93.386719 58.671875 94.183594 Z M 58.671875 94.183594 " fill-opacity="1" fill-rule="nonzero"/></g></g></g><g clip-path="url(#17295b948b)"><g clip-path="url(#a59cb92611)"><g clip-path="url(#f0aa0fa393)"><path fill="#ffde59" d="M 66.0625 114.402344 L 55.59375 123.988281 C 54.148438 125.3125 54.050781 127.554688 55.371094 129 C 56.695312 130.445312 58.9375 130.546875 60.386719 129.222656 L 70.855469 119.636719 C 72.300781 118.3125 72.398438 116.070312 71.074219 114.625 C 69.75 113.175781 67.507812 113.078125 66.0625 114.402344 Z M 66.0625 114.402344 " fill-opacity="1" fill-rule="nonzero"/></g></g></g><path stroke-linecap="butt" transform="matrix(-0.00134495, -0.749999, 0.749999, -0.00134495, 217.666044, 255.275227)" fill="none" stroke-linejoin="miter" d="M 11.249712 1.501909 L 54.728951 1.501754 " stroke="#ffde59" stroke-width="3" stroke-opacity="1" stroke-miterlimit="4"/><path stroke-linecap="round" transform="matrix(-0.00134495, -0.749999, 0.749999, -0.00134495, 217.666044, 255.275227)" fill="none" stroke-linejoin="round" d="M 1.499699 1.50005 C 1.498946 -0.98433 3.512983 -3.001555 6.002572 -3.002299 C 8.486943 -2.997844 10.49896 -0.983816 10.499713 1.500564 C 10.500466 3.984945 8.486429 6.00217 6.002058 5.997715 C 3.512469 5.998459 1.500452 3.984431 1.499699 1.50005 " stroke="#ffde59" stroke-width="3" stroke-opacity="1" stroke-miterlimit="4"/><g clip-path="url(#916cda3eff)"><g clip-path="url(#caeaeb2e5c)"><g clip-path="url(#3d1b0d45dd)"><path fill="#ffde59" d="M 169.605469 120.433594 L 174.75 131.972656 L 158.996094 141.402344 L 143.015625 146.128906 L 137.867188 134.589844 L 152.0625 125.855469 Z M 169.605469 120.433594 " fill-opacity="1" fill-rule="nonzero"/></g></g></g><g clip-path="url(#ef14c6cd1f)"><g clip-path="url(#e35b0088c8)"><g clip-path="url(#a63af682ae)"><path fill="#ededed" d="M 108.691406 26.535156 C 82.402344 38.265625 70.308594 68.4375 81.679688 93.933594 C 89.148438 110.667969 104.863281 121.222656 122.21875 123.1875 C 129.0625 123.957031 135.039062 128.25 137.867188 134.589844 C 146.492188 130.742188 164.5625 122.683594 169.605469 120.433594 C 166.785156 114.117188 167.558594 106.800781 171.570312 101.171875 C 181.707031 86.941406 184.351562 68.199219 176.886719 51.460938 C 165.511719 25.96875 134.984375 14.808594 108.691406 26.535156 Z M 108.691406 26.535156 " fill-opacity="1" fill-rule="nonzero"/></g></g></g><g clip-path="url(#9af9d0dda0)"><g clip-path="url(#caf678ba02)"><g clip-path="url(#499c941208)"><path fill="#ffde59" d="M 165.035156 63.667969 C 165.203125 64.046875 165.335938 64.4375 165.425781 64.839844 C 165.519531 65.246094 165.570312 65.65625 165.582031 66.070312 C 165.59375 66.484375 165.5625 66.898438 165.492188 67.304688 C 165.421875 67.714844 165.3125 68.113281 165.164062 68.5 C 165.015625 68.886719 164.832031 69.257812 164.609375 69.609375 C 164.390625 69.960938 164.136719 70.285156 163.851562 70.585938 C 163.566406 70.886719 163.253906 71.15625 162.914062 71.398438 C 162.578125 71.636719 162.21875 71.839844 161.839844 72.011719 C 161.460938 72.179688 161.070312 72.308594 160.664062 72.402344 C 160.257812 72.492188 159.851562 72.546875 159.433594 72.554688 C 159.019531 72.566406 158.609375 72.539062 158.199219 72.46875 C 157.789062 72.398438 157.394531 72.289062 157.003906 72.140625 C 156.617188 71.992188 156.25 71.808594 155.898438 71.585938 C 155.546875 71.367188 155.21875 71.113281 154.917969 70.828125 C 154.617188 70.542969 154.347656 70.230469 154.109375 69.890625 C 153.867188 69.550781 153.664062 69.195312 153.496094 68.816406 C 153.328125 68.4375 153.195312 68.042969 153.105469 67.640625 C 153.011719 67.234375 152.960938 66.824219 152.949219 66.410156 C 152.9375 65.996094 152.96875 65.582031 153.039062 65.175781 C 153.109375 64.765625 153.21875 64.367188 153.363281 63.980469 C 153.511719 63.59375 153.699219 63.222656 153.917969 62.871094 C 154.140625 62.523438 154.394531 62.195312 154.679688 61.894531 C 154.964844 61.59375 155.277344 61.324219 155.613281 61.082031 C 155.953125 60.84375 156.3125 60.640625 156.691406 60.46875 C 157.070312 60.300781 157.460938 60.171875 157.867188 60.078125 C 158.269531 59.988281 158.679688 59.9375 159.09375 59.925781 C 159.511719 59.914062 159.921875 59.941406 160.332031 60.011719 C 160.738281 60.082031 161.136719 60.191406 161.523438 60.339844 C 161.914062 60.488281 162.28125 60.671875 162.632812 60.894531 C 162.984375 61.117188 163.308594 61.367188 163.609375 61.65625 C 163.914062 61.941406 164.183594 62.25 164.421875 62.589844 C 164.660156 62.929688 164.867188 63.289062 165.035156 63.667969 Z M 165.035156 63.667969 " fill-opacity="1" fill-rule="nonzero"/></g></g></g><g clip-path="url(#c54783cbf9)"><g clip-path="url(#78106ac280)"><g clip-path="url(#ab382c83e8)"><path fill="#ffde59" d="M 173.355469 144.355469 L 177.347656 153.300781 C 179.835938 158.878906 177.332031 165.414062 171.753906 167.902344 C 166.175781 170.390625 159.640625 167.886719 157.152344 162.308594 L 153.160156 153.367188 Z M 173.355469 144.355469 " fill-opacity="1" fill-rule="nonzero"/></g></g></g><g clip-path="url(#88cab2c528)"><g clip-path="url(#97bab7f9b8)"><g clip-path="url(#4edbd4fdd7)"><path fill="#ffde59" d="M 174.75 131.972656 L 179.898438 143.515625 C 176.089844 145.210938 152.800781 155.601562 148.164062 157.671875 L 143.015625 146.128906 Z M 174.75 131.972656 " fill-opacity="1" fill-rule="nonzero"/></g></g></g><g clip-path="url(#2b334eaed7)"><g clip-path="url(#c0967c74a3)"><g clip-path="url(#605a31c47c)"><path fill="#ffde59" d="M 140.023438 69.636719 C 140.320312 70.296875 140.546875 70.984375 140.710938 71.691406 C 140.871094 72.398438 140.960938 73.117188 140.980469 73.84375 C 141 74.566406 140.949219 75.289062 140.824219 76.003906 C 140.703125 76.71875 140.511719 77.417969 140.253906 78.09375 C 139.992188 78.773438 139.667969 79.417969 139.28125 80.03125 C 138.894531 80.648438 138.453125 81.21875 137.953125 81.746094 C 137.453125 82.269531 136.90625 82.746094 136.316406 83.164062 C 135.722656 83.582031 135.09375 83.941406 134.429688 84.238281 C 133.769531 84.53125 133.082031 84.761719 132.375 84.921875 C 131.667969 85.082031 130.949219 85.171875 130.222656 85.191406 C 129.5 85.210938 128.777344 85.160156 128.0625 85.039062 C 127.347656 84.914062 126.648438 84.722656 125.972656 84.464844 C 125.292969 84.203125 124.648438 83.882812 124.035156 83.496094 C 123.417969 83.109375 122.847656 82.664062 122.320312 82.164062 C 121.796875 81.664062 121.320312 81.121094 120.902344 80.527344 C 120.484375 79.933594 120.125 79.308594 119.828125 78.644531 C 119.535156 77.980469 119.304688 77.296875 119.144531 76.585938 C 118.984375 75.878906 118.894531 75.164062 118.875 74.4375 C 118.855469 73.710938 118.90625 72.988281 119.027344 72.273438 C 119.152344 71.558594 119.34375 70.863281 119.601562 70.183594 C 119.863281 69.507812 120.183594 68.859375 120.570312 68.246094 C 120.957031 67.632812 121.402344 67.0625 121.902344 66.535156 C 122.402344 66.007812 122.945312 65.535156 123.539062 65.113281 C 124.132812 64.695312 124.757812 64.335938 125.421875 64.042969 C 126.085938 63.746094 126.769531 63.519531 127.480469 63.355469 C 128.1875 63.195312 128.902344 63.105469 129.628906 63.085938 C 130.355469 63.066406 131.078125 63.117188 131.792969 63.242188 C 132.507812 63.363281 133.203125 63.554688 133.882812 63.8125 C 134.558594 64.074219 135.207031 64.398438 135.820312 64.785156 C 136.433594 65.171875 137.003906 65.613281 137.53125 66.113281 C 138.058594 66.613281 138.53125 67.160156 138.953125 67.75 C 139.371094 68.34375 139.730469 68.972656 140.023438 69.636719 Z M 140.023438 69.636719 " fill-opacity="1" fill-rule="nonzero"/></g></g></g><g clip-path="url(#bd985f3dfd)"><g clip-path="url(#8db73ed882)"><g clip-path="url(#1992fa9821)"><path fill="#ffde59" d="M 110.21875 88.117188 C 110.390625 88.496094 110.519531 88.890625 110.609375 89.292969 C 110.703125 89.699219 110.753906 90.109375 110.765625 90.523438 C 110.777344 90.9375 110.746094 91.347656 110.675781 91.757812 C 110.609375 92.167969 110.5 92.566406 110.351562 92.953125 C 110.203125 93.339844 110.015625 93.710938 109.796875 94.0625 C 109.574219 94.410156 109.320312 94.738281 109.035156 95.039062 C 108.75 95.339844 108.4375 95.609375 108.101562 95.851562 C 107.761719 96.089844 107.402344 96.292969 107.023438 96.464844 C 106.644531 96.632812 106.253906 96.761719 105.847656 96.855469 C 105.445312 96.945312 105.035156 96.996094 104.621094 97.007812 C 104.207031 97.019531 103.792969 96.992188 103.382812 96.921875 C 102.976562 96.851562 102.578125 96.742188 102.191406 96.59375 C 101.800781 96.445312 101.433594 96.261719 101.082031 96.039062 C 100.730469 95.816406 100.40625 95.5625 100.105469 95.277344 C 99.804688 94.992188 99.53125 94.683594 99.292969 94.34375 C 99.054688 94.003906 98.847656 93.644531 98.679688 93.265625 C 98.511719 92.886719 98.378906 92.496094 98.289062 92.089844 C 98.195312 91.6875 98.144531 91.277344 98.132812 90.863281 C 98.121094 90.449219 98.152344 90.035156 98.222656 89.628906 C 98.292969 89.21875 98.402344 88.820312 98.550781 88.433594 C 98.699219 88.046875 98.882812 87.675781 99.105469 87.324219 C 99.324219 86.972656 99.578125 86.648438 99.863281 86.347656 C 100.148438 86.046875 100.460938 85.777344 100.800781 85.535156 C 101.136719 85.296875 101.496094 85.09375 101.875 84.921875 C 102.253906 84.753906 102.648438 84.625 103.050781 84.53125 C 103.457031 84.441406 103.867188 84.386719 104.28125 84.378906 C 104.695312 84.367188 105.105469 84.394531 105.515625 84.464844 C 105.925781 84.535156 106.324219 84.644531 106.710938 84.792969 C 107.097656 84.941406 107.464844 85.125 107.816406 85.347656 C 108.167969 85.566406 108.496094 85.820312 108.796875 86.105469 C 109.097656 86.390625 109.367188 86.703125 109.605469 87.042969 C 109.847656 87.382812 110.050781 87.738281 110.21875 88.117188 Z M 110.21875 88.117188 " fill-opacity="1" fill-rule="nonzero"/></g></g></g><g clip-path="url(#6f1930f93f)"><g clip-path="url(#ba3fee5c3b)"><g clip-path="url(#ea4e13230e)"><path fill="#000000" d="M 107.40625 23.652344 C 79.566406 36.070312 66.730469 68.175781 78.796875 95.21875 C 86.558594 112.621094 103 124.191406 121.867188 126.324219 C 127.644531 126.976562 132.632812 130.605469 134.984375 135.878906 C 136.230469 138.667969 144.023438 156.148438 145.277344 158.957031 C 145.988281 160.550781 147.859375 161.265625 149.453125 160.554688 L 152.335938 159.269531 L 154.265625 163.597656 C 157.460938 170.753906 165.882812 173.980469 173.039062 170.789062 C 180.199219 167.59375 183.425781 159.171875 180.230469 152.011719 L 178.300781 147.6875 L 181.1875 146.398438 C 182.78125 145.6875 183.496094 143.820312 182.785156 142.226562 C 181.539062 139.433594 173.742188 121.957031 172.488281 119.148438 C 170.148438 113.902344 170.785156 107.71875 174.144531 103.003906 C 185.175781 87.515625 187.519531 67.546875 179.773438 50.175781 C 167.707031 23.132812 135.246094 11.234375 107.40625 23.652344 Z M 133.144531 81.351562 C 129.167969 83.125 124.488281 81.332031 122.714844 77.355469 C 120.941406 73.378906 122.734375 68.699219 126.710938 66.925781 C 130.6875 65.152344 135.367188 66.945312 137.140625 70.921875 C 138.914062 74.898438 137.121094 79.578125 133.144531 81.351562 Z M 168.003906 124.605469 L 170.578125 130.375 L 144.613281 141.957031 L 142.039062 136.1875 Z M 174.460938 154.585938 C 176.234375 158.566406 174.445312 163.242188 170.464844 165.015625 C 166.488281 166.792969 161.8125 165 160.035156 161.023438 L 158.105469 156.695312 L 172.53125 150.261719 Z M 175.726562 141.914062 C 172.449219 143.378906 153.027344 152.042969 149.761719 153.5 L 147.1875 147.730469 L 173.152344 136.144531 Z M 169 99.335938 C 164.96875 104.992188 163.773438 112.1875 165.640625 118.742188 L 155.335938 123.339844 L 148.125 107.175781 L 159.15625 75.71875 C 160.507812 75.738281 161.855469 75.460938 163.125 74.894531 C 167.898438 72.765625 170.050781 67.152344 167.921875 62.378906 C 165.792969 57.605469 160.175781 55.457031 155.40625 57.585938 C 150.632812 59.714844 148.480469 65.328125 150.609375 70.101562 C 151.214844 71.457031 152.109375 72.625 153.222656 73.542969 L 144.375 98.773438 L 138.457031 85.507812 C 143.644531 81.617188 145.660156 74.515625 142.910156 68.347656 C 139.714844 61.1875 131.292969 57.964844 124.136719 61.15625 C 116.976562 64.351562 113.75 72.773438 116.945312 79.929688 C 119.695312 86.097656 126.328125 89.339844 132.6875 88.082031 L 138.605469 101.347656 L 113.921875 91.074219 C 113.980469 89.636719 113.710938 88.1875 113.105469 86.832031 C 110.976562 82.058594 105.363281 79.910156 100.589844 82.039062 C 95.816406 84.167969 93.664062 89.78125 95.792969 94.554688 C 97.921875 99.328125 103.539062 101.476562 108.3125 99.347656 C 109.578125 98.78125 110.6875 97.960938 111.578125 96.941406 L 142.355469 109.75 L 149.5625 125.914062 L 139.261719 130.511719 C 135.53125 124.574219 129.351562 120.8125 122.574219 120.046875 C 105.570312 118.125 91.363281 107.878906 84.566406 92.644531 C 73.921875 68.78125 85.320312 40.421875 109.980469 29.421875 C 134.636719 18.421875 163.355469 28.886719 174 52.75 C 180.796875 67.984375 178.925781 85.402344 169 99.335938 Z M 156.378906 67.527344 C 155.671875 65.9375 156.386719 64.066406 157.976562 63.355469 C 159.570312 62.644531 161.441406 63.363281 162.148438 64.953125 C 162.859375 66.542969 162.144531 68.414062 160.550781 69.125 C 158.980469 69.828125 157.101562 69.140625 156.378906 67.527344 Z M 105.738281 93.578125 C 104.144531 94.289062 102.273438 93.570312 101.566406 91.980469 C 100.855469 90.390625 101.570312 88.519531 103.164062 87.808594 C 104.753906 87.097656 106.625 87.816406 107.335938 89.40625 C 108.039062 90.984375 107.34375 92.863281 105.738281 93.578125 Z M 105.738281 93.578125 " fill-opacity="1" fill-rule="nonzero"/></g></g></g><g clip-path="url(#13d61067c1)"><g clip-path="url(#fb515e2130)"><g clip-path="url(#a5ed1d914c)"><path fill="#000000" d="M 181.480469 26.6875 L 190.238281 17.578125 C 191.445312 16.320312 191.40625 14.320312 190.148438 13.113281 C 188.890625 11.902344 186.894531 11.941406 185.683594 13.199219 L 176.925781 22.308594 C 175.71875 23.566406 175.757812 25.566406 177.015625 26.777344 C 178.273438 27.988281 180.273438 27.945312 181.480469 26.6875 Z M 181.480469 26.6875 " fill-opacity="1" fill-rule="nonzero"/></g></g></g><g clip-path="url(#7d6ccab9fc)"><g clip-path="url(#1e648cb5f5)"><g clip-path="url(#6bd56c9de6)"><path fill="#000000" d="M 187.789062 44.882812 L 199.328125 39.734375 C 200.921875 39.023438 201.636719 37.15625 200.925781 35.5625 C 200.214844 33.96875 198.347656 33.253906 196.753906 33.964844 L 185.214844 39.113281 C 183.621094 39.824219 182.90625 41.691406 183.617188 43.285156 C 184.328125 44.878906 186.195312 45.59375 187.789062 44.882812 Z M 187.789062 44.882812 " fill-opacity="1" fill-rule="nonzero"/></g></g></g><g clip-path="url(#f11fd5d485)"><g clip-path="url(#e07f14a4ca)"><g clip-path="url(#03b210f0da)"><path fill="#000000" d="M 206.785156 54.796875 L 194.210938 56.03125 C 192.472656 56.203125 191.207031 57.746094 191.375 59.484375 C 191.546875 61.21875 193.09375 62.488281 194.828125 62.320312 L 207.402344 61.085938 C 209.136719 60.917969 210.410156 59.375 210.238281 57.632812 C 210.066406 55.898438 208.523438 54.628906 206.785156 54.796875 Z M 206.785156 54.796875 " fill-opacity="1" fill-rule="nonzero"/></g></g></g><g clip-path="url(#bc0e07da6c)"><g clip-path="url(#e064d0df74)"><g clip-path="url(#6bab303c6c)"><path fill="#000000" d="M 47.550781 81.230469 L 60.175781 80.800781 C 61.921875 80.742188 63.285156 79.28125 63.226562 77.535156 C 63.167969 75.792969 61.707031 74.425781 59.960938 74.484375 L 47.335938 74.914062 C 45.589844 74.976562 44.226562 76.4375 44.285156 78.179688 C 44.34375 79.925781 45.804688 81.289062 47.550781 81.230469 Z M 47.550781 81.230469 " fill-opacity="1" fill-rule="nonzero"/></g></g></g><g clip-path="url(#e01ba3af5e)"><g clip-path="url(#6bc3fab43e)"><g clip-path="url(#6ad4f8fd3f)"><path fill="#000000" d="M 66.929688 91.878906 L 55.386719 97.027344 C 53.796875 97.738281 53.078125 99.605469 53.789062 101.199219 C 54.5 102.792969 56.371094 103.507812 57.960938 102.796875 L 69.503906 97.648438 C 71.09375 96.9375 71.8125 95.070312 71.101562 93.476562 C 70.390625 91.882812 68.523438 91.167969 66.929688 91.878906 Z M 66.929688 91.878906 " fill-opacity="1" fill-rule="nonzero"/></g></g></g><g clip-path="url(#ae18f8ae5b)"><g clip-path="url(#0aee8e3e88)"><g clip-path="url(#83a7e259f1)"><path fill="#000000" d="M 73.507812 109.875 L 64.1875 118.410156 C 62.902344 119.585938 62.816406 121.585938 63.992188 122.871094 C 65.167969 124.15625 67.167969 124.25 68.457031 123.066406 L 77.773438 114.535156 C 79.058594 113.359375 79.148438 111.359375 77.96875 110.074219 C 76.792969 108.785156 74.792969 108.699219 73.507812 109.875 Z M 73.507812 109.875 " fill-opacity="1" fill-rule="nonzero"/></g></g></g><g clip-path="url(#a22d580f50)"><g clip-path="url(#80ff433400)"><path fill="#1e1e1e" d="M 353.589844 35.210938 L 353.589844 69.382812 L 318.484375 69.382812 L 318.484375 35.210938 Z M 353.589844 35.210938 " fill-opacity="1" fill-rule="nonzero"/></g></g><path stroke-linecap="butt" transform="matrix(0.00821207, -0.749955, 0.749955, 0.00821207, 332.005646, 132.334575)" fill="none" stroke-linejoin="miter" d="M 0.000291978 3.997917 L 94.318495 4.001646 " stroke="#ffde59" stroke-width="8" stroke-opacity="1" stroke-miterlimit="4"/><path stroke-linecap="round" transform="matrix(0.00821207, -0.749955, 0.749955, 0.00821207, 332.005646, 132.334575)" fill="none" stroke-linejoin="round" d="M 120.320018 3.998194 C 120.319703 10.628804 114.945905 16.000467 108.315295 16.000151 C 101.689894 15.999779 96.318231 10.625981 96.318603 4.000579 C 96.318919 -2.630031 101.692716 -8.001693 108.318118 -8.001321 C 114.94352 -8.000948 120.315183 -2.627151 120.320018 3.998194 " stroke="#ffde59" stroke-width="8" stroke-opacity="1" stroke-miterlimit="4"/></svg>