<svg xmlns="http://www.w3.org/2000/svg" xmlns:xlink="http://www.w3.org/1999/xlink" width="500" zoomAndPan="magnify" viewBox="0 0 375 187.499995" height="250" preserveAspectRatio="xMidYMid meet" version="1.0"><defs><g/><clipPath id="0298855eb5"><path d="M 11.527344 84.511719 L 16.617188 84.511719 L 16.617188 89.914062 L 11.527344 89.914062 Z M 11.527344 84.511719 " clip-rule="nonzero"/></clipPath><clipPath id="376793520c"><path d="M 11.554688 87.011719 C 13.125 84.621094 13.699219 84.457031 14.195312 84.539062 C 14.855469 84.621094 15.84375 85.117188 16.175781 85.691406 C 16.585938 86.269531 16.585938 87.425781 16.339844 88.085938 C 16.011719 88.660156 15.183594 89.320312 14.441406 89.488281 C 13.78125 89.570312 12.710938 89.238281 12.296875 88.746094 C 11.804688 88.25 11.472656 87.175781 11.640625 86.433594 C 11.804688 85.777344 12.546875 84.949219 13.125 84.703125 C 13.78125 84.457031 14.9375 84.539062 15.433594 84.949219 C 16.09375 85.445312 16.585938 86.847656 16.585938 87.589844 C 16.585938 88.25 16.175781 88.828125 15.761719 89.238281 C 15.351562 89.570312 14.691406 89.816406 14.113281 89.898438 C 13.535156 89.898438 12.875 89.652344 12.464844 89.238281 C 12.050781 88.910156 11.554688 87.671875 11.554688 87.671875 " clip-rule="nonzero"/></clipPath><clipPath id="bdb21c4df0"><path d="M 363.898438 161.710938 L 368.988281 161.710938 L 368.988281 167.113281 L 363.898438 167.113281 Z M 363.898438 161.710938 " clip-rule="nonzero"/></clipPath><clipPath id="fce2370d64"><path d="M 363.925781 164.210938 C 365.496094 161.820312 366.070312 161.65625 366.566406 161.738281 C 367.226562 161.820312 368.214844 162.316406 368.546875 162.890625 C 368.957031 163.46875 368.957031 164.625 368.710938 165.285156 C 368.382812 165.863281 367.554688 166.519531 366.8125 166.6875 C 366.152344 166.769531 365.082031 166.4375 364.667969 165.945312 C 364.175781 165.449219 363.84375 164.375 364.011719 163.632812 C 364.175781 162.976562 364.917969 162.148438 365.496094 161.902344 C 366.152344 161.65625 367.308594 161.738281 367.804688 162.148438 C 368.464844 162.644531 368.957031 164.046875 368.957031 164.789062 C 368.957031 165.449219 368.546875 166.027344 368.132812 166.4375 C 367.722656 166.769531 367.0625 167.015625 366.484375 167.097656 C 365.90625 167.097656 365.246094 166.851562 364.835938 166.4375 C 364.421875 166.109375 363.925781 164.871094 363.925781 164.871094 " clip-rule="nonzero"/></clipPath><clipPath id="8fc9866a80"><path d="M 276.535156 172.40625 L 281.621094 172.40625 L 281.621094 177.8125 L 276.535156 177.8125 Z M 276.535156 172.40625 " clip-rule="nonzero"/></clipPath><clipPath id="0112e3219a"><path d="M 276.5625 174.910156 C 278.128906 172.519531 278.707031 172.351562 279.203125 172.4375 C 279.863281 172.519531 280.851562 173.011719 281.183594 173.589844 C 281.59375 174.167969 281.59375 175.320312 281.347656 175.980469 C 281.015625 176.558594 280.191406 177.21875 279.449219 177.382812 C 278.789062 177.464844 277.71875 177.136719 277.304688 176.640625 C 276.8125 176.148438 276.480469 175.074219 276.644531 174.332031 C 276.8125 173.671875 277.554688 172.847656 278.128906 172.601562 C 278.789062 172.351562 279.945312 172.4375 280.441406 172.847656 C 281.101562 173.34375 281.59375 174.746094 281.59375 175.488281 C 281.59375 176.148438 281.183594 176.722656 280.769531 177.136719 C 280.359375 177.464844 279.699219 177.714844 279.121094 177.796875 C 278.542969 177.796875 277.882812 177.550781 277.472656 177.136719 C 277.058594 176.808594 276.5625 175.570312 276.5625 175.570312 " clip-rule="nonzero"/></clipPath><clipPath id="14b12802d5"><path d="M 100.085938 168.898438 L 105.171875 168.898438 L 105.171875 174.304688 L 100.085938 174.304688 Z M 100.085938 168.898438 " clip-rule="nonzero"/></clipPath><clipPath id="754567a58f"><path d="M 100.113281 171.402344 C 101.679688 169.011719 102.257812 168.84375 102.753906 168.925781 C 103.414062 169.011719 104.402344 169.503906 104.734375 170.082031 C 105.144531 170.660156 105.144531 171.8125 104.898438 172.472656 C 104.566406 173.050781 103.742188 173.710938 103 173.875 C 102.339844 173.957031 101.269531 173.628906 100.855469 173.132812 C 100.363281 172.640625 100.03125 171.566406 100.195312 170.824219 C 100.363281 170.164062 101.105469 169.339844 101.679688 169.09375 C 102.339844 168.84375 103.496094 168.925781 103.992188 169.339844 C 104.652344 169.835938 105.144531 171.238281 105.144531 171.980469 C 105.144531 172.640625 104.734375 173.214844 104.320312 173.628906 C 103.90625 173.957031 103.25 174.207031 102.671875 174.289062 C 102.09375 174.289062 101.433594 174.039062 101.023438 173.628906 C 100.609375 173.296875 100.113281 172.0625 100.113281 172.0625 " clip-rule="nonzero"/></clipPath><clipPath id="2f87532f9c"><path d="M 11.527344 175.5 L 16.617188 175.5 L 16.617188 180.902344 L 11.527344 180.902344 Z M 11.527344 175.5 " clip-rule="nonzero"/></clipPath><clipPath id="b2a3186bba"><path d="M 11.554688 178 C 13.125 175.609375 13.699219 175.445312 14.195312 175.527344 C 14.855469 175.609375 15.84375 176.105469 16.175781 176.679688 C 16.585938 177.257812 16.585938 178.414062 16.339844 179.074219 C 16.011719 179.652344 15.183594 180.308594 14.441406 180.476562 C 13.78125 180.558594 12.710938 180.226562 12.296875 179.734375 C 11.804688 179.238281 11.472656 178.167969 11.640625 177.421875 C 11.804688 176.765625 12.546875 175.9375 13.125 175.691406 C 13.78125 175.445312 14.9375 175.527344 15.433594 175.9375 C 16.09375 176.433594 16.585938 177.835938 16.585938 178.578125 C 16.585938 179.238281 16.175781 179.816406 15.761719 180.226562 C 15.351562 180.558594 14.691406 180.804688 14.113281 180.886719 C 13.535156 180.886719 12.875 180.640625 12.464844 180.226562 C 12.050781 179.898438 11.554688 178.660156 11.554688 178.660156 " clip-rule="nonzero"/></clipPath><clipPath id="98446c8943"><path d="M 53 149 L 91 149 L 91 187 L 53 187 Z M 53 149 " clip-rule="nonzero"/></clipPath><clipPath id="573396c41f"><path d="M 54 66 L 73 66 L 73 78 L 54 78 Z M 54 66 " clip-rule="nonzero"/></clipPath><clipPath id="21a86e5aba"><path d="M 8.257812 30.078125 L 81.125 5.046875 L 106.152344 77.914062 L 33.289062 102.945312 Z M 8.257812 30.078125 " clip-rule="nonzero"/></clipPath><clipPath id="bab7a7aad4"><path d="M 8.257812 30.078125 L 81.125 5.046875 L 106.152344 77.914062 L 33.289062 102.945312 Z M 8.257812 30.078125 " clip-rule="nonzero"/></clipPath><clipPath id="0f57ce7f50"><path d="M 28 17 L 79 17 L 79 72 L 28 72 Z M 28 17 " clip-rule="nonzero"/></clipPath><clipPath id="d962f64314"><path d="M 8.257812 30.078125 L 81.125 5.046875 L 106.152344 77.914062 L 33.289062 102.945312 Z M 8.257812 30.078125 " clip-rule="nonzero"/></clipPath><clipPath id="8919efc702"><path d="M 8.257812 30.078125 L 81.125 5.046875 L 106.152344 77.914062 L 33.289062 102.945312 Z M 8.257812 30.078125 " clip-rule="nonzero"/></clipPath><clipPath id="2751f8818d"><path d="M 64 37 L 71 37 L 71 44 L 64 44 Z M 64 37 " clip-rule="nonzero"/></clipPath><clipPath id="e0b3975648"><path d="M 8.257812 30.078125 L 81.125 5.046875 L 106.152344 77.914062 L 33.289062 102.945312 Z M 8.257812 30.078125 " clip-rule="nonzero"/></clipPath><clipPath id="1a0d118147"><path d="M 8.257812 30.078125 L 81.125 5.046875 L 106.152344 77.914062 L 33.289062 102.945312 Z M 8.257812 30.078125 " clip-rule="nonzero"/></clipPath><clipPath id="ae7e003c1a"><path d="M 61 77 L 73 77 L 73 90 L 61 90 Z M 61 77 " clip-rule="nonzero"/></clipPath><clipPath id="a3e6ba733f"><path d="M 8.257812 30.078125 L 81.125 5.046875 L 106.152344 77.914062 L 33.289062 102.945312 Z M 8.257812 30.078125 " clip-rule="nonzero"/></clipPath><clipPath id="9c886833f4"><path d="M 8.257812 30.078125 L 81.125 5.046875 L 106.152344 77.914062 L 33.289062 102.945312 Z M 8.257812 30.078125 " clip-rule="nonzero"/></clipPath><clipPath id="a571f07359"><path d="M 56 72 L 75 72 L 75 84 L 56 84 Z M 56 72 " clip-rule="nonzero"/></clipPath><clipPath id="802017363f"><path d="M 8.257812 30.078125 L 81.125 5.046875 L 106.152344 77.914062 L 33.289062 102.945312 Z M 8.257812 30.078125 " clip-rule="nonzero"/></clipPath><clipPath id="fff3624377"><path d="M 8.257812 30.078125 L 81.125 5.046875 L 106.152344 77.914062 L 33.289062 102.945312 Z M 8.257812 30.078125 " clip-rule="nonzero"/></clipPath><clipPath id="da728ab70a"><path d="M 48 37 L 59 37 L 59 48 L 48 48 Z M 48 37 " clip-rule="nonzero"/></clipPath><clipPath id="9db816003c"><path d="M 8.257812 30.078125 L 81.125 5.046875 L 106.152344 77.914062 L 33.289062 102.945312 Z M 8.257812 30.078125 " clip-rule="nonzero"/></clipPath><clipPath id="34c05f6ec3"><path d="M 8.257812 30.078125 L 81.125 5.046875 L 106.152344 77.914062 L 33.289062 102.945312 Z M 8.257812 30.078125 " clip-rule="nonzero"/></clipPath><clipPath id="2c736f9d0b"><path d="M 37 46 L 44 46 L 44 53 L 37 53 Z M 37 46 " clip-rule="nonzero"/></clipPath><clipPath id="d8c35f11f0"><path d="M 8.257812 30.078125 L 81.125 5.046875 L 106.152344 77.914062 L 33.289062 102.945312 Z M 8.257812 30.078125 " clip-rule="nonzero"/></clipPath><clipPath id="dc39ef0600"><path d="M 8.257812 30.078125 L 81.125 5.046875 L 106.152344 77.914062 L 33.289062 102.945312 Z M 8.257812 30.078125 " clip-rule="nonzero"/></clipPath><clipPath id="ae1cc9e3a3"><path d="M 26 16 L 80 16 L 80 91 L 26 91 Z M 26 16 " clip-rule="nonzero"/></clipPath><clipPath id="ec0923355a"><path d="M 8.257812 30.078125 L 81.125 5.046875 L 106.152344 77.914062 L 33.289062 102.945312 Z M 8.257812 30.078125 " clip-rule="nonzero"/></clipPath><clipPath id="46e64f0e11"><path d="M 8.257812 30.078125 L 81.125 5.046875 L 106.152344 77.914062 L 33.289062 102.945312 Z M 8.257812 30.078125 " clip-rule="nonzero"/></clipPath><clipPath id="d733d1c425"><path d="M 77 15 L 86 15 L 86 23 L 77 23 Z M 77 15 " clip-rule="nonzero"/></clipPath><clipPath id="ed643e338b"><path d="M 8.257812 30.078125 L 81.125 5.046875 L 106.152344 77.914062 L 33.289062 102.945312 Z M 8.257812 30.078125 " clip-rule="nonzero"/></clipPath><clipPath id="a6d0d2d749"><path d="M 8.257812 30.078125 L 81.125 5.046875 L 106.152344 77.914062 L 33.289062 102.945312 Z M 8.257812 30.078125 " clip-rule="nonzero"/></clipPath><clipPath id="7ff1325260"><path d="M 80 26 L 89 26 L 89 32 L 80 32 Z M 80 26 " clip-rule="nonzero"/></clipPath><clipPath id="18c7ecc48f"><path d="M 8.257812 30.078125 L 81.125 5.046875 L 106.152344 77.914062 L 33.289062 102.945312 Z M 8.257812 30.078125 " clip-rule="nonzero"/></clipPath><clipPath id="6ab327c835"><path d="M 8.257812 30.078125 L 81.125 5.046875 L 106.152344 77.914062 L 33.289062 102.945312 Z M 8.257812 30.078125 " clip-rule="nonzero"/></clipPath><clipPath id="edf7f1ab05"><path d="M 83 36 L 93 36 L 93 40 L 83 40 Z M 83 36 " clip-rule="nonzero"/></clipPath><clipPath id="a2f3285243"><path d="M 8.257812 30.078125 L 81.125 5.046875 L 106.152344 77.914062 L 33.289062 102.945312 Z M 8.257812 30.078125 " clip-rule="nonzero"/></clipPath><clipPath id="5172402ec0"><path d="M 8.257812 30.078125 L 81.125 5.046875 L 106.152344 77.914062 L 33.289062 102.945312 Z M 8.257812 30.078125 " clip-rule="nonzero"/></clipPath><clipPath id="1d982abbdd"><path d="M 12 39 L 22 39 L 22 43 L 12 43 Z M 12 39 " clip-rule="nonzero"/></clipPath><clipPath id="af2ccfa725"><path d="M 8.257812 30.078125 L 81.125 5.046875 L 106.152344 77.914062 L 33.289062 102.945312 Z M 8.257812 30.078125 " clip-rule="nonzero"/></clipPath><clipPath id="eccfb06637"><path d="M 8.257812 30.078125 L 81.125 5.046875 L 106.152344 77.914062 L 33.289062 102.945312 Z M 8.257812 30.078125 " clip-rule="nonzero"/></clipPath><clipPath id="e2aa6e5e7a"><path d="M 15 48 L 25 48 L 25 54 L 15 54 Z M 15 48 " clip-rule="nonzero"/></clipPath><clipPath id="2af5c2779c"><path d="M 8.257812 30.078125 L 81.125 5.046875 L 106.152344 77.914062 L 33.289062 102.945312 Z M 8.257812 30.078125 " clip-rule="nonzero"/></clipPath><clipPath id="b30776ad2e"><path d="M 8.257812 30.078125 L 81.125 5.046875 L 106.152344 77.914062 L 33.289062 102.945312 Z M 8.257812 30.078125 " clip-rule="nonzero"/></clipPath><clipPath id="d175b6e81a"><path d="M 19 56 L 28 56 L 28 64 L 19 64 Z M 19 56 " clip-rule="nonzero"/></clipPath><clipPath id="e231dbdefb"><path d="M 8.257812 30.078125 L 81.125 5.046875 L 106.152344 77.914062 L 33.289062 102.945312 Z M 8.257812 30.078125 " clip-rule="nonzero"/></clipPath><clipPath id="4acf446f1f"><path d="M 8.257812 30.078125 L 81.125 5.046875 L 106.152344 77.914062 L 33.289062 102.945312 Z M 8.257812 30.078125 " clip-rule="nonzero"/></clipPath><clipPath id="3a0e74b401"><path d="M 0.5 84 L 374.5 84 L 374.5 169 L 0.5 169 Z M 0.5 84 " clip-rule="nonzero"/></clipPath><clipPath id="cba3db2a6b"><path d="M 303.398438 66.484375 L 308.484375 66.484375 L 308.484375 71.890625 L 303.398438 71.890625 Z M 303.398438 66.484375 " clip-rule="nonzero"/></clipPath><clipPath id="25aed635b3"><path d="M 308.457031 69.386719 C 306.890625 71.777344 306.3125 71.945312 305.816406 71.859375 C 305.15625 71.777344 304.167969 71.285156 303.839844 70.707031 C 303.425781 70.128906 303.425781 68.976562 303.671875 68.316406 C 304.003906 67.738281 304.828125 67.078125 305.570312 66.914062 C 306.230469 66.832031 307.300781 67.160156 307.714844 67.65625 C 308.210938 68.148438 308.539062 69.222656 308.375 69.964844 C 308.210938 70.625 307.46875 71.449219 306.890625 71.695312 C 306.230469 71.945312 305.074219 71.859375 304.582031 71.449219 C 303.921875 70.953125 303.425781 69.550781 303.425781 68.808594 C 303.425781 68.148438 303.839844 67.574219 304.25 67.160156 C 304.664062 66.832031 305.324219 66.582031 305.902344 66.5 C 306.476562 66.5 307.136719 66.746094 307.550781 67.160156 C 307.960938 67.488281 308.457031 68.726562 308.457031 68.726562 " clip-rule="nonzero"/></clipPath><clipPath id="4687fa1052"><path d="M 102.554688 7.5625 L 107.644531 7.5625 L 107.644531 12.96875 L 102.554688 12.96875 Z M 102.554688 7.5625 " clip-rule="nonzero"/></clipPath><clipPath id="23a4b95ea8"><path d="M 102.585938 10.066406 C 104.152344 7.671875 104.730469 7.507812 105.222656 7.589844 C 105.882812 7.671875 106.875 8.167969 107.203125 8.746094 C 107.617188 9.324219 107.617188 10.476562 107.367188 11.136719 C 107.039062 11.714844 106.214844 12.375 105.472656 12.539062 C 104.8125 12.621094 103.738281 12.292969 103.328125 11.796875 C 102.832031 11.300781 102.503906 10.230469 102.667969 9.488281 C 102.832031 8.828125 103.574219 8.003906 104.152344 7.753906 C 104.8125 7.507812 105.964844 7.589844 106.460938 8.003906 C 107.121094 8.496094 107.617188 9.898438 107.617188 10.640625 C 107.617188 11.300781 107.203125 11.878906 106.789062 12.292969 C 106.378906 12.621094 105.71875 12.867188 105.140625 12.949219 C 104.5625 12.949219 103.902344 12.703125 103.492188 12.292969 C 103.078125 11.960938 102.585938 10.722656 102.585938 10.722656 " clip-rule="nonzero"/></clipPath><clipPath id="d527dfb794"><path d="M 188.003906 90.335938 L 193.09375 90.335938 L 193.09375 95.742188 L 188.003906 95.742188 Z M 188.003906 90.335938 " clip-rule="nonzero"/></clipPath><clipPath id="8ef985a0a5"><path d="M 193.0625 93.238281 C 191.496094 95.628906 190.917969 95.792969 190.425781 95.710938 C 189.765625 95.628906 188.773438 95.136719 188.445312 94.558594 C 188.03125 93.980469 188.03125 92.824219 188.28125 92.167969 C 188.609375 91.589844 189.433594 90.929688 190.175781 90.765625 C 190.835938 90.679688 191.910156 91.011719 192.320312 91.507812 C 192.816406 92 193.144531 93.074219 192.980469 93.816406 C 192.816406 94.476562 192.074219 95.300781 191.496094 95.546875 C 190.835938 95.792969 189.683594 95.710938 189.1875 95.300781 C 188.527344 94.804688 188.03125 93.402344 188.03125 92.660156 C 188.03125 92 188.445312 91.421875 188.855469 91.011719 C 189.269531 90.679688 189.929688 90.433594 190.507812 90.351562 C 191.085938 90.351562 191.742188 90.597656 192.15625 91.011719 C 192.570312 91.339844 193.0625 92.578125 193.0625 92.578125 " clip-rule="nonzero"/></clipPath></defs><g clip-path="url(#0298855eb5)"><g clip-path="url(#376793520c)"><path fill="#1e1e1e" d="M 8.257812 81.238281 L 19.886719 81.238281 L 19.886719 93.1875 L 8.257812 93.1875 Z M 8.257812 81.238281 " fill-opacity="1" fill-rule="nonzero"/></g></g><path stroke-linecap="butt" transform="matrix(-0.0070001, 0.747972, -0.747972, -0.0070001, 15.191186, 82.524805)" fill="none" stroke-linejoin="miter" d="M 11.250904 1.497704 L 43.880806 1.500453 " stroke="#ffde59" stroke-width="3" stroke-opacity="1" stroke-miterlimit="4"/><path stroke-linecap="round" transform="matrix(-0.0070001, 0.747972, -0.747972, -0.0070001, 15.191186, 82.524805)" fill="none" stroke-linejoin="round" d="M 1.50061 1.500173 C 1.498235 -0.985691 3.516144 -2.999553 6.002009 -3.001928 C 8.4827 -2.999032 10.501735 -0.986394 10.498888 1.49952 C 10.501263 3.985384 8.483354 5.999246 5.997489 6.001621 C 3.516798 5.998725 1.497763 3.986087 1.50061 1.500173 " stroke="#ffde59" stroke-width="3" stroke-opacity="1" stroke-miterlimit="4"/><path stroke-linecap="round" transform="matrix(-0.0070001, 0.747972, -0.747972, -0.0070001, 15.191186, 82.524805)" fill="none" stroke-linejoin="round" d="M 53.631099 1.497984 C 53.633474 3.983849 51.615565 5.99771 49.129701 6.000085 C 46.643836 6.00246 44.629975 3.984551 44.632822 1.498638 C 44.630447 -0.987227 46.648356 -3.001089 49.129047 -2.998193 C 51.614912 -3.000567 53.633995 -0.982708 53.631099 1.497984 " stroke="#ffde59" stroke-width="3" stroke-opacity="1" stroke-miterlimit="4"/><path stroke-linecap="butt" transform="matrix(0.00000000130552, 0.748005, -0.748005, 0.00000000130552, 227.634594, 118.572328)" fill="none" stroke-linejoin="miter" d="M 11.251196 1.50116 L 76.8632 1.50116 " stroke="#ffde59" stroke-width="3" stroke-opacity="1" stroke-miterlimit="4"/><path stroke-linecap="round" transform="matrix(0.00000000130552, 0.748005, -0.748005, 0.00000000130552, 227.634594, 118.572328)" fill="none" stroke-linejoin="round" d="M 1.501306 1.50116 C 1.501306 -0.984618 3.517084 -3.000396 5.99764 -3.000396 C 8.483418 -3.000396 10.499196 -0.984618 10.499196 1.50116 C 10.499196 3.986938 8.483418 5.997493 5.99764 5.997493 C 3.517084 5.997493 1.501306 3.986938 1.501306 1.50116 " stroke="#ffde59" stroke-width="3" stroke-opacity="1" stroke-miterlimit="4"/><g clip-path="url(#bdb21c4df0)"><g clip-path="url(#fce2370d64)"><path fill="#1e1e1e" d="M 360.628906 158.4375 L 372.257812 158.4375 L 372.257812 170.386719 L 360.628906 170.386719 Z M 360.628906 158.4375 " fill-opacity="1" fill-rule="nonzero"/></g></g><path stroke-linecap="butt" transform="matrix(0.748005, 0, 0, 0.748005, 239.253672, 163.296139)" fill="none" stroke-linejoin="miter" d="M 11.24898 1.499761 L 165.163546 1.499761 " stroke="#ffde59" stroke-width="3" stroke-opacity="1" stroke-miterlimit="4"/><path stroke-linecap="round" transform="matrix(0.748005, 0, 0, 0.748005, 239.253672, 163.296139)" fill-opacity="1" fill="#ffde59" fill-rule="nonzero" stroke-linejoin="round" d="M 1.499091 1.499761 C 1.499091 -0.986017 3.514868 -3.001795 6.000646 -3.001795 C 8.486424 -3.001795 10.502202 -0.986017 10.502202 1.499761 C 10.502202 3.985539 8.486424 6.001317 6.000646 6.001317 C 3.514868 6.001317 1.499091 3.985539 1.499091 1.499761 " stroke="#ffde59" stroke-width="3" stroke-opacity="1" stroke-miterlimit="4"/><path stroke-linecap="round" transform="matrix(0.748005, 0, 0, 0.748005, 239.253672, 163.296139)" fill="none" stroke-linejoin="round" d="M 174.913436 1.499761 C 174.913436 3.985539 172.897658 6.001317 170.41188 6.001317 C 167.926102 6.001317 165.910324 3.985539 165.910324 1.499761 C 165.910324 -0.986017 167.926102 -3.001795 170.41188 -3.001795 C 172.897658 -3.001795 174.913436 -0.986017 174.913436 1.499761 " stroke="#ffde59" stroke-width="3" stroke-opacity="1" stroke-miterlimit="4"/><g clip-path="url(#8fc9866a80)"><g clip-path="url(#0112e3219a)"><path fill="#1e1e1e" d="M 273.265625 169.136719 L 284.894531 169.136719 L 284.894531 181.082031 L 273.265625 181.082031 Z M 273.265625 169.136719 " fill-opacity="1" fill-rule="nonzero"/></g></g><path stroke-linecap="butt" transform="matrix(-0.748005, 0.00000000130552, -0.00000000130552, -0.748005, 283.257668, 176.238002)" fill="none" stroke-linejoin="miter" d="M 11.248475 1.498405 L 76.865702 1.498405 " stroke="#ffde59" stroke-width="3" stroke-opacity="1" stroke-miterlimit="4"/><path stroke-linecap="round" transform="matrix(-0.748005, 0.00000000130552, -0.00000000130552, -0.748005, 283.257668, 176.238002)" fill="none" stroke-linejoin="round" d="M 1.498585 1.498405 C 1.498585 -0.987373 3.514363 -2.997929 6.000141 -2.997929 C 8.485919 -2.997929 10.501697 -0.987373 10.501697 1.498405 C 10.501697 3.984183 8.485919 5.99996 6.000141 5.99996 C 3.514363 5.99996 1.498585 3.984183 1.498585 1.498405 " stroke="#ffde59" stroke-width="3" stroke-opacity="1" stroke-miterlimit="4"/><g clip-path="url(#14b12802d5)"><g clip-path="url(#754567a58f)"><path fill="#1e1e1e" d="M 96.816406 165.628906 L 108.445312 165.628906 L 108.445312 177.574219 L 96.816406 177.574219 Z M 96.816406 165.628906 " fill-opacity="1" fill-rule="nonzero"/></g></g><path stroke-linecap="butt" transform="matrix(-0.748005, -0.00000000130552, 0.00000000130552, -0.748005, 174.078571, 172.729932)" fill="none" stroke-linejoin="miter" d="M 0.000595996 1.49806 L 90.313713 1.49806 " stroke="#ffde59" stroke-width="3" stroke-opacity="1" stroke-miterlimit="4"/><path stroke-linecap="round" transform="matrix(-0.748005, -0.00000000130552, 0.00000000130552, -0.748005, 174.078571, 172.729932)" fill="none" stroke-linejoin="round" d="M 100.063603 1.49806 C 100.063603 3.983837 98.047825 5.999615 95.562047 5.999615 C 93.081491 5.999615 91.065713 3.983837 91.065713 1.49806 C 91.065713 -0.987718 93.081491 -2.998274 95.562047 -2.998274 C 98.047825 -2.998274 100.063603 -0.987718 100.063603 1.49806 " stroke="#ffde59" stroke-width="3" stroke-opacity="1" stroke-miterlimit="4"/><path stroke-linecap="butt" transform="matrix(-0.55963, 0.496312, -0.496312, -0.55963, 203.06046, 146.929753)" fill="none" stroke-linejoin="miter" d="M -0.000826557 1.500096 L 51.992909 1.500884 " stroke="#ffde59" stroke-width="3" stroke-opacity="1" stroke-miterlimit="4"/><g clip-path="url(#2f87532f9c)"><g clip-path="url(#b2a3186bba)"><path fill="#1e1e1e" d="M 8.257812 172.226562 L 19.886719 172.226562 L 19.886719 184.175781 L 8.257812 184.175781 Z M 8.257812 172.226562 " fill-opacity="1" fill-rule="nonzero"/></g></g><path stroke-linecap="butt" transform="matrix(-0.748005, 0.00000000130552, -0.00000000130552, -0.748005, 67.084599, 179.329325)" fill="none" stroke-linejoin="miter" d="M -0.00178974 1.500382 L 65.615437 1.500382 " stroke="#ffde59" stroke-width="3" stroke-opacity="1" stroke-miterlimit="4"/><path stroke-linecap="round" transform="matrix(-0.748005, 0.00000000130552, -0.00000000130552, -0.748005, 67.084599, 179.329325)" fill="none" stroke-linejoin="round" d="M 75.365327 1.500382 C 75.365327 3.98616 73.349549 6.001938 70.863771 6.001938 C 68.377993 6.001938 66.362215 3.98616 66.362215 1.500382 C 66.362215 -0.985396 68.377993 -3.001174 70.863771 -3.001174 C 73.349549 -3.001174 75.365327 -0.985396 75.365327 1.500382 " stroke="#ffde59" stroke-width="3" stroke-opacity="1" stroke-miterlimit="4"/><g clip-path="url(#98446c8943)"><path stroke-linecap="butt" transform="matrix(-0.434166, 0.609108, -0.609108, -0.434166, 78.715066, 162.871835)" fill="none" stroke-linejoin="miter" d="M -0.00151582 1.502103 L 26.822541 1.499557 " stroke="#ffde59" stroke-width="3" stroke-opacity="1" stroke-miterlimit="4"/></g><path stroke-linecap="butt" transform="matrix(-0.748005, 0.00000000130552, -0.00000000130552, -0.748005, 134.280265, 163.848026)" fill="none" stroke-linejoin="miter" d="M 11.252573 1.499272 L 76.864577 1.499272 " stroke="#ffde59" stroke-width="3" stroke-opacity="1" stroke-miterlimit="4"/><path stroke-linecap="round" transform="matrix(-0.748005, 0.00000000130552, -0.00000000130552, -0.748005, 134.280265, 163.848026)" fill-opacity="1" fill="#ffde59" fill-rule="nonzero" stroke-linejoin="round" d="M 1.497461 1.499272 C 1.497461 -0.986506 3.513239 -3.002284 5.999017 -3.002284 C 8.484795 -3.002284 10.500573 -0.986506 10.500573 1.499272 C 10.500573 3.98505 8.484795 6.000828 5.999017 6.000828 C 3.513239 6.000828 1.497461 3.98505 1.497461 1.499272 " stroke="#ffde59" stroke-width="3" stroke-opacity="1" stroke-miterlimit="4"/><path stroke-linecap="butt" transform="matrix(0.00000000130552, 0.748005, -0.748005, 0.00000000130552, 38.660852, 122.819425)" fill="none" stroke-linejoin="miter" d="M 11.249854 1.499708 L 50.207635 1.499708 " stroke="#ffde59" stroke-width="3" stroke-opacity="1" stroke-miterlimit="4"/><path stroke-linecap="round" transform="matrix(0.00000000130552, 0.748005, -0.748005, 0.00000000130552, 38.660852, 122.819425)" fill-opacity="1" fill="#ffde59" fill-rule="nonzero" stroke-linejoin="round" d="M 1.499964 1.499708 C 1.499964 -0.98607 3.515742 -3.001848 6.00152 -3.001848 C 8.487298 -3.001848 10.497854 -0.98607 10.497854 1.499708 C 10.497854 3.985486 8.487298 6.001264 6.00152 6.001264 C 3.515742 6.001264 1.499964 3.985486 1.499964 1.499708 " stroke="#ffde59" stroke-width="3" stroke-opacity="1" stroke-miterlimit="4"/><path stroke-linecap="round" transform="matrix(0.00000000130552, 0.748005, -0.748005, 0.00000000130552, 38.660852, 122.819425)" fill-opacity="1" fill="#ffde59" fill-rule="nonzero" stroke-linejoin="round" d="M 59.957524 1.499708 C 59.957524 3.985486 57.946968 6.001264 55.46119 6.001264 C 52.975413 6.001264 50.959635 3.985486 50.959635 1.499708 C 50.959635 -0.98607 52.975413 -3.001847 55.46119 -3.001847 C 57.946968 -3.001847 59.957524 -0.98607 59.957524 1.499708 " stroke="#ffde59" stroke-width="3" stroke-opacity="1" stroke-miterlimit="4"/><path stroke-linecap="butt" transform="matrix(0.747797, -0.0176447, 0.0176447, 0.747797, 125.952439, 109.898454)" fill="none" stroke-linejoin="miter" d="M 0.00210869 1.499223 L 23.398992 1.497576 " stroke="#ffde59" stroke-width="3" stroke-opacity="1" stroke-miterlimit="4"/><path stroke-linecap="butt" transform="matrix(0.388063, 0.639468, -0.639468, 0.388063, 105.062011, 73.890869)" fill="none" stroke-linejoin="miter" d="M 11.251298 1.500416 L 58.147499 1.499539 " stroke="#ffde59" stroke-width="3" stroke-opacity="1" stroke-miterlimit="4"/><path stroke-linecap="round" transform="matrix(0.388063, 0.639468, -0.639468, 0.388063, 105.062011, 73.890869)" fill-opacity="1" fill="#ffde59" fill-rule="nonzero" stroke-linejoin="round" d="M 1.500726 1.502487 C 1.500676 -0.98374 3.512506 -3.000412 5.998733 -3.000462 C 8.484961 -3.000511 10.498923 -0.984217 10.498973 1.50201 C 10.501732 3.983774 8.485438 5.997736 5.99921 5.997786 C 3.512983 5.997836 1.500776 3.988715 1.500726 1.502487 " stroke="#ffde59" stroke-width="3" stroke-opacity="1" stroke-miterlimit="4"/><path stroke-linecap="butt" transform="matrix(-0.574664, 0.478824, -0.478824, -0.574664, 276.616435, 100.591047)" fill="none" stroke-linejoin="miter" d="M 0.000968522 1.498339 L 26.019644 1.500672 " stroke="#ffde59" stroke-width="3" stroke-opacity="1" stroke-miterlimit="4"/><path stroke-linecap="butt" transform="matrix(-0.748005, -0.00000000130552, 0.00000000130552, -0.748005, 304.971443, 101.097141)" fill="none" stroke-linejoin="miter" d="M 11.252267 1.498089 L 39.629825 1.498089 " stroke="#ffde59" stroke-width="3" stroke-opacity="1" stroke-miterlimit="4"/><path stroke-linecap="round" transform="matrix(-0.748005, -0.00000000130552, 0.00000000130552, -0.748005, 304.971443, 101.097141)" fill-opacity="1" fill="#ffde59" fill-rule="nonzero" stroke-linejoin="round" d="M 1.502378 1.498089 C 1.502378 -0.987688 3.512934 -2.998244 5.998711 -2.998244 C 8.484489 -2.998244 10.500267 -0.987688 10.500267 1.498089 C 10.500267 3.983867 8.484489 5.999645 5.998711 5.999645 C 3.512934 5.999645 1.502378 3.983867 1.502378 1.498089 " stroke="#ffde59" stroke-width="3" stroke-opacity="1" stroke-miterlimit="4"/><path stroke-linecap="butt" transform="matrix(0.00546356, 0.747985, -0.747985, 0.00546356, 338.022961, 54.844835)" fill="none" stroke-linejoin="miter" d="M 11.252212 1.502036 L 80.850655 1.498618 " stroke="#ffde59" stroke-width="3" stroke-opacity="1" stroke-miterlimit="4"/><path stroke-linecap="round" transform="matrix(0.00546356, 0.747985, -0.747985, 0.00546356, 338.022961, 54.844835)" fill-opacity="1" fill="#ffde59" fill-rule="nonzero" stroke-linejoin="round" d="M 1.502087 1.498709 C 1.499355 -0.987156 3.514213 -2.998715 6.000077 -3.001447 C 8.485903 -2.998956 10.497462 -0.984099 10.500194 1.501766 C 10.497704 3.987592 8.482846 5.999151 6.002204 6.001921 C 3.516378 5.999431 1.499597 3.984535 1.502087 1.498709 " stroke="#ffde59" stroke-width="3" stroke-opacity="1" stroke-miterlimit="4"/><path stroke-linecap="round" transform="matrix(0.00546356, 0.747985, -0.747985, 0.00546356, 338.022961, 54.844835)" fill-opacity="1" fill="#ffde59" fill-rule="nonzero" stroke-linejoin="round" d="M 90.600781 1.501945 C 90.603512 3.98781 88.588655 5.999369 86.10279 6.002101 C 83.616964 5.99961 81.600183 3.984714 81.602673 1.498888 C 81.599942 -0.986976 83.614799 -2.998535 86.100664 -3.001267 C 88.58649 -2.998777 90.603271 -0.983881 90.600781 1.501945 " stroke="#ffde59" stroke-width="3" stroke-opacity="1" stroke-miterlimit="4"/><g clip-path="url(#573396c41f)"><g clip-path="url(#21a86e5aba)"><g clip-path="url(#bab7a7aad4)"><path fill="#ffde59" d="M 70.359375 66.375 L 72.324219 72.101562 L 64.40625 75.929688 L 56.582031 77.507812 L 54.617188 71.785156 L 61.757812 68.21875 Z M 70.359375 66.375 " fill-opacity="1" fill-rule="nonzero"/></g></g></g><g clip-path="url(#0f57ce7f50)"><g clip-path="url(#d962f64314)"><g clip-path="url(#8919efc702)"><path fill="#ededed" d="M 45.28125 18.992188 C 32.238281 23.472656 25.1875 37.355469 29.535156 50 C 32.386719 58.300781 39.433594 64.003906 47.632812 65.679688 C 50.867188 66.335938 53.535156 68.640625 54.617188 71.785156 C 58.894531 70.316406 67.855469 67.234375 70.359375 66.375 C 69.28125 63.242188 69.960938 59.785156 72.113281 57.269531 C 77.554688 50.910156 79.609375 42.082031 76.757812 33.777344 C 72.414062 21.132812 58.324219 14.511719 45.28125 18.992188 Z M 45.28125 18.992188 " fill-opacity="1" fill-rule="nonzero"/></g></g></g><g clip-path="url(#2751f8818d)"><g clip-path="url(#e0b3975648)"><g clip-path="url(#1a0d118147)"><path fill="#ffde59" d="M 70.585938 39.097656 C 70.71875 39.476562 70.769531 39.867188 70.746094 40.269531 C 70.71875 40.667969 70.621094 41.050781 70.445312 41.410156 C 70.269531 41.769531 70.027344 42.085938 69.726562 42.351562 C 69.425781 42.617188 69.085938 42.8125 68.707031 42.945312 C 68.328125 43.074219 67.9375 43.128906 67.539062 43.101562 C 67.136719 43.078125 66.757812 42.976562 66.394531 42.800781 C 66.035156 42.625 65.722656 42.386719 65.457031 42.085938 C 65.191406 41.785156 64.992188 41.445312 64.863281 41.066406 C 64.730469 40.683594 64.679688 40.296875 64.703125 39.894531 C 64.730469 39.496094 64.828125 39.113281 65.003906 38.753906 C 65.183594 38.390625 65.421875 38.078125 65.722656 37.8125 C 66.023438 37.546875 66.363281 37.351562 66.742188 37.21875 C 67.121094 37.089844 67.511719 37.035156 67.910156 37.0625 C 68.3125 37.085938 68.691406 37.1875 69.054688 37.363281 C 69.414062 37.539062 69.726562 37.777344 69.992188 38.078125 C 70.257812 38.378906 70.457031 38.71875 70.585938 39.097656 Z M 70.585938 39.097656 " fill-opacity="1" fill-rule="nonzero"/></g></g></g><g clip-path="url(#ae7e003c1a)"><g clip-path="url(#a3e6ba733f)"><g clip-path="url(#9c886833f4)"><path fill="#ffde59" d="M 71.132812 77.949219 L 72.65625 82.386719 C 73.605469 85.152344 72.136719 88.164062 69.367188 89.117188 C 66.601562 90.066406 63.589844 88.59375 62.640625 85.828125 L 61.117188 81.390625 Z M 71.132812 77.949219 " fill-opacity="1" fill-rule="nonzero"/></g></g></g><g clip-path="url(#a571f07359)"><g clip-path="url(#802017363f)"><g clip-path="url(#fff3624377)"><path fill="#ffde59" d="M 72.324219 72.101562 L 74.289062 77.824219 C 72.402344 78.472656 60.847656 82.441406 58.546875 83.234375 L 56.582031 77.507812 Z M 72.324219 72.101562 " fill-opacity="1" fill-rule="nonzero"/></g></g></g><g clip-path="url(#da728ab70a)"><g clip-path="url(#9db816003c)"><g clip-path="url(#34c05f6ec3)"><path fill="#ffde59" d="M 58.402344 40.882812 C 58.515625 41.214844 58.59375 41.550781 58.640625 41.894531 C 58.6875 42.238281 58.699219 42.585938 58.679688 42.933594 C 58.65625 43.28125 58.601562 43.621094 58.511719 43.957031 C 58.425781 44.292969 58.304688 44.617188 58.152344 44.929688 C 57.996094 45.242188 57.816406 45.539062 57.605469 45.8125 C 57.394531 46.089844 57.160156 46.34375 56.898438 46.574219 C 56.636719 46.804688 56.355469 47.007812 56.058594 47.183594 C 55.757812 47.355469 55.441406 47.5 55.113281 47.613281 C 54.785156 47.726562 54.445312 47.808594 54.101562 47.851562 C 53.757812 47.898438 53.410156 47.914062 53.066406 47.890625 C 52.71875 47.871094 52.375 47.816406 52.039062 47.726562 C 51.703125 47.636719 51.378906 47.515625 51.066406 47.363281 C 50.753906 47.210938 50.460938 47.027344 50.183594 46.820312 C 49.90625 46.609375 49.652344 46.371094 49.421875 46.113281 C 49.191406 45.851562 48.992188 45.570312 48.816406 45.269531 C 48.640625 44.96875 48.496094 44.65625 48.382812 44.324219 C 48.269531 43.996094 48.191406 43.660156 48.144531 43.316406 C 48.097656 42.972656 48.085938 42.625 48.105469 42.277344 C 48.128906 41.929688 48.183594 41.589844 48.273438 41.253906 C 48.359375 40.917969 48.480469 40.59375 48.632812 40.28125 C 48.785156 39.96875 48.96875 39.671875 49.179688 39.394531 C 49.390625 39.121094 49.625 38.867188 49.886719 38.636719 C 50.144531 38.40625 50.425781 38.203125 50.726562 38.027344 C 51.027344 37.851562 51.34375 37.710938 51.671875 37.597656 C 52 37.484375 52.335938 37.402344 52.683594 37.355469 C 53.027344 37.308594 53.371094 37.296875 53.71875 37.320312 C 54.066406 37.339844 54.40625 37.394531 54.746094 37.484375 C 55.082031 37.574219 55.40625 37.695312 55.71875 37.847656 C 56.03125 38 56.324219 38.179688 56.601562 38.390625 C 56.878906 38.601562 57.132812 38.839844 57.359375 39.097656 C 57.589844 39.359375 57.792969 39.640625 57.96875 39.941406 C 58.144531 40.242188 58.289062 40.554688 58.402344 40.882812 Z M 58.402344 40.882812 " fill-opacity="1" fill-rule="nonzero"/></g></g></g><g clip-path="url(#2c736f9d0b)"><g clip-path="url(#d8c35f11f0)"><g clip-path="url(#dc39ef0600)"><path fill="#ffde59" d="M 43.394531 48.4375 C 43.527344 48.816406 43.578125 49.207031 43.554688 49.609375 C 43.53125 50.007812 43.429688 50.390625 43.253906 50.75 C 43.078125 51.109375 42.839844 51.425781 42.539062 51.691406 C 42.238281 51.957031 41.898438 52.152344 41.515625 52.285156 C 41.136719 52.414062 40.746094 52.46875 40.347656 52.441406 C 39.945312 52.417969 39.566406 52.316406 39.207031 52.140625 C 38.84375 51.964844 38.53125 51.726562 38.265625 51.425781 C 38 51.125 37.800781 50.785156 37.671875 50.40625 C 37.542969 50.027344 37.488281 49.636719 37.515625 49.234375 C 37.539062 48.835938 37.640625 48.453125 37.816406 48.09375 C 37.992188 47.734375 38.230469 47.417969 38.53125 47.152344 C 38.832031 46.886719 39.171875 46.691406 39.550781 46.558594 C 39.929688 46.429688 40.320312 46.375 40.722656 46.402344 C 41.121094 46.425781 41.503906 46.527344 41.863281 46.703125 C 42.222656 46.878906 42.535156 47.117188 42.800781 47.417969 C 43.066406 47.71875 43.265625 48.058594 43.394531 48.4375 Z M 43.394531 48.4375 " fill-opacity="1" fill-rule="nonzero"/></g></g></g><g clip-path="url(#ae1cc9e3a3)"><g clip-path="url(#ec0923355a)"><g clip-path="url(#46e64f0e11)"><path fill="#000000" d="M 44.789062 17.5625 C 30.980469 22.304688 23.496094 37.078125 28.101562 50.492188 C 31.066406 59.125 38.421875 65.34375 47.332031 67.160156 C 50.058594 67.71875 52.285156 69.660156 53.183594 72.277344 C 53.660156 73.660156 56.636719 82.328125 57.117188 83.722656 C 57.386719 84.515625 58.25 84.933594 59.039062 84.664062 L 60.472656 84.171875 L 61.207031 86.320312 C 62.429688 89.871094 66.308594 91.765625 69.859375 90.546875 C 73.410156 89.328125 75.308594 85.445312 74.089844 81.894531 L 73.351562 79.746094 L 74.78125 79.257812 C 75.570312 78.984375 75.992188 78.125 75.722656 77.332031 C 75.246094 75.949219 72.265625 67.277344 71.789062 65.886719 C 70.894531 63.285156 71.460938 60.359375 73.261719 58.253906 C 79.183594 51.332031 81.152344 41.90625 78.191406 33.285156 C 73.582031 19.871094 58.597656 12.816406 44.789062 17.5625 Z M 54.621094 46.183594 C 52.648438 46.859375 50.492188 45.808594 49.816406 43.835938 C 49.136719 41.863281 50.191406 39.707031 52.164062 39.027344 C 54.136719 38.351562 56.292969 39.402344 56.96875 41.375 C 57.648438 43.347656 56.59375 45.503906 54.621094 46.183594 Z M 69.417969 68.300781 L 70.402344 71.160156 L 57.519531 75.585938 L 56.539062 72.722656 Z M 71.226562 82.878906 C 71.902344 84.851562 70.851562 87.007812 68.878906 87.683594 C 66.90625 88.363281 64.75 87.308594 64.070312 85.335938 L 63.332031 83.1875 L 70.488281 80.730469 Z M 72.367188 76.886719 C 70.742188 77.445312 61.105469 80.753906 59.488281 81.308594 L 58.503906 78.449219 L 71.382812 74.023438 Z M 70.964844 56.285156 C 68.800781 58.8125 67.925781 62.195312 68.539062 65.402344 L 63.425781 67.15625 L 60.671875 59.140625 L 67.269531 44.601562 C 67.914062 44.664062 68.570312 44.589844 69.199219 44.375 C 71.566406 43.5625 72.832031 40.972656 72.019531 38.605469 C 71.203125 36.238281 68.617188 34.976562 66.25 35.789062 C 63.882812 36.601562 62.617188 39.1875 63.429688 41.554688 C 63.664062 42.230469 64.039062 42.824219 64.53125 43.308594 L 59.238281 54.972656 L 56.980469 48.390625 C 59.621094 46.753906 60.882812 43.453125 59.832031 40.394531 C 58.613281 36.84375 54.730469 34.945312 51.179688 36.164062 C 47.628906 37.386719 45.734375 41.265625 46.953125 44.816406 C 48.003906 47.875 51.027344 49.707031 54.117188 49.375 L 56.378906 55.953125 L 45.039062 50.007812 C 45.125 49.320312 45.058594 48.621094 44.828125 47.945312 C 44.015625 45.578125 41.425781 44.316406 39.058594 45.128906 C 36.691406 45.941406 35.429688 48.53125 36.242188 50.898438 C 37.054688 53.265625 39.640625 54.527344 42.007812 53.714844 C 42.636719 53.5 43.203125 53.152344 43.667969 52.707031 L 57.808594 60.125 L 60.5625 68.140625 L 55.453125 69.894531 C 53.925781 66.90625 51.136719 64.847656 47.9375 64.195312 C 39.90625 62.558594 33.5625 57.066406 30.964844 49.507812 C 26.898438 37.671875 33.542969 24.625 45.773438 20.421875 C 58.003906 16.222656 71.261719 22.433594 75.328125 34.269531 C 77.925781 41.828125 76.292969 50.058594 70.964844 56.285156 Z M 66.292969 40.574219 C 66.023438 39.785156 66.445312 38.921875 67.234375 38.652344 C 68.023438 38.378906 68.886719 38.800781 69.15625 39.589844 C 69.425781 40.378906 69.003906 41.242188 68.214844 41.511719 C 67.4375 41.78125 66.570312 41.375 66.292969 40.574219 Z M 41.027344 50.851562 C 40.238281 51.125 39.375 50.703125 39.101562 49.914062 C 38.832031 49.125 39.253906 48.261719 40.042969 47.992188 C 40.832031 47.71875 41.695312 48.140625 41.964844 48.929688 C 42.234375 49.714844 41.824219 50.578125 41.027344 50.851562 Z M 41.027344 50.851562 " fill-opacity="1" fill-rule="nonzero"/></g></g></g><g clip-path="url(#d733d1c425)"><g clip-path="url(#ed643e338b)"><g clip-path="url(#a6d0d2d749)"><path fill="#000000" d="M 80.003906 22.152344 L 84.566406 18.179688 C 85.195312 17.628906 85.261719 16.675781 84.714844 16.042969 C 84.164062 15.414062 83.210938 15.347656 82.578125 15.898438 L 78.015625 19.871094 C 77.386719 20.421875 77.320312 21.375 77.867188 22.007812 C 78.417969 22.636719 79.371094 22.703125 80.003906 22.152344 Z M 80.003906 22.152344 " fill-opacity="1" fill-rule="nonzero"/></g></g></g><g clip-path="url(#7ff1325260)"><g clip-path="url(#18c7ecc48f)"><g clip-path="url(#6ab327c835)"><path fill="#000000" d="M 82.238281 31.101562 L 87.964844 29.136719 C 88.753906 28.863281 89.175781 28.003906 88.902344 27.214844 C 88.632812 26.421875 87.769531 26.003906 86.980469 26.273438 L 81.257812 28.238281 C 80.464844 28.511719 80.046875 29.371094 80.316406 30.164062 C 80.589844 30.953125 81.449219 31.375 82.238281 31.101562 Z M 82.238281 31.101562 " fill-opacity="1" fill-rule="nonzero"/></g></g></g><g clip-path="url(#edf7f1ab05)"><g clip-path="url(#a2f3285243)"><g clip-path="url(#5172402ec0)"><path fill="#000000" d="M 90.882812 36.640625 L 84.832031 36.695312 C 83.996094 36.703125 83.324219 37.386719 83.332031 38.222656 C 83.339844 39.054688 84.023438 39.726562 84.859375 39.71875 L 90.910156 39.664062 C 91.742188 39.660156 92.417969 38.976562 92.410156 38.136719 C 92.402344 37.304688 91.71875 36.632812 90.882812 36.640625 Z M 90.882812 36.640625 " fill-opacity="1" fill-rule="nonzero"/></g></g></g><g clip-path="url(#1d982abbdd)"><g clip-path="url(#af2ccfa725)"><g clip-path="url(#eccfb06637)"><path fill="#000000" d="M 13.789062 42.492188 L 19.832031 42.824219 C 20.664062 42.867188 21.378906 42.230469 21.425781 41.394531 C 21.46875 40.558594 20.832031 39.847656 19.996094 39.800781 L 13.953125 39.46875 C 13.117188 39.425781 12.40625 40.066406 12.359375 40.898438 C 12.316406 41.734375 12.953125 42.445312 13.789062 42.492188 Z M 13.789062 42.492188 " fill-opacity="1" fill-rule="nonzero"/></g></g></g><g clip-path="url(#e2aa6e5e7a)"><g clip-path="url(#2af5c2779c)"><g clip-path="url(#b30776ad2e)"><path fill="#000000" d="M 22.582031 48.394531 L 16.859375 50.363281 C 16.066406 50.632812 15.648438 51.492188 15.917969 52.285156 C 16.191406 53.074219 17.050781 53.496094 17.839844 53.222656 L 23.566406 51.257812 C 24.355469 50.984375 24.777344 50.125 24.503906 49.335938 C 24.234375 48.542969 23.371094 48.125 22.582031 48.394531 Z M 22.582031 48.394531 " fill-opacity="1" fill-rule="nonzero"/></g></g></g><g clip-path="url(#d175b6e81a)"><g clip-path="url(#e231dbdefb)"><g clip-path="url(#4acf446f1f)"><path fill="#000000" d="M 24.957031 57.261719 L 20.148438 60.9375 C 19.484375 61.445312 19.359375 62.394531 19.867188 63.058594 C 20.371094 63.71875 21.320312 63.847656 21.988281 63.339844 L 26.796875 59.664062 C 27.457031 59.15625 27.585938 58.207031 27.078125 57.542969 C 26.570312 56.878906 25.621094 56.753906 24.957031 57.261719 Z M 24.957031 57.261719 " fill-opacity="1" fill-rule="nonzero"/></g></g></g><g clip-path="url(#3a0e74b401)"><path stroke-linecap="butt" transform="matrix(0.824735, 0, 0, 0.824735, 5.9891, 83.299255)" fill="none" stroke-linejoin="miter" d="M 1.751464 81.472116 L 1.751464 22.177525 L 19.702298 21.306034 L 19.702298 46.370893 L 28.890852 45.504138 L 28.890852 22.177525 L 46.756432 21.306034 L 46.756432 81.472116 L 28.890852 81.472116 L 28.890852 61.612525 L 19.702298 62.484017 L 19.702298 81.472116 Z M 54.552494 71.942543 C 54.552494 70.209033 54.86983 68.759704 55.504504 67.60403 C 56.143913 66.448357 56.98225 65.524765 58.024251 64.833255 C 59.05678 64.141745 60.26929 63.644427 61.666518 63.350772 C 63.049538 63.06659 64.527285 62.924499 66.090286 62.924499 C 68.856325 62.924499 71.631837 63.241835 74.412084 63.881245 C 77.121287 64.572755 79.39948 65.287946 81.246663 66.036293 L 81.246663 54.858464 L 56.290741 57.018248 L 56.290741 38.645877 C 61.609682 38.702713 66.639705 38.787968 71.385545 38.896904 C 76.055604 39.010577 80.180981 39.162141 83.766411 39.342123 C 87.929679 39.512632 91.775609 39.683141 95.304203 39.853651 L 94.882667 81.997853 L 81.606627 81.997853 L 81.3556 76.011083 C 79.323698 77.858267 76.979196 79.302859 74.32683 80.349596 C 71.603418 81.448434 68.94158 81.997853 66.34605 81.997853 C 64.385194 81.997853 62.646947 81.708934 61.136045 81.131097 C 59.644089 80.610097 58.426843 79.890169 57.498515 78.971313 C 56.522823 78.042985 55.802895 76.96783 55.338731 75.75532 C 54.812994 74.542809 54.552494 73.273463 54.552494 71.942543 Z M 65.730322 72.368816 C 65.730322 73.410817 66.142386 74.168636 66.961778 74.6328 C 67.762224 75.153801 68.827907 75.414301 70.15409 75.414301 C 70.845599 75.414301 71.546582 75.239055 72.252301 74.888564 C 72.886974 74.604382 73.493229 74.258627 74.071066 73.8513 C 74.634694 73.439236 75.207794 72.946653 75.785631 72.368816 C 75.207794 71.79098 74.634694 71.274716 74.071066 70.824761 C 73.493229 70.412697 72.886974 70.033787 72.252301 69.67856 C 71.546582 69.399114 70.845599 69.257023 70.15409 69.257023 C 68.827907 69.257023 67.762224 69.517523 66.961778 70.038523 C 66.142386 70.61636 65.730322 71.393125 65.730322 72.368816 Z M 103.109738 60.490006 C 103.109738 57.723967 103.223411 55.010028 103.44602 52.343453 C 103.687575 49.743187 104.440657 47.403421 105.710004 45.314683 C 106.984087 43.240154 108.973361 41.511379 111.682564 40.12836 C 114.405975 38.787968 118.251906 38.001731 123.220356 37.779121 L 124.788094 37.779121 C 129.117134 37.779121 132.584155 38.470631 135.179685 39.853651 C 137.732587 41.302979 139.674498 43.098063 141.000681 45.229428 C 142.326864 47.431839 143.198356 49.828441 143.605684 52.423971 C 143.998802 55.095283 144.235621 57.638712 144.30193 60.068469 L 128.956098 61.105734 C 128.956098 60.063733 128.922943 59.05015 128.851898 58.079194 C 128.738225 57.089294 128.539297 56.19412 128.259852 55.388937 C 127.904624 54.569546 127.468878 53.901718 126.943141 53.380717 C 126.365304 52.926026 125.58854 52.703417 124.617585 52.703417 C 124.148684 52.703417 123.769775 52.731835 123.471384 52.783935 C 122.145201 53.011281 121.136354 53.328617 120.444844 53.740681 C 119.696498 54.1338 119.175498 54.711637 118.881843 55.474192 C 118.540825 56.279375 118.341897 57.288221 118.285061 58.500731 C 118.228224 59.717978 118.204542 61.276243 118.204542 63.180263 C 118.204542 65.027446 118.228224 66.65202 118.285061 68.049249 C 118.341897 69.432268 118.540825 70.583206 118.881843 71.502061 C 119.175498 72.430389 119.696498 73.131372 120.444844 73.595536 C 121.136354 74.045491 122.145201 74.272836 123.471384 74.272836 C 124.811776 74.272836 125.858513 74.073909 126.606859 73.68079 C 127.355205 73.273463 127.904624 72.662471 128.259852 71.862025 C 128.596134 71.042633 128.795061 69.995896 128.851898 68.72655 C 128.922943 67.514039 128.956098 66.102602 128.956098 64.492237 L 144.30193 63.009753 C 144.235621 65.66212 143.970384 68.238704 143.520429 70.739506 C 142.999429 73.278199 142.009528 75.499556 140.555463 77.408312 C 139.05877 79.369168 136.951087 80.927433 134.227675 82.083107 C 131.518473 83.243517 127.876206 83.821354 123.305611 83.821354 C 118.801325 83.821354 115.215894 83.129844 112.549319 81.746825 C 109.840117 80.420642 107.794006 78.625559 106.410986 76.371047 C 105.013758 74.168636 104.118584 71.682043 103.720729 68.916004 C 103.313402 66.135756 103.109738 63.32709 103.109738 60.490006 Z M 169.703071 21.220779 L 168.225324 55.284737 C 168.334261 55.355783 168.476352 55.388937 168.646861 55.388937 C 168.997352 55.50261 169.35258 55.559447 169.703071 55.559447 C 170.337744 55.559447 171.057672 55.384201 171.862855 55.028973 C 172.611201 54.749528 173.331129 54.058018 174.022639 52.954444 C 174.728357 51.912443 175.306194 50.37786 175.760886 48.360167 C 176.22505 46.385102 176.457132 43.728 176.457132 40.379387 L 197.713951 38.645877 C 197.586069 39.166877 197.353987 40.062051 197.012968 41.331397 C 196.605641 42.60548 196.079904 44.050073 195.445231 45.674647 C 194.810557 47.280276 194.033793 48.952213 193.119674 50.69046 C 192.129773 52.423971 190.974099 53.991709 189.647916 55.388937 C 188.307524 56.828793 186.772941 58.008149 185.053639 58.927004 C 183.258556 59.855332 181.236127 60.324233 178.976879 60.324233 C 181.572409 60.324233 183.82692 60.613151 185.73094 61.190988 C 187.649169 61.825661 189.273743 62.63558 190.599926 63.625481 C 191.869273 64.653273 192.906537 65.804211 193.71172 67.073557 C 194.460066 68.413949 195.037903 69.749605 195.445231 71.075788 C 196.491968 74.253891 196.780886 77.863003 196.316722 81.917334 L 178.976879 81.917334 L 178.80637 69.953269 C 178.80637 68.740759 178.687961 67.779276 178.446406 67.073557 C 178.16696 66.382047 177.821206 65.87052 177.409142 65.529501 C 176.944978 65.17901 176.457132 64.942192 175.95034 64.833255 C 175.372503 64.776419 174.823085 64.748 174.297348 64.748 C 172.507001 64.748 170.977154 65.093755 169.703071 65.785265 C 168.419515 66.476775 167.780106 67.921367 167.780106 70.123778 L 167.524342 81.917334 L 151.666982 81.917334 L 151.392273 22.258044 Z M 204.292766 71.942543 C 204.292766 70.209033 204.610103 68.759704 205.244776 67.60403 C 205.879449 66.448357 206.717786 65.524765 207.764524 64.833255 C 208.792316 64.141745 210.009562 63.644427 211.406791 63.350772 C 212.78981 63.06659 214.262821 62.924499 215.830558 62.924499 C 218.596597 62.924499 221.367372 63.241835 224.14762 63.881245 C 226.856823 64.572755 229.139752 65.287946 230.986936 66.036293 L 230.986936 54.858464 L 206.026277 57.018248 L 206.026277 38.645877 C 211.349954 38.702713 216.379977 38.787968 221.121081 38.896904 C 225.79114 39.010577 229.921253 39.162141 233.506683 39.342123 C 237.669951 39.512632 241.515882 39.683141 245.044476 39.853651 L 244.618203 81.997853 L 231.3469 81.997853 L 231.091136 76.011083 C 229.059234 77.858267 226.719468 79.302859 224.062366 80.349596 C 221.338954 81.448434 218.681852 81.997853 216.081586 81.997853 C 214.120729 81.997853 212.387219 81.708934 210.876317 81.131097 C 209.379625 80.610097 208.167115 79.890169 207.23405 78.971313 C 206.258359 78.042985 205.543167 76.96783 205.074267 75.75532 C 204.553266 74.542809 204.292766 73.273463 204.292766 71.942543 Z M 215.470594 72.368816 C 215.470594 73.410817 215.877922 74.168636 216.697314 74.6328 C 217.502496 75.153801 218.568179 75.414301 219.894362 75.414301 C 220.585872 75.414301 221.282118 75.239055 221.987837 74.888564 C 222.62251 74.604382 223.233501 74.258627 223.811338 73.8513 C 224.374966 73.439236 224.948067 72.946653 225.525903 72.368816 C 224.948067 71.79098 224.374966 71.274716 223.811338 70.824761 C 223.233501 70.412697 222.62251 70.033787 221.987837 69.67856 C 221.282118 69.399114 220.585872 69.257023 219.894362 69.257023 C 218.568179 69.257023 217.502496 69.517523 216.697314 70.038523 C 215.877922 70.61636 215.470594 71.393125 215.470594 72.368816 Z M 251.978518 40.213615 L 260.129808 40.043105 L 259.788789 23.295308 L 276.768668 21.220779 L 275.897176 39.342123 L 287.434969 38.645877 L 286.738723 55.284737 L 276.091368 55.388937 L 276.091368 81.997853 L 259.599334 81.997853 L 260.380835 55.729956 L 252.400055 56.236747 Z M 311.102599 21.306034 L 309.98008 51.471961 C 310.501081 49.738451 311.230481 48.038094 312.158809 46.370893 C 313.077665 44.751055 314.114929 43.273308 315.270603 41.947125 C 316.431013 40.606733 317.70036 39.536314 319.083379 38.731131 C 320.480608 37.925949 321.9252 37.523358 323.421892 37.523358 C 327.58516 37.523358 330.739581 38.300122 332.885155 39.853651 C 334.959685 41.473488 336.39954 44.050073 337.204723 47.578667 C 337.967278 51.107261 338.284615 55.701538 338.156733 61.361497 C 337.986224 67.03093 337.73046 73.941291 337.394178 82.083107 L 320.120644 82.083107 C 320.300626 80.870597 320.509026 79.283914 320.731635 77.323057 C 320.902145 75.362201 321.07739 73.221363 321.262109 70.905279 C 321.375781 68.650768 321.461036 66.334684 321.517872 63.961763 C 321.574709 61.650416 321.546291 59.537996 321.432618 57.633976 C 321.262109 55.729956 320.97319 54.166955 320.565862 52.954444 C 320.153798 51.798771 319.547543 51.220934 318.742361 51.220934 C 316.724668 51.220934 314.934321 51.770352 313.366583 52.86919 C 311.742009 54.0296 310.557917 55.298946 309.809571 56.681966 L 308.857561 81.997853 L 294.629512 81.997853 L 294.629512 73.766045 C 294.629512 70.758451 294.629512 67.641921 294.629512 64.406982 C 294.572675 61.16257 294.544257 57.866058 294.544257 54.522182 L 294.544257 44.88841 C 294.492157 37.551776 294.435321 30.03516 294.378484 22.343298 Z M 345.877013 61.276243 C 345.877013 58.56704 345.990686 55.848365 346.218031 53.124954 C 346.459586 50.472588 347.212668 48.014413 348.482015 45.759901 C 349.751362 43.55749 351.778527 41.733989 354.558775 40.294133 C 357.267978 38.844804 361.13759 38.001731 366.15814 37.779121 L 367.981642 37.779121 C 372.779583 37.779121 376.483422 38.499049 379.093161 39.934169 C 381.688691 41.44507 383.625865 43.330145 384.895212 45.589392 C 386.107722 47.90074 386.837123 50.415751 387.073941 53.124954 C 387.301287 55.905202 387.414959 58.56704 387.414959 61.105734 C 387.414959 63.942818 387.239714 66.685175 386.884486 69.342277 C 386.548204 72.05148 385.676712 74.4765 384.279484 76.622075 C 382.896464 78.76765 380.788781 80.477478 377.951696 81.746825 C 375.128821 83.073008 371.226054 83.7361 366.243395 83.7361 C 361.687009 83.7361 358.07316 83.073008 355.406585 81.746825 C 352.697383 80.420642 350.651272 78.682395 349.268252 76.53682 C 347.814187 74.448082 346.890595 72.05148 346.492741 69.342277 C 346.085413 66.685175 345.877013 63.999654 345.877013 61.276243 Z M 366.43285 52.172944 C 365.035621 52.400289 363.99362 52.689208 363.30211 53.039699 C 362.553764 53.451763 362.032764 54.0296 361.734373 54.777946 C 361.39809 55.526292 361.199163 56.478302 361.142327 57.633976 C 361.08549 58.78965 361.057072 60.295815 361.057072 62.142998 C 361.057072 63.933345 361.08549 65.496347 361.142327 66.82253 C 361.199163 68.148713 361.39809 69.24755 361.734373 70.123778 C 362.032764 71.042633 362.553764 71.705725 363.30211 72.113053 C 363.99362 72.581953 365.035621 72.814035 366.43285 72.814035 C 367.872705 72.814035 368.966806 72.581953 369.715152 72.113053 C 370.477708 71.705725 371.027126 71.042633 371.368145 70.123778 C 371.718636 69.24755 371.927036 68.148713 371.979136 66.82253 C 371.979136 65.496347 371.979136 63.933345 371.979136 62.142998 C 371.979136 60.518424 372.007555 59.073832 372.064391 57.804485 C 372.064391 56.535138 371.979136 55.469456 371.813363 54.607437 C 371.628645 53.731209 371.273418 53.063381 370.752417 52.59448 C 370.245626 52.144525 369.468861 51.91718 368.42686 51.91718 C 367.901124 51.91718 367.238032 52.002434 366.43285 52.172944 Z M 411.939873 38.645877 L 411.34309 50.96517 C 411.925664 49.340596 412.669273 47.777594 413.588129 46.266693 C 414.464357 44.770001 415.477939 43.415399 416.63835 42.202889 C 417.722978 41.042479 418.935488 40.118887 420.280617 39.427378 C 421.549963 38.735868 422.876146 38.390113 424.259166 38.390113 C 428.422433 38.390113 431.576854 39.110041 433.722429 40.549897 C 435.796958 42.060798 437.236814 44.514237 438.041996 47.914949 C 438.799815 51.334606 439.117152 55.815211 438.994006 61.361497 C 438.823497 66.964621 438.567733 73.841827 438.231451 81.997853 L 420.957917 81.997853 C 421.137899 80.785342 421.346299 79.198659 421.568909 77.237803 C 421.739418 75.333783 421.914664 73.278199 422.099382 71.075788 C 422.213055 68.873377 422.298309 66.65202 422.355146 64.406982 C 422.407246 62.152471 422.383564 60.096887 422.269891 58.249704 C 422.099382 56.45462 421.810463 54.98161 421.398399 53.8212 C 420.991072 52.665526 420.384817 52.087689 419.579634 52.087689 C 417.732451 52.087689 416.05104 52.547117 414.540139 53.465972 C 412.991346 54.451137 411.802518 55.60681 410.983126 56.93773 L 409.694834 81.997853 L 395.466785 81.997853 C 395.466785 77.090975 395.466785 72.113053 395.466785 67.073557 C 395.409949 62.109844 395.38153 57.605558 395.38153 53.570172 C 395.324694 48.772231 395.272594 44.140064 395.215757 39.683141 Z M 411.939873 38.645877 " stroke="#ffde59" stroke-width="3.468508" stroke-opacity="1" stroke-miterlimit="4"/></g><g fill="#000000" fill-opacity="1"><g transform="translate(6.001986, 150.927552)"><g><path d="M 1.4375 -0.421875 L 1.4375 -49.34375 L 16.234375 -50.0625 L 16.234375 -29.390625 L 23.8125 -30.109375 L 23.8125 -49.34375 L 38.546875 -50.0625 L 38.546875 -0.421875 L 23.8125 -0.421875 L 23.8125 -16.8125 L 16.234375 -16.09375 L 16.234375 -0.421875 Z M 1.4375 -0.421875 "/></g></g></g><g fill="#000000" fill-opacity="1"><g transform="translate(49.550195, 150.927552)"><g><path d="M 1.4375 -8.296875 C 1.4375 -9.722656 1.695312 -10.914062 2.21875 -11.875 C 2.738281 -12.820312 3.429688 -13.582031 4.296875 -14.15625 C 5.148438 -14.726562 6.148438 -15.132812 7.296875 -15.375 C 8.441406 -15.613281 9.65625 -15.734375 10.9375 -15.734375 C 13.226562 -15.734375 15.519531 -15.472656 17.8125 -14.953125 C 20.050781 -14.378906 21.929688 -13.78125 23.453125 -13.15625 L 23.453125 -22.390625 L 2.859375 -20.59375 L 2.859375 -35.75 C 7.242188 -35.707031 11.390625 -35.640625 15.296875 -35.546875 C 19.160156 -35.453125 22.570312 -35.332031 25.53125 -35.1875 C 28.96875 -35.039062 32.140625 -34.894531 35.046875 -34.75 L 34.6875 0 L 23.75 0 L 23.53125 -4.9375 C 21.863281 -3.40625 19.929688 -2.210938 17.734375 -1.359375 C 15.492188 -0.453125 13.300781 0 11.15625 0 C 9.53125 0 8.097656 -0.238281 6.859375 -0.71875 C 5.617188 -1.144531 4.617188 -1.738281 3.859375 -2.5 C 3.046875 -3.257812 2.453125 -4.144531 2.078125 -5.15625 C 1.648438 -6.15625 1.4375 -7.203125 1.4375 -8.296875 Z M 10.65625 -7.9375 C 10.65625 -7.082031 10.988281 -6.460938 11.65625 -6.078125 C 12.320312 -5.648438 13.203125 -5.4375 14.296875 -5.4375 C 14.867188 -5.4375 15.441406 -5.578125 16.015625 -5.859375 C 16.546875 -6.097656 17.046875 -6.382812 17.515625 -6.71875 C 17.992188 -7.050781 18.472656 -7.457031 18.953125 -7.9375 C 18.472656 -8.414062 17.992188 -8.84375 17.515625 -9.21875 C 17.046875 -9.550781 16.546875 -9.863281 16.015625 -10.15625 C 15.441406 -10.394531 14.867188 -10.515625 14.296875 -10.515625 C 13.203125 -10.515625 12.320312 -10.300781 11.65625 -9.875 C 10.988281 -9.394531 10.65625 -8.75 10.65625 -7.9375 Z M 10.65625 -7.9375 "/></g></g></g><g fill="#000000" fill-opacity="1"><g transform="translate(89.594562, 150.927552)"><g><path d="M 1.4375 -17.734375 C 1.4375 -20.023438 1.53125 -22.265625 1.71875 -24.453125 C 1.90625 -26.597656 2.523438 -28.53125 3.578125 -30.25 C 4.628906 -31.96875 6.273438 -33.398438 8.515625 -34.546875 C 10.753906 -35.640625 13.921875 -36.28125 18.015625 -36.46875 L 19.3125 -36.46875 C 22.882812 -36.46875 25.742188 -35.894531 27.890625 -34.75 C 29.984375 -33.5625 31.582031 -32.085938 32.6875 -30.328125 C 33.78125 -28.515625 34.492188 -26.535156 34.828125 -24.390625 C 35.160156 -22.191406 35.351562 -20.09375 35.40625 -18.09375 L 22.734375 -17.234375 C 22.734375 -18.085938 22.710938 -18.921875 22.671875 -19.734375 C 22.578125 -20.546875 22.410156 -21.285156 22.171875 -21.953125 C 21.878906 -22.617188 21.519531 -23.164062 21.09375 -23.59375 C 20.613281 -23.976562 19.972656 -24.171875 19.171875 -24.171875 C 18.785156 -24.171875 18.472656 -24.144531 18.234375 -24.09375 C 17.140625 -23.90625 16.304688 -23.644531 15.734375 -23.3125 C 15.109375 -22.976562 14.679688 -22.503906 14.453125 -21.890625 C 14.160156 -21.210938 13.992188 -20.375 13.953125 -19.375 C 13.898438 -18.375 13.875 -17.085938 13.875 -15.515625 C 13.875 -13.992188 13.898438 -12.660156 13.953125 -11.515625 C 13.992188 -10.367188 14.160156 -9.414062 14.453125 -8.65625 C 14.679688 -7.894531 15.109375 -7.320312 15.734375 -6.9375 C 16.304688 -6.550781 17.140625 -6.359375 18.234375 -6.359375 C 19.328125 -6.359375 20.1875 -6.523438 20.8125 -6.859375 C 21.425781 -7.191406 21.878906 -7.695312 22.171875 -8.375 C 22.453125 -9.039062 22.617188 -9.894531 22.671875 -10.9375 C 22.710938 -11.9375 22.734375 -13.109375 22.734375 -14.453125 L 35.40625 -15.65625 C 35.351562 -13.46875 35.132812 -11.347656 34.75 -9.296875 C 34.320312 -7.203125 33.515625 -5.367188 32.328125 -3.796875 C 31.085938 -2.171875 29.347656 -0.878906 27.109375 0.078125 C 24.867188 1.023438 21.863281 1.5 18.09375 1.5 C 14.375 1.5 11.414062 0.925781 9.21875 -0.21875 C 6.976562 -1.3125 5.285156 -2.789062 4.140625 -4.65625 C 3.003906 -6.457031 2.269531 -8.503906 1.9375 -10.796875 C 1.601562 -13.085938 1.4375 -15.398438 1.4375 -17.734375 Z M 1.4375 -17.734375 "/></g></g></g><g fill="#000000" fill-opacity="1"><g transform="translate(129.853446, 150.927552)"><g><path d="M 16.09375 -50.125 L 14.875 -22.03125 C 14.96875 -21.976562 15.085938 -21.953125 15.234375 -21.953125 C 15.515625 -21.859375 15.800781 -21.8125 16.09375 -21.8125 C 16.613281 -21.8125 17.207031 -21.953125 17.875 -22.234375 C 18.5 -22.472656 19.097656 -23.046875 19.671875 -23.953125 C 20.242188 -24.816406 20.71875 -26.082031 21.09375 -27.75 C 21.476562 -29.363281 21.671875 -31.554688 21.671875 -34.328125 L 39.1875 -35.75 C 39.09375 -35.320312 38.90625 -34.585938 38.625 -33.546875 C 38.289062 -32.492188 37.859375 -31.300781 37.328125 -29.96875 C 36.804688 -28.632812 36.164062 -27.25 35.40625 -25.8125 C 34.59375 -24.382812 33.640625 -23.097656 32.546875 -21.953125 C 31.441406 -20.765625 30.175781 -19.785156 28.75 -19.015625 C 27.269531 -18.253906 25.601562 -17.875 23.75 -17.875 C 25.894531 -17.875 27.753906 -17.632812 29.328125 -17.15625 C 30.898438 -16.632812 32.234375 -15.96875 33.328125 -15.15625 C 34.378906 -14.300781 35.238281 -13.347656 35.90625 -12.296875 C 36.519531 -11.203125 36.992188 -10.109375 37.328125 -9.015625 C 38.191406 -6.390625 38.429688 -3.410156 38.046875 -0.078125 L 23.75 -0.078125 L 23.59375 -9.9375 C 23.59375 -10.9375 23.5 -11.722656 23.3125 -12.296875 C 23.070312 -12.867188 22.785156 -13.300781 22.453125 -13.59375 C 22.078125 -13.875 21.671875 -14.0625 21.234375 -14.15625 C 20.765625 -14.207031 20.3125 -14.234375 19.875 -14.234375 C 18.40625 -14.234375 17.144531 -13.945312 16.09375 -13.375 C 15.039062 -12.800781 14.515625 -11.609375 14.515625 -9.796875 L 14.296875 -0.078125 L 1.21875 -0.078125 L 1 -49.28125 Z M 16.09375 -50.125 "/></g></g></g><g fill="#000000" fill-opacity="1"><g transform="translate(173.044114, 150.927552)"><g><path d="M 1.4375 -8.296875 C 1.4375 -9.722656 1.695312 -10.914062 2.21875 -11.875 C 2.738281 -12.820312 3.429688 -13.582031 4.296875 -14.15625 C 5.148438 -14.726562 6.148438 -15.132812 7.296875 -15.375 C 8.441406 -15.613281 9.65625 -15.734375 10.9375 -15.734375 C 13.226562 -15.734375 15.519531 -15.472656 17.8125 -14.953125 C 20.050781 -14.378906 21.929688 -13.78125 23.453125 -13.15625 L 23.453125 -22.390625 L 2.859375 -20.59375 L 2.859375 -35.75 C 7.242188 -35.707031 11.390625 -35.640625 15.296875 -35.546875 C 19.160156 -35.453125 22.570312 -35.332031 25.53125 -35.1875 C 28.96875 -35.039062 32.140625 -34.894531 35.046875 -34.75 L 34.6875 0 L 23.75 0 L 23.53125 -4.9375 C 21.863281 -3.40625 19.929688 -2.210938 17.734375 -1.359375 C 15.492188 -0.453125 13.300781 0 11.15625 0 C 9.53125 0 8.097656 -0.238281 6.859375 -0.71875 C 5.617188 -1.144531 4.617188 -1.738281 3.859375 -2.5 C 3.046875 -3.257812 2.453125 -4.144531 2.078125 -5.15625 C 1.648438 -6.15625 1.4375 -7.203125 1.4375 -8.296875 Z M 10.65625 -7.9375 C 10.65625 -7.082031 10.988281 -6.460938 11.65625 -6.078125 C 12.320312 -5.648438 13.203125 -5.4375 14.296875 -5.4375 C 14.867188 -5.4375 15.441406 -5.578125 16.015625 -5.859375 C 16.546875 -6.097656 17.046875 -6.382812 17.515625 -6.71875 C 17.992188 -7.050781 18.472656 -7.457031 18.953125 -7.9375 C 18.472656 -8.414062 17.992188 -8.84375 17.515625 -9.21875 C 17.046875 -9.550781 16.546875 -9.863281 16.015625 -10.15625 C 15.441406 -10.394531 14.867188 -10.515625 14.296875 -10.515625 C 13.203125 -10.515625 12.320312 -10.300781 11.65625 -9.875 C 10.988281 -9.394531 10.65625 -8.75 10.65625 -7.9375 Z M 10.65625 -7.9375 "/></g></g></g><g fill="#000000" fill-opacity="1"><g transform="translate(213.088478, 150.927552)"><g><path d="M 0.71875 -34.46875 L 7.4375 -34.609375 L 7.15625 -48.421875 L 21.171875 -50.125 L 20.453125 -35.1875 L 29.96875 -35.75 L 29.390625 -22.03125 L 20.59375 -21.953125 L 20.59375 0 L 7.015625 0 L 7.65625 -21.671875 L 1.078125 -21.234375 Z M 0.71875 -34.46875 "/></g></g></g><g fill="#000000" fill-opacity="1"><g transform="translate(247.340767, 150.927552)"><g><path d="M 15.234375 -50.0625 L 14.296875 -25.171875 C 14.734375 -26.597656 15.332031 -28.003906 16.09375 -29.390625 C 16.851562 -30.722656 17.710938 -31.941406 18.671875 -33.046875 C 19.617188 -34.140625 20.664062 -35.019531 21.8125 -35.6875 C 22.957031 -36.351562 24.148438 -36.6875 25.390625 -36.6875 C 28.816406 -36.6875 31.414062 -36.039062 33.1875 -34.75 C 34.894531 -33.414062 36.085938 -31.296875 36.765625 -28.390625 C 37.378906 -25.484375 37.640625 -21.691406 37.546875 -17.015625 C 37.398438 -12.347656 37.1875 -6.648438 36.90625 0.078125 L 22.671875 0.078125 C 22.816406 -0.929688 22.984375 -2.242188 23.171875 -3.859375 C 23.316406 -5.484375 23.457031 -7.25 23.59375 -9.15625 C 23.695312 -11.007812 23.769531 -12.914062 23.8125 -14.875 C 23.863281 -16.78125 23.84375 -18.519531 23.75 -20.09375 C 23.601562 -21.664062 23.363281 -22.953125 23.03125 -23.953125 C 22.695312 -24.910156 22.195312 -25.390625 21.53125 -25.390625 C 19.851562 -25.390625 18.375 -24.9375 17.09375 -24.03125 C 15.757812 -23.070312 14.78125 -22.019531 14.15625 -20.875 L 13.375 0 L 1.640625 0 L 1.640625 -6.796875 C 1.640625 -9.273438 1.640625 -11.847656 1.640625 -14.515625 C 1.597656 -17.179688 1.578125 -19.898438 1.578125 -22.671875 L 1.578125 -30.609375 C 1.523438 -36.660156 1.476562 -42.859375 1.4375 -49.203125 Z M 15.234375 -50.0625 "/></g></g></g><g fill="#000000" fill-opacity="1"><g transform="translate(289.816374, 150.927552)"><g><path d="M 1.4375 -17.09375 C 1.4375 -19.332031 1.53125 -21.570312 1.71875 -23.8125 C 1.90625 -26.007812 2.523438 -28.035156 3.578125 -29.890625 C 4.628906 -31.703125 6.296875 -33.207031 8.578125 -34.40625 C 10.816406 -35.59375 14.015625 -36.28125 18.171875 -36.46875 L 19.671875 -36.46875 C 23.628906 -36.46875 26.679688 -35.875 28.828125 -34.6875 C 30.960938 -33.445312 32.554688 -31.894531 33.609375 -30.03125 C 34.609375 -28.125 35.207031 -26.050781 35.40625 -23.8125 C 35.59375 -21.519531 35.6875 -19.328125 35.6875 -17.234375 C 35.6875 -14.898438 35.539062 -12.632812 35.25 -10.4375 C 34.96875 -8.195312 34.253906 -6.195312 33.109375 -4.4375 C 31.960938 -2.664062 30.222656 -1.257812 27.890625 -0.21875 C 25.554688 0.882812 22.335938 1.4375 18.234375 1.4375 C 14.472656 1.4375 11.492188 0.882812 9.296875 -0.21875 C 7.054688 -1.3125 5.363281 -2.738281 4.21875 -4.5 C 3.03125 -6.21875 2.269531 -8.195312 1.9375 -10.4375 C 1.601562 -12.632812 1.4375 -14.851562 1.4375 -17.09375 Z M 18.375 -24.59375 C 17.226562 -24.40625 16.375 -24.171875 15.8125 -23.890625 C 15.1875 -23.554688 14.753906 -23.078125 14.515625 -22.453125 C 14.234375 -21.835938 14.066406 -21.050781 14.015625 -20.09375 C 13.972656 -19.144531 13.953125 -17.90625 13.953125 -16.375 C 13.953125 -14.894531 13.972656 -13.609375 14.015625 -12.515625 C 14.066406 -11.421875 14.234375 -10.515625 14.515625 -9.796875 C 14.753906 -9.035156 15.1875 -8.488281 15.8125 -8.15625 C 16.375 -7.769531 17.226562 -7.578125 18.375 -7.578125 C 19.570312 -7.578125 20.476562 -7.769531 21.09375 -8.15625 C 21.71875 -8.488281 22.171875 -9.035156 22.453125 -9.796875 C 22.742188 -10.515625 22.910156 -11.421875 22.953125 -12.515625 C 22.953125 -13.609375 22.953125 -14.894531 22.953125 -16.375 C 22.953125 -17.707031 22.976562 -18.898438 23.03125 -19.953125 C 23.03125 -21.003906 22.957031 -21.882812 22.8125 -22.59375 C 22.664062 -23.3125 22.378906 -23.863281 21.953125 -24.25 C 21.523438 -24.625 20.882812 -24.8125 20.03125 -24.8125 C 19.59375 -24.8125 19.039062 -24.738281 18.375 -24.59375 Z M 18.375 -24.59375 "/></g></g></g><g fill="#000000" fill-opacity="1"><g transform="translate(330.504308, 150.927552)"><g><path d="M 15.234375 -35.75 L 14.734375 -25.609375 C 15.210938 -26.941406 15.832031 -28.226562 16.59375 -29.46875 C 17.3125 -30.707031 18.144531 -31.828125 19.09375 -32.828125 C 20 -33.773438 21 -34.535156 22.09375 -35.109375 C 23.144531 -35.679688 24.242188 -35.96875 25.390625 -35.96875 C 28.816406 -35.96875 31.414062 -35.375 33.1875 -34.1875 C 34.894531 -32.945312 36.085938 -30.921875 36.765625 -28.109375 C 37.378906 -25.296875 37.640625 -21.597656 37.546875 -17.015625 C 37.398438 -12.390625 37.1875 -6.71875 36.90625 0 L 22.671875 0 C 22.816406 -1 22.984375 -2.3125 23.171875 -3.9375 C 23.316406 -5.507812 23.457031 -7.203125 23.59375 -9.015625 C 23.695312 -10.828125 23.769531 -12.660156 23.8125 -14.515625 C 23.863281 -16.378906 23.84375 -18.070312 23.75 -19.59375 C 23.601562 -21.070312 23.363281 -22.289062 23.03125 -23.25 C 22.695312 -24.195312 22.195312 -24.671875 21.53125 -24.671875 C 20 -24.671875 18.613281 -24.289062 17.375 -23.53125 C 16.09375 -22.71875 15.117188 -21.765625 14.453125 -20.671875 L 13.375 0 L 1.640625 0 C 1.640625 -4.050781 1.640625 -8.148438 1.640625 -12.296875 C 1.597656 -16.398438 1.578125 -20.117188 1.578125 -23.453125 C 1.523438 -27.410156 1.476562 -31.226562 1.4375 -34.90625 Z M 15.234375 -35.75 "/></g></g></g><g fill="#000000" fill-opacity="1"><g transform="translate(100.427883, 36.545737)"><g><path d="M 4.015625 -20.3125 L 4.015625 0 L 5.234375 0 L 5.234375 -20.3125 Z M 3.8125 -26.96875 C 3.8125 -26.46875 4.1875 -26.046875 4.734375 -26.046875 C 5.234375 -26.046875 5.609375 -26.46875 5.609375 -26.96875 C 5.609375 -27.46875 5.234375 -27.890625 4.734375 -27.890625 C 4.1875 -27.890625 3.8125 -27.46875 3.8125 -26.96875 Z M 3.8125 -26.96875 "/></g></g></g><g fill="#000000" fill-opacity="1"><g transform="translate(111.818944, 36.545737)"><g><path d="M 3.640625 -20.765625 L 3.640625 0 L 4.859375 0 L 4.859375 -17.96875 L 24.921875 0.5 L 24.921875 -20.3125 L 23.703125 -20.3125 L 23.703125 -2.265625 Z M 3.640625 -20.765625 "/></g></g></g><g fill="#000000" fill-opacity="1"><g transform="translate(142.682579, 36.545737)"><g><path d="M 1 -20.3125 L 1 -19.140625 L 10.171875 -19.140625 L 10.171875 0 L 11.390625 0 L 11.390625 -19.140625 L 20.4375 -19.140625 L 20.4375 -20.3125 Z M 1 -20.3125 "/></g></g></g><g fill="#000000" fill-opacity="1"><g transform="translate(166.42721, 36.545737)"><g><path d="M 3.640625 -20.3125 L 3.640625 0 L 14.78125 0 L 14.78125 -1.171875 L 4.859375 -1.171875 L 4.859375 -9.796875 L 14.78125 -9.796875 L 14.78125 -10.96875 L 4.859375 -10.96875 L 4.859375 -19.140625 L 14.78125 -19.140625 L 14.78125 -20.3125 Z M 3.640625 -20.3125 "/></g></g></g><g fill="#000000" fill-opacity="1"><g transform="translate(187.156729, 36.545737)"><g><path d="M 3.34375 0 L 4.5625 0 L 4.5625 -9.5 C 4.609375 -13.234375 4.859375 -15.578125 6.78125 -17.421875 C 8.203125 -18.765625 10.171875 -19.5625 12.515625 -19.5625 L 12.859375 -19.5625 L 12.859375 -20.640625 C 12.515625 -20.6875 12.390625 -20.6875 12.140625 -20.6875 C 9.671875 -20.6875 7.328125 -19.6875 5.90625 -18.25 C 3.4375 -15.78125 3.34375 -13.359375 3.34375 -9.171875 Z M 3.34375 0 "/></g></g></g><g fill="#000000" fill-opacity="1"><g transform="translate(202.986692, 36.545737)"><g><path d="M 19.890625 -17.421875 C 18.296875 -19.140625 15.78125 -20.6875 12.234375 -20.6875 C 6.40625 -20.6875 1.640625 -15.953125 1.640625 -10.09375 C 1.640625 -4.234375 6.40625 0.5 12.265625 0.5 C 15.75 0.5 18.34375 -1.09375 19.890625 -2.765625 L 19.046875 -3.5625 C 17.125 -1.59375 14.859375 -0.59375 12.234375 -0.59375 C 7 -0.59375 2.890625 -4.8125 2.890625 -10.09375 C 2.890625 -15.328125 7.03125 -19.5625 12.234375 -19.5625 C 14.78125 -19.5625 17.125 -18.546875 19.09375 -16.625 Z M 19.890625 -17.421875 "/></g></g></g><g fill="#000000" fill-opacity="1"><g transform="translate(226.56381, 36.545737)"><g><path d="M 3.640625 -20.3125 L 3.640625 0 L 14.78125 0 L 14.78125 -1.171875 L 4.859375 -1.171875 L 4.859375 -9.796875 L 14.78125 -9.796875 L 14.78125 -10.96875 L 4.859375 -10.96875 L 4.859375 -19.140625 L 14.78125 -19.140625 L 14.78125 -20.3125 Z M 3.640625 -20.3125 "/></g></g></g><g fill="#000000" fill-opacity="1"><g transform="translate(247.293335, 36.545737)"><g><path d="M 3.640625 -20.765625 L 3.640625 0 L 4.859375 0 L 4.859375 -17.96875 L 24.921875 0.5 L 24.921875 -20.3125 L 23.703125 -20.3125 L 23.703125 -2.265625 Z M 3.640625 -20.765625 "/></g></g></g><g fill="#000000" fill-opacity="1"><g transform="translate(278.156975, 36.545737)"><g><path d="M 1 -20.3125 L 1 -19.140625 L 10.171875 -19.140625 L 10.171875 0 L 11.390625 0 L 11.390625 -19.140625 L 20.4375 -19.140625 L 20.4375 -20.3125 Z M 1 -20.3125 "/></g></g></g><g fill="#ffde59" fill-opacity="1"><g transform="translate(301.910118, 36.545737)"><g><path d="M 3.34375 0 L 4.5625 0 L 4.5625 -9.5 C 4.609375 -13.234375 4.859375 -15.578125 6.78125 -17.421875 C 8.203125 -18.765625 10.171875 -19.5625 12.515625 -19.5625 L 12.859375 -19.5625 L 12.859375 -20.640625 C 12.515625 -20.6875 12.390625 -20.6875 12.140625 -20.6875 C 9.671875 -20.6875 7.328125 -19.6875 5.90625 -18.25 C 3.4375 -15.78125 3.34375 -13.359375 3.34375 -9.171875 Z M 3.34375 0 "/></g></g></g><g fill="#000000" fill-opacity="1"><g transform="translate(317.746788, 36.545737)"><g><path d="M 12.265625 -20.6875 C 6.328125 -20.6875 1.640625 -16 1.640625 -10.09375 C 1.640625 -4.1875 6.28125 0.453125 12.234375 0.453125 C 18.171875 0.453125 22.90625 -4.234375 22.90625 -10.09375 C 22.90625 -16 18.171875 -20.6875 12.265625 -20.6875 Z M 12.234375 -19.5625 C 17.546875 -19.5625 21.65625 -15.40625 21.65625 -10.140625 C 21.65625 -4.734375 17.59375 -0.625 12.265625 -0.625 C 7.03125 -0.625 2.890625 -4.78125 2.890625 -10.046875 C 2.890625 -15.40625 7 -19.5625 12.234375 -19.5625 Z M 12.234375 -19.5625 "/></g></g></g><g fill="#000000" fill-opacity="1"><g transform="translate(344.590283, 36.545737)"><g><path d="M 13.734375 -15.40625 L 13.734375 -15.625 C 13.734375 -18.421875 11.34375 -20.6875 8.421875 -20.6875 C 5.40625 -20.6875 2.9375 -18.296875 2.9375 -15.40625 C 2.9375 -10.96875 6.53125 -10.21875 8.421875 -9.75 C 10.515625 -9.25 12.859375 -8.375 12.859375 -5.1875 C 12.859375 -2.640625 10.890625 -0.625 8.375 -0.625 C 5.6875 -0.625 3.890625 -2.640625 3.890625 -5.609375 L 2.640625 -5.609375 C 2.6875 -1.890625 4.90625 0.453125 8.328125 0.453125 C 11.5625 0.453125 14.109375 -2.015625 14.109375 -5.1875 C 14.109375 -9.5 10.34375 -10.59375 8.375 -11.015625 C 6.40625 -11.4375 4.109375 -12.3125 4.109375 -15.40625 C 4.109375 -17.671875 6.03125 -19.5625 8.328125 -19.5625 C 10.546875 -19.5625 12.515625 -17.71875 12.515625 -15.625 L 12.515625 -15.40625 Z M 13.734375 -15.40625 "/></g></g></g><g clip-path="url(#cba3db2a6b)"><g clip-path="url(#25aed635b3)"><path fill="#1e1e1e" d="M 311.757812 75.160156 L 300.128906 75.160156 L 300.128906 63.214844 L 311.757812 63.214844 Z M 311.757812 75.160156 " fill-opacity="1" fill-rule="nonzero"/></g></g><path stroke-linecap="butt" transform="matrix(-0.00195341, -0.748003, 0.748003, -0.00195341, 304.828328, 73.6074)" fill="none" stroke-linejoin="miter" d="M 11.252588 1.501786 L 77.099819 1.501412 " stroke="#ffde59" stroke-width="3" stroke-opacity="1" stroke-miterlimit="4"/><path stroke-linecap="round" transform="matrix(-0.00195341, -0.748003, 0.748003, -0.00195341, 304.828328, 73.6074)" fill="none" stroke-linejoin="round" d="M 1.497441 1.502422 C 1.49871 -0.983362 3.514537 -2.999104 6.00032 -2.997835 C 8.486117 -3.001788 10.50186 -0.985961 10.50059 1.499822 C 10.499321 3.985605 8.483494 6.001348 5.997711 6.000079 C 3.51715 5.998823 1.501407 3.982996 1.497441 1.502422 " stroke="#ffde59" stroke-width="3" stroke-opacity="1" stroke-miterlimit="4"/><g clip-path="url(#4687fa1052)"><g clip-path="url(#23a4b95ea8)"><path fill="#1e1e1e" d="M 99.285156 4.292969 L 110.914062 4.292969 L 110.914062 16.238281 L 99.285156 16.238281 Z M 99.285156 4.292969 " fill-opacity="1" fill-rule="nonzero"/></g></g><path stroke-linecap="butt" transform="matrix(-0.00189156, 0.748003, -0.748003, -0.00189156, 106.182157, 5.993568)" fill="none" stroke-linejoin="miter" d="M 11.25065 1.499744 L 41.79553 1.500836 " stroke="#ffde59" stroke-width="3" stroke-opacity="1" stroke-miterlimit="4"/><path stroke-linecap="round" transform="matrix(-0.00189156, 0.748003, -0.748003, -0.00189156, 106.182157, 5.993568)" fill="none" stroke-linejoin="round" d="M 1.500725 1.498289 C 1.499661 -0.987495 3.515584 -2.997932 6.001367 -2.998996 C 8.487151 -3.00006 10.497588 -0.984137 10.498652 1.501646 C 10.499716 3.987429 8.483793 5.997867 5.99801 5.998931 C 3.512227 5.999994 1.501789 3.984072 1.500725 1.498289 " stroke="#ffde59" stroke-width="3" stroke-opacity="1" stroke-miterlimit="4"/><g fill="#ededed" fill-opacity="1"><g transform="translate(131.33457, 80.075979)"><g><path d="M 3.6875 -22.40625 L 3.6875 -9.796875 C 3.6875 -9.609375 3.6875 -9.46875 3.6875 -9.28125 C 3.6875 -6.515625 4.4375 -4.53125 5.953125 -2.765625 C 7.71875 -0.6875 10.34375 0.515625 13.203125 0.515625 C 17.234375 0.515625 21.15625 -2.265625 22.21875 -5.8125 C 22.578125 -7.0625 22.765625 -8.953125 22.765625 -11.96875 L 22.765625 -22.40625 L 21.4375 -22.40625 L 21.4375 -11.03125 C 21.4375 -7.296875 20.96875 -5.59375 19.53125 -3.78125 C 17.921875 -1.75 15.703125 -0.6875 13.203125 -0.6875 C 9.75 -0.6875 6.28125 -3.28125 5.40625 -6.515625 C 5.125 -7.4375 4.984375 -9.28125 4.984375 -11.03125 L 4.984375 -22.40625 Z M 3.6875 -22.40625 "/></g></g></g><g fill="#ededed" fill-opacity="1"><g transform="translate(160.242216, 80.075979)"><g><path d="M 1.109375 -22.40625 L 1.109375 -21.109375 L 11.21875 -21.109375 L 11.21875 0 L 12.5625 0 L 12.5625 -21.109375 L 22.546875 -21.109375 L 22.546875 -22.40625 Z M 1.109375 -22.40625 "/></g></g></g><g fill="#ffde59" fill-opacity="1"><g transform="translate(186.429833, 80.075979)"><g><path d="M 3.6875 0 L 5.03125 0 L 5.03125 -10.484375 C 5.078125 -14.59375 5.359375 -17.1875 7.484375 -19.21875 C 9.046875 -20.6875 11.21875 -21.5625 13.8125 -21.5625 L 14.171875 -21.5625 L 14.171875 -22.765625 C 13.8125 -22.8125 13.671875 -22.8125 13.390625 -22.8125 C 10.671875 -22.8125 8.078125 -21.703125 6.515625 -20.140625 C 3.78125 -17.40625 3.6875 -14.734375 3.6875 -10.109375 Z M 3.6875 0 "/></g></g></g><g fill="#ededed" fill-opacity="1"><g transform="translate(203.891081, 80.075979)"><g><path d="M 4.015625 -22.40625 L 4.015625 0 L 16.296875 0 L 16.296875 -1.296875 L 5.359375 -1.296875 L 5.359375 -10.8125 L 16.296875 -10.8125 L 16.296875 -12.09375 L 5.359375 -12.09375 L 5.359375 -21.109375 L 16.296875 -21.109375 L 16.296875 -22.40625 Z M 4.015625 -22.40625 "/></g></g></g><g fill="#ededed" fill-opacity="1"><g transform="translate(226.749444, 80.075979)"><g><path d="M 3.6875 0 L 5.03125 0 L 5.03125 -10.484375 C 5.078125 -14.59375 5.359375 -17.1875 7.484375 -19.21875 C 9.046875 -20.6875 11.21875 -21.5625 13.8125 -21.5625 L 14.171875 -21.5625 L 14.171875 -22.765625 C 13.8125 -22.8125 13.671875 -22.8125 13.390625 -22.8125 C 10.671875 -22.8125 8.078125 -21.703125 6.515625 -20.140625 C 3.78125 -17.40625 3.6875 -14.734375 3.6875 -10.109375 Z M 3.6875 0 "/></g></g></g><g fill="#ededed" fill-opacity="1"><g transform="translate(244.205016, 80.075979)"><g><path d="M 23.734375 -22.40625 L 23.734375 -16.484375 C 22.125 -20.328125 17.96875 -22.8125 13.53125 -22.8125 C 7.0625 -22.8125 1.796875 -17.734375 1.796875 -11.171875 C 1.796875 -4.4375 7.0625 0.515625 13.578125 0.515625 C 17.96875 0.515625 21.5625 -1.609375 23.734375 -5.734375 L 23.734375 0 L 25.078125 0 L 25.078125 -22.40625 Z M 13.4375 -21.5625 C 19.21875 -21.5625 23.921875 -17.046875 23.921875 -11.078125 C 23.921875 -5.21875 19.3125 -0.6875 13.625 -0.6875 C 7.765625 -0.6875 3.1875 -5.21875 3.1875 -11.171875 C 3.1875 -17 7.8125 -21.5625 13.4375 -21.5625 Z M 13.4375 -21.5625 "/></g></g></g><g clip-path="url(#d527dfb794)"><g clip-path="url(#8ef985a0a5)"><path fill="#1e1e1e" d="M 196.363281 99.011719 L 184.734375 99.011719 L 184.734375 87.066406 L 196.363281 87.066406 Z M 196.363281 99.011719 " fill-opacity="1" fill-rule="nonzero"/></g></g><path stroke-linecap="butt" transform="matrix(-0.00134137, -0.748004, 0.748004, -0.00134137, 189.502339, 97.99701)" fill="none" stroke-linejoin="miter" d="M 11.252443 1.500165 L 52.591621 1.501186 " stroke="#ffde59" stroke-width="3" stroke-opacity="1" stroke-miterlimit="4"/><path stroke-linecap="round" transform="matrix(-0.00134137, -0.748004, 0.748004, -0.00134137, 189.502339, 97.99701)" fill="none" stroke-linejoin="round" d="M 1.502541 1.498348 C 1.501776 -0.987435 3.515943 -2.999605 6.001727 -3.000369 C 8.48751 -3.001134 10.499679 -0.986966 10.500444 1.498817 C 10.501208 3.9846 8.487032 6.001992 6.001258 5.997534 C 3.515475 5.998298 1.498083 3.984122 1.502541 1.498348 " stroke="#ffde59" stroke-width="3" stroke-opacity="1" stroke-miterlimit="4"/></svg>